M48
;DRILL file {KiCad (2017-08-25 revision dd37d0595)-makepkg} date 05/26/18 23:23:44
;FORMAT={-:-/ absolute / inch / decimal}
FMAT,2
INCH,TZ
T1C0.011
T2C0.015
T3C0.030
T4C0.071
T5C0.165
%
G90
G05
M72
T1
X5.9803Y-3.676
X5.8228Y-3.676
X6.4528Y-3.676
X5.5079Y-3.676
X5.3504Y-3.676
X5.1929Y-3.676
X6.2953Y-3.676
X6.9252Y-3.676
X5.6654Y-3.676
X6.1378Y-3.676
X6.7677Y-3.676
X6.6102Y-3.676
T2
X4.6731Y-3.1615
X4.6731Y-3.2008
X4.6731Y-3.2402
X4.6731Y-3.2796
X4.6731Y-3.3189
X4.6731Y-4.4305
X4.6731Y-4.4698
X4.6731Y-4.5092
X4.6731Y-4.5486
X4.6731Y-4.5879
X4.7125Y-3.1615
X4.7125Y-3.2008
X4.7125Y-3.2402
X4.7125Y-3.2796
X4.7125Y-3.3189
X4.7125Y-4.4305
X4.7125Y-4.4698
X4.7125Y-4.5092
X4.7125Y-4.5486
X4.7125Y-4.5879
X4.7519Y-3.1615
X4.7519Y-3.2008
X4.7519Y-3.2402
X4.7519Y-3.2796
X4.7519Y-3.3189
X4.7519Y-4.4305
X4.7519Y-4.4698
X4.7519Y-4.5092
X4.7519Y-4.5486
X4.7519Y-4.5879
X4.7912Y-3.1615
X4.7912Y-3.2008
X4.7912Y-3.2402
X4.7912Y-3.2796
X4.7912Y-3.3189
X4.7912Y-4.4305
X4.7912Y-4.4698
X4.7912Y-4.5092
X4.7912Y-4.5486
X4.7912Y-4.5879
X4.8306Y-3.1615
X4.8306Y-3.2008
X4.8306Y-3.2402
X4.8306Y-3.2796
X4.8306Y-3.3189
X4.8306Y-4.4305
X4.8306Y-4.4698
X4.8306Y-4.5092
X4.8306Y-4.5486
X4.8306Y-4.5879
X4.972Y-3.7762
X5.0026Y-4.0744
X5.1187Y-3.5557
X5.2481Y-3.7712
X5.2481Y-3.8105
X5.2481Y-3.8499
X5.2481Y-3.8893
X5.2481Y-3.9286
X5.2481Y-3.968
X5.2481Y-4.4135
X5.2481Y-4.4528
X5.2481Y-4.4925
X5.2481Y-4.5315
X5.2481Y-4.5715
X5.2481Y-4.6103
X5.2871Y-4.4135
X5.2871Y-4.4528
X5.2871Y-4.6103
X5.2875Y-3.7712
X5.2875Y-3.8105
X5.2875Y-3.8499
X5.2875Y-3.8893
X5.2875Y-3.9286
X5.2875Y-3.968
X5.2875Y-4.4922
X5.2875Y-4.5315
X5.2875Y-4.5709
X5.3269Y-3.7712
X5.3269Y-3.8105
X5.3269Y-3.8499
X5.3269Y-3.8893
X5.3269Y-3.9286
X5.3269Y-3.968
X5.3269Y-4.5316
X5.3271Y-4.4135
X5.3271Y-4.4528
X5.3271Y-4.4922
X5.3271Y-4.5709
X5.3271Y-4.6103
X5.3661Y-4.4135
X5.3661Y-4.4528
X5.3661Y-4.5709
X5.3661Y-4.6103
X5.3662Y-3.7712
X5.3662Y-3.8105
X5.3662Y-3.8499
X5.3662Y-3.8893
X5.3662Y-3.9286
X5.3662Y-3.968
X5.3662Y-4.4922
X5.3662Y-4.5316
X5.4051Y-4.4135
X5.4051Y-4.6103
X5.4056Y-3.7712
X5.4056Y-3.8105
X5.4056Y-3.8499
X5.4056Y-3.8893
X5.4056Y-3.9286
X5.4056Y-3.968
X5.4056Y-4.4528
X5.4056Y-4.4925
X5.4056Y-4.5315
X5.4056Y-4.5709
X5.445Y-3.7712
X5.445Y-3.8105
X5.445Y-3.8499
X5.445Y-3.8893
X5.445Y-3.9286
X5.445Y-3.968
X5.445Y-4.4135
X5.445Y-4.4525
X5.445Y-4.4925
X5.445Y-4.5315
X5.445Y-4.5705
X5.445Y-4.6103
X5.7181Y-3.7712
X5.7181Y-3.8105
X5.7181Y-3.8499
X5.7181Y-3.8893
X5.7181Y-3.9286
X5.7181Y-3.968
X5.7281Y-4.4135
X5.7281Y-4.4528
X5.7281Y-4.4925
X5.7281Y-4.5315
X5.7281Y-4.5715
X5.7281Y-4.6103
X5.7575Y-3.7712
X5.7575Y-3.8105
X5.7575Y-3.8499
X5.7575Y-3.8893
X5.7575Y-3.9286
X5.7575Y-3.968
X5.7671Y-4.6103
X5.7675Y-4.4922
X5.7675Y-4.5315
X5.7675Y-4.5709
X5.7681Y-4.4135
X5.7681Y-4.4528
X5.7969Y-3.7712
X5.7969Y-3.8105
X5.7969Y-3.8499
X5.7969Y-3.8893
X5.7969Y-3.9286
X5.7969Y-3.968
X5.8069Y-4.5316
X5.8071Y-4.4135
X5.8071Y-4.4528
X5.8071Y-4.4922
X5.8071Y-4.5709
X5.8071Y-4.6103
X5.8362Y-3.7712
X5.8362Y-3.8105
X5.8362Y-3.8499
X5.8362Y-3.8893
X5.8362Y-3.9286
X5.8362Y-3.968
X5.8461Y-4.4135
X5.8461Y-4.4528
X5.8461Y-4.5709
X5.8461Y-4.6103
X5.8462Y-4.4922
X5.8462Y-4.5316
X5.8756Y-3.7712
X5.8756Y-3.8105
X5.8756Y-3.8499
X5.8756Y-3.8893
X5.8756Y-3.9286
X5.8756Y-3.968
X5.8851Y-4.4135
X5.8851Y-4.6103
X5.8856Y-4.4528
X5.8856Y-4.4925
X5.8856Y-4.5315
X5.8856Y-4.5709
X5.915Y-3.7712
X5.915Y-3.8105
X5.915Y-3.8499
X5.915Y-3.8893
X5.915Y-3.9286
X5.915Y-3.968
X5.925Y-4.4135
X5.925Y-4.4525
X5.925Y-4.4925
X5.925Y-4.5315
X5.925Y-4.5715
X5.925Y-4.6103
X6.1881Y-3.7712
X6.1881Y-3.8105
X6.1881Y-3.8499
X6.1881Y-3.8893
X6.1881Y-3.9286
X6.1881Y-3.968
X6.1931Y-4.4135
X6.1931Y-4.4528
X6.1931Y-4.4925
X6.1931Y-4.5315
X6.1931Y-4.5715
X6.1931Y-4.6103
X6.2275Y-3.7712
X6.2275Y-3.8105
X6.2275Y-3.8499
X6.2275Y-3.8893
X6.2275Y-3.9286
X6.2275Y-3.968
X6.2321Y-4.4135
X6.2321Y-4.4528
X6.2321Y-4.6103
X6.2325Y-4.4922
X6.2325Y-4.5315
X6.2325Y-4.5709
X6.2669Y-3.7712
X6.2669Y-3.8105
X6.2669Y-3.8499
X6.2669Y-3.8893
X6.2669Y-3.9286
X6.2669Y-3.968
X6.2719Y-4.5316
X6.2721Y-4.4135
X6.2721Y-4.4528
X6.2721Y-4.4922
X6.2721Y-4.5709
X6.2721Y-4.6103
X6.3062Y-3.7712
X6.3062Y-3.8105
X6.3062Y-3.8499
X6.3062Y-3.8893
X6.3062Y-3.9286
X6.3062Y-3.968
X6.3111Y-4.4135
X6.3111Y-4.4528
X6.3111Y-4.5709
X6.3111Y-4.6103
X6.3112Y-4.4922
X6.3112Y-4.5316
X6.3456Y-3.7712
X6.3456Y-3.8105
X6.3456Y-3.8499
X6.3456Y-3.8893
X6.3456Y-3.9286
X6.3456Y-3.968
X6.3506Y-4.4528
X6.3506Y-4.4925
X6.3506Y-4.5315
X6.3506Y-4.5709
X6.3506Y-4.4135
X6.3511Y-4.6103
X6.385Y-3.7712
X6.385Y-3.8105
X6.385Y-3.8499
X6.385Y-3.8893
X6.385Y-3.9286
X6.385Y-3.968
X6.39Y-4.4135
X6.39Y-4.4525
X6.39Y-4.4925
X6.39Y-4.5315
X6.39Y-4.5705
X6.39Y-4.6103
X6.7991Y-3.1605
X6.7991Y-3.1998
X6.7991Y-3.2392
X6.7991Y-3.2786
X6.7991Y-3.3179
X6.7991Y-4.4295
X6.7991Y-4.4688
X6.7991Y-4.5082
X6.7991Y-4.5476
X6.7991Y-4.5869
X6.8385Y-3.1605
X6.8385Y-3.1998
X6.8385Y-3.2392
X6.8385Y-3.2786
X6.8385Y-3.3179
X6.8385Y-4.4295
X6.8385Y-4.4688
X6.8385Y-4.5082
X6.8385Y-4.5476
X6.8385Y-4.5869
X6.8779Y-3.1605
X6.8779Y-3.1998
X6.8779Y-3.2392
X6.8779Y-3.2786
X6.8779Y-3.3179
X6.8779Y-4.4295
X6.8779Y-4.4688
X6.8779Y-4.5082
X6.8779Y-4.5476
X6.8779Y-4.5869
X6.9172Y-3.1605
X6.9172Y-3.1998
X6.9172Y-3.2392
X6.9172Y-3.2786
X6.9172Y-3.3179
X6.9172Y-4.4295
X6.9172Y-4.4688
X6.9172Y-4.5082
X6.9172Y-4.5476
X6.9172Y-4.5869
X6.9566Y-3.1605
X6.9566Y-3.1998
X6.9566Y-3.2392
X6.9566Y-3.2786
X6.9566Y-3.3179
X6.9566Y-4.4295
X6.9566Y-4.4688
X6.9566Y-4.5082
X6.9566Y-4.5476
X6.9566Y-4.5869
T3
X4.689Y-3.6571
X4.689Y-3.7358
X4.689Y-3.8146
X4.689Y-3.8933
T4
X5.0593Y-3.1094
X5.0593Y-3.2094
X5.0593Y-3.3094
X5.0593Y-3.4094
X5.1593Y-3.1094
X5.1593Y-3.4094
X5.2593Y-3.1094
X5.2593Y-3.4094
X5.3593Y-3.1094
X5.3593Y-3.2094
X5.3593Y-3.3094
X5.3593Y-3.4094
X6.2404Y-3.1094
X6.2404Y-3.2094
X6.2404Y-3.3094
X6.2404Y-3.4094
X6.3404Y-3.1094
X6.3404Y-3.4094
X6.4404Y-3.1094
X6.4404Y-3.4094
X6.5404Y-3.1094
X6.5404Y-3.2094
X6.5404Y-3.3094
X6.5404Y-3.4094
T5
X5.2093Y-3.2594
X6.3904Y-3.2594
T0
M30
