G04 #@! TF.GenerationSoftware,KiCad,Pcbnew,(2017-08-25 revision dd37d0595)-makepkg*
G04 #@! TF.CreationDate,2018-04-21T13:49:17-04:00*
G04 #@! TF.ProjectId,Anti-Spark-Switch,416E74692D537061726B2D5377697463,rev?*
G04 #@! TF.SameCoordinates,Original*
G04 #@! TF.FileFunction,Copper,L1,Top,Signal*
G04 #@! TF.FilePolarity,Positive*
%FSLAX46Y46*%
G04 Gerber Fmt 4.6, Leading zero omitted, Abs format (unit mm)*
G04 Created by KiCad (PCBNEW (2017-08-25 revision dd37d0595)-makepkg) date 04/21/18 13:49:17*
%MOMM*%
%LPD*%
G01*
G04 APERTURE LIST*
%ADD10R,0.800000X0.750000*%
%ADD11R,0.500000X0.900000*%
%ADD12C,2.300000*%
%ADD13C,4.500000*%
%ADD14O,3.014980X1.506220*%
%ADD15R,0.910000X1.220000*%
%ADD16R,10.800080X8.150860*%
%ADD17R,0.899160X3.200400*%
%ADD18R,8.000000X7.000000*%
%ADD19R,1.700000X0.900000*%
%ADD20C,0.635000*%
%ADD21C,0.250000*%
%ADD22C,0.500000*%
%ADD23C,8.000000*%
%ADD24C,0.800000*%
%ADD25C,0.254000*%
G04 APERTURE END LIST*
D10*
X188134000Y-70687000D03*
X189634000Y-70687000D03*
D11*
X192375000Y-70675000D03*
X190875000Y-70675000D03*
X188134000Y-67131000D03*
X189634000Y-67131000D03*
X189634000Y-68909000D03*
X188134000Y-68909000D03*
D12*
X225355000Y-57810000D03*
X227895000Y-57810000D03*
X230435000Y-57810000D03*
X230435000Y-55270000D03*
X230435000Y-52730000D03*
X230435000Y-50190000D03*
X222815000Y-57810000D03*
X222815000Y-55270000D03*
X222815000Y-52730000D03*
X222815000Y-50190000D03*
X225355000Y-50190000D03*
X227895000Y-50190000D03*
D13*
X226625000Y-54000000D03*
D12*
X195355000Y-57810000D03*
X197895000Y-57810000D03*
X200435000Y-57810000D03*
X200435000Y-55270000D03*
X200435000Y-52730000D03*
X200435000Y-50190000D03*
X192815000Y-57810000D03*
X192815000Y-55270000D03*
X192815000Y-52730000D03*
X192815000Y-50190000D03*
X195355000Y-50190000D03*
X197895000Y-50190000D03*
D13*
X196625000Y-54000000D03*
D14*
X183413400Y-65227200D03*
X183413400Y-62687200D03*
X183362600Y-73380600D03*
X183362600Y-70840600D03*
X183362600Y-68300600D03*
D15*
X188115000Y-73425000D03*
X191385000Y-73425000D03*
D16*
X200152000Y-69537580D03*
D17*
X196342000Y-80139540D03*
X197612000Y-80139540D03*
X198882000Y-80139540D03*
X201422000Y-80139540D03*
X202692000Y-80139540D03*
X203962000Y-80139540D03*
D16*
X212090000Y-69537580D03*
D17*
X208280000Y-80139540D03*
X209550000Y-80139540D03*
X210820000Y-80139540D03*
X213360000Y-80139540D03*
X214630000Y-80139540D03*
X215900000Y-80139540D03*
D16*
X224028000Y-69537580D03*
D17*
X220218000Y-80139540D03*
X221488000Y-80139540D03*
X222758000Y-80139540D03*
X225298000Y-80139540D03*
X226568000Y-80139540D03*
X227838000Y-80139540D03*
D18*
X238610000Y-85725000D03*
X238500000Y-53500000D03*
X185000000Y-85725000D03*
X185500000Y-53500000D03*
D19*
X191100000Y-62325000D03*
X191100000Y-65225000D03*
X188775000Y-65225000D03*
X188775000Y-62325000D03*
D20*
X187007000Y-55511200D03*
X186007000Y-55511200D03*
X185007000Y-55511200D03*
X184007000Y-55511200D03*
X183007000Y-55511200D03*
X187007000Y-54511200D03*
X186007000Y-54511200D03*
X185007000Y-54511200D03*
X184007000Y-54511200D03*
X183007000Y-54511200D03*
X187007000Y-53511200D03*
X186007000Y-53511200D03*
X185007000Y-53511200D03*
X184007000Y-53511200D03*
X183007000Y-53511200D03*
X187007000Y-52511200D03*
X186007000Y-52511200D03*
X185007000Y-52511200D03*
X184007000Y-52511200D03*
X183007000Y-52511200D03*
X187007000Y-51511200D03*
X186007000Y-51511200D03*
X185007000Y-51511200D03*
X184007000Y-51511200D03*
X183007000Y-51511200D03*
X191375000Y-74700000D03*
X190600000Y-67125000D03*
X187007000Y-87743800D03*
X186007000Y-87743800D03*
X185007000Y-87743800D03*
X184007000Y-87743800D03*
X183007000Y-87743800D03*
X187007000Y-86743800D03*
X186007000Y-86743800D03*
X185007000Y-86743800D03*
X184007000Y-86743800D03*
X183007000Y-86743800D03*
X187007000Y-85743800D03*
X186007000Y-85743800D03*
X185007000Y-85743800D03*
X184007000Y-85743800D03*
X183007000Y-85743800D03*
X187007000Y-84743800D03*
X186007000Y-84743800D03*
X185007000Y-84743800D03*
X184007000Y-84743800D03*
X183007000Y-84743800D03*
X187007000Y-83743800D03*
X186007000Y-83743800D03*
X185007000Y-83743800D03*
X184007000Y-83743800D03*
X183007000Y-83743800D03*
X198602600Y-88312000D03*
X199618600Y-88312000D03*
X200609200Y-88312000D03*
X201599800Y-88312000D03*
X197612000Y-87325200D03*
X199618600Y-87312000D03*
X200609200Y-87312000D03*
X202612000Y-87299800D03*
X197612000Y-86309200D03*
X198612000Y-86309200D03*
X202612000Y-86309200D03*
X201612000Y-86309200D03*
X197612000Y-85318600D03*
X199618600Y-85312000D03*
X202612000Y-85318600D03*
X201612000Y-85318600D03*
X202612000Y-84302600D03*
X200609200Y-84312000D03*
X199618600Y-84312000D03*
X198602600Y-84312000D03*
X201599800Y-83312000D03*
X200609200Y-83312000D03*
X199618600Y-83312000D03*
X198602600Y-83312000D03*
X214804000Y-87325200D03*
X214804000Y-86309200D03*
X214804000Y-85318600D03*
X213791800Y-88312000D03*
X213804000Y-86309200D03*
X213804000Y-85318600D03*
X209804000Y-87325200D03*
X209804000Y-86309200D03*
X209804000Y-85318600D03*
X212801200Y-88312000D03*
X212801200Y-87312000D03*
X211810600Y-88312000D03*
X211810600Y-87312000D03*
X211804000Y-86312000D03*
X211810600Y-85312000D03*
X210794600Y-88312000D03*
X210804000Y-86309200D03*
X210820000Y-84312000D03*
X211810600Y-84312000D03*
X212801200Y-84312000D03*
X214804000Y-84302600D03*
X210820000Y-83312000D03*
X211810600Y-83312000D03*
X212801200Y-83312000D03*
X213791800Y-83312000D03*
X221615000Y-87325200D03*
X221615000Y-86309200D03*
X221615000Y-85318600D03*
X222605600Y-84312000D03*
X223621600Y-84312000D03*
X224612200Y-84312000D03*
X222615000Y-86309200D03*
X222605600Y-88312000D03*
X223621600Y-88312000D03*
X224612200Y-88312000D03*
X225628200Y-88312000D03*
X223621600Y-85312000D03*
X223621600Y-87312000D03*
X224612200Y-87312000D03*
X225615000Y-86309200D03*
X225615000Y-85318600D03*
X226615000Y-87299800D03*
X226615000Y-86309200D03*
X226615000Y-85318600D03*
X226615000Y-84302600D03*
X225615500Y-83312000D03*
X224612200Y-83312000D03*
X223621600Y-83312000D03*
X222605600Y-83312000D03*
X197612000Y-83312000D03*
X197612000Y-84312000D03*
X198612000Y-87312000D03*
X197612000Y-88312000D03*
X199612000Y-86312000D03*
X198612000Y-85312000D03*
X200612000Y-85312000D03*
X202612000Y-88312000D03*
X201612000Y-87312000D03*
X200612000Y-86312000D03*
X202612000Y-83312000D03*
X201612000Y-84312000D03*
X209804000Y-83312000D03*
X209804000Y-84312000D03*
X210804000Y-87312000D03*
X209804000Y-88312000D03*
X210804000Y-85312000D03*
X212804000Y-85312000D03*
X214804000Y-88312000D03*
X213804000Y-87312000D03*
X212804000Y-86312000D03*
X214804000Y-83312000D03*
X213804000Y-84312000D03*
X226615000Y-88312000D03*
X221615000Y-88312000D03*
X225615000Y-87312000D03*
X222615000Y-87312000D03*
X224615000Y-86312000D03*
X223615000Y-86312000D03*
X224615000Y-85312000D03*
X222615000Y-85312000D03*
X225615000Y-84312000D03*
X221615000Y-84312000D03*
X226615000Y-83312000D03*
X221615000Y-83312000D03*
X241007400Y-55485800D03*
X240007400Y-55485800D03*
X239007400Y-55485800D03*
X238007400Y-55485800D03*
X237007400Y-55485800D03*
X241007400Y-54485800D03*
X240007400Y-54485800D03*
X239007400Y-54485800D03*
X238007400Y-54485800D03*
X237007400Y-54485800D03*
X241007400Y-53485800D03*
X240007400Y-53485800D03*
X239007400Y-53485800D03*
X238007400Y-53485800D03*
X237007400Y-53485800D03*
X241007400Y-52485800D03*
X240007400Y-52485800D03*
X239007400Y-52485800D03*
X238007400Y-52485800D03*
X237007400Y-52485800D03*
X241007400Y-51485800D03*
X240007400Y-51485800D03*
X239007400Y-51485800D03*
X238007400Y-51485800D03*
X237007400Y-51485800D03*
X194325000Y-61525000D03*
X241007400Y-87718400D03*
X240007400Y-87718400D03*
X239007400Y-87718400D03*
X238007400Y-87718400D03*
X237007400Y-87718400D03*
X241007400Y-86718400D03*
X240007400Y-86718400D03*
X239007400Y-86718400D03*
X238007400Y-86718400D03*
X237007400Y-86718400D03*
X241007400Y-85718400D03*
X240007400Y-85718400D03*
X239007400Y-85718400D03*
X238007400Y-85718400D03*
X237007400Y-85718400D03*
X241007400Y-84718400D03*
X240007400Y-84718400D03*
X239007400Y-84718400D03*
X238007400Y-84718400D03*
X237007400Y-84718400D03*
X241007400Y-83718400D03*
X240007400Y-83718400D03*
X239007400Y-83718400D03*
X238007400Y-83718400D03*
X237007400Y-83718400D03*
X197612000Y-69997580D03*
X198612000Y-69997580D03*
X197612000Y-70997580D03*
X197612000Y-71997580D03*
X198612000Y-70997580D03*
X199612000Y-70997580D03*
X198612000Y-71997580D03*
X199612000Y-71997580D03*
X199612000Y-68997580D03*
X200612000Y-69997580D03*
X200612000Y-68997580D03*
X201612000Y-68997580D03*
X199612000Y-69997580D03*
X201612000Y-69997580D03*
X200612000Y-66997580D03*
X202612000Y-67997580D03*
X201612000Y-66997580D03*
X202612000Y-66997580D03*
X200612000Y-67997580D03*
X201612000Y-67997580D03*
X202612000Y-68997580D03*
X202612000Y-69997580D03*
X200612000Y-70997580D03*
X201612000Y-71997580D03*
X202612000Y-70997580D03*
X200612000Y-71997580D03*
X202612000Y-71997580D03*
X201612000Y-70997580D03*
X197612000Y-66997580D03*
X198612000Y-68997580D03*
X198612000Y-66997580D03*
X199612000Y-66997580D03*
X197612000Y-67997580D03*
X198612000Y-67997580D03*
X199612000Y-67997580D03*
X197612000Y-68997580D03*
X214550000Y-71997580D03*
X213550000Y-71997580D03*
X212550000Y-71997580D03*
X211550000Y-71997580D03*
X210550000Y-71997580D03*
X209550000Y-71997580D03*
X214550000Y-70997580D03*
X213550000Y-70997580D03*
X212550000Y-70997580D03*
X211550000Y-70997580D03*
X210550000Y-70997580D03*
X209550000Y-70997580D03*
X214550000Y-69997580D03*
X213550000Y-69997580D03*
X212550000Y-69997580D03*
X211550000Y-69997580D03*
X210550000Y-69997580D03*
X209550000Y-69997580D03*
X214550000Y-68997580D03*
X213550000Y-68997580D03*
X212550000Y-68997580D03*
X211550000Y-68997580D03*
X210550000Y-68997580D03*
X209550000Y-68997580D03*
X214550000Y-67997580D03*
X213550000Y-67997580D03*
X212550000Y-67997580D03*
X211550000Y-67997580D03*
X210550000Y-67997580D03*
X209550000Y-67997580D03*
X214550000Y-66997580D03*
X213550000Y-66997580D03*
X212550000Y-66997580D03*
X211550000Y-66997580D03*
X210550000Y-66997580D03*
X209550000Y-66997580D03*
X226488000Y-71997580D03*
X225488000Y-71997580D03*
X224488000Y-71997580D03*
X223488000Y-71997580D03*
X222488000Y-71997580D03*
X221488000Y-71997580D03*
X226488000Y-70997580D03*
X225488000Y-70997580D03*
X224488000Y-70997580D03*
X223488000Y-70997580D03*
X222488000Y-70997580D03*
X221488000Y-70997580D03*
X226488000Y-69997580D03*
X225488000Y-69997580D03*
X224488000Y-69997580D03*
X223488000Y-69997580D03*
X222488000Y-69997580D03*
X221488000Y-69997580D03*
X226488000Y-68997580D03*
X225488000Y-68997580D03*
X224488000Y-68997580D03*
X223488000Y-68997580D03*
X222488000Y-68997580D03*
X221488000Y-68997580D03*
X226488000Y-67997580D03*
X225488000Y-67997580D03*
X224488000Y-67997580D03*
X223488000Y-67997580D03*
X222488000Y-67997580D03*
X221488000Y-67997580D03*
X226488000Y-66997580D03*
X225488000Y-66997580D03*
X224488000Y-66997580D03*
X223488000Y-66997580D03*
X222488000Y-66997580D03*
X221488000Y-66997580D03*
D21*
X186007000Y-55511200D02*
X187007000Y-55511200D01*
X185007000Y-55511200D02*
X186007000Y-55511200D01*
X184007000Y-55511200D02*
X185007000Y-55511200D01*
X184007000Y-55511200D02*
X183007000Y-55511200D01*
X183007000Y-54511200D02*
X183007000Y-55511200D01*
X184007000Y-54511200D02*
X183007000Y-54511200D01*
X185007000Y-54511200D02*
X184007000Y-54511200D01*
X186007000Y-54511200D02*
X185007000Y-54511200D01*
X187007000Y-54511200D02*
X186007000Y-54511200D01*
X187007000Y-53511200D02*
X187007000Y-54511200D01*
X186007000Y-53511200D02*
X187007000Y-53511200D01*
X185007000Y-53511200D02*
X186007000Y-53511200D01*
X184007000Y-53511200D02*
X185007000Y-53511200D01*
X183007000Y-53511200D02*
X184007000Y-53511200D01*
X183007000Y-52511200D02*
X183007000Y-53511200D01*
X184007000Y-52511200D02*
X183007000Y-52511200D01*
X185007000Y-52511200D02*
X184007000Y-52511200D01*
X186007000Y-52511200D02*
X185007000Y-52511200D01*
X187007000Y-52511200D02*
X186007000Y-52511200D01*
X187007000Y-51511200D02*
X187007000Y-52511200D01*
X186007000Y-51511200D02*
X187007000Y-51511200D01*
X185007000Y-51511200D02*
X186007000Y-51511200D01*
X185007000Y-51511200D02*
X184007000Y-51511200D01*
X183007000Y-51511200D02*
X184007000Y-51511200D01*
X184007000Y-52511200D02*
X183007000Y-51511200D01*
X185007000Y-53511200D02*
X184007000Y-52511200D01*
D22*
X191385000Y-73425000D02*
X191385000Y-74690000D01*
X191385000Y-74690000D02*
X191375000Y-74700000D01*
X189634000Y-67131000D02*
X190594000Y-67131000D01*
X190594000Y-67131000D02*
X190600000Y-67125000D01*
D21*
X186007000Y-85743800D02*
X187007000Y-85743800D01*
X185007000Y-85743800D02*
X186007000Y-85743800D01*
X185007000Y-85743800D02*
X184007000Y-85743800D01*
X183007000Y-85743800D02*
X184007000Y-85743800D01*
X183007000Y-84743800D02*
X183007000Y-85743800D01*
X184007000Y-84743800D02*
X183007000Y-84743800D01*
X185007000Y-84743800D02*
X184007000Y-84743800D01*
X186007000Y-84743800D02*
X185007000Y-84743800D01*
X187007000Y-84743800D02*
X186007000Y-84743800D01*
X187007000Y-83743800D02*
X187007000Y-84743800D01*
X186007000Y-83743800D02*
X187007000Y-83743800D01*
X185007000Y-83743800D02*
X186007000Y-83743800D01*
X184007000Y-83743800D02*
X185007000Y-83743800D01*
X184007000Y-83743800D02*
X184007000Y-84743800D01*
X184007000Y-84743800D02*
X185007000Y-85743800D01*
X183007000Y-83743800D02*
X184007000Y-83743800D01*
X184007000Y-87743800D02*
X183007000Y-87743800D01*
X185007000Y-87743800D02*
X184007000Y-87743800D01*
X186007000Y-87743800D02*
X185007000Y-87743800D01*
X187007000Y-87743800D02*
X186007000Y-87743800D01*
X187007000Y-86743800D02*
X187007000Y-87743800D01*
X187007000Y-86743800D02*
X186018800Y-86743800D01*
X186018800Y-86743800D02*
X185000000Y-85725000D01*
X186007000Y-86743800D02*
X187007000Y-86743800D01*
X185007000Y-86743800D02*
X186007000Y-86743800D01*
X184007000Y-86743800D02*
X185007000Y-86743800D01*
X183007000Y-86743800D02*
X184007000Y-86743800D01*
X183007000Y-85743800D02*
X183007000Y-86743800D01*
X185007000Y-85743800D02*
X185007000Y-85732000D01*
X185007000Y-85732000D02*
X185000000Y-85725000D01*
X183007000Y-83743800D02*
X185007000Y-85743800D01*
X225628200Y-88312000D02*
X224612200Y-88312000D01*
X226615000Y-88312000D02*
X225628200Y-88312000D01*
X224615000Y-85312000D02*
X223621600Y-85312000D01*
X224612200Y-87312000D02*
X223621600Y-87312000D01*
X225615000Y-87312000D02*
X224612200Y-87312000D01*
X225615000Y-85318600D02*
X225615000Y-86309200D01*
X225615000Y-84312000D02*
X225615000Y-85318600D01*
X226615000Y-86309200D02*
X226615000Y-87299800D01*
X226615000Y-85318600D02*
X226615000Y-86309200D01*
X226615000Y-84302600D02*
X226615000Y-85318600D01*
X226615000Y-83312000D02*
X226615000Y-84302600D01*
X224663000Y-83312000D02*
X225615500Y-83312000D01*
X221615000Y-83312000D02*
X222631000Y-83312000D01*
X209804000Y-83312000D02*
X209804000Y-80393540D01*
X209804000Y-80393540D02*
X209550000Y-80139540D01*
X197612000Y-83312000D02*
X197612000Y-80139540D01*
X197485000Y-83185000D02*
X197612000Y-83312000D01*
X209677000Y-83185000D02*
X209804000Y-83312000D01*
X221488000Y-80139540D02*
X221488000Y-83185000D01*
X221488000Y-83185000D02*
X221615000Y-83312000D01*
D22*
X188115000Y-73425000D02*
X188115000Y-74535000D01*
X188115000Y-74535000D02*
X190237200Y-76657200D01*
X190237200Y-76657200D02*
X195046600Y-76657200D01*
X188134000Y-70687000D02*
X188134000Y-73406000D01*
X188134000Y-73406000D02*
X188115000Y-73425000D01*
X188134000Y-70687000D02*
X183516200Y-70687000D01*
X183516200Y-70687000D02*
X183362600Y-70840600D01*
X188134000Y-68909000D02*
X188134000Y-70687000D01*
X188134000Y-67131000D02*
X188134000Y-68909000D01*
X219252800Y-76657200D02*
X208280000Y-76657200D01*
X208280000Y-76657200D02*
X196392800Y-76657200D01*
X208280000Y-80139540D02*
X208280000Y-78289340D01*
X208280000Y-78289340D02*
X208280000Y-76657200D01*
X196392800Y-76657200D02*
X195046600Y-76657200D01*
X196342000Y-80139540D02*
X196342000Y-76708000D01*
D21*
X196342000Y-76708000D02*
X196392800Y-76657200D01*
D22*
X220218000Y-77622400D02*
X219252800Y-76657200D01*
X220218000Y-80139540D02*
X220218000Y-77622400D01*
X189634000Y-70687000D02*
X190863000Y-70687000D01*
X190863000Y-70687000D02*
X190875000Y-70675000D01*
X192975000Y-62325000D02*
X192975000Y-67335000D01*
X192975000Y-67335000D02*
X191401000Y-68909000D01*
X191401000Y-68909000D02*
X189634000Y-68909000D01*
X192975000Y-62325000D02*
X191100000Y-62325000D01*
X221300000Y-62325000D02*
X192975000Y-62325000D01*
X191100000Y-62325000D02*
X188775000Y-62325000D01*
X223200000Y-60425000D02*
X221300000Y-62325000D01*
X223200000Y-59446345D02*
X223200000Y-60425000D01*
X223190000Y-57810000D02*
X223190000Y-59436345D01*
X223190000Y-59436345D02*
X223200000Y-59446345D01*
D21*
X238007400Y-55485800D02*
X237007400Y-55485800D01*
X239007400Y-55485800D02*
X238007400Y-55485800D01*
X240007400Y-55485800D02*
X239007400Y-55485800D01*
X241007400Y-55485800D02*
X240007400Y-55485800D01*
X241007400Y-54485800D02*
X241007400Y-55485800D01*
X240007400Y-54485800D02*
X241007400Y-54485800D01*
X239007400Y-54485800D02*
X240007400Y-54485800D01*
X238007400Y-54485800D02*
X239007400Y-54485800D01*
X237007400Y-54485800D02*
X238007400Y-54485800D01*
X237007400Y-53485800D02*
X237007400Y-54485800D01*
X238007400Y-53485800D02*
X237007400Y-53485800D01*
X239007400Y-53485800D02*
X238007400Y-53485800D01*
X240007400Y-53485800D02*
X239007400Y-53485800D01*
X241007400Y-53485800D02*
X240007400Y-53485800D01*
X241007400Y-52485800D02*
X241007400Y-53485800D01*
X240007400Y-52485800D02*
X241007400Y-52485800D01*
X239007400Y-52485800D02*
X240007400Y-52485800D01*
X238007400Y-52485800D02*
X239007400Y-52485800D01*
X238007400Y-52485800D02*
X237007400Y-52485800D01*
X237007400Y-51485800D02*
X237007400Y-52485800D01*
X238007400Y-51485800D02*
X237007400Y-51485800D01*
X239007400Y-51485800D02*
X238007400Y-51485800D01*
X240007400Y-51485800D02*
X239007400Y-51485800D01*
X241007400Y-51485800D02*
X240007400Y-51485800D01*
X241007400Y-51485800D02*
X239007400Y-53485800D01*
D22*
X192375000Y-70675000D02*
X199014580Y-70675000D01*
X199014580Y-70675000D02*
X200152000Y-69537580D01*
X184247490Y-60600000D02*
X193400000Y-60600000D01*
X193400000Y-60600000D02*
X194325000Y-61525000D01*
X183413400Y-62687200D02*
X183413400Y-61434090D01*
X183413400Y-61434090D02*
X184247490Y-60600000D01*
D21*
X241007400Y-86718400D02*
X241007400Y-87718400D01*
X240007400Y-86718400D02*
X241007400Y-86718400D01*
X240007400Y-87718400D02*
X240007400Y-86718400D01*
X239007400Y-87718400D02*
X240007400Y-87718400D01*
X239007400Y-86718400D02*
X239007400Y-87718400D01*
X238007400Y-86718400D02*
X239007400Y-86718400D01*
X238007400Y-87718400D02*
X238007400Y-86718400D01*
X237007400Y-87718400D02*
X238007400Y-87718400D01*
X237007400Y-86718400D02*
X237007400Y-87718400D01*
X237007400Y-85718400D02*
X237007400Y-86718400D01*
X238007400Y-85718400D02*
X237007400Y-85718400D01*
X239007400Y-85718400D02*
X238007400Y-85718400D01*
X240007400Y-85718400D02*
X239007400Y-85718400D01*
X241007400Y-85718400D02*
X240007400Y-85718400D01*
X241007400Y-84718400D02*
X241007400Y-85718400D01*
X240007400Y-84718400D02*
X241007400Y-84718400D01*
X239007400Y-84718400D02*
X240007400Y-84718400D01*
X238007400Y-84718400D02*
X239007400Y-84718400D01*
X238007400Y-84718400D02*
X237007400Y-84718400D01*
X237007400Y-83718400D02*
X237007400Y-84718400D01*
X238007400Y-83718400D02*
X237007400Y-83718400D01*
X239007400Y-83718400D02*
X238007400Y-83718400D01*
X240007400Y-83718400D02*
X239007400Y-83718400D01*
X240007400Y-83718400D02*
X240007400Y-84718400D01*
X240007400Y-84718400D02*
X239007400Y-85718400D01*
X241007400Y-83718400D02*
X240007400Y-83718400D01*
X226488000Y-67997580D02*
X226488000Y-66997580D01*
X226488000Y-68997580D02*
X226488000Y-67997580D01*
X226488000Y-69997580D02*
X226488000Y-68997580D01*
X226488000Y-70997580D02*
X226488000Y-69997580D01*
X226488000Y-71997580D02*
X226488000Y-70997580D01*
X225488000Y-71997580D02*
X226488000Y-71997580D01*
X225488000Y-70997580D02*
X225488000Y-71997580D01*
X225488000Y-69997580D02*
X225488000Y-70997580D01*
X225488000Y-69997580D02*
X225488000Y-68997580D01*
X225488000Y-68997580D02*
X223488000Y-68997580D01*
X223488000Y-68997580D02*
X221488000Y-66997580D01*
X225488000Y-67997580D02*
X225488000Y-68997580D01*
X225488000Y-66997580D02*
X225488000Y-67997580D01*
X224488000Y-66997580D02*
X225488000Y-66997580D01*
X224488000Y-67997580D02*
X224488000Y-66997580D01*
X224488000Y-68997580D02*
X224488000Y-67997580D01*
X224488000Y-69997580D02*
X224488000Y-68997580D01*
X224488000Y-70997580D02*
X224488000Y-69997580D01*
X224488000Y-71997580D02*
X224488000Y-70997580D01*
X223488000Y-71997580D02*
X224488000Y-71997580D01*
X223488000Y-70997580D02*
X223488000Y-71997580D01*
X223488000Y-69997580D02*
X223488000Y-70997580D01*
X223488000Y-68997580D02*
X223488000Y-69997580D01*
X223488000Y-67997580D02*
X223488000Y-68997580D01*
X223488000Y-66997580D02*
X223488000Y-67997580D01*
X222488000Y-66997580D02*
X223488000Y-66997580D01*
X224028000Y-69537580D02*
X212090000Y-69537580D01*
X222488000Y-67997580D02*
X222488000Y-66997580D01*
X222488000Y-68997580D02*
X222488000Y-67997580D01*
X222488000Y-69997580D02*
X222488000Y-68997580D01*
X222488000Y-70997580D02*
X222488000Y-69997580D01*
X222488000Y-71997580D02*
X222488000Y-70997580D01*
X221488000Y-71997580D02*
X222488000Y-71997580D01*
X221488000Y-70997580D02*
X221488000Y-71997580D01*
X221488000Y-69997580D02*
X221488000Y-70997580D01*
X221488000Y-68997580D02*
X221488000Y-69997580D01*
X221488000Y-67997580D02*
X221488000Y-68997580D01*
X221488000Y-67997580D02*
X221488000Y-66997580D01*
X222488000Y-67997580D02*
X221488000Y-67997580D01*
X221488000Y-66997580D02*
X222488000Y-66997580D01*
D23*
X212090000Y-69537580D02*
X200152000Y-69537580D01*
D21*
X198073580Y-71616000D02*
X200152000Y-69537580D01*
X195818420Y-69537580D02*
X200152000Y-69537580D01*
D22*
X188775000Y-65225000D02*
X183415600Y-65225000D01*
X183415600Y-65225000D02*
X183413400Y-65227200D01*
X191100000Y-65225000D02*
X188775000Y-65225000D01*
D24*
X183413400Y-65227200D02*
X183413400Y-68249800D01*
D21*
X183413400Y-68249800D02*
X183362600Y-68300600D01*
D25*
G36*
X204343000Y-82169000D02*
X204352667Y-82217601D01*
X204380197Y-82258803D01*
X204421399Y-82286333D01*
X204470000Y-82296000D01*
X209042000Y-82296000D01*
X209090601Y-82286333D01*
X209131803Y-82258803D01*
X209159333Y-82217601D01*
X209169000Y-82169000D01*
X209169000Y-78486000D01*
X216281000Y-78486000D01*
X216281000Y-82169000D01*
X216290667Y-82217601D01*
X216318197Y-82258803D01*
X216359399Y-82286333D01*
X216408000Y-82296000D01*
X220980000Y-82296000D01*
X221028601Y-82286333D01*
X221069803Y-82258803D01*
X221097333Y-82217601D01*
X221107000Y-82169000D01*
X221107000Y-78486000D01*
X228346302Y-78486000D01*
X228372628Y-89544000D01*
X180927000Y-89544000D01*
X180927000Y-82277148D01*
X197103852Y-82296000D01*
X197152464Y-82286389D01*
X197193698Y-82258907D01*
X197221276Y-82217737D01*
X197231000Y-82169000D01*
X197231000Y-78486000D01*
X204343000Y-78486000D01*
X204343000Y-82169000D01*
X204343000Y-82169000D01*
G37*
X204343000Y-82169000D02*
X204352667Y-82217601D01*
X204380197Y-82258803D01*
X204421399Y-82286333D01*
X204470000Y-82296000D01*
X209042000Y-82296000D01*
X209090601Y-82286333D01*
X209131803Y-82258803D01*
X209159333Y-82217601D01*
X209169000Y-82169000D01*
X209169000Y-78486000D01*
X216281000Y-78486000D01*
X216281000Y-82169000D01*
X216290667Y-82217601D01*
X216318197Y-82258803D01*
X216359399Y-82286333D01*
X216408000Y-82296000D01*
X220980000Y-82296000D01*
X221028601Y-82286333D01*
X221069803Y-82258803D01*
X221097333Y-82217601D01*
X221107000Y-82169000D01*
X221107000Y-78486000D01*
X228346302Y-78486000D01*
X228372628Y-89544000D01*
X180927000Y-89544000D01*
X180927000Y-82277148D01*
X197103852Y-82296000D01*
X197152464Y-82286389D01*
X197193698Y-82258907D01*
X197221276Y-82217737D01*
X197231000Y-82169000D01*
X197231000Y-78486000D01*
X204343000Y-78486000D01*
X204343000Y-82169000D01*
G36*
X203173000Y-59373000D02*
X180456000Y-59373000D01*
X180456000Y-54521042D01*
X193993545Y-54521042D01*
X194393246Y-55488395D01*
X195132713Y-56229152D01*
X196099366Y-56630542D01*
X197146042Y-56631455D01*
X198113395Y-56231754D01*
X198854152Y-55492287D01*
X199255542Y-54525634D01*
X199256455Y-53478958D01*
X198856754Y-52511605D01*
X198117287Y-51770848D01*
X197150634Y-51369458D01*
X196103958Y-51368545D01*
X195136605Y-51768246D01*
X194395848Y-52507713D01*
X193994458Y-53474366D01*
X193993545Y-54521042D01*
X180456000Y-54521042D01*
X180456000Y-48456000D01*
X203173000Y-48456000D01*
X203173000Y-59373000D01*
X203173000Y-59373000D01*
G37*
X203173000Y-59373000D02*
X180456000Y-59373000D01*
X180456000Y-54521042D01*
X193993545Y-54521042D01*
X194393246Y-55488395D01*
X195132713Y-56229152D01*
X196099366Y-56630542D01*
X197146042Y-56631455D01*
X198113395Y-56231754D01*
X198854152Y-55492287D01*
X199255542Y-54525634D01*
X199256455Y-53478958D01*
X198856754Y-52511605D01*
X198117287Y-51770848D01*
X197150634Y-51369458D01*
X196103958Y-51368545D01*
X195136605Y-51768246D01*
X194395848Y-52507713D01*
X193994458Y-53474366D01*
X193993545Y-54521042D01*
X180456000Y-54521042D01*
X180456000Y-48456000D01*
X203173000Y-48456000D01*
X203173000Y-59373000D01*
G36*
X242794000Y-59373000D02*
X220027000Y-59373000D01*
X220027000Y-54521042D01*
X223993545Y-54521042D01*
X224393246Y-55488395D01*
X225132713Y-56229152D01*
X226099366Y-56630542D01*
X227146042Y-56631455D01*
X228113395Y-56231754D01*
X228854152Y-55492287D01*
X229255542Y-54525634D01*
X229256455Y-53478958D01*
X228856754Y-52511605D01*
X228117287Y-51770848D01*
X227150634Y-51369458D01*
X226103958Y-51368545D01*
X225136605Y-51768246D01*
X224395848Y-52507713D01*
X223994458Y-53474366D01*
X223993545Y-54521042D01*
X220027000Y-54521042D01*
X220027000Y-48456000D01*
X242794000Y-48456000D01*
X242794000Y-59373000D01*
X242794000Y-59373000D01*
G37*
X242794000Y-59373000D02*
X220027000Y-59373000D01*
X220027000Y-54521042D01*
X223993545Y-54521042D01*
X224393246Y-55488395D01*
X225132713Y-56229152D01*
X226099366Y-56630542D01*
X227146042Y-56631455D01*
X228113395Y-56231754D01*
X228854152Y-55492287D01*
X229255542Y-54525634D01*
X229256455Y-53478958D01*
X228856754Y-52511605D01*
X228117287Y-51770848D01*
X227150634Y-51369458D01*
X226103958Y-51368545D01*
X225136605Y-51768246D01*
X224395848Y-52507713D01*
X223994458Y-53474366D01*
X223993545Y-54521042D01*
X220027000Y-54521042D01*
X220027000Y-48456000D01*
X242794000Y-48456000D01*
X242794000Y-59373000D01*
G36*
X242540000Y-65539049D02*
X242540000Y-88773000D01*
X234696000Y-88773000D01*
X234696000Y-77470000D01*
X234686333Y-77421399D01*
X234643067Y-77366835D01*
X229690067Y-73810835D01*
X229644950Y-73790344D01*
X229616000Y-73787000D01*
X194564000Y-73787000D01*
X194564000Y-65024000D01*
X242127961Y-65024000D01*
X242540000Y-65539049D01*
X242540000Y-65539049D01*
G37*
X242540000Y-65539049D02*
X242540000Y-88773000D01*
X234696000Y-88773000D01*
X234696000Y-77470000D01*
X234686333Y-77421399D01*
X234643067Y-77366835D01*
X229690067Y-73810835D01*
X229644950Y-73790344D01*
X229616000Y-73787000D01*
X194564000Y-73787000D01*
X194564000Y-65024000D01*
X242127961Y-65024000D01*
X242540000Y-65539049D01*
M02*
