G04 #@! TF.GenerationSoftware,KiCad,Pcbnew,(2017-08-25 revision dd37d0595)-makepkg*
G04 #@! TF.CreationDate,2018-04-21T13:49:17-04:00*
G04 #@! TF.ProjectId,Anti-Spark-Switch,416E74692D537061726B2D5377697463,rev?*
G04 #@! TF.SameCoordinates,Original*
G04 #@! TF.FileFunction,Soldermask,Top*
G04 #@! TF.FilePolarity,Negative*
%FSLAX46Y46*%
G04 Gerber Fmt 4.6, Leading zero omitted, Abs format (unit mm)*
G04 Created by KiCad (PCBNEW (2017-08-25 revision dd37d0595)-makepkg) date 04/21/18 13:49:17*
%MOMM*%
%LPD*%
G01*
G04 APERTURE LIST*
%ADD10R,1.200000X1.150000*%
%ADD11R,0.900000X1.300000*%
%ADD12C,2.700000*%
%ADD13C,4.900000*%
%ADD14O,3.414980X1.906220*%
%ADD15R,1.310000X1.620000*%
%ADD16R,11.200080X8.550860*%
%ADD17R,1.299160X3.600400*%
%ADD18R,8.400000X7.400000*%
%ADD19R,2.100000X1.300000*%
G04 APERTURE END LIST*
D10*
X188134000Y-70687000D03*
X189634000Y-70687000D03*
D11*
X192375000Y-70675000D03*
X190875000Y-70675000D03*
X188134000Y-67131000D03*
X189634000Y-67131000D03*
X189634000Y-68909000D03*
X188134000Y-68909000D03*
D12*
X225355000Y-57810000D03*
X227895000Y-57810000D03*
X230435000Y-57810000D03*
X230435000Y-55270000D03*
X230435000Y-52730000D03*
X230435000Y-50190000D03*
X222815000Y-57810000D03*
X222815000Y-55270000D03*
X222815000Y-52730000D03*
X222815000Y-50190000D03*
X225355000Y-50190000D03*
X227895000Y-50190000D03*
D13*
X226625000Y-54000000D03*
D12*
X195355000Y-57810000D03*
X197895000Y-57810000D03*
X200435000Y-57810000D03*
X200435000Y-55270000D03*
X200435000Y-52730000D03*
X200435000Y-50190000D03*
X192815000Y-57810000D03*
X192815000Y-55270000D03*
X192815000Y-52730000D03*
X192815000Y-50190000D03*
X195355000Y-50190000D03*
X197895000Y-50190000D03*
D13*
X196625000Y-54000000D03*
D14*
X183413400Y-65227200D03*
X183413400Y-62687200D03*
X183362600Y-73380600D03*
X183362600Y-70840600D03*
X183362600Y-68300600D03*
D15*
X188115000Y-73425000D03*
X191385000Y-73425000D03*
D16*
X200152000Y-69537580D03*
D17*
X196342000Y-80139540D03*
X197612000Y-80139540D03*
X198882000Y-80139540D03*
X201422000Y-80139540D03*
X202692000Y-80139540D03*
X203962000Y-80139540D03*
D16*
X212090000Y-69537580D03*
D17*
X208280000Y-80139540D03*
X209550000Y-80139540D03*
X210820000Y-80139540D03*
X213360000Y-80139540D03*
X214630000Y-80139540D03*
X215900000Y-80139540D03*
D16*
X224028000Y-69537580D03*
D17*
X220218000Y-80139540D03*
X221488000Y-80139540D03*
X222758000Y-80139540D03*
X225298000Y-80139540D03*
X226568000Y-80139540D03*
X227838000Y-80139540D03*
D18*
X238610000Y-85725000D03*
X238500000Y-53500000D03*
X185000000Y-85725000D03*
X185500000Y-53500000D03*
D19*
X191100000Y-62325000D03*
X191100000Y-65225000D03*
X188775000Y-65225000D03*
X188775000Y-62325000D03*
M02*
