G04 #@! TF.GenerationSoftware,KiCad,Pcbnew,(2017-08-25 revision dd37d0595)-makepkg*
G04 #@! TF.CreationDate,2018-05-19T22:22:17-04:00*
G04 #@! TF.ProjectId,Anti-Spark-Switch,416E74692D537061726B2D5377697463,rev?*
G04 #@! TF.SameCoordinates,Original*
G04 #@! TF.FileFunction,Copper,L1,Top,Signal*
G04 #@! TF.FilePolarity,Positive*
%FSLAX46Y46*%
G04 Gerber Fmt 4.6, Leading zero omitted, Abs format (unit mm)*
G04 Created by KiCad (PCBNEW (2017-08-25 revision dd37d0595)-makepkg) date 05/19/18 22:22:17*
%MOMM*%
%LPD*%
G01*
G04 APERTURE LIST*
%ADD10C,0.546100*%
%ADD11R,1.700000X1.700000*%
%ADD12O,1.750000X1.200000*%
%ADD13R,1.750000X1.200000*%
%ADD14R,1.100000X1.100000*%
%ADD15R,8.000000X7.000000*%
%ADD16R,0.800000X0.750000*%
%ADD17R,0.500000X0.900000*%
%ADD18R,0.899160X3.200400*%
%ADD19R,10.800080X8.150860*%
%ADD20R,1.700000X0.900000*%
%ADD21C,0.635000*%
%ADD22C,0.500000*%
%ADD23C,0.250000*%
%ADD24C,0.254000*%
G04 APERTURE END LIST*
D10*
X176090000Y-93090000D03*
X172090000Y-93090000D03*
X168090000Y-93090000D03*
X164090000Y-93090000D03*
X160090000Y-93090000D03*
X156090000Y-93090000D03*
X152090000Y-93090000D03*
X148090000Y-93090000D03*
X144090000Y-93090000D03*
X140090000Y-93090000D03*
X136090000Y-93090000D03*
X132090000Y-93090000D03*
X176090000Y-90590000D03*
X172090000Y-90590000D03*
X168090000Y-90590000D03*
X164090000Y-90590000D03*
X160090000Y-90590000D03*
X156090000Y-90590000D03*
X152090000Y-90590000D03*
X148090000Y-90590000D03*
X144090000Y-90590000D03*
X140090000Y-90590000D03*
X136090000Y-90590000D03*
X132090000Y-90590000D03*
D11*
X119100000Y-91130000D03*
D12*
X119100000Y-102000000D03*
X119100000Y-100000000D03*
X119100000Y-98000000D03*
D13*
X119100000Y-96000000D03*
D14*
X126840000Y-102215000D03*
X124040000Y-102215000D03*
D15*
X174300000Y-114440000D03*
X120690000Y-114515000D03*
D16*
X125324000Y-99477000D03*
X123824000Y-99477000D03*
D17*
X128065000Y-99465000D03*
X126565000Y-99465000D03*
X125324000Y-95921000D03*
X123824000Y-95921000D03*
X123824000Y-97699000D03*
X125324000Y-97699000D03*
D18*
X139652000Y-108929540D03*
X138382000Y-108929540D03*
X137112000Y-108929540D03*
X134572000Y-108929540D03*
X133302000Y-108929540D03*
X132032000Y-108929540D03*
D19*
X135842000Y-98327580D03*
D18*
X151590000Y-108929540D03*
X150320000Y-108929540D03*
X149050000Y-108929540D03*
X146510000Y-108929540D03*
X145240000Y-108929540D03*
X143970000Y-108929540D03*
D19*
X147780000Y-98327580D03*
D18*
X163528000Y-108929540D03*
X162258000Y-108929540D03*
X160988000Y-108929540D03*
X158448000Y-108929540D03*
X157178000Y-108929540D03*
X155908000Y-108929540D03*
D19*
X159718000Y-98327580D03*
D20*
X126790000Y-94015000D03*
X126790000Y-91115000D03*
X124465000Y-91115000D03*
X124465000Y-94015000D03*
D21*
X127065000Y-103490000D03*
X126290000Y-95915000D03*
X122697000Y-116533800D03*
X121697000Y-116533800D03*
X120697000Y-116533800D03*
X119697000Y-116533800D03*
X118697000Y-116533800D03*
X122697000Y-115533800D03*
X121697000Y-115533800D03*
X120697000Y-115533800D03*
X119697000Y-115533800D03*
X118697000Y-115533800D03*
X122697000Y-114533800D03*
X121697000Y-114533800D03*
X120697000Y-114533800D03*
X119697000Y-114533800D03*
X118697000Y-114533800D03*
X122697000Y-113533800D03*
X121697000Y-113533800D03*
X120697000Y-113533800D03*
X119697000Y-113533800D03*
X118697000Y-113533800D03*
X122697000Y-112533800D03*
X121697000Y-112533800D03*
X120697000Y-112533800D03*
X119697000Y-112533800D03*
X118697000Y-112533800D03*
X134292600Y-117102000D03*
X135308600Y-117102000D03*
X136299200Y-117102000D03*
X137289800Y-117102000D03*
X133302000Y-116115200D03*
X135308600Y-116102000D03*
X136299200Y-116102000D03*
X138302000Y-116089800D03*
X133302000Y-115099200D03*
X134302000Y-115099200D03*
X138302000Y-115099200D03*
X137302000Y-115099200D03*
X133302000Y-114108600D03*
X135308600Y-114102000D03*
X138302000Y-114108600D03*
X137302000Y-114108600D03*
X138302000Y-113092600D03*
X136299200Y-113102000D03*
X135308600Y-113102000D03*
X134292600Y-113102000D03*
X137289800Y-112102000D03*
X136299200Y-112102000D03*
X135308600Y-112102000D03*
X134292600Y-112102000D03*
X150494000Y-116115200D03*
X150494000Y-115099200D03*
X150494000Y-114108600D03*
X149481800Y-117102000D03*
X149494000Y-115099200D03*
X149494000Y-114108600D03*
X145494000Y-116115200D03*
X145494000Y-115099200D03*
X145494000Y-114108600D03*
X148491200Y-117102000D03*
X148491200Y-116102000D03*
X147500600Y-117102000D03*
X147500600Y-116102000D03*
X147494000Y-115102000D03*
X147500600Y-114102000D03*
X146484600Y-117102000D03*
X146494000Y-115099200D03*
X146510000Y-113102000D03*
X147500600Y-113102000D03*
X148491200Y-113102000D03*
X150494000Y-113092600D03*
X146510000Y-112102000D03*
X147500600Y-112102000D03*
X148491200Y-112102000D03*
X149481800Y-112102000D03*
X157305000Y-116115200D03*
X157305000Y-115099200D03*
X157305000Y-114108600D03*
X158295600Y-113102000D03*
X159311600Y-113102000D03*
X160302200Y-113102000D03*
X158305000Y-115099200D03*
X158295600Y-117102000D03*
X159311600Y-117102000D03*
X160302200Y-117102000D03*
X161318200Y-117102000D03*
X159311600Y-114102000D03*
X159311600Y-116102000D03*
X160302200Y-116102000D03*
X161305000Y-115099200D03*
X161305000Y-114108600D03*
X162305000Y-116089800D03*
X162305000Y-115099200D03*
X162305000Y-114108600D03*
X162305000Y-113092600D03*
X161305500Y-112102000D03*
X160302200Y-112102000D03*
X159311600Y-112102000D03*
X158295600Y-112102000D03*
X133302000Y-112102000D03*
X133302000Y-113102000D03*
X134302000Y-116102000D03*
X133302000Y-117102000D03*
X135302000Y-115102000D03*
X134302000Y-114102000D03*
X136302000Y-114102000D03*
X138302000Y-117102000D03*
X137302000Y-116102000D03*
X136302000Y-115102000D03*
X138302000Y-112102000D03*
X137302000Y-113102000D03*
X145494000Y-112102000D03*
X145494000Y-113102000D03*
X146494000Y-116102000D03*
X145494000Y-117102000D03*
X146494000Y-114102000D03*
X148494000Y-114102000D03*
X150494000Y-117102000D03*
X149494000Y-116102000D03*
X148494000Y-115102000D03*
X150494000Y-112102000D03*
X149494000Y-113102000D03*
X162305000Y-117102000D03*
X157305000Y-117102000D03*
X161305000Y-116102000D03*
X158305000Y-116102000D03*
X160305000Y-115102000D03*
X159305000Y-115102000D03*
X160305000Y-114102000D03*
X158305000Y-114102000D03*
X161305000Y-113102000D03*
X157305000Y-113102000D03*
X162305000Y-112102000D03*
X157305000Y-112102000D03*
X130015000Y-90315000D03*
X176697400Y-116508400D03*
X175697400Y-116508400D03*
X174697400Y-116508400D03*
X173697400Y-116508400D03*
X172697400Y-116508400D03*
X176697400Y-115508400D03*
X175697400Y-115508400D03*
X174697400Y-115508400D03*
X173697400Y-115508400D03*
X172697400Y-115508400D03*
X176697400Y-114508400D03*
X175697400Y-114508400D03*
X174697400Y-114508400D03*
X173697400Y-114508400D03*
X172697400Y-114508400D03*
X176697400Y-113508400D03*
X175697400Y-113508400D03*
X174697400Y-113508400D03*
X173697400Y-113508400D03*
X172697400Y-113508400D03*
X176697400Y-112508400D03*
X175697400Y-112508400D03*
X174697400Y-112508400D03*
X173697400Y-112508400D03*
X172697400Y-112508400D03*
X133302000Y-98787580D03*
X134302000Y-98787580D03*
X133302000Y-99787580D03*
X133302000Y-100787580D03*
X134302000Y-99787580D03*
X135302000Y-99787580D03*
X134302000Y-100787580D03*
X135302000Y-100787580D03*
X135302000Y-97787580D03*
X136302000Y-98787580D03*
X136302000Y-97787580D03*
X137302000Y-97787580D03*
X135302000Y-98787580D03*
X137302000Y-98787580D03*
X136302000Y-95787580D03*
X138302000Y-96787580D03*
X137302000Y-95787580D03*
X138302000Y-95787580D03*
X136302000Y-96787580D03*
X137302000Y-96787580D03*
X138302000Y-97787580D03*
X138302000Y-98787580D03*
X136302000Y-99787580D03*
X137302000Y-100787580D03*
X138302000Y-99787580D03*
X136302000Y-100787580D03*
X138302000Y-100787580D03*
X137302000Y-99787580D03*
X133302000Y-95787580D03*
X134302000Y-97787580D03*
X134302000Y-95787580D03*
X135302000Y-95787580D03*
X133302000Y-96787580D03*
X134302000Y-96787580D03*
X135302000Y-96787580D03*
X133302000Y-97787580D03*
X150240000Y-100787580D03*
X149240000Y-100787580D03*
X148240000Y-100787580D03*
X147240000Y-100787580D03*
X146240000Y-100787580D03*
X145240000Y-100787580D03*
X150240000Y-99787580D03*
X149240000Y-99787580D03*
X148240000Y-99787580D03*
X147240000Y-99787580D03*
X146240000Y-99787580D03*
X145240000Y-99787580D03*
X150240000Y-98787580D03*
X149240000Y-98787580D03*
X148240000Y-98787580D03*
X147240000Y-98787580D03*
X146240000Y-98787580D03*
X145240000Y-98787580D03*
X150240000Y-97787580D03*
X149240000Y-97787580D03*
X148240000Y-97787580D03*
X147240000Y-97787580D03*
X146240000Y-97787580D03*
X145240000Y-97787580D03*
X150240000Y-96787580D03*
X149240000Y-96787580D03*
X148240000Y-96787580D03*
X147240000Y-96787580D03*
X146240000Y-96787580D03*
X145240000Y-96787580D03*
X150240000Y-95787580D03*
X149240000Y-95787580D03*
X148240000Y-95787580D03*
X147240000Y-95787580D03*
X146240000Y-95787580D03*
X145240000Y-95787580D03*
X162178000Y-100787580D03*
X161178000Y-100787580D03*
X160178000Y-100787580D03*
X159178000Y-100787580D03*
X158178000Y-100787580D03*
X157178000Y-100787580D03*
X162178000Y-99787580D03*
X161178000Y-99787580D03*
X160178000Y-99787580D03*
X159178000Y-99787580D03*
X158178000Y-99787580D03*
X157178000Y-99787580D03*
X162178000Y-98787580D03*
X161178000Y-98787580D03*
X160178000Y-98787580D03*
X159178000Y-98787580D03*
X158178000Y-98787580D03*
X157178000Y-98787580D03*
X162178000Y-97787580D03*
X161178000Y-97787580D03*
X160178000Y-97787580D03*
X159178000Y-97787580D03*
X158178000Y-97787580D03*
X157178000Y-97787580D03*
X162178000Y-96787580D03*
X161178000Y-96787580D03*
X160178000Y-96787580D03*
X159178000Y-96787580D03*
X158178000Y-96787580D03*
X157178000Y-96787580D03*
X162178000Y-95787580D03*
X161178000Y-95787580D03*
X160178000Y-95787580D03*
X159178000Y-95787580D03*
X158178000Y-95787580D03*
X157178000Y-95787580D03*
D22*
X126790000Y-91115000D02*
X127895000Y-91115000D01*
X127895000Y-91115000D02*
X128665000Y-91885000D01*
X128665000Y-91885000D02*
X128665000Y-96125000D01*
X128665000Y-96125000D02*
X127091000Y-97699000D01*
X127091000Y-97699000D02*
X125324000Y-97699000D01*
X124465000Y-91115000D02*
X119115000Y-91115000D01*
X119115000Y-91115000D02*
X119100000Y-91130000D01*
X127075000Y-102215000D02*
X127075000Y-103480000D01*
X127075000Y-103480000D02*
X127065000Y-103490000D01*
X125324000Y-95921000D02*
X126284000Y-95921000D01*
X126284000Y-95921000D02*
X126290000Y-95915000D01*
D23*
X121697000Y-114533800D02*
X122697000Y-114533800D01*
X120697000Y-114533800D02*
X121697000Y-114533800D01*
X120697000Y-114533800D02*
X119697000Y-114533800D01*
X118697000Y-114533800D02*
X119697000Y-114533800D01*
X118697000Y-113533800D02*
X118697000Y-114533800D01*
X119697000Y-113533800D02*
X118697000Y-113533800D01*
X120697000Y-113533800D02*
X119697000Y-113533800D01*
X121697000Y-113533800D02*
X120697000Y-113533800D01*
X122697000Y-113533800D02*
X121697000Y-113533800D01*
X122697000Y-112533800D02*
X122697000Y-113533800D01*
X121697000Y-112533800D02*
X122697000Y-112533800D01*
X120697000Y-112533800D02*
X121697000Y-112533800D01*
X119697000Y-112533800D02*
X120697000Y-112533800D01*
X119697000Y-112533800D02*
X119697000Y-113533800D01*
X119697000Y-113533800D02*
X120697000Y-114533800D01*
X118697000Y-112533800D02*
X119697000Y-112533800D01*
X119697000Y-116533800D02*
X118697000Y-116533800D01*
X120697000Y-116533800D02*
X119697000Y-116533800D01*
X121697000Y-116533800D02*
X120697000Y-116533800D01*
X122697000Y-116533800D02*
X121697000Y-116533800D01*
X122697000Y-115533800D02*
X122697000Y-116533800D01*
X122697000Y-115533800D02*
X121708800Y-115533800D01*
X121708800Y-115533800D02*
X120690000Y-114515000D01*
X121697000Y-115533800D02*
X122697000Y-115533800D01*
X120697000Y-115533800D02*
X121697000Y-115533800D01*
X119697000Y-115533800D02*
X120697000Y-115533800D01*
X118697000Y-115533800D02*
X119697000Y-115533800D01*
X118697000Y-114533800D02*
X118697000Y-115533800D01*
X120697000Y-114533800D02*
X120697000Y-114522000D01*
X120697000Y-114522000D02*
X120690000Y-114515000D01*
X118697000Y-112533800D02*
X120697000Y-114533800D01*
X161318200Y-117102000D02*
X160302200Y-117102000D01*
X162305000Y-117102000D02*
X161318200Y-117102000D01*
X160305000Y-114102000D02*
X159311600Y-114102000D01*
X160302200Y-116102000D02*
X159311600Y-116102000D01*
X161305000Y-116102000D02*
X160302200Y-116102000D01*
X161305000Y-114108600D02*
X161305000Y-115099200D01*
X161305000Y-113102000D02*
X161305000Y-114108600D01*
X162305000Y-115099200D02*
X162305000Y-116089800D01*
X162305000Y-114108600D02*
X162305000Y-115099200D01*
X162305000Y-113092600D02*
X162305000Y-114108600D01*
X162305000Y-112102000D02*
X162305000Y-113092600D01*
X160353000Y-112102000D02*
X161305500Y-112102000D01*
X157305000Y-112102000D02*
X158321000Y-112102000D01*
X145494000Y-112102000D02*
X145494000Y-109183540D01*
X145494000Y-109183540D02*
X145240000Y-108929540D01*
X133302000Y-112102000D02*
X133302000Y-108929540D01*
X133175000Y-111975000D02*
X133302000Y-112102000D01*
X145367000Y-111975000D02*
X145494000Y-112102000D01*
X157178000Y-108929540D02*
X157178000Y-111975000D01*
X157178000Y-111975000D02*
X157305000Y-112102000D01*
D22*
X117900000Y-89410000D02*
X129110000Y-89410000D01*
X129110000Y-89410000D02*
X130015000Y-90315000D01*
X116720000Y-90590000D02*
X117900000Y-89410000D01*
X116720000Y-92520000D02*
X116720000Y-90590000D01*
X119100000Y-96000000D02*
X119100000Y-94900000D01*
X119100000Y-94900000D02*
X116720000Y-92520000D01*
X122590000Y-100660000D02*
X121930000Y-100000000D01*
X121930000Y-100000000D02*
X119100000Y-100000000D01*
X123824000Y-100660000D02*
X123824000Y-102196000D01*
X123824000Y-99477000D02*
X123824000Y-100660000D01*
X123824000Y-100660000D02*
X122590000Y-100660000D01*
X123824000Y-95921000D02*
X123824000Y-96930000D01*
X123824000Y-96930000D02*
X123824000Y-97699000D01*
X123784000Y-96890000D02*
X123824000Y-96930000D01*
X123805000Y-102215000D02*
X123805000Y-103325000D01*
X123805000Y-103325000D02*
X125927200Y-105447200D01*
X125927200Y-105447200D02*
X130736600Y-105447200D01*
X123824000Y-102196000D02*
X123805000Y-102215000D01*
X123824000Y-97699000D02*
X123824000Y-99477000D01*
X154942800Y-105447200D02*
X143970000Y-105447200D01*
X143970000Y-105447200D02*
X132082800Y-105447200D01*
X143970000Y-108929540D02*
X143970000Y-107079340D01*
X143970000Y-107079340D02*
X143970000Y-105447200D01*
X132082800Y-105447200D02*
X130736600Y-105447200D01*
X132032000Y-108929540D02*
X132032000Y-105498000D01*
D23*
X132032000Y-105498000D02*
X132082800Y-105447200D01*
D22*
X155908000Y-106412400D02*
X154942800Y-105447200D01*
X155908000Y-108929540D02*
X155908000Y-106412400D01*
X125324000Y-99477000D02*
X126553000Y-99477000D01*
X126553000Y-99477000D02*
X126565000Y-99465000D01*
X126790000Y-91115000D02*
X124465000Y-91115000D01*
X128065000Y-99465000D02*
X134704580Y-99465000D01*
X134704580Y-99465000D02*
X135842000Y-98327580D01*
D23*
X176697400Y-115508400D02*
X176697400Y-116508400D01*
X175697400Y-115508400D02*
X176697400Y-115508400D01*
X175697400Y-116508400D02*
X175697400Y-115508400D01*
X174697400Y-116508400D02*
X175697400Y-116508400D01*
X174697400Y-115508400D02*
X174697400Y-116508400D01*
X173697400Y-115508400D02*
X174697400Y-115508400D01*
X173697400Y-116508400D02*
X173697400Y-115508400D01*
X172697400Y-116508400D02*
X173697400Y-116508400D01*
X172697400Y-115508400D02*
X172697400Y-116508400D01*
X172697400Y-114508400D02*
X172697400Y-115508400D01*
X173697400Y-114508400D02*
X172697400Y-114508400D01*
X174697400Y-114508400D02*
X173697400Y-114508400D01*
X175697400Y-114508400D02*
X174697400Y-114508400D01*
X176697400Y-114508400D02*
X175697400Y-114508400D01*
X176697400Y-113508400D02*
X176697400Y-114508400D01*
X175697400Y-113508400D02*
X176697400Y-113508400D01*
X174697400Y-113508400D02*
X175697400Y-113508400D01*
X173697400Y-113508400D02*
X174697400Y-113508400D01*
X173697400Y-113508400D02*
X172697400Y-113508400D01*
X172697400Y-112508400D02*
X172697400Y-113508400D01*
X173697400Y-112508400D02*
X172697400Y-112508400D01*
X174697400Y-112508400D02*
X173697400Y-112508400D01*
X175697400Y-112508400D02*
X174697400Y-112508400D01*
X175697400Y-112508400D02*
X175697400Y-113508400D01*
X175697400Y-113508400D02*
X174697400Y-114508400D01*
X176697400Y-112508400D02*
X175697400Y-112508400D01*
X162178000Y-96787580D02*
X162178000Y-95787580D01*
X162178000Y-97787580D02*
X162178000Y-96787580D01*
X162178000Y-98787580D02*
X162178000Y-97787580D01*
X162178000Y-99787580D02*
X162178000Y-98787580D01*
X162178000Y-100787580D02*
X162178000Y-99787580D01*
X161178000Y-100787580D02*
X162178000Y-100787580D01*
X161178000Y-99787580D02*
X161178000Y-100787580D01*
X161178000Y-98787580D02*
X161178000Y-99787580D01*
X161178000Y-98787580D02*
X161178000Y-97787580D01*
X161178000Y-97787580D02*
X159178000Y-97787580D01*
X159178000Y-97787580D02*
X157178000Y-95787580D01*
X161178000Y-96787580D02*
X161178000Y-97787580D01*
X161178000Y-95787580D02*
X161178000Y-96787580D01*
X160178000Y-95787580D02*
X161178000Y-95787580D01*
X160178000Y-96787580D02*
X160178000Y-95787580D01*
X160178000Y-97787580D02*
X160178000Y-96787580D01*
X160178000Y-98787580D02*
X160178000Y-97787580D01*
X160178000Y-99787580D02*
X160178000Y-98787580D01*
X160178000Y-100787580D02*
X160178000Y-99787580D01*
X159178000Y-100787580D02*
X160178000Y-100787580D01*
X159178000Y-99787580D02*
X159178000Y-100787580D01*
X159178000Y-98787580D02*
X159178000Y-99787580D01*
X159178000Y-97787580D02*
X159178000Y-98787580D01*
X159178000Y-96787580D02*
X159178000Y-97787580D01*
X159178000Y-95787580D02*
X159178000Y-96787580D01*
X158178000Y-95787580D02*
X159178000Y-95787580D01*
X159718000Y-98327580D02*
X147780000Y-98327580D01*
X158178000Y-96787580D02*
X158178000Y-95787580D01*
X158178000Y-97787580D02*
X158178000Y-96787580D01*
X158178000Y-98787580D02*
X158178000Y-97787580D01*
X158178000Y-99787580D02*
X158178000Y-98787580D01*
X158178000Y-100787580D02*
X158178000Y-99787580D01*
X157178000Y-100787580D02*
X158178000Y-100787580D01*
X157178000Y-99787580D02*
X157178000Y-100787580D01*
X157178000Y-98787580D02*
X157178000Y-99787580D01*
X157178000Y-97787580D02*
X157178000Y-98787580D01*
X157178000Y-96787580D02*
X157178000Y-97787580D01*
X157178000Y-96787580D02*
X157178000Y-95787580D01*
X158178000Y-96787580D02*
X157178000Y-96787580D01*
X157178000Y-95787580D02*
X158178000Y-95787580D01*
X133763580Y-100406000D02*
X135842000Y-98327580D01*
X131508420Y-98327580D02*
X135842000Y-98327580D01*
D22*
X122180000Y-97070000D02*
X121250000Y-98000000D01*
X121250000Y-98000000D02*
X119100000Y-98000000D01*
X122180000Y-94950000D02*
X122180000Y-97070000D01*
X124465000Y-94015000D02*
X123115000Y-94015000D01*
X123115000Y-94015000D02*
X122180000Y-94950000D01*
X126790000Y-94015000D02*
X124465000Y-94015000D01*
D24*
G36*
X140033000Y-110959000D02*
X140042667Y-111007601D01*
X140070197Y-111048803D01*
X140111399Y-111076333D01*
X140160000Y-111086000D01*
X144732000Y-111086000D01*
X144780601Y-111076333D01*
X144821803Y-111048803D01*
X144849333Y-111007601D01*
X144859000Y-110959000D01*
X144859000Y-107276000D01*
X151971000Y-107276000D01*
X151971000Y-110959000D01*
X151980667Y-111007601D01*
X152008197Y-111048803D01*
X152049399Y-111076333D01*
X152098000Y-111086000D01*
X156670000Y-111086000D01*
X156718601Y-111076333D01*
X156759803Y-111048803D01*
X156787333Y-111007601D01*
X156797000Y-110959000D01*
X156797000Y-107276000D01*
X164036302Y-107276000D01*
X164062628Y-118334000D01*
X116617000Y-118334000D01*
X116617000Y-111067148D01*
X132793852Y-111086000D01*
X132842464Y-111076389D01*
X132883698Y-111048907D01*
X132911276Y-111007737D01*
X132921000Y-110959000D01*
X132921000Y-107276000D01*
X140033000Y-107276000D01*
X140033000Y-110959000D01*
X140033000Y-110959000D01*
G37*
X140033000Y-110959000D02*
X140042667Y-111007601D01*
X140070197Y-111048803D01*
X140111399Y-111076333D01*
X140160000Y-111086000D01*
X144732000Y-111086000D01*
X144780601Y-111076333D01*
X144821803Y-111048803D01*
X144849333Y-111007601D01*
X144859000Y-110959000D01*
X144859000Y-107276000D01*
X151971000Y-107276000D01*
X151971000Y-110959000D01*
X151980667Y-111007601D01*
X152008197Y-111048803D01*
X152049399Y-111076333D01*
X152098000Y-111086000D01*
X156670000Y-111086000D01*
X156718601Y-111076333D01*
X156759803Y-111048803D01*
X156787333Y-111007601D01*
X156797000Y-110959000D01*
X156797000Y-107276000D01*
X164036302Y-107276000D01*
X164062628Y-118334000D01*
X116617000Y-118334000D01*
X116617000Y-111067148D01*
X132793852Y-111086000D01*
X132842464Y-111076389D01*
X132883698Y-111048907D01*
X132911276Y-111007737D01*
X132921000Y-110959000D01*
X132921000Y-107276000D01*
X140033000Y-107276000D01*
X140033000Y-110959000D01*
G36*
X178230000Y-117563158D02*
X168607000Y-117572872D01*
X168607000Y-106640000D01*
X168597333Y-106591399D01*
X168554369Y-106537052D01*
X165384369Y-104247052D01*
X165339312Y-104226429D01*
X165309965Y-104223000D01*
X129617000Y-104232965D01*
X129617000Y-89886974D01*
X178230000Y-89877033D01*
X178230000Y-117563158D01*
X178230000Y-117563158D01*
G37*
X178230000Y-117563158D02*
X168607000Y-117572872D01*
X168607000Y-106640000D01*
X168597333Y-106591399D01*
X168554369Y-106537052D01*
X165384369Y-104247052D01*
X165339312Y-104226429D01*
X165309965Y-104223000D01*
X129617000Y-104232965D01*
X129617000Y-89886974D01*
X178230000Y-89877033D01*
X178230000Y-117563158D01*
M02*
