G04 #@! TF.GenerationSoftware,KiCad,Pcbnew,(2017-08-25 revision dd37d0595)-makepkg*
G04 #@! TF.CreationDate,2018-05-27T00:49:56-04:00*
G04 #@! TF.ProjectId,Anti-Spark-Switch,416E74692D537061726B2D5377697463,rev?*
G04 #@! TF.SameCoordinates,Original*
G04 #@! TF.FileFunction,Legend,Top*
G04 #@! TF.FilePolarity,Positive*
%FSLAX46Y46*%
G04 Gerber Fmt 4.6, Leading zero omitted, Abs format (unit mm)*
G04 Created by KiCad (PCBNEW (2017-08-25 revision dd37d0595)-makepkg) date 05/27/18 00:49:56*
%MOMM*%
%LPD*%
G01*
G04 APERTURE LIST*
%ADD10C,0.187500*%
%ADD11C,0.250000*%
%ADD12C,0.300000*%
%ADD13C,0.050000*%
%ADD14C,0.002540*%
%ADD15C,0.010000*%
%ADD16C,0.120000*%
%ADD17C,0.150000*%
%ADD18C,0.381000*%
%ADD19C,0.137500*%
%ADD20C,0.304800*%
G04 APERTURE END LIST*
D10*
X121560714Y-89165000D02*
X121560714Y-88807857D01*
X122310714Y-88807857D01*
X121953571Y-89415000D02*
X121953571Y-89665000D01*
X121560714Y-89772142D02*
X121560714Y-89415000D01*
X122310714Y-89415000D01*
X122310714Y-89772142D01*
X121560714Y-90093571D02*
X122310714Y-90093571D01*
X122310714Y-90272142D01*
X122275000Y-90379285D01*
X122203571Y-90450714D01*
X122132142Y-90486428D01*
X121989285Y-90522142D01*
X121882142Y-90522142D01*
X121739285Y-90486428D01*
X121667857Y-90450714D01*
X121596428Y-90379285D01*
X121560714Y-90272142D01*
X121560714Y-90093571D01*
X121310714Y-91593571D02*
X122382142Y-91593571D01*
X121846428Y-92700714D02*
X121846428Y-93272142D01*
X121846428Y-94200714D02*
X121846428Y-94772142D01*
X121560714Y-94486428D02*
X122132142Y-94486428D01*
D11*
X174727380Y-106521190D02*
X175727380Y-106187857D01*
X174727380Y-105854523D01*
X175679761Y-105140238D02*
X175727380Y-105235476D01*
X175727380Y-105425952D01*
X175679761Y-105521190D01*
X175584523Y-105568809D01*
X175203571Y-105568809D01*
X175108333Y-105521190D01*
X175060714Y-105425952D01*
X175060714Y-105235476D01*
X175108333Y-105140238D01*
X175203571Y-105092619D01*
X175298809Y-105092619D01*
X175394047Y-105568809D01*
X175727380Y-104664047D02*
X175060714Y-104664047D01*
X175251190Y-104664047D02*
X175155952Y-104616428D01*
X175108333Y-104568809D01*
X175060714Y-104473571D01*
X175060714Y-104378333D01*
X175632142Y-104045000D02*
X175679761Y-103997380D01*
X175727380Y-104045000D01*
X175679761Y-104092619D01*
X175632142Y-104045000D01*
X175727380Y-104045000D01*
X175108333Y-104045000D02*
X175155952Y-103997380D01*
X175203571Y-104045000D01*
X175155952Y-104092619D01*
X175108333Y-104045000D01*
X175203571Y-104045000D01*
X175727380Y-102283095D02*
X175727380Y-102854523D01*
X175727380Y-102568809D02*
X174727380Y-102568809D01*
X174870238Y-102664047D01*
X174965476Y-102759285D01*
X175013095Y-102854523D01*
X175632142Y-101854523D02*
X175679761Y-101806904D01*
X175727380Y-101854523D01*
X175679761Y-101902142D01*
X175632142Y-101854523D01*
X175727380Y-101854523D01*
X174727380Y-100902142D02*
X174727380Y-101378333D01*
X175203571Y-101425952D01*
X175155952Y-101378333D01*
X175108333Y-101283095D01*
X175108333Y-101045000D01*
X175155952Y-100949761D01*
X175203571Y-100902142D01*
X175298809Y-100854523D01*
X175536904Y-100854523D01*
X175632142Y-100902142D01*
X175679761Y-100949761D01*
X175727380Y-101045000D01*
X175727380Y-101283095D01*
X175679761Y-101378333D01*
X175632142Y-101425952D01*
X175346428Y-99664047D02*
X175346428Y-98902142D01*
X175203571Y-97330714D02*
X175203571Y-97664047D01*
X175727380Y-97664047D02*
X174727380Y-97664047D01*
X174727380Y-97187857D01*
X175060714Y-96378333D02*
X175727380Y-96378333D01*
X175060714Y-96806904D02*
X175584523Y-96806904D01*
X175679761Y-96759285D01*
X175727380Y-96664047D01*
X175727380Y-96521190D01*
X175679761Y-96425952D01*
X175632142Y-96378333D01*
X175679761Y-95949761D02*
X175727380Y-95854523D01*
X175727380Y-95664047D01*
X175679761Y-95568809D01*
X175584523Y-95521190D01*
X175536904Y-95521190D01*
X175441666Y-95568809D01*
X175394047Y-95664047D01*
X175394047Y-95806904D01*
X175346428Y-95902142D01*
X175251190Y-95949761D01*
X175203571Y-95949761D01*
X175108333Y-95902142D01*
X175060714Y-95806904D01*
X175060714Y-95664047D01*
X175108333Y-95568809D01*
X175679761Y-94711666D02*
X175727380Y-94806904D01*
X175727380Y-94997380D01*
X175679761Y-95092619D01*
X175584523Y-95140238D01*
X175203571Y-95140238D01*
X175108333Y-95092619D01*
X175060714Y-94997380D01*
X175060714Y-94806904D01*
X175108333Y-94711666D01*
X175203571Y-94664047D01*
X175298809Y-94664047D01*
X175394047Y-95140238D01*
X177477380Y-107473571D02*
X176477380Y-107473571D01*
X177191666Y-107140238D01*
X176477380Y-106806904D01*
X177477380Y-106806904D01*
X176525000Y-105806904D02*
X176477380Y-105902142D01*
X176477380Y-106045000D01*
X176525000Y-106187857D01*
X176620238Y-106283095D01*
X176715476Y-106330714D01*
X176905952Y-106378333D01*
X177048809Y-106378333D01*
X177239285Y-106330714D01*
X177334523Y-106283095D01*
X177429761Y-106187857D01*
X177477380Y-106045000D01*
X177477380Y-105949761D01*
X177429761Y-105806904D01*
X177382142Y-105759285D01*
X177048809Y-105759285D01*
X177048809Y-105949761D01*
X177477380Y-104568809D02*
X176477380Y-104568809D01*
X176477380Y-104330714D01*
X176525000Y-104187857D01*
X176620238Y-104092619D01*
X176715476Y-104045000D01*
X176905952Y-103997380D01*
X177048809Y-103997380D01*
X177239285Y-104045000D01*
X177334523Y-104092619D01*
X177429761Y-104187857D01*
X177477380Y-104330714D01*
X177477380Y-104568809D01*
X177477380Y-103140238D02*
X176953571Y-103140238D01*
X176858333Y-103187857D01*
X176810714Y-103283095D01*
X176810714Y-103473571D01*
X176858333Y-103568809D01*
X177429761Y-103140238D02*
X177477380Y-103235476D01*
X177477380Y-103473571D01*
X177429761Y-103568809D01*
X177334523Y-103616428D01*
X177239285Y-103616428D01*
X177144047Y-103568809D01*
X177096428Y-103473571D01*
X177096428Y-103235476D01*
X177048809Y-103140238D01*
X176810714Y-102806904D02*
X176810714Y-102425952D01*
X176477380Y-102664047D02*
X177334523Y-102664047D01*
X177429761Y-102616428D01*
X177477380Y-102521190D01*
X177477380Y-102425952D01*
X177429761Y-101711666D02*
X177477380Y-101806904D01*
X177477380Y-101997380D01*
X177429761Y-102092619D01*
X177334523Y-102140238D01*
X176953571Y-102140238D01*
X176858333Y-102092619D01*
X176810714Y-101997380D01*
X176810714Y-101806904D01*
X176858333Y-101711666D01*
X176953571Y-101664047D01*
X177048809Y-101664047D01*
X177144047Y-102140238D01*
X177382142Y-101235476D02*
X177429761Y-101187857D01*
X177477380Y-101235476D01*
X177429761Y-101283095D01*
X177382142Y-101235476D01*
X177477380Y-101235476D01*
X176858333Y-101235476D02*
X176905952Y-101187857D01*
X176953571Y-101235476D01*
X176905952Y-101283095D01*
X176858333Y-101235476D01*
X176953571Y-101235476D01*
X176477380Y-99521190D02*
X176477380Y-99997380D01*
X176953571Y-100045000D01*
X176905952Y-99997380D01*
X176858333Y-99902142D01*
X176858333Y-99664047D01*
X176905952Y-99568809D01*
X176953571Y-99521190D01*
X177048809Y-99473571D01*
X177286904Y-99473571D01*
X177382142Y-99521190D01*
X177429761Y-99568809D01*
X177477380Y-99664047D01*
X177477380Y-99902142D01*
X177429761Y-99997380D01*
X177382142Y-100045000D01*
X176429761Y-98330714D02*
X177715476Y-99187857D01*
X176572619Y-98045000D02*
X176525000Y-97997380D01*
X176477380Y-97902142D01*
X176477380Y-97664047D01*
X176525000Y-97568809D01*
X176572619Y-97521190D01*
X176667857Y-97473571D01*
X176763095Y-97473571D01*
X176905952Y-97521190D01*
X177477380Y-98092619D01*
X177477380Y-97473571D01*
X176477380Y-97140238D02*
X176477380Y-96473571D01*
X177477380Y-96902142D01*
X176429761Y-95378333D02*
X177715476Y-96235476D01*
X177477380Y-94521190D02*
X177477380Y-95092619D01*
X177477380Y-94806904D02*
X176477380Y-94806904D01*
X176620238Y-94902142D01*
X176715476Y-94997380D01*
X176763095Y-95092619D01*
X176905952Y-93949761D02*
X176858333Y-94045000D01*
X176810714Y-94092619D01*
X176715476Y-94140238D01*
X176667857Y-94140238D01*
X176572619Y-94092619D01*
X176525000Y-94045000D01*
X176477380Y-93949761D01*
X176477380Y-93759285D01*
X176525000Y-93664047D01*
X176572619Y-93616428D01*
X176667857Y-93568809D01*
X176715476Y-93568809D01*
X176810714Y-93616428D01*
X176858333Y-93664047D01*
X176905952Y-93759285D01*
X176905952Y-93949761D01*
X176953571Y-94045000D01*
X177001190Y-94092619D01*
X177096428Y-94140238D01*
X177286904Y-94140238D01*
X177382142Y-94092619D01*
X177429761Y-94045000D01*
X177477380Y-93949761D01*
X177477380Y-93759285D01*
X177429761Y-93664047D01*
X177382142Y-93616428D01*
X177286904Y-93568809D01*
X177096428Y-93568809D01*
X177001190Y-93616428D01*
X176953571Y-93664047D01*
X176905952Y-93759285D01*
X173166666Y-103854523D02*
X173166666Y-103378333D01*
X173452380Y-103949761D02*
X172452380Y-103616428D01*
X173452380Y-103283095D01*
X172785714Y-102949761D02*
X173452380Y-102949761D01*
X172880952Y-102949761D02*
X172833333Y-102902142D01*
X172785714Y-102806904D01*
X172785714Y-102664047D01*
X172833333Y-102568809D01*
X172928571Y-102521190D01*
X173452380Y-102521190D01*
X172785714Y-102187857D02*
X172785714Y-101806904D01*
X172452380Y-102045000D02*
X173309523Y-102045000D01*
X173404761Y-101997380D01*
X173452380Y-101902142D01*
X173452380Y-101806904D01*
X173452380Y-101473571D02*
X172785714Y-101473571D01*
X172452380Y-101473571D02*
X172500000Y-101521190D01*
X172547619Y-101473571D01*
X172500000Y-101425952D01*
X172452380Y-101473571D01*
X172547619Y-101473571D01*
X173404761Y-101045000D02*
X173452380Y-100902142D01*
X173452380Y-100664047D01*
X173404761Y-100568809D01*
X173357142Y-100521190D01*
X173261904Y-100473571D01*
X173166666Y-100473571D01*
X173071428Y-100521190D01*
X173023809Y-100568809D01*
X172976190Y-100664047D01*
X172928571Y-100854523D01*
X172880952Y-100949761D01*
X172833333Y-100997380D01*
X172738095Y-101045000D01*
X172642857Y-101045000D01*
X172547619Y-100997380D01*
X172500000Y-100949761D01*
X172452380Y-100854523D01*
X172452380Y-100616428D01*
X172500000Y-100473571D01*
X172785714Y-100045000D02*
X173785714Y-100045000D01*
X172833333Y-100045000D02*
X172785714Y-99949761D01*
X172785714Y-99759285D01*
X172833333Y-99664047D01*
X172880952Y-99616428D01*
X172976190Y-99568809D01*
X173261904Y-99568809D01*
X173357142Y-99616428D01*
X173404761Y-99664047D01*
X173452380Y-99759285D01*
X173452380Y-99949761D01*
X173404761Y-100045000D01*
X173452380Y-98711666D02*
X172928571Y-98711666D01*
X172833333Y-98759285D01*
X172785714Y-98854523D01*
X172785714Y-99045000D01*
X172833333Y-99140238D01*
X173404761Y-98711666D02*
X173452380Y-98806904D01*
X173452380Y-99045000D01*
X173404761Y-99140238D01*
X173309523Y-99187857D01*
X173214285Y-99187857D01*
X173119047Y-99140238D01*
X173071428Y-99045000D01*
X173071428Y-98806904D01*
X173023809Y-98711666D01*
X173452380Y-98235476D02*
X172785714Y-98235476D01*
X172976190Y-98235476D02*
X172880952Y-98187857D01*
X172833333Y-98140238D01*
X172785714Y-98045000D01*
X172785714Y-97949761D01*
X173452380Y-97616428D02*
X172452380Y-97616428D01*
X173071428Y-97521190D02*
X173452380Y-97235476D01*
X172785714Y-97235476D02*
X173166666Y-97616428D01*
D10*
X121560714Y-95975714D02*
X122310714Y-95975714D01*
X121560714Y-96404285D01*
X122310714Y-96404285D01*
X121632142Y-97190000D02*
X121596428Y-97154285D01*
X121560714Y-97047142D01*
X121560714Y-96975714D01*
X121596428Y-96868571D01*
X121667857Y-96797142D01*
X121739285Y-96761428D01*
X121882142Y-96725714D01*
X121989285Y-96725714D01*
X122132142Y-96761428D01*
X122203571Y-96797142D01*
X122275000Y-96868571D01*
X122310714Y-96975714D01*
X122310714Y-97047142D01*
X122275000Y-97154285D01*
X122239285Y-97190000D01*
X122275000Y-98475714D02*
X122310714Y-98404285D01*
X122310714Y-98297142D01*
X122275000Y-98190000D01*
X122203571Y-98118571D01*
X122132142Y-98082857D01*
X121989285Y-98047142D01*
X121882142Y-98047142D01*
X121739285Y-98082857D01*
X121667857Y-98118571D01*
X121596428Y-98190000D01*
X121560714Y-98297142D01*
X121560714Y-98368571D01*
X121596428Y-98475714D01*
X121632142Y-98511428D01*
X121882142Y-98511428D01*
X121882142Y-98368571D01*
X121560714Y-98832857D02*
X122310714Y-98832857D01*
X121560714Y-99261428D01*
X122310714Y-99261428D01*
X121560714Y-99618571D02*
X122310714Y-99618571D01*
X122310714Y-99797142D01*
X122275000Y-99904285D01*
X122203571Y-99975714D01*
X122132142Y-100011428D01*
X121989285Y-100047142D01*
X121882142Y-100047142D01*
X121739285Y-100011428D01*
X121667857Y-99975714D01*
X121596428Y-99904285D01*
X121560714Y-99797142D01*
X121560714Y-99618571D01*
X121310714Y-101118571D02*
X122382142Y-101118571D01*
X121596428Y-102190000D02*
X121560714Y-102297142D01*
X121560714Y-102475714D01*
X121596428Y-102547142D01*
X121632142Y-102582857D01*
X121703571Y-102618571D01*
X121775000Y-102618571D01*
X121846428Y-102582857D01*
X121882142Y-102547142D01*
X121917857Y-102475714D01*
X121953571Y-102332857D01*
X121989285Y-102261428D01*
X122025000Y-102225714D01*
X122096428Y-102190000D01*
X122167857Y-102190000D01*
X122239285Y-102225714D01*
X122275000Y-102261428D01*
X122310714Y-102332857D01*
X122310714Y-102511428D01*
X122275000Y-102618571D01*
X122310714Y-102868571D02*
X121560714Y-103047142D01*
X122096428Y-103190000D01*
X121560714Y-103332857D01*
X122310714Y-103511428D01*
X121560714Y-103797142D02*
X122310714Y-103797142D01*
X122310714Y-104047142D02*
X122310714Y-104475714D01*
X121560714Y-104261428D02*
X122310714Y-104261428D01*
X121632142Y-105154285D02*
X121596428Y-105118571D01*
X121560714Y-105011428D01*
X121560714Y-104940000D01*
X121596428Y-104832857D01*
X121667857Y-104761428D01*
X121739285Y-104725714D01*
X121882142Y-104690000D01*
X121989285Y-104690000D01*
X122132142Y-104725714D01*
X122203571Y-104761428D01*
X122275000Y-104832857D01*
X122310714Y-104940000D01*
X122310714Y-105011428D01*
X122275000Y-105118571D01*
X122239285Y-105154285D01*
X121560714Y-105475714D02*
X122310714Y-105475714D01*
X121953571Y-105475714D02*
X121953571Y-105904285D01*
X121560714Y-105904285D02*
X122310714Y-105904285D01*
D12*
X171140000Y-108718571D02*
X171425714Y-108718571D01*
X171568571Y-108790000D01*
X171711428Y-108932857D01*
X171782857Y-109218571D01*
X171782857Y-109718571D01*
X171711428Y-110004285D01*
X171568571Y-110147142D01*
X171425714Y-110218571D01*
X171140000Y-110218571D01*
X170997142Y-110147142D01*
X170854285Y-110004285D01*
X170782857Y-109718571D01*
X170782857Y-109218571D01*
X170854285Y-108932857D01*
X170997142Y-108790000D01*
X171140000Y-108718571D01*
X172425714Y-108718571D02*
X172425714Y-109932857D01*
X172497142Y-110075714D01*
X172568571Y-110147142D01*
X172711428Y-110218571D01*
X172997142Y-110218571D01*
X173140000Y-110147142D01*
X173211428Y-110075714D01*
X173282857Y-109932857D01*
X173282857Y-108718571D01*
X173782857Y-108718571D02*
X174640000Y-108718571D01*
X174211428Y-110218571D02*
X174211428Y-108718571D01*
X176282857Y-109647142D02*
X177425714Y-109647142D01*
X171400000Y-86458571D02*
X171685714Y-86458571D01*
X171828571Y-86530000D01*
X171971428Y-86672857D01*
X172042857Y-86958571D01*
X172042857Y-87458571D01*
X171971428Y-87744285D01*
X171828571Y-87887142D01*
X171685714Y-87958571D01*
X171400000Y-87958571D01*
X171257142Y-87887142D01*
X171114285Y-87744285D01*
X171042857Y-87458571D01*
X171042857Y-86958571D01*
X171114285Y-86672857D01*
X171257142Y-86530000D01*
X171400000Y-86458571D01*
X172685714Y-86458571D02*
X172685714Y-87672857D01*
X172757142Y-87815714D01*
X172828571Y-87887142D01*
X172971428Y-87958571D01*
X173257142Y-87958571D01*
X173400000Y-87887142D01*
X173471428Y-87815714D01*
X173542857Y-87672857D01*
X173542857Y-86458571D01*
X174042857Y-86458571D02*
X174900000Y-86458571D01*
X174471428Y-87958571D02*
X174471428Y-86458571D01*
X176542857Y-87387142D02*
X177685714Y-87387142D01*
X177114285Y-87958571D02*
X177114285Y-86815714D01*
X121224285Y-87918571D02*
X121224285Y-86418571D01*
X121938571Y-87918571D02*
X121938571Y-86418571D01*
X122795714Y-87918571D01*
X122795714Y-86418571D01*
X124652857Y-87347142D02*
X125795714Y-87347142D01*
X125224285Y-87918571D02*
X125224285Y-86775714D01*
X121384285Y-110158571D02*
X121384285Y-108658571D01*
X122098571Y-110158571D02*
X122098571Y-108658571D01*
X122955714Y-110158571D01*
X122955714Y-108658571D01*
X124812857Y-109587142D02*
X125955714Y-109587142D01*
D13*
X157315000Y-77790000D02*
X157315000Y-87790000D01*
X157315000Y-87790000D02*
X167315000Y-87790000D01*
X167315000Y-87790000D02*
X167315000Y-77790000D01*
X167315000Y-77790000D02*
X157315000Y-77790000D01*
X164860584Y-82790000D02*
G75*
G03X164860584Y-82790000I-2545584J0D01*
G01*
X127315000Y-77790000D02*
X127315000Y-87790000D01*
X127315000Y-87790000D02*
X137315000Y-87790000D01*
X137315000Y-87790000D02*
X137315000Y-77790000D01*
X137315000Y-77790000D02*
X127315000Y-77790000D01*
X134860584Y-82790000D02*
G75*
G03X134860584Y-82790000I-2545584J0D01*
G01*
D14*
G36*
X148331000Y-82121860D02*
X148328460Y-82132020D01*
X148323380Y-82157420D01*
X148313220Y-82195520D01*
X148300520Y-82241240D01*
X148300520Y-82251400D01*
X148282740Y-82309820D01*
X148264960Y-82378400D01*
X148244640Y-82452060D01*
X148226860Y-82515560D01*
X148224320Y-82523180D01*
X148211620Y-82568900D01*
X148198920Y-82612080D01*
X148188760Y-82655260D01*
X148176060Y-82700980D01*
X148160820Y-82751780D01*
X148145580Y-82810200D01*
X148127800Y-82881320D01*
X148104940Y-82965140D01*
X148077000Y-83066740D01*
X148074460Y-83069280D01*
X148046520Y-83175960D01*
X148023660Y-83262320D01*
X148003340Y-83338520D01*
X147985560Y-83402020D01*
X147970320Y-83460440D01*
X147955080Y-83511240D01*
X147942380Y-83562040D01*
X147927140Y-83612840D01*
X147924600Y-83625540D01*
X147909360Y-83683960D01*
X147894120Y-83742380D01*
X147878880Y-83795720D01*
X147868720Y-83836360D01*
X147866180Y-83846520D01*
X147825540Y-83993840D01*
X147787440Y-84136080D01*
X147751880Y-84268160D01*
X147718860Y-84392620D01*
X147690920Y-84504380D01*
X147665520Y-84605980D01*
X147642660Y-84692340D01*
X147624880Y-84768540D01*
X147612180Y-84826960D01*
X147602020Y-84867600D01*
X147599480Y-84893000D01*
X147599480Y-84900620D01*
X147612180Y-84898080D01*
X147637580Y-84887920D01*
X147678220Y-84870140D01*
X147723940Y-84849820D01*
X147769660Y-84829500D01*
X147835700Y-84799020D01*
X147886500Y-84776160D01*
X147922060Y-84760920D01*
X147947460Y-84753300D01*
X147965240Y-84750760D01*
X147972860Y-84753300D01*
X147975400Y-84753300D01*
X147975400Y-84755840D01*
X147972860Y-84763460D01*
X147967780Y-84773620D01*
X147957620Y-84788860D01*
X147944920Y-84811720D01*
X147924600Y-84844740D01*
X147896660Y-84885380D01*
X147861100Y-84938720D01*
X147817920Y-85002220D01*
X147764580Y-85080960D01*
X147703620Y-85174940D01*
X147690920Y-85195260D01*
X147635040Y-85274000D01*
X147576620Y-85362900D01*
X147515660Y-85451800D01*
X147459780Y-85538160D01*
X147406440Y-85616900D01*
X147358180Y-85685480D01*
X147345480Y-85705800D01*
X147299760Y-85776920D01*
X147261660Y-85832800D01*
X147233720Y-85873440D01*
X147210860Y-85903920D01*
X147195620Y-85926780D01*
X147185460Y-85936940D01*
X147177840Y-85942020D01*
X147175300Y-85942020D01*
X147172760Y-85936940D01*
X147172760Y-85934400D01*
X147167680Y-85919160D01*
X147160060Y-85888680D01*
X147152440Y-85848040D01*
X147142280Y-85799780D01*
X147142280Y-85799780D01*
X147134660Y-85764220D01*
X147121960Y-85710880D01*
X147109260Y-85644840D01*
X147091480Y-85566100D01*
X147073700Y-85479740D01*
X147053380Y-85388300D01*
X147033060Y-85294320D01*
X147025440Y-85258760D01*
X147005120Y-85162240D01*
X146984800Y-85065720D01*
X146964480Y-84971740D01*
X146944160Y-84882840D01*
X146926380Y-84804100D01*
X146913680Y-84738060D01*
X146900980Y-84684720D01*
X146898440Y-84674560D01*
X146888280Y-84618680D01*
X146878120Y-84572960D01*
X146870500Y-84534860D01*
X146867960Y-84512000D01*
X146867960Y-84506920D01*
X146875580Y-84506920D01*
X146885740Y-84514540D01*
X146906060Y-84532320D01*
X146934000Y-84562800D01*
X146972100Y-84603440D01*
X147017820Y-84656780D01*
X147068620Y-84715200D01*
X147106720Y-84755840D01*
X147134660Y-84786320D01*
X147152440Y-84804100D01*
X147165140Y-84811720D01*
X147170220Y-84811720D01*
X147172760Y-84801560D01*
X147177840Y-84773620D01*
X147182920Y-84732980D01*
X147193080Y-84679640D01*
X147200700Y-84621220D01*
X147203240Y-84603440D01*
X147215940Y-84527240D01*
X147228640Y-84443420D01*
X147241340Y-84362140D01*
X147254040Y-84288480D01*
X147261660Y-84237680D01*
X147271820Y-84171640D01*
X147284520Y-84092900D01*
X147297220Y-84009080D01*
X147309920Y-83930340D01*
X147315000Y-83887160D01*
X147325160Y-83808420D01*
X147340400Y-83719520D01*
X147353100Y-83628080D01*
X147368340Y-83541720D01*
X147373420Y-83506160D01*
X147386120Y-83432500D01*
X147396280Y-83356300D01*
X147408980Y-83280100D01*
X147419140Y-83214060D01*
X147424220Y-83175960D01*
X147431840Y-83125160D01*
X147439460Y-83081980D01*
X147444540Y-83048960D01*
X147447080Y-83033720D01*
X147447080Y-83031180D01*
X147447080Y-83026100D01*
X147439460Y-83023560D01*
X147426760Y-83028640D01*
X147401360Y-83038800D01*
X147368340Y-83054040D01*
X147320080Y-83076900D01*
X147261660Y-83107380D01*
X147185460Y-83145480D01*
X147142280Y-83168340D01*
X146956860Y-83262320D01*
X146789220Y-83348680D01*
X146639360Y-83424880D01*
X146504740Y-83493460D01*
X146390440Y-83551880D01*
X146291380Y-83600140D01*
X146210100Y-83640780D01*
X146146600Y-83671260D01*
X146098340Y-83694120D01*
X146067860Y-83706820D01*
X146055160Y-83711900D01*
X146055160Y-83709360D01*
X146055160Y-83696660D01*
X146062780Y-83666180D01*
X146075480Y-83617920D01*
X146090720Y-83559500D01*
X146108500Y-83490920D01*
X146128820Y-83414720D01*
X146151680Y-83333440D01*
X146177080Y-83247080D01*
X146194860Y-83181040D01*
X146212640Y-83115000D01*
X146230420Y-83048960D01*
X146248200Y-82990540D01*
X146260900Y-82939740D01*
X146268520Y-82909260D01*
X146281220Y-82866080D01*
X146296460Y-82810200D01*
X146314240Y-82749240D01*
X146329480Y-82693360D01*
X146347260Y-82629860D01*
X146367580Y-82558740D01*
X146385360Y-82490160D01*
X146398060Y-82446980D01*
X146413300Y-82396180D01*
X146431080Y-82332680D01*
X146451400Y-82261560D01*
X146471720Y-82187900D01*
X146484420Y-82139640D01*
X146502200Y-82076140D01*
X146519980Y-82010100D01*
X146537760Y-81951680D01*
X146550460Y-81900880D01*
X146560620Y-81870400D01*
X146568240Y-81842460D01*
X146580940Y-81796740D01*
X146596180Y-81738320D01*
X146616500Y-81667200D01*
X146639360Y-81588460D01*
X146662220Y-81502100D01*
X146687620Y-81410660D01*
X146700320Y-81370020D01*
X146728260Y-81270960D01*
X146756200Y-81169360D01*
X146784140Y-81067760D01*
X146812080Y-80971240D01*
X146837480Y-80882340D01*
X146857800Y-80803600D01*
X146875580Y-80742640D01*
X146878120Y-80732480D01*
X146895900Y-80668980D01*
X146911140Y-80613100D01*
X146926380Y-80564840D01*
X146939080Y-80529280D01*
X146946700Y-80508960D01*
X146949240Y-80506420D01*
X146961940Y-80503880D01*
X146989880Y-80503880D01*
X147035600Y-80501340D01*
X147094020Y-80501340D01*
X147162600Y-80498800D01*
X147238800Y-80498800D01*
X147317540Y-80498800D01*
X147403900Y-80498800D01*
X147490260Y-80498800D01*
X147579160Y-80498800D01*
X147660440Y-80498800D01*
X147739180Y-80498800D01*
X147807760Y-80498800D01*
X147866180Y-80498800D01*
X147911900Y-80501340D01*
X147942380Y-80501340D01*
X147957620Y-80503880D01*
X147955080Y-80514040D01*
X147947460Y-80539440D01*
X147932220Y-80575000D01*
X147916980Y-80610560D01*
X147817920Y-80839160D01*
X147718860Y-81062680D01*
X147627420Y-81276040D01*
X147538520Y-81484320D01*
X147454700Y-81679900D01*
X147375960Y-81862780D01*
X147307380Y-82035500D01*
X147241340Y-82192980D01*
X147185460Y-82335220D01*
X147134660Y-82462220D01*
X147121960Y-82492700D01*
X147096560Y-82556200D01*
X147073700Y-82617160D01*
X147053380Y-82667960D01*
X147038140Y-82711140D01*
X147025440Y-82739080D01*
X147025440Y-82744160D01*
X147015280Y-82772100D01*
X147007660Y-82789880D01*
X147007660Y-82794960D01*
X147017820Y-82792420D01*
X147043220Y-82779720D01*
X147086400Y-82759400D01*
X147142280Y-82731460D01*
X147210860Y-82695900D01*
X147292140Y-82652720D01*
X147383580Y-82604460D01*
X147485180Y-82551120D01*
X147596940Y-82495240D01*
X147716320Y-82434280D01*
X147739180Y-82421580D01*
X147833160Y-82373320D01*
X147924600Y-82325060D01*
X148010960Y-82281880D01*
X148089700Y-82241240D01*
X148158280Y-82205680D01*
X148219240Y-82175200D01*
X148270040Y-82149800D01*
X148305600Y-82132020D01*
X148325920Y-82124400D01*
X148331000Y-82121860D01*
X148331000Y-82121860D01*
X148331000Y-82121860D01*
G37*
X148331000Y-82121860D02*
X148328460Y-82132020D01*
X148323380Y-82157420D01*
X148313220Y-82195520D01*
X148300520Y-82241240D01*
X148300520Y-82251400D01*
X148282740Y-82309820D01*
X148264960Y-82378400D01*
X148244640Y-82452060D01*
X148226860Y-82515560D01*
X148224320Y-82523180D01*
X148211620Y-82568900D01*
X148198920Y-82612080D01*
X148188760Y-82655260D01*
X148176060Y-82700980D01*
X148160820Y-82751780D01*
X148145580Y-82810200D01*
X148127800Y-82881320D01*
X148104940Y-82965140D01*
X148077000Y-83066740D01*
X148074460Y-83069280D01*
X148046520Y-83175960D01*
X148023660Y-83262320D01*
X148003340Y-83338520D01*
X147985560Y-83402020D01*
X147970320Y-83460440D01*
X147955080Y-83511240D01*
X147942380Y-83562040D01*
X147927140Y-83612840D01*
X147924600Y-83625540D01*
X147909360Y-83683960D01*
X147894120Y-83742380D01*
X147878880Y-83795720D01*
X147868720Y-83836360D01*
X147866180Y-83846520D01*
X147825540Y-83993840D01*
X147787440Y-84136080D01*
X147751880Y-84268160D01*
X147718860Y-84392620D01*
X147690920Y-84504380D01*
X147665520Y-84605980D01*
X147642660Y-84692340D01*
X147624880Y-84768540D01*
X147612180Y-84826960D01*
X147602020Y-84867600D01*
X147599480Y-84893000D01*
X147599480Y-84900620D01*
X147612180Y-84898080D01*
X147637580Y-84887920D01*
X147678220Y-84870140D01*
X147723940Y-84849820D01*
X147769660Y-84829500D01*
X147835700Y-84799020D01*
X147886500Y-84776160D01*
X147922060Y-84760920D01*
X147947460Y-84753300D01*
X147965240Y-84750760D01*
X147972860Y-84753300D01*
X147975400Y-84753300D01*
X147975400Y-84755840D01*
X147972860Y-84763460D01*
X147967780Y-84773620D01*
X147957620Y-84788860D01*
X147944920Y-84811720D01*
X147924600Y-84844740D01*
X147896660Y-84885380D01*
X147861100Y-84938720D01*
X147817920Y-85002220D01*
X147764580Y-85080960D01*
X147703620Y-85174940D01*
X147690920Y-85195260D01*
X147635040Y-85274000D01*
X147576620Y-85362900D01*
X147515660Y-85451800D01*
X147459780Y-85538160D01*
X147406440Y-85616900D01*
X147358180Y-85685480D01*
X147345480Y-85705800D01*
X147299760Y-85776920D01*
X147261660Y-85832800D01*
X147233720Y-85873440D01*
X147210860Y-85903920D01*
X147195620Y-85926780D01*
X147185460Y-85936940D01*
X147177840Y-85942020D01*
X147175300Y-85942020D01*
X147172760Y-85936940D01*
X147172760Y-85934400D01*
X147167680Y-85919160D01*
X147160060Y-85888680D01*
X147152440Y-85848040D01*
X147142280Y-85799780D01*
X147142280Y-85799780D01*
X147134660Y-85764220D01*
X147121960Y-85710880D01*
X147109260Y-85644840D01*
X147091480Y-85566100D01*
X147073700Y-85479740D01*
X147053380Y-85388300D01*
X147033060Y-85294320D01*
X147025440Y-85258760D01*
X147005120Y-85162240D01*
X146984800Y-85065720D01*
X146964480Y-84971740D01*
X146944160Y-84882840D01*
X146926380Y-84804100D01*
X146913680Y-84738060D01*
X146900980Y-84684720D01*
X146898440Y-84674560D01*
X146888280Y-84618680D01*
X146878120Y-84572960D01*
X146870500Y-84534860D01*
X146867960Y-84512000D01*
X146867960Y-84506920D01*
X146875580Y-84506920D01*
X146885740Y-84514540D01*
X146906060Y-84532320D01*
X146934000Y-84562800D01*
X146972100Y-84603440D01*
X147017820Y-84656780D01*
X147068620Y-84715200D01*
X147106720Y-84755840D01*
X147134660Y-84786320D01*
X147152440Y-84804100D01*
X147165140Y-84811720D01*
X147170220Y-84811720D01*
X147172760Y-84801560D01*
X147177840Y-84773620D01*
X147182920Y-84732980D01*
X147193080Y-84679640D01*
X147200700Y-84621220D01*
X147203240Y-84603440D01*
X147215940Y-84527240D01*
X147228640Y-84443420D01*
X147241340Y-84362140D01*
X147254040Y-84288480D01*
X147261660Y-84237680D01*
X147271820Y-84171640D01*
X147284520Y-84092900D01*
X147297220Y-84009080D01*
X147309920Y-83930340D01*
X147315000Y-83887160D01*
X147325160Y-83808420D01*
X147340400Y-83719520D01*
X147353100Y-83628080D01*
X147368340Y-83541720D01*
X147373420Y-83506160D01*
X147386120Y-83432500D01*
X147396280Y-83356300D01*
X147408980Y-83280100D01*
X147419140Y-83214060D01*
X147424220Y-83175960D01*
X147431840Y-83125160D01*
X147439460Y-83081980D01*
X147444540Y-83048960D01*
X147447080Y-83033720D01*
X147447080Y-83031180D01*
X147447080Y-83026100D01*
X147439460Y-83023560D01*
X147426760Y-83028640D01*
X147401360Y-83038800D01*
X147368340Y-83054040D01*
X147320080Y-83076900D01*
X147261660Y-83107380D01*
X147185460Y-83145480D01*
X147142280Y-83168340D01*
X146956860Y-83262320D01*
X146789220Y-83348680D01*
X146639360Y-83424880D01*
X146504740Y-83493460D01*
X146390440Y-83551880D01*
X146291380Y-83600140D01*
X146210100Y-83640780D01*
X146146600Y-83671260D01*
X146098340Y-83694120D01*
X146067860Y-83706820D01*
X146055160Y-83711900D01*
X146055160Y-83709360D01*
X146055160Y-83696660D01*
X146062780Y-83666180D01*
X146075480Y-83617920D01*
X146090720Y-83559500D01*
X146108500Y-83490920D01*
X146128820Y-83414720D01*
X146151680Y-83333440D01*
X146177080Y-83247080D01*
X146194860Y-83181040D01*
X146212640Y-83115000D01*
X146230420Y-83048960D01*
X146248200Y-82990540D01*
X146260900Y-82939740D01*
X146268520Y-82909260D01*
X146281220Y-82866080D01*
X146296460Y-82810200D01*
X146314240Y-82749240D01*
X146329480Y-82693360D01*
X146347260Y-82629860D01*
X146367580Y-82558740D01*
X146385360Y-82490160D01*
X146398060Y-82446980D01*
X146413300Y-82396180D01*
X146431080Y-82332680D01*
X146451400Y-82261560D01*
X146471720Y-82187900D01*
X146484420Y-82139640D01*
X146502200Y-82076140D01*
X146519980Y-82010100D01*
X146537760Y-81951680D01*
X146550460Y-81900880D01*
X146560620Y-81870400D01*
X146568240Y-81842460D01*
X146580940Y-81796740D01*
X146596180Y-81738320D01*
X146616500Y-81667200D01*
X146639360Y-81588460D01*
X146662220Y-81502100D01*
X146687620Y-81410660D01*
X146700320Y-81370020D01*
X146728260Y-81270960D01*
X146756200Y-81169360D01*
X146784140Y-81067760D01*
X146812080Y-80971240D01*
X146837480Y-80882340D01*
X146857800Y-80803600D01*
X146875580Y-80742640D01*
X146878120Y-80732480D01*
X146895900Y-80668980D01*
X146911140Y-80613100D01*
X146926380Y-80564840D01*
X146939080Y-80529280D01*
X146946700Y-80508960D01*
X146949240Y-80506420D01*
X146961940Y-80503880D01*
X146989880Y-80503880D01*
X147035600Y-80501340D01*
X147094020Y-80501340D01*
X147162600Y-80498800D01*
X147238800Y-80498800D01*
X147317540Y-80498800D01*
X147403900Y-80498800D01*
X147490260Y-80498800D01*
X147579160Y-80498800D01*
X147660440Y-80498800D01*
X147739180Y-80498800D01*
X147807760Y-80498800D01*
X147866180Y-80498800D01*
X147911900Y-80501340D01*
X147942380Y-80501340D01*
X147957620Y-80503880D01*
X147955080Y-80514040D01*
X147947460Y-80539440D01*
X147932220Y-80575000D01*
X147916980Y-80610560D01*
X147817920Y-80839160D01*
X147718860Y-81062680D01*
X147627420Y-81276040D01*
X147538520Y-81484320D01*
X147454700Y-81679900D01*
X147375960Y-81862780D01*
X147307380Y-82035500D01*
X147241340Y-82192980D01*
X147185460Y-82335220D01*
X147134660Y-82462220D01*
X147121960Y-82492700D01*
X147096560Y-82556200D01*
X147073700Y-82617160D01*
X147053380Y-82667960D01*
X147038140Y-82711140D01*
X147025440Y-82739080D01*
X147025440Y-82744160D01*
X147015280Y-82772100D01*
X147007660Y-82789880D01*
X147007660Y-82794960D01*
X147017820Y-82792420D01*
X147043220Y-82779720D01*
X147086400Y-82759400D01*
X147142280Y-82731460D01*
X147210860Y-82695900D01*
X147292140Y-82652720D01*
X147383580Y-82604460D01*
X147485180Y-82551120D01*
X147596940Y-82495240D01*
X147716320Y-82434280D01*
X147739180Y-82421580D01*
X147833160Y-82373320D01*
X147924600Y-82325060D01*
X148010960Y-82281880D01*
X148089700Y-82241240D01*
X148158280Y-82205680D01*
X148219240Y-82175200D01*
X148270040Y-82149800D01*
X148305600Y-82132020D01*
X148325920Y-82124400D01*
X148331000Y-82121860D01*
X148331000Y-82121860D01*
G36*
X152313720Y-86201100D02*
X152311180Y-86300160D01*
X152298480Y-86399220D01*
X152275620Y-86488120D01*
X152234980Y-86564320D01*
X152212120Y-86594800D01*
X152189260Y-86622740D01*
X152161320Y-86645600D01*
X152128300Y-86665920D01*
X152090200Y-86686240D01*
X152006380Y-86724340D01*
X151536480Y-86724340D01*
X151536480Y-86089340D01*
X151528860Y-86074100D01*
X151513620Y-86048700D01*
X151490760Y-86010600D01*
X151462820Y-85964880D01*
X151445040Y-85939480D01*
X151427260Y-85911540D01*
X151414560Y-85888680D01*
X151399320Y-85865820D01*
X151386620Y-85845500D01*
X151371380Y-85822640D01*
X151356140Y-85799780D01*
X151340900Y-85771840D01*
X151320580Y-85738820D01*
X151295180Y-85698180D01*
X151267240Y-85652460D01*
X151234220Y-85596580D01*
X151193580Y-85530540D01*
X151147860Y-85451800D01*
X151091980Y-85360360D01*
X151028480Y-85253680D01*
X150962440Y-85141920D01*
X150904020Y-85047940D01*
X150850680Y-84956500D01*
X150799880Y-84872680D01*
X150754160Y-84796480D01*
X150713520Y-84727900D01*
X150677960Y-84672020D01*
X150652560Y-84628840D01*
X150634780Y-84598360D01*
X150624620Y-84583120D01*
X150614460Y-84562800D01*
X150594140Y-84529780D01*
X150566200Y-84486600D01*
X150535720Y-84433260D01*
X150502700Y-84377380D01*
X150484920Y-84346900D01*
X150441740Y-84275780D01*
X150393480Y-84197040D01*
X150345220Y-84115760D01*
X150302040Y-84039560D01*
X150261400Y-83973520D01*
X150261400Y-83970980D01*
X150223300Y-83910020D01*
X150185200Y-83843980D01*
X150149640Y-83783020D01*
X150116620Y-83729680D01*
X150093760Y-83691580D01*
X150068360Y-83648400D01*
X150035340Y-83595060D01*
X149999780Y-83531560D01*
X149961680Y-83465520D01*
X149923580Y-83402020D01*
X149921040Y-83399480D01*
X149880400Y-83330900D01*
X149834680Y-83252160D01*
X149783880Y-83168340D01*
X149735620Y-83087060D01*
X149692440Y-83015940D01*
X149651800Y-82947360D01*
X149606080Y-82866080D01*
X149555280Y-82782260D01*
X149504480Y-82695900D01*
X149456220Y-82614620D01*
X149433360Y-82579060D01*
X149390180Y-82502860D01*
X149339380Y-82421580D01*
X149288580Y-82335220D01*
X149240320Y-82253940D01*
X149197140Y-82180280D01*
X149179360Y-82149800D01*
X149143800Y-82091380D01*
X149110780Y-82038040D01*
X149082840Y-81989780D01*
X149059980Y-81951680D01*
X149044740Y-81926280D01*
X149042200Y-81921200D01*
X149029500Y-81900880D01*
X149009180Y-81865320D01*
X148983780Y-81822140D01*
X148953300Y-81771340D01*
X148930440Y-81735780D01*
X148899960Y-81682440D01*
X148872020Y-81634180D01*
X148846620Y-81593540D01*
X148828840Y-81563060D01*
X148821220Y-81550360D01*
X148811060Y-81530040D01*
X148790740Y-81497020D01*
X148762800Y-81453840D01*
X148732320Y-81400500D01*
X148699300Y-81344620D01*
X148684060Y-81319220D01*
X148640880Y-81248100D01*
X148592620Y-81166820D01*
X148541820Y-81080460D01*
X148491020Y-80996640D01*
X148447840Y-80920440D01*
X148445300Y-80917900D01*
X148407200Y-80856940D01*
X148374180Y-80798520D01*
X148341160Y-80745180D01*
X148315760Y-80699460D01*
X148295440Y-80668980D01*
X148290360Y-80658820D01*
X148272580Y-80628340D01*
X148244640Y-80582620D01*
X148209080Y-80524200D01*
X148168440Y-80453080D01*
X148120180Y-80374340D01*
X148066840Y-80285440D01*
X148010960Y-80191460D01*
X147952540Y-80094940D01*
X147891580Y-79995880D01*
X147833160Y-79896820D01*
X147774740Y-79800300D01*
X147716320Y-79706320D01*
X147662980Y-79619960D01*
X147614720Y-79538680D01*
X147571540Y-79467560D01*
X147533440Y-79406600D01*
X147528360Y-79401520D01*
X147490260Y-79335480D01*
X147449620Y-79274520D01*
X147411520Y-79213560D01*
X147375960Y-79160220D01*
X147342940Y-79114500D01*
X147320080Y-79078940D01*
X147304840Y-79053540D01*
X147294680Y-79045920D01*
X147289600Y-79053540D01*
X147271820Y-79078940D01*
X147246420Y-79117040D01*
X147213400Y-79172920D01*
X147172760Y-79238960D01*
X147124500Y-79317700D01*
X147071160Y-79409140D01*
X147010200Y-79508200D01*
X146944160Y-79617420D01*
X146875580Y-79736800D01*
X146799380Y-79861260D01*
X146723180Y-79990800D01*
X146641900Y-80125420D01*
X146601260Y-80196540D01*
X146586020Y-80219400D01*
X146563160Y-80257500D01*
X146535220Y-80305760D01*
X146499660Y-80364180D01*
X146464100Y-80427680D01*
X146426000Y-80493720D01*
X146255820Y-80778200D01*
X146093260Y-81049980D01*
X145938320Y-81311600D01*
X145788460Y-81565600D01*
X145643680Y-81811980D01*
X145498900Y-82058360D01*
X145458260Y-82126940D01*
X145420160Y-82187900D01*
X145384600Y-82248860D01*
X145351580Y-82304740D01*
X145323640Y-82350460D01*
X145303320Y-82386020D01*
X145298240Y-82396180D01*
X145280460Y-82424120D01*
X145255060Y-82467300D01*
X145224580Y-82518100D01*
X145189020Y-82576520D01*
X145150920Y-82642560D01*
X145122980Y-82688280D01*
X145084880Y-82754320D01*
X145046780Y-82817820D01*
X145011220Y-82876240D01*
X144980740Y-82927040D01*
X144957880Y-82965140D01*
X144947720Y-82985460D01*
X144924860Y-83021020D01*
X144896920Y-83066740D01*
X144866440Y-83120080D01*
X144835960Y-83173420D01*
X144830880Y-83181040D01*
X144782620Y-83262320D01*
X144734360Y-83346140D01*
X144686100Y-83427420D01*
X144640380Y-83506160D01*
X144597200Y-83574740D01*
X144564180Y-83630620D01*
X144551480Y-83650940D01*
X144526080Y-83694120D01*
X144500680Y-83739840D01*
X144477820Y-83777940D01*
X144475280Y-83780480D01*
X144462580Y-83805880D01*
X144437180Y-83846520D01*
X144404160Y-83902400D01*
X144360980Y-83976060D01*
X144310180Y-84062420D01*
X144251760Y-84164020D01*
X144183180Y-84278320D01*
X144109520Y-84402780D01*
X144025700Y-84542480D01*
X143936800Y-84692340D01*
X143934260Y-84697420D01*
X143888540Y-84776160D01*
X143840280Y-84859980D01*
X143789480Y-84946340D01*
X143741220Y-85027620D01*
X143698040Y-85101280D01*
X143670100Y-85144460D01*
X143632000Y-85207960D01*
X143593900Y-85276540D01*
X143555800Y-85340040D01*
X143522780Y-85398460D01*
X143494840Y-85444180D01*
X143489760Y-85449260D01*
X143461820Y-85497520D01*
X143433880Y-85545780D01*
X143411020Y-85586420D01*
X143393240Y-85614360D01*
X143352600Y-85685480D01*
X143311960Y-85754060D01*
X143271320Y-85822640D01*
X143233220Y-85888680D01*
X143197660Y-85947100D01*
X143167180Y-85997900D01*
X143144320Y-86038540D01*
X143126540Y-86066480D01*
X143118920Y-86079180D01*
X143116380Y-86079180D01*
X143108760Y-86094420D01*
X143108760Y-86096960D01*
X143118920Y-86096960D01*
X143146860Y-86099500D01*
X143195120Y-86099500D01*
X143261160Y-86099500D01*
X143344980Y-86099500D01*
X143446580Y-86102040D01*
X143560880Y-86102040D01*
X143692960Y-86102040D01*
X143840280Y-86102040D01*
X144000300Y-86102040D01*
X144175560Y-86102040D01*
X144363520Y-86102040D01*
X144561640Y-86104580D01*
X144772460Y-86104580D01*
X144995980Y-86104580D01*
X145227120Y-86104580D01*
X145468420Y-86104580D01*
X145719880Y-86104580D01*
X145978960Y-86104580D01*
X146243120Y-86104580D01*
X146517440Y-86104580D01*
X146796840Y-86104580D01*
X147083860Y-86104580D01*
X147325160Y-86104580D01*
X147673140Y-86104580D01*
X148000800Y-86104580D01*
X148308140Y-86104580D01*
X148597700Y-86104580D01*
X148872020Y-86104580D01*
X149126020Y-86104580D01*
X149364780Y-86104580D01*
X149588300Y-86104580D01*
X149796580Y-86104580D01*
X149987080Y-86104580D01*
X150164880Y-86104580D01*
X150327440Y-86104580D01*
X150479840Y-86104580D01*
X150617000Y-86104580D01*
X150741460Y-86104580D01*
X150855760Y-86102040D01*
X150957360Y-86102040D01*
X151048800Y-86102040D01*
X151130080Y-86102040D01*
X151203740Y-86102040D01*
X151267240Y-86102040D01*
X151323120Y-86099500D01*
X151368840Y-86099500D01*
X151409480Y-86099500D01*
X151442500Y-86096960D01*
X151470440Y-86096960D01*
X151493300Y-86096960D01*
X151508540Y-86094420D01*
X151521240Y-86094420D01*
X151528860Y-86091880D01*
X151533940Y-86091880D01*
X151536480Y-86089340D01*
X151536480Y-86089340D01*
X151536480Y-86724340D01*
X147337860Y-86729420D01*
X142671880Y-86734500D01*
X142582980Y-86698940D01*
X142499160Y-86655760D01*
X142430580Y-86602420D01*
X142379780Y-86538920D01*
X142344220Y-86462720D01*
X142323900Y-86373820D01*
X142316280Y-86279840D01*
X142316280Y-86251900D01*
X142318820Y-86229040D01*
X142321360Y-86208720D01*
X142326440Y-86185860D01*
X142336600Y-86160460D01*
X142351840Y-86129980D01*
X142374700Y-86089340D01*
X142402640Y-86038540D01*
X142440740Y-85975040D01*
X142461060Y-85939480D01*
X142494080Y-85883600D01*
X142527100Y-85827720D01*
X142555040Y-85779460D01*
X142577900Y-85741360D01*
X142593140Y-85715960D01*
X142610920Y-85682940D01*
X142638860Y-85637220D01*
X142671880Y-85581340D01*
X142707440Y-85517840D01*
X142748080Y-85449260D01*
X142788720Y-85380680D01*
X142826820Y-85314640D01*
X142834440Y-85304480D01*
X142857300Y-85266380D01*
X142885240Y-85218120D01*
X142918260Y-85162240D01*
X142953820Y-85101280D01*
X142989380Y-85042860D01*
X143030020Y-84974280D01*
X143075740Y-84895540D01*
X143124000Y-84814260D01*
X143169720Y-84735520D01*
X143197660Y-84687260D01*
X143235760Y-84623760D01*
X143276400Y-84555180D01*
X143317040Y-84486600D01*
X143352600Y-84425640D01*
X143378000Y-84382460D01*
X143408480Y-84331660D01*
X143444040Y-84270700D01*
X143484680Y-84204660D01*
X143525320Y-84136080D01*
X143560880Y-84072580D01*
X143598980Y-84009080D01*
X143637080Y-83943040D01*
X143675180Y-83879540D01*
X143708200Y-83826200D01*
X143733600Y-83783020D01*
X143733600Y-83780480D01*
X143748840Y-83757620D01*
X143764080Y-83729680D01*
X143784400Y-83696660D01*
X143804720Y-83661100D01*
X143832660Y-83617920D01*
X143863140Y-83564580D01*
X143898700Y-83503620D01*
X143939340Y-83435040D01*
X143987600Y-83351220D01*
X144043480Y-83257240D01*
X144106980Y-83150560D01*
X144180640Y-83028640D01*
X144261920Y-82888940D01*
X144267000Y-82883860D01*
X144310180Y-82807660D01*
X144355900Y-82734000D01*
X144399080Y-82660340D01*
X144437180Y-82596840D01*
X144470200Y-82540960D01*
X144495600Y-82497780D01*
X144505760Y-82480000D01*
X144526080Y-82446980D01*
X144554020Y-82401260D01*
X144589580Y-82340300D01*
X144630220Y-82271720D01*
X144673400Y-82198060D01*
X144719120Y-82119320D01*
X144759760Y-82050740D01*
X144843580Y-81911040D01*
X144922320Y-81776420D01*
X144998520Y-81649420D01*
X145069640Y-81530040D01*
X145135680Y-81420820D01*
X145194100Y-81321760D01*
X145244900Y-81235400D01*
X145285540Y-81166820D01*
X145308400Y-81128720D01*
X145326180Y-81095700D01*
X145354120Y-81047440D01*
X145389680Y-80989020D01*
X145432860Y-80917900D01*
X145478580Y-80839160D01*
X145526840Y-80755340D01*
X145577640Y-80668980D01*
X145615740Y-80608020D01*
X145669080Y-80519120D01*
X145722420Y-80427680D01*
X145775760Y-80338780D01*
X145824020Y-80254960D01*
X145869740Y-80176220D01*
X145910380Y-80110180D01*
X145940860Y-80056840D01*
X145956100Y-80031440D01*
X145994200Y-79967940D01*
X146034840Y-79896820D01*
X146075480Y-79828240D01*
X146113580Y-79767280D01*
X146133900Y-79731720D01*
X146164380Y-79678380D01*
X146202480Y-79614880D01*
X146243120Y-79546300D01*
X146283760Y-79475180D01*
X146314240Y-79426920D01*
X146387900Y-79302460D01*
X146451400Y-79190700D01*
X146509820Y-79091640D01*
X146560620Y-79005280D01*
X146603800Y-78934160D01*
X146636820Y-78878280D01*
X146659680Y-78837640D01*
X146674920Y-78814780D01*
X146690160Y-78789380D01*
X146713020Y-78751280D01*
X146738420Y-78705560D01*
X146768900Y-78654760D01*
X146776520Y-78644600D01*
X146822240Y-78563320D01*
X146860340Y-78499820D01*
X146893360Y-78449020D01*
X146921300Y-78408380D01*
X146949240Y-78377900D01*
X146974640Y-78352500D01*
X147002580Y-78332180D01*
X147033060Y-78314400D01*
X147071160Y-78299160D01*
X147114340Y-78281380D01*
X147121960Y-78278840D01*
X147165140Y-78261060D01*
X147195620Y-78250900D01*
X147226100Y-78245820D01*
X147256580Y-78245820D01*
X147302300Y-78245820D01*
X147386120Y-78258520D01*
X147464860Y-78278840D01*
X147538520Y-78314400D01*
X147604560Y-78365200D01*
X147668060Y-78431240D01*
X147729020Y-78512520D01*
X147787440Y-78614120D01*
X147820460Y-78675080D01*
X147833160Y-78700480D01*
X147856020Y-78741120D01*
X147886500Y-78794460D01*
X147922060Y-78857960D01*
X147965240Y-78929080D01*
X148010960Y-79007820D01*
X148059220Y-79089100D01*
X148107480Y-79172920D01*
X148158280Y-79256740D01*
X148206540Y-79338020D01*
X148249720Y-79411680D01*
X148267500Y-79437080D01*
X148290360Y-79480260D01*
X148323380Y-79531060D01*
X148358940Y-79592020D01*
X148397040Y-79658060D01*
X148437680Y-79726640D01*
X148440220Y-79731720D01*
X148493560Y-79818080D01*
X148554520Y-79922220D01*
X148625640Y-80041600D01*
X148704380Y-80173680D01*
X148793280Y-80321000D01*
X148889800Y-80481020D01*
X148991400Y-80651200D01*
X149100620Y-80834080D01*
X149217460Y-81027120D01*
X149339380Y-81230320D01*
X149466380Y-81438600D01*
X149595920Y-81657040D01*
X149733080Y-81883100D01*
X149870240Y-82111700D01*
X150012480Y-82347920D01*
X150157260Y-82584140D01*
X150192820Y-82645100D01*
X150256320Y-82749240D01*
X150324900Y-82861000D01*
X150398560Y-82982920D01*
X150472220Y-83107380D01*
X150548420Y-83231840D01*
X150624620Y-83356300D01*
X150698280Y-83478220D01*
X150766860Y-83595060D01*
X150832900Y-83701740D01*
X150891320Y-83798260D01*
X150942120Y-83882080D01*
X150970060Y-83932880D01*
X151056420Y-84075120D01*
X151132620Y-84202120D01*
X151203740Y-84316420D01*
X151267240Y-84423100D01*
X151325660Y-84522160D01*
X151384080Y-84616140D01*
X151439960Y-84707580D01*
X151495840Y-84799020D01*
X151554260Y-84895540D01*
X151607600Y-84984440D01*
X151709200Y-85149540D01*
X151800640Y-85299400D01*
X151884460Y-85434020D01*
X151958120Y-85558480D01*
X152021620Y-85667700D01*
X152080040Y-85769300D01*
X152133380Y-85860740D01*
X152179100Y-85942020D01*
X152219740Y-86018220D01*
X152252760Y-86079180D01*
X152313720Y-86201100D01*
X152313720Y-86201100D01*
X152313720Y-86201100D01*
G37*
X152313720Y-86201100D02*
X152311180Y-86300160D01*
X152298480Y-86399220D01*
X152275620Y-86488120D01*
X152234980Y-86564320D01*
X152212120Y-86594800D01*
X152189260Y-86622740D01*
X152161320Y-86645600D01*
X152128300Y-86665920D01*
X152090200Y-86686240D01*
X152006380Y-86724340D01*
X151536480Y-86724340D01*
X151536480Y-86089340D01*
X151528860Y-86074100D01*
X151513620Y-86048700D01*
X151490760Y-86010600D01*
X151462820Y-85964880D01*
X151445040Y-85939480D01*
X151427260Y-85911540D01*
X151414560Y-85888680D01*
X151399320Y-85865820D01*
X151386620Y-85845500D01*
X151371380Y-85822640D01*
X151356140Y-85799780D01*
X151340900Y-85771840D01*
X151320580Y-85738820D01*
X151295180Y-85698180D01*
X151267240Y-85652460D01*
X151234220Y-85596580D01*
X151193580Y-85530540D01*
X151147860Y-85451800D01*
X151091980Y-85360360D01*
X151028480Y-85253680D01*
X150962440Y-85141920D01*
X150904020Y-85047940D01*
X150850680Y-84956500D01*
X150799880Y-84872680D01*
X150754160Y-84796480D01*
X150713520Y-84727900D01*
X150677960Y-84672020D01*
X150652560Y-84628840D01*
X150634780Y-84598360D01*
X150624620Y-84583120D01*
X150614460Y-84562800D01*
X150594140Y-84529780D01*
X150566200Y-84486600D01*
X150535720Y-84433260D01*
X150502700Y-84377380D01*
X150484920Y-84346900D01*
X150441740Y-84275780D01*
X150393480Y-84197040D01*
X150345220Y-84115760D01*
X150302040Y-84039560D01*
X150261400Y-83973520D01*
X150261400Y-83970980D01*
X150223300Y-83910020D01*
X150185200Y-83843980D01*
X150149640Y-83783020D01*
X150116620Y-83729680D01*
X150093760Y-83691580D01*
X150068360Y-83648400D01*
X150035340Y-83595060D01*
X149999780Y-83531560D01*
X149961680Y-83465520D01*
X149923580Y-83402020D01*
X149921040Y-83399480D01*
X149880400Y-83330900D01*
X149834680Y-83252160D01*
X149783880Y-83168340D01*
X149735620Y-83087060D01*
X149692440Y-83015940D01*
X149651800Y-82947360D01*
X149606080Y-82866080D01*
X149555280Y-82782260D01*
X149504480Y-82695900D01*
X149456220Y-82614620D01*
X149433360Y-82579060D01*
X149390180Y-82502860D01*
X149339380Y-82421580D01*
X149288580Y-82335220D01*
X149240320Y-82253940D01*
X149197140Y-82180280D01*
X149179360Y-82149800D01*
X149143800Y-82091380D01*
X149110780Y-82038040D01*
X149082840Y-81989780D01*
X149059980Y-81951680D01*
X149044740Y-81926280D01*
X149042200Y-81921200D01*
X149029500Y-81900880D01*
X149009180Y-81865320D01*
X148983780Y-81822140D01*
X148953300Y-81771340D01*
X148930440Y-81735780D01*
X148899960Y-81682440D01*
X148872020Y-81634180D01*
X148846620Y-81593540D01*
X148828840Y-81563060D01*
X148821220Y-81550360D01*
X148811060Y-81530040D01*
X148790740Y-81497020D01*
X148762800Y-81453840D01*
X148732320Y-81400500D01*
X148699300Y-81344620D01*
X148684060Y-81319220D01*
X148640880Y-81248100D01*
X148592620Y-81166820D01*
X148541820Y-81080460D01*
X148491020Y-80996640D01*
X148447840Y-80920440D01*
X148445300Y-80917900D01*
X148407200Y-80856940D01*
X148374180Y-80798520D01*
X148341160Y-80745180D01*
X148315760Y-80699460D01*
X148295440Y-80668980D01*
X148290360Y-80658820D01*
X148272580Y-80628340D01*
X148244640Y-80582620D01*
X148209080Y-80524200D01*
X148168440Y-80453080D01*
X148120180Y-80374340D01*
X148066840Y-80285440D01*
X148010960Y-80191460D01*
X147952540Y-80094940D01*
X147891580Y-79995880D01*
X147833160Y-79896820D01*
X147774740Y-79800300D01*
X147716320Y-79706320D01*
X147662980Y-79619960D01*
X147614720Y-79538680D01*
X147571540Y-79467560D01*
X147533440Y-79406600D01*
X147528360Y-79401520D01*
X147490260Y-79335480D01*
X147449620Y-79274520D01*
X147411520Y-79213560D01*
X147375960Y-79160220D01*
X147342940Y-79114500D01*
X147320080Y-79078940D01*
X147304840Y-79053540D01*
X147294680Y-79045920D01*
X147289600Y-79053540D01*
X147271820Y-79078940D01*
X147246420Y-79117040D01*
X147213400Y-79172920D01*
X147172760Y-79238960D01*
X147124500Y-79317700D01*
X147071160Y-79409140D01*
X147010200Y-79508200D01*
X146944160Y-79617420D01*
X146875580Y-79736800D01*
X146799380Y-79861260D01*
X146723180Y-79990800D01*
X146641900Y-80125420D01*
X146601260Y-80196540D01*
X146586020Y-80219400D01*
X146563160Y-80257500D01*
X146535220Y-80305760D01*
X146499660Y-80364180D01*
X146464100Y-80427680D01*
X146426000Y-80493720D01*
X146255820Y-80778200D01*
X146093260Y-81049980D01*
X145938320Y-81311600D01*
X145788460Y-81565600D01*
X145643680Y-81811980D01*
X145498900Y-82058360D01*
X145458260Y-82126940D01*
X145420160Y-82187900D01*
X145384600Y-82248860D01*
X145351580Y-82304740D01*
X145323640Y-82350460D01*
X145303320Y-82386020D01*
X145298240Y-82396180D01*
X145280460Y-82424120D01*
X145255060Y-82467300D01*
X145224580Y-82518100D01*
X145189020Y-82576520D01*
X145150920Y-82642560D01*
X145122980Y-82688280D01*
X145084880Y-82754320D01*
X145046780Y-82817820D01*
X145011220Y-82876240D01*
X144980740Y-82927040D01*
X144957880Y-82965140D01*
X144947720Y-82985460D01*
X144924860Y-83021020D01*
X144896920Y-83066740D01*
X144866440Y-83120080D01*
X144835960Y-83173420D01*
X144830880Y-83181040D01*
X144782620Y-83262320D01*
X144734360Y-83346140D01*
X144686100Y-83427420D01*
X144640380Y-83506160D01*
X144597200Y-83574740D01*
X144564180Y-83630620D01*
X144551480Y-83650940D01*
X144526080Y-83694120D01*
X144500680Y-83739840D01*
X144477820Y-83777940D01*
X144475280Y-83780480D01*
X144462580Y-83805880D01*
X144437180Y-83846520D01*
X144404160Y-83902400D01*
X144360980Y-83976060D01*
X144310180Y-84062420D01*
X144251760Y-84164020D01*
X144183180Y-84278320D01*
X144109520Y-84402780D01*
X144025700Y-84542480D01*
X143936800Y-84692340D01*
X143934260Y-84697420D01*
X143888540Y-84776160D01*
X143840280Y-84859980D01*
X143789480Y-84946340D01*
X143741220Y-85027620D01*
X143698040Y-85101280D01*
X143670100Y-85144460D01*
X143632000Y-85207960D01*
X143593900Y-85276540D01*
X143555800Y-85340040D01*
X143522780Y-85398460D01*
X143494840Y-85444180D01*
X143489760Y-85449260D01*
X143461820Y-85497520D01*
X143433880Y-85545780D01*
X143411020Y-85586420D01*
X143393240Y-85614360D01*
X143352600Y-85685480D01*
X143311960Y-85754060D01*
X143271320Y-85822640D01*
X143233220Y-85888680D01*
X143197660Y-85947100D01*
X143167180Y-85997900D01*
X143144320Y-86038540D01*
X143126540Y-86066480D01*
X143118920Y-86079180D01*
X143116380Y-86079180D01*
X143108760Y-86094420D01*
X143108760Y-86096960D01*
X143118920Y-86096960D01*
X143146860Y-86099500D01*
X143195120Y-86099500D01*
X143261160Y-86099500D01*
X143344980Y-86099500D01*
X143446580Y-86102040D01*
X143560880Y-86102040D01*
X143692960Y-86102040D01*
X143840280Y-86102040D01*
X144000300Y-86102040D01*
X144175560Y-86102040D01*
X144363520Y-86102040D01*
X144561640Y-86104580D01*
X144772460Y-86104580D01*
X144995980Y-86104580D01*
X145227120Y-86104580D01*
X145468420Y-86104580D01*
X145719880Y-86104580D01*
X145978960Y-86104580D01*
X146243120Y-86104580D01*
X146517440Y-86104580D01*
X146796840Y-86104580D01*
X147083860Y-86104580D01*
X147325160Y-86104580D01*
X147673140Y-86104580D01*
X148000800Y-86104580D01*
X148308140Y-86104580D01*
X148597700Y-86104580D01*
X148872020Y-86104580D01*
X149126020Y-86104580D01*
X149364780Y-86104580D01*
X149588300Y-86104580D01*
X149796580Y-86104580D01*
X149987080Y-86104580D01*
X150164880Y-86104580D01*
X150327440Y-86104580D01*
X150479840Y-86104580D01*
X150617000Y-86104580D01*
X150741460Y-86104580D01*
X150855760Y-86102040D01*
X150957360Y-86102040D01*
X151048800Y-86102040D01*
X151130080Y-86102040D01*
X151203740Y-86102040D01*
X151267240Y-86102040D01*
X151323120Y-86099500D01*
X151368840Y-86099500D01*
X151409480Y-86099500D01*
X151442500Y-86096960D01*
X151470440Y-86096960D01*
X151493300Y-86096960D01*
X151508540Y-86094420D01*
X151521240Y-86094420D01*
X151528860Y-86091880D01*
X151533940Y-86091880D01*
X151536480Y-86089340D01*
X151536480Y-86089340D01*
X151536480Y-86724340D01*
X147337860Y-86729420D01*
X142671880Y-86734500D01*
X142582980Y-86698940D01*
X142499160Y-86655760D01*
X142430580Y-86602420D01*
X142379780Y-86538920D01*
X142344220Y-86462720D01*
X142323900Y-86373820D01*
X142316280Y-86279840D01*
X142316280Y-86251900D01*
X142318820Y-86229040D01*
X142321360Y-86208720D01*
X142326440Y-86185860D01*
X142336600Y-86160460D01*
X142351840Y-86129980D01*
X142374700Y-86089340D01*
X142402640Y-86038540D01*
X142440740Y-85975040D01*
X142461060Y-85939480D01*
X142494080Y-85883600D01*
X142527100Y-85827720D01*
X142555040Y-85779460D01*
X142577900Y-85741360D01*
X142593140Y-85715960D01*
X142610920Y-85682940D01*
X142638860Y-85637220D01*
X142671880Y-85581340D01*
X142707440Y-85517840D01*
X142748080Y-85449260D01*
X142788720Y-85380680D01*
X142826820Y-85314640D01*
X142834440Y-85304480D01*
X142857300Y-85266380D01*
X142885240Y-85218120D01*
X142918260Y-85162240D01*
X142953820Y-85101280D01*
X142989380Y-85042860D01*
X143030020Y-84974280D01*
X143075740Y-84895540D01*
X143124000Y-84814260D01*
X143169720Y-84735520D01*
X143197660Y-84687260D01*
X143235760Y-84623760D01*
X143276400Y-84555180D01*
X143317040Y-84486600D01*
X143352600Y-84425640D01*
X143378000Y-84382460D01*
X143408480Y-84331660D01*
X143444040Y-84270700D01*
X143484680Y-84204660D01*
X143525320Y-84136080D01*
X143560880Y-84072580D01*
X143598980Y-84009080D01*
X143637080Y-83943040D01*
X143675180Y-83879540D01*
X143708200Y-83826200D01*
X143733600Y-83783020D01*
X143733600Y-83780480D01*
X143748840Y-83757620D01*
X143764080Y-83729680D01*
X143784400Y-83696660D01*
X143804720Y-83661100D01*
X143832660Y-83617920D01*
X143863140Y-83564580D01*
X143898700Y-83503620D01*
X143939340Y-83435040D01*
X143987600Y-83351220D01*
X144043480Y-83257240D01*
X144106980Y-83150560D01*
X144180640Y-83028640D01*
X144261920Y-82888940D01*
X144267000Y-82883860D01*
X144310180Y-82807660D01*
X144355900Y-82734000D01*
X144399080Y-82660340D01*
X144437180Y-82596840D01*
X144470200Y-82540960D01*
X144495600Y-82497780D01*
X144505760Y-82480000D01*
X144526080Y-82446980D01*
X144554020Y-82401260D01*
X144589580Y-82340300D01*
X144630220Y-82271720D01*
X144673400Y-82198060D01*
X144719120Y-82119320D01*
X144759760Y-82050740D01*
X144843580Y-81911040D01*
X144922320Y-81776420D01*
X144998520Y-81649420D01*
X145069640Y-81530040D01*
X145135680Y-81420820D01*
X145194100Y-81321760D01*
X145244900Y-81235400D01*
X145285540Y-81166820D01*
X145308400Y-81128720D01*
X145326180Y-81095700D01*
X145354120Y-81047440D01*
X145389680Y-80989020D01*
X145432860Y-80917900D01*
X145478580Y-80839160D01*
X145526840Y-80755340D01*
X145577640Y-80668980D01*
X145615740Y-80608020D01*
X145669080Y-80519120D01*
X145722420Y-80427680D01*
X145775760Y-80338780D01*
X145824020Y-80254960D01*
X145869740Y-80176220D01*
X145910380Y-80110180D01*
X145940860Y-80056840D01*
X145956100Y-80031440D01*
X145994200Y-79967940D01*
X146034840Y-79896820D01*
X146075480Y-79828240D01*
X146113580Y-79767280D01*
X146133900Y-79731720D01*
X146164380Y-79678380D01*
X146202480Y-79614880D01*
X146243120Y-79546300D01*
X146283760Y-79475180D01*
X146314240Y-79426920D01*
X146387900Y-79302460D01*
X146451400Y-79190700D01*
X146509820Y-79091640D01*
X146560620Y-79005280D01*
X146603800Y-78934160D01*
X146636820Y-78878280D01*
X146659680Y-78837640D01*
X146674920Y-78814780D01*
X146690160Y-78789380D01*
X146713020Y-78751280D01*
X146738420Y-78705560D01*
X146768900Y-78654760D01*
X146776520Y-78644600D01*
X146822240Y-78563320D01*
X146860340Y-78499820D01*
X146893360Y-78449020D01*
X146921300Y-78408380D01*
X146949240Y-78377900D01*
X146974640Y-78352500D01*
X147002580Y-78332180D01*
X147033060Y-78314400D01*
X147071160Y-78299160D01*
X147114340Y-78281380D01*
X147121960Y-78278840D01*
X147165140Y-78261060D01*
X147195620Y-78250900D01*
X147226100Y-78245820D01*
X147256580Y-78245820D01*
X147302300Y-78245820D01*
X147386120Y-78258520D01*
X147464860Y-78278840D01*
X147538520Y-78314400D01*
X147604560Y-78365200D01*
X147668060Y-78431240D01*
X147729020Y-78512520D01*
X147787440Y-78614120D01*
X147820460Y-78675080D01*
X147833160Y-78700480D01*
X147856020Y-78741120D01*
X147886500Y-78794460D01*
X147922060Y-78857960D01*
X147965240Y-78929080D01*
X148010960Y-79007820D01*
X148059220Y-79089100D01*
X148107480Y-79172920D01*
X148158280Y-79256740D01*
X148206540Y-79338020D01*
X148249720Y-79411680D01*
X148267500Y-79437080D01*
X148290360Y-79480260D01*
X148323380Y-79531060D01*
X148358940Y-79592020D01*
X148397040Y-79658060D01*
X148437680Y-79726640D01*
X148440220Y-79731720D01*
X148493560Y-79818080D01*
X148554520Y-79922220D01*
X148625640Y-80041600D01*
X148704380Y-80173680D01*
X148793280Y-80321000D01*
X148889800Y-80481020D01*
X148991400Y-80651200D01*
X149100620Y-80834080D01*
X149217460Y-81027120D01*
X149339380Y-81230320D01*
X149466380Y-81438600D01*
X149595920Y-81657040D01*
X149733080Y-81883100D01*
X149870240Y-82111700D01*
X150012480Y-82347920D01*
X150157260Y-82584140D01*
X150192820Y-82645100D01*
X150256320Y-82749240D01*
X150324900Y-82861000D01*
X150398560Y-82982920D01*
X150472220Y-83107380D01*
X150548420Y-83231840D01*
X150624620Y-83356300D01*
X150698280Y-83478220D01*
X150766860Y-83595060D01*
X150832900Y-83701740D01*
X150891320Y-83798260D01*
X150942120Y-83882080D01*
X150970060Y-83932880D01*
X151056420Y-84075120D01*
X151132620Y-84202120D01*
X151203740Y-84316420D01*
X151267240Y-84423100D01*
X151325660Y-84522160D01*
X151384080Y-84616140D01*
X151439960Y-84707580D01*
X151495840Y-84799020D01*
X151554260Y-84895540D01*
X151607600Y-84984440D01*
X151709200Y-85149540D01*
X151800640Y-85299400D01*
X151884460Y-85434020D01*
X151958120Y-85558480D01*
X152021620Y-85667700D01*
X152080040Y-85769300D01*
X152133380Y-85860740D01*
X152179100Y-85942020D01*
X152219740Y-86018220D01*
X152252760Y-86079180D01*
X152313720Y-86201100D01*
X152313720Y-86201100D01*
D15*
G36*
X166758886Y-95504505D02*
X166833539Y-95541727D01*
X166899431Y-95610261D01*
X166917577Y-95635648D01*
X166937345Y-95668866D01*
X166950172Y-95704945D01*
X166957510Y-95753098D01*
X166960813Y-95822536D01*
X166961538Y-95914206D01*
X166958263Y-96039830D01*
X166946877Y-96134154D01*
X166925041Y-96204523D01*
X166890419Y-96258286D01*
X166840670Y-96302788D01*
X166837014Y-96305423D01*
X166787985Y-96332377D01*
X166728945Y-96345712D01*
X166653859Y-96349000D01*
X166531795Y-96349000D01*
X166531744Y-96467497D01*
X166530608Y-96533492D01*
X166523686Y-96572202D01*
X166505598Y-96595419D01*
X166470962Y-96614933D01*
X166462645Y-96618920D01*
X166423720Y-96637603D01*
X166393583Y-96649403D01*
X166371174Y-96650422D01*
X166355433Y-96636761D01*
X166345302Y-96604522D01*
X166339723Y-96549804D01*
X166337635Y-96468711D01*
X166337981Y-96357344D01*
X166339700Y-96211802D01*
X166340237Y-96168269D01*
X166342172Y-96018205D01*
X166343904Y-95920042D01*
X166531692Y-95920042D01*
X166532748Y-96003364D01*
X166537438Y-96057880D01*
X166548051Y-96093837D01*
X166566872Y-96121482D01*
X166579650Y-96134965D01*
X166631890Y-96174417D01*
X166678142Y-96177628D01*
X166725867Y-96145049D01*
X166727077Y-96143846D01*
X166746494Y-96118668D01*
X166758307Y-96084447D01*
X166764265Y-96031748D01*
X166766120Y-95951131D01*
X166766154Y-95933271D01*
X166761670Y-95822175D01*
X166747074Y-95745161D01*
X166720650Y-95698147D01*
X166680683Y-95677050D01*
X166657584Y-95674923D01*
X166602762Y-95684900D01*
X166565158Y-95717752D01*
X166542523Y-95777857D01*
X166532606Y-95869598D01*
X166531692Y-95920042D01*
X166343904Y-95920042D01*
X166344222Y-95902060D01*
X166346873Y-95814679D01*
X166350606Y-95750905D01*
X166355907Y-95705582D01*
X166363258Y-95673555D01*
X166373143Y-95649668D01*
X166386046Y-95628764D01*
X166391579Y-95620898D01*
X166464969Y-95546595D01*
X166557760Y-95504467D01*
X166665096Y-95492722D01*
X166758886Y-95504505D01*
X166758886Y-95504505D01*
G37*
X166758886Y-95504505D02*
X166833539Y-95541727D01*
X166899431Y-95610261D01*
X166917577Y-95635648D01*
X166937345Y-95668866D01*
X166950172Y-95704945D01*
X166957510Y-95753098D01*
X166960813Y-95822536D01*
X166961538Y-95914206D01*
X166958263Y-96039830D01*
X166946877Y-96134154D01*
X166925041Y-96204523D01*
X166890419Y-96258286D01*
X166840670Y-96302788D01*
X166837014Y-96305423D01*
X166787985Y-96332377D01*
X166728945Y-96345712D01*
X166653859Y-96349000D01*
X166531795Y-96349000D01*
X166531744Y-96467497D01*
X166530608Y-96533492D01*
X166523686Y-96572202D01*
X166505598Y-96595419D01*
X166470962Y-96614933D01*
X166462645Y-96618920D01*
X166423720Y-96637603D01*
X166393583Y-96649403D01*
X166371174Y-96650422D01*
X166355433Y-96636761D01*
X166345302Y-96604522D01*
X166339723Y-96549804D01*
X166337635Y-96468711D01*
X166337981Y-96357344D01*
X166339700Y-96211802D01*
X166340237Y-96168269D01*
X166342172Y-96018205D01*
X166343904Y-95920042D01*
X166531692Y-95920042D01*
X166532748Y-96003364D01*
X166537438Y-96057880D01*
X166548051Y-96093837D01*
X166566872Y-96121482D01*
X166579650Y-96134965D01*
X166631890Y-96174417D01*
X166678142Y-96177628D01*
X166725867Y-96145049D01*
X166727077Y-96143846D01*
X166746494Y-96118668D01*
X166758307Y-96084447D01*
X166764265Y-96031748D01*
X166766120Y-95951131D01*
X166766154Y-95933271D01*
X166761670Y-95822175D01*
X166747074Y-95745161D01*
X166720650Y-95698147D01*
X166680683Y-95677050D01*
X166657584Y-95674923D01*
X166602762Y-95684900D01*
X166565158Y-95717752D01*
X166542523Y-95777857D01*
X166532606Y-95869598D01*
X166531692Y-95920042D01*
X166343904Y-95920042D01*
X166344222Y-95902060D01*
X166346873Y-95814679D01*
X166350606Y-95750905D01*
X166355907Y-95705582D01*
X166363258Y-95673555D01*
X166373143Y-95649668D01*
X166386046Y-95628764D01*
X166391579Y-95620898D01*
X166464969Y-95546595D01*
X166557760Y-95504467D01*
X166665096Y-95492722D01*
X166758886Y-95504505D01*
G36*
X168261664Y-95515089D02*
X168324367Y-95551358D01*
X168367961Y-95587358D01*
X168399845Y-95625075D01*
X168421810Y-95671199D01*
X168435649Y-95732421D01*
X168443153Y-95815431D01*
X168446117Y-95926919D01*
X168446461Y-96007062D01*
X168446461Y-96302065D01*
X168280385Y-96376515D01*
X168270615Y-96053402D01*
X168266579Y-95932729D01*
X168262344Y-95845141D01*
X168257097Y-95784650D01*
X168250025Y-95745268D01*
X168240311Y-95721007D01*
X168227144Y-95705880D01*
X168222919Y-95702606D01*
X168158909Y-95677034D01*
X168094208Y-95687153D01*
X168055692Y-95714000D01*
X168040025Y-95733024D01*
X168029180Y-95757988D01*
X168022288Y-95795834D01*
X168018479Y-95853502D01*
X168016883Y-95937935D01*
X168016615Y-96025928D01*
X168016563Y-96136323D01*
X168014672Y-96214463D01*
X168008345Y-96267165D01*
X167994983Y-96301242D01*
X167971985Y-96323511D01*
X167936754Y-96340787D01*
X167889697Y-96358738D01*
X167838303Y-96378278D01*
X167844421Y-96031485D01*
X167846884Y-95906468D01*
X167849767Y-95814082D01*
X167853898Y-95747881D01*
X167860107Y-95701420D01*
X167869226Y-95668256D01*
X167882083Y-95641944D01*
X167897584Y-95618729D01*
X167972371Y-95544569D01*
X168063628Y-95501684D01*
X168162883Y-95491412D01*
X168261664Y-95515089D01*
X168261664Y-95515089D01*
G37*
X168261664Y-95515089D02*
X168324367Y-95551358D01*
X168367961Y-95587358D01*
X168399845Y-95625075D01*
X168421810Y-95671199D01*
X168435649Y-95732421D01*
X168443153Y-95815431D01*
X168446117Y-95926919D01*
X168446461Y-96007062D01*
X168446461Y-96302065D01*
X168280385Y-96376515D01*
X168270615Y-96053402D01*
X168266579Y-95932729D01*
X168262344Y-95845141D01*
X168257097Y-95784650D01*
X168250025Y-95745268D01*
X168240311Y-95721007D01*
X168227144Y-95705880D01*
X168222919Y-95702606D01*
X168158909Y-95677034D01*
X168094208Y-95687153D01*
X168055692Y-95714000D01*
X168040025Y-95733024D01*
X168029180Y-95757988D01*
X168022288Y-95795834D01*
X168018479Y-95853502D01*
X168016883Y-95937935D01*
X168016615Y-96025928D01*
X168016563Y-96136323D01*
X168014672Y-96214463D01*
X168008345Y-96267165D01*
X167994983Y-96301242D01*
X167971985Y-96323511D01*
X167936754Y-96340787D01*
X167889697Y-96358738D01*
X167838303Y-96378278D01*
X167844421Y-96031485D01*
X167846884Y-95906468D01*
X167849767Y-95814082D01*
X167853898Y-95747881D01*
X167860107Y-95701420D01*
X167869226Y-95668256D01*
X167882083Y-95641944D01*
X167897584Y-95618729D01*
X167972371Y-95544569D01*
X168063628Y-95501684D01*
X168162883Y-95491412D01*
X168261664Y-95515089D01*
G36*
X166006886Y-95507256D02*
X166098464Y-95555409D01*
X166166049Y-95632905D01*
X166190057Y-95682727D01*
X166208738Y-95757533D01*
X166218301Y-95852052D01*
X166219208Y-95955210D01*
X166211921Y-96055935D01*
X166196903Y-96143153D01*
X166174615Y-96205791D01*
X166167765Y-96216579D01*
X166086632Y-96297105D01*
X165990266Y-96345336D01*
X165885701Y-96359450D01*
X165779968Y-96337629D01*
X165750543Y-96324547D01*
X165693241Y-96284231D01*
X165642950Y-96230775D01*
X165638197Y-96223995D01*
X165618878Y-96191321D01*
X165606108Y-96156394D01*
X165598564Y-96110414D01*
X165594924Y-96044584D01*
X165593865Y-95950105D01*
X165593846Y-95928923D01*
X165593894Y-95922182D01*
X165789231Y-95922182D01*
X165790368Y-96011349D01*
X165794841Y-96070520D01*
X165804246Y-96108741D01*
X165820176Y-96135053D01*
X165828308Y-96143846D01*
X165875058Y-96177261D01*
X165920447Y-96175737D01*
X165966340Y-96146752D01*
X165993712Y-96115809D01*
X166009923Y-96070643D01*
X166019026Y-95999420D01*
X166019651Y-95991114D01*
X166021204Y-95862037D01*
X166004965Y-95766172D01*
X165971152Y-95704107D01*
X165919984Y-95676432D01*
X165901720Y-95674923D01*
X165853760Y-95682513D01*
X165820953Y-95708808D01*
X165800895Y-95759095D01*
X165791178Y-95838664D01*
X165789231Y-95922182D01*
X165593894Y-95922182D01*
X165594574Y-95828249D01*
X165597629Y-95757906D01*
X165604322Y-95709163D01*
X165615960Y-95673288D01*
X165633853Y-95641548D01*
X165637808Y-95635648D01*
X165704267Y-95556104D01*
X165776685Y-95509929D01*
X165864849Y-95491599D01*
X165894787Y-95490703D01*
X166006886Y-95507256D01*
X166006886Y-95507256D01*
G37*
X166006886Y-95507256D02*
X166098464Y-95555409D01*
X166166049Y-95632905D01*
X166190057Y-95682727D01*
X166208738Y-95757533D01*
X166218301Y-95852052D01*
X166219208Y-95955210D01*
X166211921Y-96055935D01*
X166196903Y-96143153D01*
X166174615Y-96205791D01*
X166167765Y-96216579D01*
X166086632Y-96297105D01*
X165990266Y-96345336D01*
X165885701Y-96359450D01*
X165779968Y-96337629D01*
X165750543Y-96324547D01*
X165693241Y-96284231D01*
X165642950Y-96230775D01*
X165638197Y-96223995D01*
X165618878Y-96191321D01*
X165606108Y-96156394D01*
X165598564Y-96110414D01*
X165594924Y-96044584D01*
X165593865Y-95950105D01*
X165593846Y-95928923D01*
X165593894Y-95922182D01*
X165789231Y-95922182D01*
X165790368Y-96011349D01*
X165794841Y-96070520D01*
X165804246Y-96108741D01*
X165820176Y-96135053D01*
X165828308Y-96143846D01*
X165875058Y-96177261D01*
X165920447Y-96175737D01*
X165966340Y-96146752D01*
X165993712Y-96115809D01*
X166009923Y-96070643D01*
X166019026Y-95999420D01*
X166019651Y-95991114D01*
X166021204Y-95862037D01*
X166004965Y-95766172D01*
X165971152Y-95704107D01*
X165919984Y-95676432D01*
X165901720Y-95674923D01*
X165853760Y-95682513D01*
X165820953Y-95708808D01*
X165800895Y-95759095D01*
X165791178Y-95838664D01*
X165789231Y-95922182D01*
X165593894Y-95922182D01*
X165594574Y-95828249D01*
X165597629Y-95757906D01*
X165604322Y-95709163D01*
X165615960Y-95673288D01*
X165633853Y-95641548D01*
X165637808Y-95635648D01*
X165704267Y-95556104D01*
X165776685Y-95509929D01*
X165864849Y-95491599D01*
X165894787Y-95490703D01*
X166006886Y-95507256D01*
G36*
X167524254Y-95519745D02*
X167601286Y-95571567D01*
X167660816Y-95646412D01*
X167696378Y-95741654D01*
X167703571Y-95811756D01*
X167702754Y-95841009D01*
X167695914Y-95863407D01*
X167677112Y-95883474D01*
X167640408Y-95905733D01*
X167579862Y-95934709D01*
X167489534Y-95974927D01*
X167489077Y-95975129D01*
X167405933Y-96013210D01*
X167337753Y-96047025D01*
X167291505Y-96072933D01*
X167274158Y-96087295D01*
X167274154Y-96087411D01*
X167289443Y-96118685D01*
X167325196Y-96153157D01*
X167366242Y-96177990D01*
X167387037Y-96182923D01*
X167443770Y-96165862D01*
X167492627Y-96123133D01*
X167516465Y-96076155D01*
X167539397Y-96041522D01*
X167584318Y-96002081D01*
X167637123Y-95968009D01*
X167683710Y-95949480D01*
X167693452Y-95948462D01*
X167704418Y-95965215D01*
X167705079Y-96008039D01*
X167697020Y-96065781D01*
X167681827Y-96127289D01*
X167661086Y-96181409D01*
X167660038Y-96183510D01*
X167597621Y-96270660D01*
X167516726Y-96329939D01*
X167424856Y-96359034D01*
X167329513Y-96355634D01*
X167238198Y-96317428D01*
X167234138Y-96314741D01*
X167162306Y-96249642D01*
X167115073Y-96164705D01*
X167088934Y-96053021D01*
X167085426Y-96021643D01*
X167079213Y-95873536D01*
X167086661Y-95804468D01*
X167274154Y-95804468D01*
X167276590Y-95847552D01*
X167289914Y-95860126D01*
X167323132Y-95850719D01*
X167375494Y-95828483D01*
X167434024Y-95800610D01*
X167435479Y-95799872D01*
X167485089Y-95773777D01*
X167505000Y-95756363D01*
X167500090Y-95738107D01*
X167479416Y-95714120D01*
X167426819Y-95679406D01*
X167370177Y-95676856D01*
X167319369Y-95702119D01*
X167284276Y-95750847D01*
X167274154Y-95804468D01*
X167086661Y-95804468D01*
X167091992Y-95755036D01*
X167124778Y-95661055D01*
X167170421Y-95595215D01*
X167252802Y-95528681D01*
X167343546Y-95495676D01*
X167436185Y-95493573D01*
X167524254Y-95519745D01*
X167524254Y-95519745D01*
G37*
X167524254Y-95519745D02*
X167601286Y-95571567D01*
X167660816Y-95646412D01*
X167696378Y-95741654D01*
X167703571Y-95811756D01*
X167702754Y-95841009D01*
X167695914Y-95863407D01*
X167677112Y-95883474D01*
X167640408Y-95905733D01*
X167579862Y-95934709D01*
X167489534Y-95974927D01*
X167489077Y-95975129D01*
X167405933Y-96013210D01*
X167337753Y-96047025D01*
X167291505Y-96072933D01*
X167274158Y-96087295D01*
X167274154Y-96087411D01*
X167289443Y-96118685D01*
X167325196Y-96153157D01*
X167366242Y-96177990D01*
X167387037Y-96182923D01*
X167443770Y-96165862D01*
X167492627Y-96123133D01*
X167516465Y-96076155D01*
X167539397Y-96041522D01*
X167584318Y-96002081D01*
X167637123Y-95968009D01*
X167683710Y-95949480D01*
X167693452Y-95948462D01*
X167704418Y-95965215D01*
X167705079Y-96008039D01*
X167697020Y-96065781D01*
X167681827Y-96127289D01*
X167661086Y-96181409D01*
X167660038Y-96183510D01*
X167597621Y-96270660D01*
X167516726Y-96329939D01*
X167424856Y-96359034D01*
X167329513Y-96355634D01*
X167238198Y-96317428D01*
X167234138Y-96314741D01*
X167162306Y-96249642D01*
X167115073Y-96164705D01*
X167088934Y-96053021D01*
X167085426Y-96021643D01*
X167079213Y-95873536D01*
X167086661Y-95804468D01*
X167274154Y-95804468D01*
X167276590Y-95847552D01*
X167289914Y-95860126D01*
X167323132Y-95850719D01*
X167375494Y-95828483D01*
X167434024Y-95800610D01*
X167435479Y-95799872D01*
X167485089Y-95773777D01*
X167505000Y-95756363D01*
X167500090Y-95738107D01*
X167479416Y-95714120D01*
X167426819Y-95679406D01*
X167370177Y-95676856D01*
X167319369Y-95702119D01*
X167284276Y-95750847D01*
X167274154Y-95804468D01*
X167086661Y-95804468D01*
X167091992Y-95755036D01*
X167124778Y-95661055D01*
X167170421Y-95595215D01*
X167252802Y-95528681D01*
X167343546Y-95495676D01*
X167436185Y-95493573D01*
X167524254Y-95519745D01*
G36*
X169149846Y-95412120D02*
X169155572Y-95491980D01*
X169162149Y-95539039D01*
X169171262Y-95559566D01*
X169184598Y-95559829D01*
X169188923Y-95557378D01*
X169246444Y-95539636D01*
X169321268Y-95540672D01*
X169397339Y-95558910D01*
X169444918Y-95582505D01*
X169493702Y-95620198D01*
X169529364Y-95662855D01*
X169553845Y-95717057D01*
X169569087Y-95789384D01*
X169577030Y-95886419D01*
X169579616Y-96014742D01*
X169579662Y-96039358D01*
X169579692Y-96315870D01*
X169518161Y-96337320D01*
X169474459Y-96351912D01*
X169450482Y-96358706D01*
X169449777Y-96358769D01*
X169447415Y-96340345D01*
X169445406Y-96289526D01*
X169443901Y-96212993D01*
X169443053Y-96117430D01*
X169442923Y-96059329D01*
X169442651Y-95944771D01*
X169441252Y-95862667D01*
X169437849Y-95806393D01*
X169431567Y-95769326D01*
X169421529Y-95744844D01*
X169406861Y-95726325D01*
X169397702Y-95717406D01*
X169334789Y-95681466D01*
X169266136Y-95678775D01*
X169203848Y-95709170D01*
X169192329Y-95720144D01*
X169175433Y-95740779D01*
X169163714Y-95765256D01*
X169156233Y-95800647D01*
X169152054Y-95854026D01*
X169150237Y-95932466D01*
X169149846Y-96040617D01*
X169149846Y-96315870D01*
X169088315Y-96337320D01*
X169044613Y-96351912D01*
X169020636Y-96358706D01*
X169019930Y-96358769D01*
X169018126Y-96340069D01*
X169016500Y-96287322D01*
X169015117Y-96205557D01*
X169014042Y-96099805D01*
X169013340Y-95975094D01*
X169013077Y-95836455D01*
X169013077Y-95301806D01*
X169140077Y-95248236D01*
X169149846Y-95412120D01*
X169149846Y-95412120D01*
G37*
X169149846Y-95412120D02*
X169155572Y-95491980D01*
X169162149Y-95539039D01*
X169171262Y-95559566D01*
X169184598Y-95559829D01*
X169188923Y-95557378D01*
X169246444Y-95539636D01*
X169321268Y-95540672D01*
X169397339Y-95558910D01*
X169444918Y-95582505D01*
X169493702Y-95620198D01*
X169529364Y-95662855D01*
X169553845Y-95717057D01*
X169569087Y-95789384D01*
X169577030Y-95886419D01*
X169579616Y-96014742D01*
X169579662Y-96039358D01*
X169579692Y-96315870D01*
X169518161Y-96337320D01*
X169474459Y-96351912D01*
X169450482Y-96358706D01*
X169449777Y-96358769D01*
X169447415Y-96340345D01*
X169445406Y-96289526D01*
X169443901Y-96212993D01*
X169443053Y-96117430D01*
X169442923Y-96059329D01*
X169442651Y-95944771D01*
X169441252Y-95862667D01*
X169437849Y-95806393D01*
X169431567Y-95769326D01*
X169421529Y-95744844D01*
X169406861Y-95726325D01*
X169397702Y-95717406D01*
X169334789Y-95681466D01*
X169266136Y-95678775D01*
X169203848Y-95709170D01*
X169192329Y-95720144D01*
X169175433Y-95740779D01*
X169163714Y-95765256D01*
X169156233Y-95800647D01*
X169152054Y-95854026D01*
X169150237Y-95932466D01*
X169149846Y-96040617D01*
X169149846Y-96315870D01*
X169088315Y-96337320D01*
X169044613Y-96351912D01*
X169020636Y-96358706D01*
X169019930Y-96358769D01*
X169018126Y-96340069D01*
X169016500Y-96287322D01*
X169015117Y-96205557D01*
X169014042Y-96099805D01*
X169013340Y-95975094D01*
X169013077Y-95836455D01*
X169013077Y-95301806D01*
X169140077Y-95248236D01*
X169149846Y-95412120D01*
G36*
X170043501Y-95546303D02*
X170120060Y-95574733D01*
X170120936Y-95575279D01*
X170168285Y-95610127D01*
X170203241Y-95650852D01*
X170227825Y-95703925D01*
X170244062Y-95775814D01*
X170253975Y-95872992D01*
X170259586Y-96001928D01*
X170260077Y-96020298D01*
X170267141Y-96297287D01*
X170207695Y-96328028D01*
X170164681Y-96348802D01*
X170138710Y-96358646D01*
X170137509Y-96358769D01*
X170133014Y-96340606D01*
X170129444Y-96291612D01*
X170127248Y-96220031D01*
X170126769Y-96162068D01*
X170126758Y-96068170D01*
X170122466Y-96009203D01*
X170107503Y-95981079D01*
X170075482Y-95979706D01*
X170020014Y-96000998D01*
X169936269Y-96040136D01*
X169874689Y-96072643D01*
X169843017Y-96100845D01*
X169833706Y-96131582D01*
X169833692Y-96133104D01*
X169849057Y-96186054D01*
X169894547Y-96214660D01*
X169964166Y-96218803D01*
X170014313Y-96218084D01*
X170040754Y-96232527D01*
X170057243Y-96267218D01*
X170066733Y-96311416D01*
X170053057Y-96336493D01*
X170047907Y-96340082D01*
X169999425Y-96354496D01*
X169931531Y-96356537D01*
X169861612Y-96346983D01*
X169812068Y-96329522D01*
X169743570Y-96271364D01*
X169704634Y-96190408D01*
X169696923Y-96127160D01*
X169702807Y-96070111D01*
X169724101Y-96023542D01*
X169766265Y-95982181D01*
X169834759Y-95940755D01*
X169935044Y-95893993D01*
X169941154Y-95891350D01*
X170031490Y-95849617D01*
X170087235Y-95815391D01*
X170111129Y-95784635D01*
X170105913Y-95753311D01*
X170074328Y-95717383D01*
X170064883Y-95709116D01*
X170001617Y-95677058D01*
X169936064Y-95678407D01*
X169878972Y-95709838D01*
X169841093Y-95768024D01*
X169837574Y-95779446D01*
X169803300Y-95834837D01*
X169759809Y-95861518D01*
X169696923Y-95887960D01*
X169696923Y-95819548D01*
X169716052Y-95720110D01*
X169772831Y-95628902D01*
X169802378Y-95598389D01*
X169869542Y-95559228D01*
X169954956Y-95541500D01*
X170043501Y-95546303D01*
X170043501Y-95546303D01*
G37*
X170043501Y-95546303D02*
X170120060Y-95574733D01*
X170120936Y-95575279D01*
X170168285Y-95610127D01*
X170203241Y-95650852D01*
X170227825Y-95703925D01*
X170244062Y-95775814D01*
X170253975Y-95872992D01*
X170259586Y-96001928D01*
X170260077Y-96020298D01*
X170267141Y-96297287D01*
X170207695Y-96328028D01*
X170164681Y-96348802D01*
X170138710Y-96358646D01*
X170137509Y-96358769D01*
X170133014Y-96340606D01*
X170129444Y-96291612D01*
X170127248Y-96220031D01*
X170126769Y-96162068D01*
X170126758Y-96068170D01*
X170122466Y-96009203D01*
X170107503Y-95981079D01*
X170075482Y-95979706D01*
X170020014Y-96000998D01*
X169936269Y-96040136D01*
X169874689Y-96072643D01*
X169843017Y-96100845D01*
X169833706Y-96131582D01*
X169833692Y-96133104D01*
X169849057Y-96186054D01*
X169894547Y-96214660D01*
X169964166Y-96218803D01*
X170014313Y-96218084D01*
X170040754Y-96232527D01*
X170057243Y-96267218D01*
X170066733Y-96311416D01*
X170053057Y-96336493D01*
X170047907Y-96340082D01*
X169999425Y-96354496D01*
X169931531Y-96356537D01*
X169861612Y-96346983D01*
X169812068Y-96329522D01*
X169743570Y-96271364D01*
X169704634Y-96190408D01*
X169696923Y-96127160D01*
X169702807Y-96070111D01*
X169724101Y-96023542D01*
X169766265Y-95982181D01*
X169834759Y-95940755D01*
X169935044Y-95893993D01*
X169941154Y-95891350D01*
X170031490Y-95849617D01*
X170087235Y-95815391D01*
X170111129Y-95784635D01*
X170105913Y-95753311D01*
X170074328Y-95717383D01*
X170064883Y-95709116D01*
X170001617Y-95677058D01*
X169936064Y-95678407D01*
X169878972Y-95709838D01*
X169841093Y-95768024D01*
X169837574Y-95779446D01*
X169803300Y-95834837D01*
X169759809Y-95861518D01*
X169696923Y-95887960D01*
X169696923Y-95819548D01*
X169716052Y-95720110D01*
X169772831Y-95628902D01*
X169802378Y-95598389D01*
X169869542Y-95559228D01*
X169954956Y-95541500D01*
X170043501Y-95546303D01*
G36*
X170703362Y-95544670D02*
X170792117Y-95577421D01*
X170864022Y-95635350D01*
X170892144Y-95676128D01*
X170922802Y-95750954D01*
X170922165Y-95805058D01*
X170889987Y-95841446D01*
X170878081Y-95847633D01*
X170826675Y-95866925D01*
X170800422Y-95861982D01*
X170791530Y-95829587D01*
X170791077Y-95811692D01*
X170774797Y-95745859D01*
X170732365Y-95699807D01*
X170673388Y-95677564D01*
X170607475Y-95683161D01*
X170553895Y-95712229D01*
X170535798Y-95728810D01*
X170522971Y-95748925D01*
X170514306Y-95779332D01*
X170508696Y-95826788D01*
X170505035Y-95898050D01*
X170502215Y-95999875D01*
X170501484Y-96032115D01*
X170498820Y-96142410D01*
X170495792Y-96220036D01*
X170491250Y-96271396D01*
X170484046Y-96302890D01*
X170473033Y-96320920D01*
X170457060Y-96331888D01*
X170446834Y-96336733D01*
X170403406Y-96353301D01*
X170377842Y-96358769D01*
X170369395Y-96340507D01*
X170364239Y-96285296D01*
X170362346Y-96192499D01*
X170363689Y-96061478D01*
X170364107Y-96041269D01*
X170367058Y-95921733D01*
X170370548Y-95834449D01*
X170375514Y-95772591D01*
X170382893Y-95729336D01*
X170393624Y-95697860D01*
X170408645Y-95671339D01*
X170416502Y-95659975D01*
X170461553Y-95609692D01*
X170511940Y-95570581D01*
X170518108Y-95567167D01*
X170608458Y-95540212D01*
X170703362Y-95544670D01*
X170703362Y-95544670D01*
G37*
X170703362Y-95544670D02*
X170792117Y-95577421D01*
X170864022Y-95635350D01*
X170892144Y-95676128D01*
X170922802Y-95750954D01*
X170922165Y-95805058D01*
X170889987Y-95841446D01*
X170878081Y-95847633D01*
X170826675Y-95866925D01*
X170800422Y-95861982D01*
X170791530Y-95829587D01*
X170791077Y-95811692D01*
X170774797Y-95745859D01*
X170732365Y-95699807D01*
X170673388Y-95677564D01*
X170607475Y-95683161D01*
X170553895Y-95712229D01*
X170535798Y-95728810D01*
X170522971Y-95748925D01*
X170514306Y-95779332D01*
X170508696Y-95826788D01*
X170505035Y-95898050D01*
X170502215Y-95999875D01*
X170501484Y-96032115D01*
X170498820Y-96142410D01*
X170495792Y-96220036D01*
X170491250Y-96271396D01*
X170484046Y-96302890D01*
X170473033Y-96320920D01*
X170457060Y-96331888D01*
X170446834Y-96336733D01*
X170403406Y-96353301D01*
X170377842Y-96358769D01*
X170369395Y-96340507D01*
X170364239Y-96285296D01*
X170362346Y-96192499D01*
X170363689Y-96061478D01*
X170364107Y-96041269D01*
X170367058Y-95921733D01*
X170370548Y-95834449D01*
X170375514Y-95772591D01*
X170382893Y-95729336D01*
X170393624Y-95697860D01*
X170408645Y-95671339D01*
X170416502Y-95659975D01*
X170461553Y-95609692D01*
X170511940Y-95570581D01*
X170518108Y-95567167D01*
X170608458Y-95540212D01*
X170703362Y-95544670D01*
G36*
X171592081Y-95700289D02*
X171591833Y-95846320D01*
X171590872Y-95958655D01*
X171588794Y-96042678D01*
X171585193Y-96103769D01*
X171579665Y-96147309D01*
X171571804Y-96178679D01*
X171561207Y-96203262D01*
X171553182Y-96217294D01*
X171486728Y-96293388D01*
X171402470Y-96341084D01*
X171309249Y-96358199D01*
X171215900Y-96342546D01*
X171160312Y-96314418D01*
X171101957Y-96265760D01*
X171062186Y-96206333D01*
X171038190Y-96128507D01*
X171027161Y-96024652D01*
X171025599Y-95948462D01*
X171025809Y-95942986D01*
X171162308Y-95942986D01*
X171163141Y-96030355D01*
X171166961Y-96088192D01*
X171175746Y-96126029D01*
X171191474Y-96153398D01*
X171210266Y-96174042D01*
X171273375Y-96213890D01*
X171341137Y-96217295D01*
X171405179Y-96184025D01*
X171410164Y-96179517D01*
X171431439Y-96156067D01*
X171444779Y-96128166D01*
X171452001Y-96086641D01*
X171454923Y-96022316D01*
X171455385Y-95951200D01*
X171454383Y-95861858D01*
X171450238Y-95802258D01*
X171441236Y-95763089D01*
X171425667Y-95735040D01*
X171412902Y-95720144D01*
X171353600Y-95682575D01*
X171285301Y-95678057D01*
X171220110Y-95706753D01*
X171207528Y-95717406D01*
X171186111Y-95741063D01*
X171172744Y-95769251D01*
X171165566Y-95811245D01*
X171162719Y-95876319D01*
X171162308Y-95942986D01*
X171025809Y-95942986D01*
X171030322Y-95825765D01*
X171046362Y-95733577D01*
X171076528Y-95664269D01*
X171123629Y-95610211D01*
X171160312Y-95582505D01*
X171226990Y-95552572D01*
X171304272Y-95538678D01*
X171376110Y-95542397D01*
X171416308Y-95557400D01*
X171432082Y-95561670D01*
X171442550Y-95545750D01*
X171449856Y-95503089D01*
X171455385Y-95438106D01*
X171461437Y-95365732D01*
X171469844Y-95322187D01*
X171485141Y-95297287D01*
X171511864Y-95280845D01*
X171528654Y-95273564D01*
X171592154Y-95246963D01*
X171592081Y-95700289D01*
X171592081Y-95700289D01*
G37*
X171592081Y-95700289D02*
X171591833Y-95846320D01*
X171590872Y-95958655D01*
X171588794Y-96042678D01*
X171585193Y-96103769D01*
X171579665Y-96147309D01*
X171571804Y-96178679D01*
X171561207Y-96203262D01*
X171553182Y-96217294D01*
X171486728Y-96293388D01*
X171402470Y-96341084D01*
X171309249Y-96358199D01*
X171215900Y-96342546D01*
X171160312Y-96314418D01*
X171101957Y-96265760D01*
X171062186Y-96206333D01*
X171038190Y-96128507D01*
X171027161Y-96024652D01*
X171025599Y-95948462D01*
X171025809Y-95942986D01*
X171162308Y-95942986D01*
X171163141Y-96030355D01*
X171166961Y-96088192D01*
X171175746Y-96126029D01*
X171191474Y-96153398D01*
X171210266Y-96174042D01*
X171273375Y-96213890D01*
X171341137Y-96217295D01*
X171405179Y-96184025D01*
X171410164Y-96179517D01*
X171431439Y-96156067D01*
X171444779Y-96128166D01*
X171452001Y-96086641D01*
X171454923Y-96022316D01*
X171455385Y-95951200D01*
X171454383Y-95861858D01*
X171450238Y-95802258D01*
X171441236Y-95763089D01*
X171425667Y-95735040D01*
X171412902Y-95720144D01*
X171353600Y-95682575D01*
X171285301Y-95678057D01*
X171220110Y-95706753D01*
X171207528Y-95717406D01*
X171186111Y-95741063D01*
X171172744Y-95769251D01*
X171165566Y-95811245D01*
X171162719Y-95876319D01*
X171162308Y-95942986D01*
X171025809Y-95942986D01*
X171030322Y-95825765D01*
X171046362Y-95733577D01*
X171076528Y-95664269D01*
X171123629Y-95610211D01*
X171160312Y-95582505D01*
X171226990Y-95552572D01*
X171304272Y-95538678D01*
X171376110Y-95542397D01*
X171416308Y-95557400D01*
X171432082Y-95561670D01*
X171442550Y-95545750D01*
X171449856Y-95503089D01*
X171455385Y-95438106D01*
X171461437Y-95365732D01*
X171469844Y-95322187D01*
X171485141Y-95297287D01*
X171511864Y-95280845D01*
X171528654Y-95273564D01*
X171592154Y-95246963D01*
X171592081Y-95700289D01*
G36*
X172385929Y-95556662D02*
X172388911Y-95608068D01*
X172391247Y-95686192D01*
X172392749Y-95784857D01*
X172393231Y-95888343D01*
X172393231Y-96238533D01*
X172331401Y-96300363D01*
X172288793Y-96338462D01*
X172251390Y-96353895D01*
X172200270Y-96352918D01*
X172179978Y-96350433D01*
X172116554Y-96343200D01*
X172064095Y-96339055D01*
X172051308Y-96338672D01*
X172008199Y-96341176D01*
X171946544Y-96347462D01*
X171922638Y-96350433D01*
X171863922Y-96355028D01*
X171824464Y-96345046D01*
X171785338Y-96314228D01*
X171771215Y-96300363D01*
X171709385Y-96238533D01*
X171709385Y-95583503D01*
X171759150Y-95560829D01*
X171802002Y-95544034D01*
X171827073Y-95538154D01*
X171833501Y-95556736D01*
X171839509Y-95608655D01*
X171844697Y-95688172D01*
X171848664Y-95789546D01*
X171850577Y-95875192D01*
X171855923Y-96212231D01*
X171902560Y-96218825D01*
X171944976Y-96214214D01*
X171965760Y-96199287D01*
X171971570Y-96171377D01*
X171976530Y-96111925D01*
X171980246Y-96028466D01*
X171982324Y-95928532D01*
X171982624Y-95877104D01*
X171982923Y-95581054D01*
X172044454Y-95559604D01*
X172088004Y-95545020D01*
X172111694Y-95538219D01*
X172112377Y-95538154D01*
X172114754Y-95556642D01*
X172117366Y-95607906D01*
X172119995Y-95685649D01*
X172122421Y-95783574D01*
X172124115Y-95875192D01*
X172129461Y-96212231D01*
X172246692Y-96212231D01*
X172252072Y-95904746D01*
X172257451Y-95597261D01*
X172314601Y-95567707D01*
X172356797Y-95547413D01*
X172381770Y-95538204D01*
X172382491Y-95538154D01*
X172385929Y-95556662D01*
X172385929Y-95556662D01*
G37*
X172385929Y-95556662D02*
X172388911Y-95608068D01*
X172391247Y-95686192D01*
X172392749Y-95784857D01*
X172393231Y-95888343D01*
X172393231Y-96238533D01*
X172331401Y-96300363D01*
X172288793Y-96338462D01*
X172251390Y-96353895D01*
X172200270Y-96352918D01*
X172179978Y-96350433D01*
X172116554Y-96343200D01*
X172064095Y-96339055D01*
X172051308Y-96338672D01*
X172008199Y-96341176D01*
X171946544Y-96347462D01*
X171922638Y-96350433D01*
X171863922Y-96355028D01*
X171824464Y-96345046D01*
X171785338Y-96314228D01*
X171771215Y-96300363D01*
X171709385Y-96238533D01*
X171709385Y-95583503D01*
X171759150Y-95560829D01*
X171802002Y-95544034D01*
X171827073Y-95538154D01*
X171833501Y-95556736D01*
X171839509Y-95608655D01*
X171844697Y-95688172D01*
X171848664Y-95789546D01*
X171850577Y-95875192D01*
X171855923Y-96212231D01*
X171902560Y-96218825D01*
X171944976Y-96214214D01*
X171965760Y-96199287D01*
X171971570Y-96171377D01*
X171976530Y-96111925D01*
X171980246Y-96028466D01*
X171982324Y-95928532D01*
X171982624Y-95877104D01*
X171982923Y-95581054D01*
X172044454Y-95559604D01*
X172088004Y-95545020D01*
X172111694Y-95538219D01*
X172112377Y-95538154D01*
X172114754Y-95556642D01*
X172117366Y-95607906D01*
X172119995Y-95685649D01*
X172122421Y-95783574D01*
X172124115Y-95875192D01*
X172129461Y-96212231D01*
X172246692Y-96212231D01*
X172252072Y-95904746D01*
X172257451Y-95597261D01*
X172314601Y-95567707D01*
X172356797Y-95547413D01*
X172381770Y-95538204D01*
X172382491Y-95538154D01*
X172385929Y-95556662D01*
G36*
X172877333Y-95553528D02*
X172933590Y-95579117D01*
X172977747Y-95610124D01*
X173010101Y-95644795D01*
X173032438Y-95689520D01*
X173046546Y-95750692D01*
X173054211Y-95834701D01*
X173057220Y-95947940D01*
X173057538Y-96022509D01*
X173057538Y-96313420D01*
X173007773Y-96336095D01*
X172968576Y-96352667D01*
X172949157Y-96358769D01*
X172945442Y-96340610D01*
X172942495Y-96291648D01*
X172940691Y-96220153D01*
X172940308Y-96163385D01*
X172938661Y-96081371D01*
X172934222Y-96016309D01*
X172927740Y-95976467D01*
X172922590Y-95968000D01*
X172887977Y-95976646D01*
X172833640Y-95998823D01*
X172770722Y-96028886D01*
X172710368Y-96061192D01*
X172663721Y-96090098D01*
X172641926Y-96109961D01*
X172641839Y-96110175D01*
X172643714Y-96146935D01*
X172660525Y-96182026D01*
X172690039Y-96210528D01*
X172733116Y-96220061D01*
X172769932Y-96218950D01*
X172822074Y-96218133D01*
X172849444Y-96230349D01*
X172865882Y-96262624D01*
X172867955Y-96268710D01*
X172875081Y-96314739D01*
X172856024Y-96342687D01*
X172806353Y-96356007D01*
X172752697Y-96358470D01*
X172656142Y-96340210D01*
X172606159Y-96314131D01*
X172544429Y-96252868D01*
X172511690Y-96177670D01*
X172508753Y-96098211D01*
X172536424Y-96024167D01*
X172578047Y-95977769D01*
X172619604Y-95951793D01*
X172684922Y-95918907D01*
X172761038Y-95885557D01*
X172773726Y-95880461D01*
X172857333Y-95843565D01*
X172905530Y-95811046D01*
X172921030Y-95778718D01*
X172906550Y-95742394D01*
X172881692Y-95714000D01*
X172822939Y-95679039D01*
X172758293Y-95676417D01*
X172699008Y-95703358D01*
X172656339Y-95757088D01*
X172650739Y-95770950D01*
X172618133Y-95821936D01*
X172570530Y-95859787D01*
X172510461Y-95890850D01*
X172510461Y-95802768D01*
X172513997Y-95748951D01*
X172529156Y-95706534D01*
X172562768Y-95661279D01*
X172595035Y-95626420D01*
X172645209Y-95577062D01*
X172684193Y-95550547D01*
X172726064Y-95539911D01*
X172773460Y-95538154D01*
X172877333Y-95553528D01*
X172877333Y-95553528D01*
G37*
X172877333Y-95553528D02*
X172933590Y-95579117D01*
X172977747Y-95610124D01*
X173010101Y-95644795D01*
X173032438Y-95689520D01*
X173046546Y-95750692D01*
X173054211Y-95834701D01*
X173057220Y-95947940D01*
X173057538Y-96022509D01*
X173057538Y-96313420D01*
X173007773Y-96336095D01*
X172968576Y-96352667D01*
X172949157Y-96358769D01*
X172945442Y-96340610D01*
X172942495Y-96291648D01*
X172940691Y-96220153D01*
X172940308Y-96163385D01*
X172938661Y-96081371D01*
X172934222Y-96016309D01*
X172927740Y-95976467D01*
X172922590Y-95968000D01*
X172887977Y-95976646D01*
X172833640Y-95998823D01*
X172770722Y-96028886D01*
X172710368Y-96061192D01*
X172663721Y-96090098D01*
X172641926Y-96109961D01*
X172641839Y-96110175D01*
X172643714Y-96146935D01*
X172660525Y-96182026D01*
X172690039Y-96210528D01*
X172733116Y-96220061D01*
X172769932Y-96218950D01*
X172822074Y-96218133D01*
X172849444Y-96230349D01*
X172865882Y-96262624D01*
X172867955Y-96268710D01*
X172875081Y-96314739D01*
X172856024Y-96342687D01*
X172806353Y-96356007D01*
X172752697Y-96358470D01*
X172656142Y-96340210D01*
X172606159Y-96314131D01*
X172544429Y-96252868D01*
X172511690Y-96177670D01*
X172508753Y-96098211D01*
X172536424Y-96024167D01*
X172578047Y-95977769D01*
X172619604Y-95951793D01*
X172684922Y-95918907D01*
X172761038Y-95885557D01*
X172773726Y-95880461D01*
X172857333Y-95843565D01*
X172905530Y-95811046D01*
X172921030Y-95778718D01*
X172906550Y-95742394D01*
X172881692Y-95714000D01*
X172822939Y-95679039D01*
X172758293Y-95676417D01*
X172699008Y-95703358D01*
X172656339Y-95757088D01*
X172650739Y-95770950D01*
X172618133Y-95821936D01*
X172570530Y-95859787D01*
X172510461Y-95890850D01*
X172510461Y-95802768D01*
X172513997Y-95748951D01*
X172529156Y-95706534D01*
X172562768Y-95661279D01*
X172595035Y-95626420D01*
X172645209Y-95577062D01*
X172684193Y-95550547D01*
X172726064Y-95539911D01*
X172773460Y-95538154D01*
X172877333Y-95553528D01*
G36*
X173560807Y-95556782D02*
X173584161Y-95566988D01*
X173639902Y-95611134D01*
X173687569Y-95674967D01*
X173717048Y-95743087D01*
X173721846Y-95776670D01*
X173705760Y-95823556D01*
X173670475Y-95848365D01*
X173632644Y-95863387D01*
X173615321Y-95866155D01*
X173606886Y-95846066D01*
X173590230Y-95802351D01*
X173582923Y-95782598D01*
X173541948Y-95714271D01*
X173482622Y-95680191D01*
X173406552Y-95681239D01*
X173400918Y-95682581D01*
X173360305Y-95701836D01*
X173330448Y-95739375D01*
X173310055Y-95799809D01*
X173297836Y-95887751D01*
X173292500Y-96007813D01*
X173292000Y-96071698D01*
X173291752Y-96172403D01*
X173290126Y-96241054D01*
X173285801Y-96284673D01*
X173277454Y-96310282D01*
X173263765Y-96324903D01*
X173243411Y-96335558D01*
X173242234Y-96336095D01*
X173203038Y-96352667D01*
X173183619Y-96358769D01*
X173180635Y-96340319D01*
X173178081Y-96289323D01*
X173176140Y-96212308D01*
X173174997Y-96115805D01*
X173174769Y-96045184D01*
X173175932Y-95908525D01*
X173180479Y-95804851D01*
X173189999Y-95728108D01*
X173206081Y-95672246D01*
X173230313Y-95631212D01*
X173264286Y-95598954D01*
X173297833Y-95576440D01*
X173378499Y-95546476D01*
X173472381Y-95539718D01*
X173560807Y-95556782D01*
X173560807Y-95556782D01*
G37*
X173560807Y-95556782D02*
X173584161Y-95566988D01*
X173639902Y-95611134D01*
X173687569Y-95674967D01*
X173717048Y-95743087D01*
X173721846Y-95776670D01*
X173705760Y-95823556D01*
X173670475Y-95848365D01*
X173632644Y-95863387D01*
X173615321Y-95866155D01*
X173606886Y-95846066D01*
X173590230Y-95802351D01*
X173582923Y-95782598D01*
X173541948Y-95714271D01*
X173482622Y-95680191D01*
X173406552Y-95681239D01*
X173400918Y-95682581D01*
X173360305Y-95701836D01*
X173330448Y-95739375D01*
X173310055Y-95799809D01*
X173297836Y-95887751D01*
X173292500Y-96007813D01*
X173292000Y-96071698D01*
X173291752Y-96172403D01*
X173290126Y-96241054D01*
X173285801Y-96284673D01*
X173277454Y-96310282D01*
X173263765Y-96324903D01*
X173243411Y-96335558D01*
X173242234Y-96336095D01*
X173203038Y-96352667D01*
X173183619Y-96358769D01*
X173180635Y-96340319D01*
X173178081Y-96289323D01*
X173176140Y-96212308D01*
X173174997Y-96115805D01*
X173174769Y-96045184D01*
X173175932Y-95908525D01*
X173180479Y-95804851D01*
X173189999Y-95728108D01*
X173206081Y-95672246D01*
X173230313Y-95631212D01*
X173264286Y-95598954D01*
X173297833Y-95576440D01*
X173378499Y-95546476D01*
X173472381Y-95539718D01*
X173560807Y-95556782D01*
G36*
X174235224Y-95567838D02*
X174312528Y-95618361D01*
X174349814Y-95663590D01*
X174379353Y-95745663D01*
X174381699Y-95810607D01*
X174376385Y-95897445D01*
X174176115Y-95985103D01*
X174078739Y-96029887D01*
X174015113Y-96065913D01*
X173982029Y-96097117D01*
X173976280Y-96127436D01*
X173994658Y-96160805D01*
X174014923Y-96182923D01*
X174073889Y-96218393D01*
X174138024Y-96220879D01*
X174196926Y-96193235D01*
X174240197Y-96138320D01*
X174247936Y-96118928D01*
X174285006Y-96058364D01*
X174327654Y-96032552D01*
X174386154Y-96010471D01*
X174386154Y-96094184D01*
X174380982Y-96151150D01*
X174360723Y-96199189D01*
X174318262Y-96254346D01*
X174311951Y-96261514D01*
X174264720Y-96310585D01*
X174224121Y-96336920D01*
X174173328Y-96349035D01*
X174131220Y-96353003D01*
X174055902Y-96353991D01*
X174002286Y-96341466D01*
X173968838Y-96322869D01*
X173916268Y-96281975D01*
X173879879Y-96237748D01*
X173856850Y-96182126D01*
X173844359Y-96107047D01*
X173839587Y-96004449D01*
X173839206Y-95952376D01*
X173840501Y-95889948D01*
X173958471Y-95889948D01*
X173959839Y-95923438D01*
X173963249Y-95928923D01*
X173985753Y-95921472D01*
X174034182Y-95901753D01*
X174098908Y-95873718D01*
X174112443Y-95867692D01*
X174194244Y-95826096D01*
X174239312Y-95789538D01*
X174249217Y-95755296D01*
X174225526Y-95720648D01*
X174205960Y-95705339D01*
X174135360Y-95674721D01*
X174069280Y-95679780D01*
X174013959Y-95717151D01*
X173975636Y-95783473D01*
X173963349Y-95836116D01*
X173958471Y-95889948D01*
X173840501Y-95889948D01*
X173841730Y-95830720D01*
X173851032Y-95740710D01*
X173869460Y-95675167D01*
X173899360Y-95626912D01*
X173943080Y-95588767D01*
X173962141Y-95576440D01*
X174048726Y-95544336D01*
X174143522Y-95542316D01*
X174235224Y-95567838D01*
X174235224Y-95567838D01*
G37*
X174235224Y-95567838D02*
X174312528Y-95618361D01*
X174349814Y-95663590D01*
X174379353Y-95745663D01*
X174381699Y-95810607D01*
X174376385Y-95897445D01*
X174176115Y-95985103D01*
X174078739Y-96029887D01*
X174015113Y-96065913D01*
X173982029Y-96097117D01*
X173976280Y-96127436D01*
X173994658Y-96160805D01*
X174014923Y-96182923D01*
X174073889Y-96218393D01*
X174138024Y-96220879D01*
X174196926Y-96193235D01*
X174240197Y-96138320D01*
X174247936Y-96118928D01*
X174285006Y-96058364D01*
X174327654Y-96032552D01*
X174386154Y-96010471D01*
X174386154Y-96094184D01*
X174380982Y-96151150D01*
X174360723Y-96199189D01*
X174318262Y-96254346D01*
X174311951Y-96261514D01*
X174264720Y-96310585D01*
X174224121Y-96336920D01*
X174173328Y-96349035D01*
X174131220Y-96353003D01*
X174055902Y-96353991D01*
X174002286Y-96341466D01*
X173968838Y-96322869D01*
X173916268Y-96281975D01*
X173879879Y-96237748D01*
X173856850Y-96182126D01*
X173844359Y-96107047D01*
X173839587Y-96004449D01*
X173839206Y-95952376D01*
X173840501Y-95889948D01*
X173958471Y-95889948D01*
X173959839Y-95923438D01*
X173963249Y-95928923D01*
X173985753Y-95921472D01*
X174034182Y-95901753D01*
X174098908Y-95873718D01*
X174112443Y-95867692D01*
X174194244Y-95826096D01*
X174239312Y-95789538D01*
X174249217Y-95755296D01*
X174225526Y-95720648D01*
X174205960Y-95705339D01*
X174135360Y-95674721D01*
X174069280Y-95679780D01*
X174013959Y-95717151D01*
X173975636Y-95783473D01*
X173963349Y-95836116D01*
X173958471Y-95889948D01*
X173840501Y-95889948D01*
X173841730Y-95830720D01*
X173851032Y-95740710D01*
X173869460Y-95675167D01*
X173899360Y-95626912D01*
X173943080Y-95588767D01*
X173962141Y-95576440D01*
X174048726Y-95544336D01*
X174143522Y-95542316D01*
X174235224Y-95567838D01*
G36*
X170129878Y-89207776D02*
X170235612Y-89208355D01*
X170312132Y-89209922D01*
X170364372Y-89212972D01*
X170397263Y-89217996D01*
X170415737Y-89225489D01*
X170424727Y-89235944D01*
X170429163Y-89249853D01*
X170429594Y-89251654D01*
X170436333Y-89284145D01*
X170448808Y-89348252D01*
X170465719Y-89437151D01*
X170485771Y-89544019D01*
X170507664Y-89662033D01*
X170508429Y-89666178D01*
X170530359Y-89781831D01*
X170550877Y-89884014D01*
X170568659Y-89966598D01*
X170582381Y-90023456D01*
X170590718Y-90048458D01*
X170591116Y-90048901D01*
X170615677Y-90061110D01*
X170666315Y-90081456D01*
X170732095Y-90105545D01*
X170732461Y-90105674D01*
X170815317Y-90136818D01*
X170913000Y-90176491D01*
X171005077Y-90216381D01*
X171009434Y-90218353D01*
X171159407Y-90286420D01*
X171491498Y-90059639D01*
X171593374Y-89990504D01*
X171685657Y-89928697D01*
X171763003Y-89877733D01*
X171820064Y-89841127D01*
X171851495Y-89822394D01*
X171854479Y-89821004D01*
X171877321Y-89827190D01*
X171919982Y-89857035D01*
X171984128Y-89911947D01*
X172071421Y-89993334D01*
X172160535Y-90079922D01*
X172246441Y-90165247D01*
X172323327Y-90243108D01*
X172386564Y-90308697D01*
X172431523Y-90357205D01*
X172453576Y-90383825D01*
X172454396Y-90385195D01*
X172456834Y-90403463D01*
X172447650Y-90433295D01*
X172424574Y-90478721D01*
X172385337Y-90543770D01*
X172327670Y-90632470D01*
X172250795Y-90746657D01*
X172182570Y-90847162D01*
X172121582Y-90937303D01*
X172071356Y-91011849D01*
X172035416Y-91065565D01*
X172017287Y-91093218D01*
X172016146Y-91095095D01*
X172018359Y-91121590D01*
X172035138Y-91173086D01*
X172063142Y-91239851D01*
X172073122Y-91261172D01*
X172116672Y-91356159D01*
X172163134Y-91463937D01*
X172200877Y-91557192D01*
X172228073Y-91626406D01*
X172249675Y-91679006D01*
X172262158Y-91706497D01*
X172263709Y-91708616D01*
X172286668Y-91712124D01*
X172340786Y-91721738D01*
X172418868Y-91736089D01*
X172513719Y-91753807D01*
X172618143Y-91773525D01*
X172724944Y-91793874D01*
X172826926Y-91813486D01*
X172916894Y-91830991D01*
X172987653Y-91845022D01*
X173032006Y-91854209D01*
X173042885Y-91856807D01*
X173054122Y-91863218D01*
X173062605Y-91877697D01*
X173068714Y-91905133D01*
X173072832Y-91950411D01*
X173075341Y-92018420D01*
X173076621Y-92114047D01*
X173077054Y-92242180D01*
X173077077Y-92294701D01*
X173077077Y-92721845D01*
X172974500Y-92742091D01*
X172917431Y-92753070D01*
X172832269Y-92769095D01*
X172729372Y-92788233D01*
X172619096Y-92808551D01*
X172588615Y-92814132D01*
X172486855Y-92833917D01*
X172398205Y-92853373D01*
X172330108Y-92870697D01*
X172290004Y-92884088D01*
X172283323Y-92888079D01*
X172266919Y-92916342D01*
X172243399Y-92971109D01*
X172217316Y-93041588D01*
X172212142Y-93056769D01*
X172177956Y-93150896D01*
X172135523Y-93257101D01*
X172093997Y-93352473D01*
X172093792Y-93352916D01*
X172024640Y-93502525D01*
X172479512Y-94171617D01*
X172187500Y-94464116D01*
X172099180Y-94551170D01*
X172018625Y-94627909D01*
X171950360Y-94690237D01*
X171898908Y-94734056D01*
X171868794Y-94755270D01*
X171864474Y-94756616D01*
X171839111Y-94746016D01*
X171787358Y-94716547D01*
X171714868Y-94671705D01*
X171627294Y-94614984D01*
X171532612Y-94551462D01*
X171436516Y-94486668D01*
X171350837Y-94430287D01*
X171281016Y-94385788D01*
X171232494Y-94356639D01*
X171210782Y-94346308D01*
X171184293Y-94355050D01*
X171134062Y-94378087D01*
X171070451Y-94410631D01*
X171063708Y-94414249D01*
X170978046Y-94457210D01*
X170919306Y-94478279D01*
X170882772Y-94478503D01*
X170863731Y-94458928D01*
X170863620Y-94458654D01*
X170854102Y-94435472D01*
X170831403Y-94380441D01*
X170797282Y-94297822D01*
X170753500Y-94191872D01*
X170701816Y-94066852D01*
X170643992Y-93927020D01*
X170587991Y-93791637D01*
X170526447Y-93642234D01*
X170469939Y-93503832D01*
X170420161Y-93380673D01*
X170378806Y-93277002D01*
X170347568Y-93197059D01*
X170328141Y-93145088D01*
X170322154Y-93125692D01*
X170337168Y-93103443D01*
X170376439Y-93067982D01*
X170428807Y-93028887D01*
X170577941Y-92905245D01*
X170694511Y-92763522D01*
X170777118Y-92606704D01*
X170824366Y-92437775D01*
X170834857Y-92259722D01*
X170827231Y-92177539D01*
X170785682Y-92007031D01*
X170714123Y-91856459D01*
X170616995Y-91727309D01*
X170498734Y-91621064D01*
X170363780Y-91539210D01*
X170216571Y-91483232D01*
X170061544Y-91454615D01*
X169903139Y-91454844D01*
X169745794Y-91485405D01*
X169593946Y-91547782D01*
X169452035Y-91643460D01*
X169392803Y-91697572D01*
X169279203Y-91836520D01*
X169200106Y-91988361D01*
X169154986Y-92148667D01*
X169143316Y-92313012D01*
X169164569Y-92476971D01*
X169218220Y-92636118D01*
X169303740Y-92786025D01*
X169420605Y-92922267D01*
X169551193Y-93028887D01*
X169605588Y-93069642D01*
X169644014Y-93104718D01*
X169657846Y-93125726D01*
X169650603Y-93148635D01*
X169630005Y-93203365D01*
X169597746Y-93285672D01*
X169555521Y-93391315D01*
X169505023Y-93516050D01*
X169447948Y-93655636D01*
X169391854Y-93791670D01*
X169329967Y-93941201D01*
X169272644Y-94079767D01*
X169221644Y-94203107D01*
X169178727Y-94306964D01*
X169145653Y-94387080D01*
X169124181Y-94439195D01*
X169116225Y-94458654D01*
X169097429Y-94478423D01*
X169061074Y-94478365D01*
X169002479Y-94457441D01*
X168916968Y-94414613D01*
X168916292Y-94414249D01*
X168851907Y-94381012D01*
X168799861Y-94356802D01*
X168770512Y-94346404D01*
X168769217Y-94346308D01*
X168747124Y-94356855D01*
X168698348Y-94386184D01*
X168628331Y-94430827D01*
X168542514Y-94487314D01*
X168447388Y-94551462D01*
X168350540Y-94616411D01*
X168263253Y-94672896D01*
X168191181Y-94717421D01*
X168139977Y-94746490D01*
X168115526Y-94756616D01*
X168093010Y-94743307D01*
X168047742Y-94706112D01*
X167984244Y-94649128D01*
X167907039Y-94576449D01*
X167820651Y-94492171D01*
X167792399Y-94464016D01*
X167500287Y-94171416D01*
X167722631Y-93845104D01*
X167790202Y-93744897D01*
X167849507Y-93654963D01*
X167897217Y-93580510D01*
X167930007Y-93526751D01*
X167944548Y-93498894D01*
X167944974Y-93496912D01*
X167937308Y-93470655D01*
X167916689Y-93417837D01*
X167886685Y-93347310D01*
X167865625Y-93300093D01*
X167826248Y-93209694D01*
X167789165Y-93118366D01*
X167760415Y-93041200D01*
X167752605Y-93017692D01*
X167730417Y-92954916D01*
X167708727Y-92906411D01*
X167696813Y-92888079D01*
X167670523Y-92876859D01*
X167613142Y-92860954D01*
X167532118Y-92842167D01*
X167434895Y-92822299D01*
X167391385Y-92814132D01*
X167280896Y-92793829D01*
X167174916Y-92774170D01*
X167083801Y-92757088D01*
X167017908Y-92744518D01*
X167005500Y-92742091D01*
X166902923Y-92721845D01*
X166902923Y-92294701D01*
X166903153Y-92154246D01*
X166904099Y-92047979D01*
X166906141Y-91971013D01*
X166909662Y-91918460D01*
X166915043Y-91885433D01*
X166922666Y-91867045D01*
X166932912Y-91858408D01*
X166937115Y-91856807D01*
X166962470Y-91851127D01*
X167018484Y-91839795D01*
X167097964Y-91824179D01*
X167193712Y-91805647D01*
X167298533Y-91785569D01*
X167405232Y-91765312D01*
X167506613Y-91746246D01*
X167595479Y-91729739D01*
X167664637Y-91717159D01*
X167706889Y-91709875D01*
X167716290Y-91708616D01*
X167724807Y-91691763D01*
X167743660Y-91646870D01*
X167769324Y-91582430D01*
X167779123Y-91557192D01*
X167818648Y-91459686D01*
X167865192Y-91351959D01*
X167906877Y-91261172D01*
X167937550Y-91191753D01*
X167957956Y-91134710D01*
X167964768Y-91099777D01*
X167963682Y-91095095D01*
X167949285Y-91072991D01*
X167916412Y-91023831D01*
X167868590Y-90952848D01*
X167809348Y-90865278D01*
X167742215Y-90766357D01*
X167728941Y-90746830D01*
X167651046Y-90631140D01*
X167593787Y-90543044D01*
X167554881Y-90478486D01*
X167532044Y-90433411D01*
X167522994Y-90403763D01*
X167525448Y-90385485D01*
X167525511Y-90385369D01*
X167544827Y-90361361D01*
X167587551Y-90314947D01*
X167649051Y-90250937D01*
X167724698Y-90174145D01*
X167809861Y-90089382D01*
X167819465Y-90079922D01*
X167926790Y-89975989D01*
X168009615Y-89899675D01*
X168069605Y-89849571D01*
X168108423Y-89824270D01*
X168125520Y-89821004D01*
X168150473Y-89835250D01*
X168202255Y-89868156D01*
X168275520Y-89916208D01*
X168364920Y-89975890D01*
X168465111Y-90043688D01*
X168488501Y-90059639D01*
X168820593Y-90286420D01*
X168970565Y-90218353D01*
X169061770Y-90178685D01*
X169159669Y-90138791D01*
X169243831Y-90106983D01*
X169247538Y-90105674D01*
X169313369Y-90081576D01*
X169364116Y-90061200D01*
X169388842Y-90048936D01*
X169388884Y-90048901D01*
X169396729Y-90026734D01*
X169410066Y-89972217D01*
X169427570Y-89891480D01*
X169447917Y-89790650D01*
X169469782Y-89675856D01*
X169471571Y-89666178D01*
X169493504Y-89547904D01*
X169513640Y-89440542D01*
X169530680Y-89350917D01*
X169543328Y-89285851D01*
X169550284Y-89252168D01*
X169550406Y-89251654D01*
X169554639Y-89237325D01*
X169562871Y-89226507D01*
X169580033Y-89218706D01*
X169611058Y-89213429D01*
X169660878Y-89210182D01*
X169734424Y-89208472D01*
X169836629Y-89207807D01*
X169972425Y-89207693D01*
X169990000Y-89207692D01*
X170129878Y-89207776D01*
X170129878Y-89207776D01*
G37*
X170129878Y-89207776D02*
X170235612Y-89208355D01*
X170312132Y-89209922D01*
X170364372Y-89212972D01*
X170397263Y-89217996D01*
X170415737Y-89225489D01*
X170424727Y-89235944D01*
X170429163Y-89249853D01*
X170429594Y-89251654D01*
X170436333Y-89284145D01*
X170448808Y-89348252D01*
X170465719Y-89437151D01*
X170485771Y-89544019D01*
X170507664Y-89662033D01*
X170508429Y-89666178D01*
X170530359Y-89781831D01*
X170550877Y-89884014D01*
X170568659Y-89966598D01*
X170582381Y-90023456D01*
X170590718Y-90048458D01*
X170591116Y-90048901D01*
X170615677Y-90061110D01*
X170666315Y-90081456D01*
X170732095Y-90105545D01*
X170732461Y-90105674D01*
X170815317Y-90136818D01*
X170913000Y-90176491D01*
X171005077Y-90216381D01*
X171009434Y-90218353D01*
X171159407Y-90286420D01*
X171491498Y-90059639D01*
X171593374Y-89990504D01*
X171685657Y-89928697D01*
X171763003Y-89877733D01*
X171820064Y-89841127D01*
X171851495Y-89822394D01*
X171854479Y-89821004D01*
X171877321Y-89827190D01*
X171919982Y-89857035D01*
X171984128Y-89911947D01*
X172071421Y-89993334D01*
X172160535Y-90079922D01*
X172246441Y-90165247D01*
X172323327Y-90243108D01*
X172386564Y-90308697D01*
X172431523Y-90357205D01*
X172453576Y-90383825D01*
X172454396Y-90385195D01*
X172456834Y-90403463D01*
X172447650Y-90433295D01*
X172424574Y-90478721D01*
X172385337Y-90543770D01*
X172327670Y-90632470D01*
X172250795Y-90746657D01*
X172182570Y-90847162D01*
X172121582Y-90937303D01*
X172071356Y-91011849D01*
X172035416Y-91065565D01*
X172017287Y-91093218D01*
X172016146Y-91095095D01*
X172018359Y-91121590D01*
X172035138Y-91173086D01*
X172063142Y-91239851D01*
X172073122Y-91261172D01*
X172116672Y-91356159D01*
X172163134Y-91463937D01*
X172200877Y-91557192D01*
X172228073Y-91626406D01*
X172249675Y-91679006D01*
X172262158Y-91706497D01*
X172263709Y-91708616D01*
X172286668Y-91712124D01*
X172340786Y-91721738D01*
X172418868Y-91736089D01*
X172513719Y-91753807D01*
X172618143Y-91773525D01*
X172724944Y-91793874D01*
X172826926Y-91813486D01*
X172916894Y-91830991D01*
X172987653Y-91845022D01*
X173032006Y-91854209D01*
X173042885Y-91856807D01*
X173054122Y-91863218D01*
X173062605Y-91877697D01*
X173068714Y-91905133D01*
X173072832Y-91950411D01*
X173075341Y-92018420D01*
X173076621Y-92114047D01*
X173077054Y-92242180D01*
X173077077Y-92294701D01*
X173077077Y-92721845D01*
X172974500Y-92742091D01*
X172917431Y-92753070D01*
X172832269Y-92769095D01*
X172729372Y-92788233D01*
X172619096Y-92808551D01*
X172588615Y-92814132D01*
X172486855Y-92833917D01*
X172398205Y-92853373D01*
X172330108Y-92870697D01*
X172290004Y-92884088D01*
X172283323Y-92888079D01*
X172266919Y-92916342D01*
X172243399Y-92971109D01*
X172217316Y-93041588D01*
X172212142Y-93056769D01*
X172177956Y-93150896D01*
X172135523Y-93257101D01*
X172093997Y-93352473D01*
X172093792Y-93352916D01*
X172024640Y-93502525D01*
X172479512Y-94171617D01*
X172187500Y-94464116D01*
X172099180Y-94551170D01*
X172018625Y-94627909D01*
X171950360Y-94690237D01*
X171898908Y-94734056D01*
X171868794Y-94755270D01*
X171864474Y-94756616D01*
X171839111Y-94746016D01*
X171787358Y-94716547D01*
X171714868Y-94671705D01*
X171627294Y-94614984D01*
X171532612Y-94551462D01*
X171436516Y-94486668D01*
X171350837Y-94430287D01*
X171281016Y-94385788D01*
X171232494Y-94356639D01*
X171210782Y-94346308D01*
X171184293Y-94355050D01*
X171134062Y-94378087D01*
X171070451Y-94410631D01*
X171063708Y-94414249D01*
X170978046Y-94457210D01*
X170919306Y-94478279D01*
X170882772Y-94478503D01*
X170863731Y-94458928D01*
X170863620Y-94458654D01*
X170854102Y-94435472D01*
X170831403Y-94380441D01*
X170797282Y-94297822D01*
X170753500Y-94191872D01*
X170701816Y-94066852D01*
X170643992Y-93927020D01*
X170587991Y-93791637D01*
X170526447Y-93642234D01*
X170469939Y-93503832D01*
X170420161Y-93380673D01*
X170378806Y-93277002D01*
X170347568Y-93197059D01*
X170328141Y-93145088D01*
X170322154Y-93125692D01*
X170337168Y-93103443D01*
X170376439Y-93067982D01*
X170428807Y-93028887D01*
X170577941Y-92905245D01*
X170694511Y-92763522D01*
X170777118Y-92606704D01*
X170824366Y-92437775D01*
X170834857Y-92259722D01*
X170827231Y-92177539D01*
X170785682Y-92007031D01*
X170714123Y-91856459D01*
X170616995Y-91727309D01*
X170498734Y-91621064D01*
X170363780Y-91539210D01*
X170216571Y-91483232D01*
X170061544Y-91454615D01*
X169903139Y-91454844D01*
X169745794Y-91485405D01*
X169593946Y-91547782D01*
X169452035Y-91643460D01*
X169392803Y-91697572D01*
X169279203Y-91836520D01*
X169200106Y-91988361D01*
X169154986Y-92148667D01*
X169143316Y-92313012D01*
X169164569Y-92476971D01*
X169218220Y-92636118D01*
X169303740Y-92786025D01*
X169420605Y-92922267D01*
X169551193Y-93028887D01*
X169605588Y-93069642D01*
X169644014Y-93104718D01*
X169657846Y-93125726D01*
X169650603Y-93148635D01*
X169630005Y-93203365D01*
X169597746Y-93285672D01*
X169555521Y-93391315D01*
X169505023Y-93516050D01*
X169447948Y-93655636D01*
X169391854Y-93791670D01*
X169329967Y-93941201D01*
X169272644Y-94079767D01*
X169221644Y-94203107D01*
X169178727Y-94306964D01*
X169145653Y-94387080D01*
X169124181Y-94439195D01*
X169116225Y-94458654D01*
X169097429Y-94478423D01*
X169061074Y-94478365D01*
X169002479Y-94457441D01*
X168916968Y-94414613D01*
X168916292Y-94414249D01*
X168851907Y-94381012D01*
X168799861Y-94356802D01*
X168770512Y-94346404D01*
X168769217Y-94346308D01*
X168747124Y-94356855D01*
X168698348Y-94386184D01*
X168628331Y-94430827D01*
X168542514Y-94487314D01*
X168447388Y-94551462D01*
X168350540Y-94616411D01*
X168263253Y-94672896D01*
X168191181Y-94717421D01*
X168139977Y-94746490D01*
X168115526Y-94756616D01*
X168093010Y-94743307D01*
X168047742Y-94706112D01*
X167984244Y-94649128D01*
X167907039Y-94576449D01*
X167820651Y-94492171D01*
X167792399Y-94464016D01*
X167500287Y-94171416D01*
X167722631Y-93845104D01*
X167790202Y-93744897D01*
X167849507Y-93654963D01*
X167897217Y-93580510D01*
X167930007Y-93526751D01*
X167944548Y-93498894D01*
X167944974Y-93496912D01*
X167937308Y-93470655D01*
X167916689Y-93417837D01*
X167886685Y-93347310D01*
X167865625Y-93300093D01*
X167826248Y-93209694D01*
X167789165Y-93118366D01*
X167760415Y-93041200D01*
X167752605Y-93017692D01*
X167730417Y-92954916D01*
X167708727Y-92906411D01*
X167696813Y-92888079D01*
X167670523Y-92876859D01*
X167613142Y-92860954D01*
X167532118Y-92842167D01*
X167434895Y-92822299D01*
X167391385Y-92814132D01*
X167280896Y-92793829D01*
X167174916Y-92774170D01*
X167083801Y-92757088D01*
X167017908Y-92744518D01*
X167005500Y-92742091D01*
X166902923Y-92721845D01*
X166902923Y-92294701D01*
X166903153Y-92154246D01*
X166904099Y-92047979D01*
X166906141Y-91971013D01*
X166909662Y-91918460D01*
X166915043Y-91885433D01*
X166922666Y-91867045D01*
X166932912Y-91858408D01*
X166937115Y-91856807D01*
X166962470Y-91851127D01*
X167018484Y-91839795D01*
X167097964Y-91824179D01*
X167193712Y-91805647D01*
X167298533Y-91785569D01*
X167405232Y-91765312D01*
X167506613Y-91746246D01*
X167595479Y-91729739D01*
X167664637Y-91717159D01*
X167706889Y-91709875D01*
X167716290Y-91708616D01*
X167724807Y-91691763D01*
X167743660Y-91646870D01*
X167769324Y-91582430D01*
X167779123Y-91557192D01*
X167818648Y-91459686D01*
X167865192Y-91351959D01*
X167906877Y-91261172D01*
X167937550Y-91191753D01*
X167957956Y-91134710D01*
X167964768Y-91099777D01*
X167963682Y-91095095D01*
X167949285Y-91072991D01*
X167916412Y-91023831D01*
X167868590Y-90952848D01*
X167809348Y-90865278D01*
X167742215Y-90766357D01*
X167728941Y-90746830D01*
X167651046Y-90631140D01*
X167593787Y-90543044D01*
X167554881Y-90478486D01*
X167532044Y-90433411D01*
X167522994Y-90403763D01*
X167525448Y-90385485D01*
X167525511Y-90385369D01*
X167544827Y-90361361D01*
X167587551Y-90314947D01*
X167649051Y-90250937D01*
X167724698Y-90174145D01*
X167809861Y-90089382D01*
X167819465Y-90079922D01*
X167926790Y-89975989D01*
X168009615Y-89899675D01*
X168069605Y-89849571D01*
X168108423Y-89824270D01*
X168125520Y-89821004D01*
X168150473Y-89835250D01*
X168202255Y-89868156D01*
X168275520Y-89916208D01*
X168364920Y-89975890D01*
X168465111Y-90043688D01*
X168488501Y-90059639D01*
X168820593Y-90286420D01*
X168970565Y-90218353D01*
X169061770Y-90178685D01*
X169159669Y-90138791D01*
X169243831Y-90106983D01*
X169247538Y-90105674D01*
X169313369Y-90081576D01*
X169364116Y-90061200D01*
X169388842Y-90048936D01*
X169388884Y-90048901D01*
X169396729Y-90026734D01*
X169410066Y-89972217D01*
X169427570Y-89891480D01*
X169447917Y-89790650D01*
X169469782Y-89675856D01*
X169471571Y-89666178D01*
X169493504Y-89547904D01*
X169513640Y-89440542D01*
X169530680Y-89350917D01*
X169543328Y-89285851D01*
X169550284Y-89252168D01*
X169550406Y-89251654D01*
X169554639Y-89237325D01*
X169562871Y-89226507D01*
X169580033Y-89218706D01*
X169611058Y-89213429D01*
X169660878Y-89210182D01*
X169734424Y-89208472D01*
X169836629Y-89207807D01*
X169972425Y-89207693D01*
X169990000Y-89207692D01*
X170129878Y-89207776D01*
D16*
X121210000Y-90530000D02*
X119960000Y-90530000D01*
X121210000Y-91780000D02*
X121210000Y-90530000D01*
X116800000Y-97890000D02*
X117300000Y-97890000D01*
X117300000Y-97990000D02*
X116800000Y-97990000D01*
X117300000Y-97790000D02*
X117300000Y-97990000D01*
X116800000Y-97790000D02*
X117300000Y-97790000D01*
X116800000Y-95890000D02*
X117300000Y-95890000D01*
X117300000Y-95990000D02*
X116800000Y-95990000D01*
X117300000Y-95790000D02*
X117300000Y-95990000D01*
X116800000Y-95790000D02*
X117300000Y-95790000D01*
X116800000Y-93890000D02*
X117300000Y-93890000D01*
X117300000Y-93990000D02*
X116800000Y-93990000D01*
X117300000Y-93790000D02*
X117300000Y-93990000D01*
X116800000Y-93790000D02*
X117300000Y-93790000D01*
X118300000Y-100950000D02*
X118300000Y-100340000D01*
X119600000Y-100950000D02*
X119600000Y-100340000D01*
X118300000Y-90830000D02*
X118300000Y-91440000D01*
X119600000Y-90830000D02*
X119600000Y-91440000D01*
X120300000Y-98390000D02*
X120910000Y-98390000D01*
X120300000Y-100340000D02*
X120300000Y-98390000D01*
X116800000Y-100340000D02*
X120300000Y-100340000D01*
X116800000Y-91440000D02*
X116800000Y-100340000D01*
X120300000Y-91440000D02*
X116800000Y-91440000D01*
X120300000Y-93390000D02*
X120300000Y-91440000D01*
X120910000Y-93390000D02*
X120300000Y-93390000D01*
X121010000Y-92590000D02*
X121010000Y-92290000D01*
X121110000Y-92290000D02*
X120910000Y-92290000D01*
X121110000Y-92590000D02*
X121110000Y-92290000D01*
X120910000Y-92590000D02*
X121110000Y-92590000D01*
X120910000Y-100950000D02*
X120910000Y-90830000D01*
X116190000Y-100950000D02*
X120910000Y-100950000D01*
X116190000Y-90830000D02*
X116190000Y-100950000D01*
X120910000Y-90830000D02*
X116190000Y-90830000D01*
X123240000Y-101215000D02*
X127090000Y-101215000D01*
X123240000Y-103215000D02*
X127090000Y-103215000D01*
X123240000Y-101215000D02*
X123240000Y-103215000D01*
D17*
X170000000Y-118240000D02*
X170000000Y-110640000D01*
X178600000Y-118240000D02*
X170000000Y-118240000D01*
X178600000Y-110640000D02*
X178600000Y-118240000D01*
X170000000Y-110640000D02*
X178600000Y-110640000D01*
X169900000Y-78480000D02*
X178500000Y-78480000D01*
X178500000Y-78480000D02*
X178500000Y-86080000D01*
X178500000Y-86080000D02*
X169900000Y-86080000D01*
X169900000Y-86080000D02*
X169900000Y-78480000D01*
X116390000Y-110715000D02*
X124990000Y-110715000D01*
X124990000Y-110715000D02*
X124990000Y-118315000D01*
X124990000Y-118315000D02*
X116390000Y-118315000D01*
X116390000Y-118315000D02*
X116390000Y-110715000D01*
X116910000Y-78500000D02*
X125510000Y-78500000D01*
X125510000Y-78500000D02*
X125510000Y-86100000D01*
X125510000Y-86100000D02*
X116910000Y-86100000D01*
X116910000Y-86100000D02*
X116910000Y-78500000D01*
D16*
X124924000Y-100077000D02*
X124224000Y-100077000D01*
X124224000Y-98877000D02*
X124924000Y-98877000D01*
X126815000Y-98785000D02*
X127815000Y-98785000D01*
X127815000Y-100145000D02*
X126815000Y-100145000D01*
X124074000Y-95241000D02*
X125074000Y-95241000D01*
X125074000Y-96601000D02*
X124074000Y-96601000D01*
X125074000Y-98379000D02*
X124074000Y-98379000D01*
X124074000Y-97019000D02*
X125074000Y-97019000D01*
D18*
X141041380Y-95729160D02*
X141041380Y-103526960D01*
X138641080Y-94428680D02*
X141041380Y-95729160D01*
X133042920Y-94428680D02*
X138641080Y-94428680D01*
X130642620Y-95729160D02*
X133042920Y-94428680D01*
X130642620Y-103526960D02*
X130642620Y-95729160D01*
X141041380Y-103526960D02*
X130642620Y-103526960D01*
X152979380Y-95729160D02*
X152979380Y-103526960D01*
X150579080Y-94428680D02*
X152979380Y-95729160D01*
X144980920Y-94428680D02*
X150579080Y-94428680D01*
X142580620Y-95729160D02*
X144980920Y-94428680D01*
X142580620Y-103526960D02*
X142580620Y-95729160D01*
X152979380Y-103526960D02*
X142580620Y-103526960D01*
X164917380Y-95729160D02*
X164917380Y-103526960D01*
X162517080Y-94428680D02*
X164917380Y-95729160D01*
X156918920Y-94428680D02*
X162517080Y-94428680D01*
X154518620Y-95729160D02*
X156918920Y-94428680D01*
X154518620Y-103526960D02*
X154518620Y-95729160D01*
X164917380Y-103526960D02*
X154518620Y-103526960D01*
D16*
X127860000Y-91565000D02*
X127860000Y-93565000D01*
X125720000Y-93565000D02*
X125720000Y-91565000D01*
X123395000Y-93565000D02*
X123395000Y-91565000D01*
X125535000Y-91565000D02*
X125535000Y-93565000D01*
D17*
X155716428Y-78029285D02*
X155716428Y-77279285D01*
X156002142Y-77279285D01*
X156073571Y-77315000D01*
X156109285Y-77350714D01*
X156145000Y-77422142D01*
X156145000Y-77529285D01*
X156109285Y-77600714D01*
X156073571Y-77636428D01*
X156002142Y-77672142D01*
X155716428Y-77672142D01*
X156787857Y-77529285D02*
X156787857Y-78029285D01*
X156609285Y-77243571D02*
X156430714Y-77779285D01*
X156895000Y-77779285D01*
X137756428Y-78399285D02*
X137756428Y-77649285D01*
X138042142Y-77649285D01*
X138113571Y-77685000D01*
X138149285Y-77720714D01*
X138185000Y-77792142D01*
X138185000Y-77899285D01*
X138149285Y-77970714D01*
X138113571Y-78006428D01*
X138042142Y-78042142D01*
X137756428Y-78042142D01*
X138435000Y-77649285D02*
X138899285Y-77649285D01*
X138649285Y-77935000D01*
X138756428Y-77935000D01*
X138827857Y-77970714D01*
X138863571Y-78006428D01*
X138899285Y-78077857D01*
X138899285Y-78256428D01*
X138863571Y-78327857D01*
X138827857Y-78363571D01*
X138756428Y-78399285D01*
X138542142Y-78399285D01*
X138470714Y-78363571D01*
X138435000Y-78327857D01*
D19*
D17*
X116251904Y-102592380D02*
X116251904Y-101592380D01*
X116632857Y-101592380D01*
X116728095Y-101640000D01*
X116775714Y-101687619D01*
X116823333Y-101782857D01*
X116823333Y-101925714D01*
X116775714Y-102020952D01*
X116728095Y-102068571D01*
X116632857Y-102116190D01*
X116251904Y-102116190D01*
X117156666Y-101592380D02*
X117823333Y-101592380D01*
X117394761Y-102592380D01*
X123306428Y-104329285D02*
X123306428Y-103579285D01*
X123485000Y-103579285D01*
X123592142Y-103615000D01*
X123663571Y-103686428D01*
X123699285Y-103757857D01*
X123735000Y-103900714D01*
X123735000Y-104007857D01*
X123699285Y-104150714D01*
X123663571Y-104222142D01*
X123592142Y-104293571D01*
X123485000Y-104329285D01*
X123306428Y-104329285D01*
X124449285Y-104329285D02*
X124020714Y-104329285D01*
X124235000Y-104329285D02*
X124235000Y-103579285D01*
X124163571Y-103686428D01*
X124092142Y-103757857D01*
X124020714Y-103793571D01*
D20*
X169529428Y-117354857D02*
X168005428Y-117354857D01*
X168005428Y-116774285D01*
X168078000Y-116629142D01*
X168150571Y-116556571D01*
X168295714Y-116484000D01*
X168513428Y-116484000D01*
X168658571Y-116556571D01*
X168731142Y-116629142D01*
X168803714Y-116774285D01*
X168803714Y-117354857D01*
X168005428Y-115177714D02*
X168005428Y-115468000D01*
X168078000Y-115613142D01*
X168150571Y-115685714D01*
X168368285Y-115830857D01*
X168658571Y-115903428D01*
X169239142Y-115903428D01*
X169384285Y-115830857D01*
X169456857Y-115758285D01*
X169529428Y-115613142D01*
X169529428Y-115322857D01*
X169456857Y-115177714D01*
X169384285Y-115105142D01*
X169239142Y-115032571D01*
X168876285Y-115032571D01*
X168731142Y-115105142D01*
X168658571Y-115177714D01*
X168586000Y-115322857D01*
X168586000Y-115613142D01*
X168658571Y-115758285D01*
X168731142Y-115830857D01*
X168876285Y-115903428D01*
X169619428Y-87474857D02*
X168095428Y-87474857D01*
X168095428Y-86894285D01*
X168168000Y-86749142D01*
X168240571Y-86676571D01*
X168385714Y-86604000D01*
X168603428Y-86604000D01*
X168748571Y-86676571D01*
X168821142Y-86749142D01*
X168893714Y-86894285D01*
X168893714Y-87474857D01*
X168095428Y-85225142D02*
X168095428Y-85950857D01*
X168821142Y-86023428D01*
X168748571Y-85950857D01*
X168676000Y-85805714D01*
X168676000Y-85442857D01*
X168748571Y-85297714D01*
X168821142Y-85225142D01*
X168966285Y-85152571D01*
X169329142Y-85152571D01*
X169474285Y-85225142D01*
X169546857Y-85297714D01*
X169619428Y-85442857D01*
X169619428Y-85805714D01*
X169546857Y-85950857D01*
X169474285Y-86023428D01*
X116565142Y-110249428D02*
X116565142Y-108725428D01*
X117145714Y-108725428D01*
X117290857Y-108798000D01*
X117363428Y-108870571D01*
X117436000Y-109015714D01*
X117436000Y-109233428D01*
X117363428Y-109378571D01*
X117290857Y-109451142D01*
X117145714Y-109523714D01*
X116565142Y-109523714D01*
X118016571Y-108870571D02*
X118089142Y-108798000D01*
X118234285Y-108725428D01*
X118597142Y-108725428D01*
X118742285Y-108798000D01*
X118814857Y-108870571D01*
X118887428Y-109015714D01*
X118887428Y-109160857D01*
X118814857Y-109378571D01*
X117944000Y-110249428D01*
X118887428Y-110249428D01*
X116115142Y-88009428D02*
X116115142Y-86485428D01*
X116695714Y-86485428D01*
X116840857Y-86558000D01*
X116913428Y-86630571D01*
X116986000Y-86775714D01*
X116986000Y-86993428D01*
X116913428Y-87138571D01*
X116840857Y-87211142D01*
X116695714Y-87283714D01*
X116115142Y-87283714D01*
X118437428Y-88009428D02*
X117566571Y-88009428D01*
X118002000Y-88009428D02*
X118002000Y-86485428D01*
X117856857Y-86703142D01*
X117711714Y-86848285D01*
X117566571Y-86920857D01*
D17*
X125215000Y-100887857D02*
X125179285Y-100923571D01*
X125072142Y-100959285D01*
X125000714Y-100959285D01*
X124893571Y-100923571D01*
X124822142Y-100852142D01*
X124786428Y-100780714D01*
X124750714Y-100637857D01*
X124750714Y-100530714D01*
X124786428Y-100387857D01*
X124822142Y-100316428D01*
X124893571Y-100245000D01*
X125000714Y-100209285D01*
X125072142Y-100209285D01*
X125179285Y-100245000D01*
X125215000Y-100280714D01*
X125929285Y-100959285D02*
X125500714Y-100959285D01*
X125715000Y-100959285D02*
X125715000Y-100209285D01*
X125643571Y-100316428D01*
X125572142Y-100387857D01*
X125500714Y-100423571D01*
X127755000Y-101029285D02*
X127505000Y-100672142D01*
X127326428Y-101029285D02*
X127326428Y-100279285D01*
X127612142Y-100279285D01*
X127683571Y-100315000D01*
X127719285Y-100350714D01*
X127755000Y-100422142D01*
X127755000Y-100529285D01*
X127719285Y-100600714D01*
X127683571Y-100636428D01*
X127612142Y-100672142D01*
X127326428Y-100672142D01*
X128005000Y-100279285D02*
X128469285Y-100279285D01*
X128219285Y-100565000D01*
X128326428Y-100565000D01*
X128397857Y-100600714D01*
X128433571Y-100636428D01*
X128469285Y-100707857D01*
X128469285Y-100886428D01*
X128433571Y-100957857D01*
X128397857Y-100993571D01*
X128326428Y-101029285D01*
X128112142Y-101029285D01*
X128040714Y-100993571D01*
X128005000Y-100957857D01*
X127529285Y-96035000D02*
X127172142Y-96285000D01*
X127529285Y-96463571D02*
X126779285Y-96463571D01*
X126779285Y-96177857D01*
X126815000Y-96106428D01*
X126850714Y-96070714D01*
X126922142Y-96035000D01*
X127029285Y-96035000D01*
X127100714Y-96070714D01*
X127136428Y-96106428D01*
X127172142Y-96177857D01*
X127172142Y-96463571D01*
X126850714Y-95749285D02*
X126815000Y-95713571D01*
X126779285Y-95642142D01*
X126779285Y-95463571D01*
X126815000Y-95392142D01*
X126850714Y-95356428D01*
X126922142Y-95320714D01*
X126993571Y-95320714D01*
X127100714Y-95356428D01*
X127529285Y-95785000D01*
X127529285Y-95320714D01*
X127529285Y-97805000D02*
X127172142Y-98055000D01*
X127529285Y-98233571D02*
X126779285Y-98233571D01*
X126779285Y-97947857D01*
X126815000Y-97876428D01*
X126850714Y-97840714D01*
X126922142Y-97805000D01*
X127029285Y-97805000D01*
X127100714Y-97840714D01*
X127136428Y-97876428D01*
X127172142Y-97947857D01*
X127172142Y-98233571D01*
X127529285Y-97090714D02*
X127529285Y-97519285D01*
X127529285Y-97305000D02*
X126779285Y-97305000D01*
X126886428Y-97376428D01*
X126957857Y-97447857D01*
X126993571Y-97519285D01*
X133359857Y-92817285D02*
X133359857Y-92067285D01*
X134145571Y-92817285D02*
X133895571Y-92460142D01*
X133717000Y-92817285D02*
X133717000Y-92067285D01*
X134002714Y-92067285D01*
X134074142Y-92103000D01*
X134109857Y-92138714D01*
X134145571Y-92210142D01*
X134145571Y-92317285D01*
X134109857Y-92388714D01*
X134074142Y-92424428D01*
X134002714Y-92460142D01*
X133717000Y-92460142D01*
X134717000Y-92424428D02*
X134467000Y-92424428D01*
X134467000Y-92817285D02*
X134467000Y-92067285D01*
X134824142Y-92067285D01*
X135074142Y-92781571D02*
X135181285Y-92817285D01*
X135359857Y-92817285D01*
X135431285Y-92781571D01*
X135467000Y-92745857D01*
X135502714Y-92674428D01*
X135502714Y-92603000D01*
X135467000Y-92531571D01*
X135431285Y-92495857D01*
X135359857Y-92460142D01*
X135217000Y-92424428D01*
X135145571Y-92388714D01*
X135109857Y-92353000D01*
X135074142Y-92281571D01*
X135074142Y-92210142D01*
X135109857Y-92138714D01*
X135145571Y-92103000D01*
X135217000Y-92067285D01*
X135395571Y-92067285D01*
X135502714Y-92103000D01*
X135752714Y-92067285D02*
X136252714Y-92067285D01*
X135931285Y-92817285D01*
X136895571Y-92067285D02*
X136538428Y-92067285D01*
X136502714Y-92424428D01*
X136538428Y-92388714D01*
X136609857Y-92353000D01*
X136788428Y-92353000D01*
X136859857Y-92388714D01*
X136895571Y-92424428D01*
X136931285Y-92495857D01*
X136931285Y-92674428D01*
X136895571Y-92745857D01*
X136859857Y-92781571D01*
X136788428Y-92817285D01*
X136609857Y-92817285D01*
X136538428Y-92781571D01*
X136502714Y-92745857D01*
X137181285Y-92067285D02*
X137645571Y-92067285D01*
X137395571Y-92353000D01*
X137502714Y-92353000D01*
X137574142Y-92388714D01*
X137609857Y-92424428D01*
X137645571Y-92495857D01*
X137645571Y-92674428D01*
X137609857Y-92745857D01*
X137574142Y-92781571D01*
X137502714Y-92817285D01*
X137288428Y-92817285D01*
X137217000Y-92781571D01*
X137181285Y-92745857D01*
X138109857Y-92067285D02*
X138181285Y-92067285D01*
X138252714Y-92103000D01*
X138288428Y-92138714D01*
X138324142Y-92210142D01*
X138359857Y-92353000D01*
X138359857Y-92531571D01*
X138324142Y-92674428D01*
X138288428Y-92745857D01*
X138252714Y-92781571D01*
X138181285Y-92817285D01*
X138109857Y-92817285D01*
X138038428Y-92781571D01*
X138002714Y-92745857D01*
X137967000Y-92674428D01*
X137931285Y-92531571D01*
X137931285Y-92353000D01*
X137967000Y-92210142D01*
X138002714Y-92138714D01*
X138038428Y-92103000D01*
X138109857Y-92067285D01*
X144917857Y-92817285D02*
X144917857Y-92067285D01*
X145703571Y-92817285D02*
X145453571Y-92460142D01*
X145275000Y-92817285D02*
X145275000Y-92067285D01*
X145560714Y-92067285D01*
X145632142Y-92103000D01*
X145667857Y-92138714D01*
X145703571Y-92210142D01*
X145703571Y-92317285D01*
X145667857Y-92388714D01*
X145632142Y-92424428D01*
X145560714Y-92460142D01*
X145275000Y-92460142D01*
X146275000Y-92424428D02*
X146025000Y-92424428D01*
X146025000Y-92817285D02*
X146025000Y-92067285D01*
X146382142Y-92067285D01*
X146632142Y-92781571D02*
X146739285Y-92817285D01*
X146917857Y-92817285D01*
X146989285Y-92781571D01*
X147025000Y-92745857D01*
X147060714Y-92674428D01*
X147060714Y-92603000D01*
X147025000Y-92531571D01*
X146989285Y-92495857D01*
X146917857Y-92460142D01*
X146775000Y-92424428D01*
X146703571Y-92388714D01*
X146667857Y-92353000D01*
X146632142Y-92281571D01*
X146632142Y-92210142D01*
X146667857Y-92138714D01*
X146703571Y-92103000D01*
X146775000Y-92067285D01*
X146953571Y-92067285D01*
X147060714Y-92103000D01*
X147310714Y-92067285D02*
X147810714Y-92067285D01*
X147489285Y-92817285D01*
X148453571Y-92067285D02*
X148096428Y-92067285D01*
X148060714Y-92424428D01*
X148096428Y-92388714D01*
X148167857Y-92353000D01*
X148346428Y-92353000D01*
X148417857Y-92388714D01*
X148453571Y-92424428D01*
X148489285Y-92495857D01*
X148489285Y-92674428D01*
X148453571Y-92745857D01*
X148417857Y-92781571D01*
X148346428Y-92817285D01*
X148167857Y-92817285D01*
X148096428Y-92781571D01*
X148060714Y-92745857D01*
X148739285Y-92067285D02*
X149203571Y-92067285D01*
X148953571Y-92353000D01*
X149060714Y-92353000D01*
X149132142Y-92388714D01*
X149167857Y-92424428D01*
X149203571Y-92495857D01*
X149203571Y-92674428D01*
X149167857Y-92745857D01*
X149132142Y-92781571D01*
X149060714Y-92817285D01*
X148846428Y-92817285D01*
X148775000Y-92781571D01*
X148739285Y-92745857D01*
X149667857Y-92067285D02*
X149739285Y-92067285D01*
X149810714Y-92103000D01*
X149846428Y-92138714D01*
X149882142Y-92210142D01*
X149917857Y-92353000D01*
X149917857Y-92531571D01*
X149882142Y-92674428D01*
X149846428Y-92745857D01*
X149810714Y-92781571D01*
X149739285Y-92817285D01*
X149667857Y-92817285D01*
X149596428Y-92781571D01*
X149560714Y-92745857D01*
X149525000Y-92674428D01*
X149489285Y-92531571D01*
X149489285Y-92353000D01*
X149525000Y-92210142D01*
X149560714Y-92138714D01*
X149596428Y-92103000D01*
X149667857Y-92067285D01*
X157235857Y-92817285D02*
X157235857Y-92067285D01*
X158021571Y-92817285D02*
X157771571Y-92460142D01*
X157593000Y-92817285D02*
X157593000Y-92067285D01*
X157878714Y-92067285D01*
X157950142Y-92103000D01*
X157985857Y-92138714D01*
X158021571Y-92210142D01*
X158021571Y-92317285D01*
X157985857Y-92388714D01*
X157950142Y-92424428D01*
X157878714Y-92460142D01*
X157593000Y-92460142D01*
X158593000Y-92424428D02*
X158343000Y-92424428D01*
X158343000Y-92817285D02*
X158343000Y-92067285D01*
X158700142Y-92067285D01*
X158950142Y-92781571D02*
X159057285Y-92817285D01*
X159235857Y-92817285D01*
X159307285Y-92781571D01*
X159343000Y-92745857D01*
X159378714Y-92674428D01*
X159378714Y-92603000D01*
X159343000Y-92531571D01*
X159307285Y-92495857D01*
X159235857Y-92460142D01*
X159093000Y-92424428D01*
X159021571Y-92388714D01*
X158985857Y-92353000D01*
X158950142Y-92281571D01*
X158950142Y-92210142D01*
X158985857Y-92138714D01*
X159021571Y-92103000D01*
X159093000Y-92067285D01*
X159271571Y-92067285D01*
X159378714Y-92103000D01*
X159628714Y-92067285D02*
X160128714Y-92067285D01*
X159807285Y-92817285D01*
X160771571Y-92067285D02*
X160414428Y-92067285D01*
X160378714Y-92424428D01*
X160414428Y-92388714D01*
X160485857Y-92353000D01*
X160664428Y-92353000D01*
X160735857Y-92388714D01*
X160771571Y-92424428D01*
X160807285Y-92495857D01*
X160807285Y-92674428D01*
X160771571Y-92745857D01*
X160735857Y-92781571D01*
X160664428Y-92817285D01*
X160485857Y-92817285D01*
X160414428Y-92781571D01*
X160378714Y-92745857D01*
X161057285Y-92067285D02*
X161521571Y-92067285D01*
X161271571Y-92353000D01*
X161378714Y-92353000D01*
X161450142Y-92388714D01*
X161485857Y-92424428D01*
X161521571Y-92495857D01*
X161521571Y-92674428D01*
X161485857Y-92745857D01*
X161450142Y-92781571D01*
X161378714Y-92817285D01*
X161164428Y-92817285D01*
X161093000Y-92781571D01*
X161057285Y-92745857D01*
X161985857Y-92067285D02*
X162057285Y-92067285D01*
X162128714Y-92103000D01*
X162164428Y-92138714D01*
X162200142Y-92210142D01*
X162235857Y-92353000D01*
X162235857Y-92531571D01*
X162200142Y-92674428D01*
X162164428Y-92745857D01*
X162128714Y-92781571D01*
X162057285Y-92817285D01*
X161985857Y-92817285D01*
X161914428Y-92781571D01*
X161878714Y-92745857D01*
X161843000Y-92674428D01*
X161807285Y-92531571D01*
X161807285Y-92353000D01*
X161843000Y-92210142D01*
X161878714Y-92138714D01*
X161914428Y-92103000D01*
X161985857Y-92067285D01*
X126645000Y-90239285D02*
X126395000Y-89882142D01*
X126216428Y-90239285D02*
X126216428Y-89489285D01*
X126502142Y-89489285D01*
X126573571Y-89525000D01*
X126609285Y-89560714D01*
X126645000Y-89632142D01*
X126645000Y-89739285D01*
X126609285Y-89810714D01*
X126573571Y-89846428D01*
X126502142Y-89882142D01*
X126216428Y-89882142D01*
X127287857Y-89739285D02*
X127287857Y-90239285D01*
X127109285Y-89453571D02*
X126930714Y-89989285D01*
X127395000Y-89989285D01*
X124365000Y-90219285D02*
X124115000Y-89862142D01*
X123936428Y-90219285D02*
X123936428Y-89469285D01*
X124222142Y-89469285D01*
X124293571Y-89505000D01*
X124329285Y-89540714D01*
X124365000Y-89612142D01*
X124365000Y-89719285D01*
X124329285Y-89790714D01*
X124293571Y-89826428D01*
X124222142Y-89862142D01*
X123936428Y-89862142D01*
X125043571Y-89469285D02*
X124686428Y-89469285D01*
X124650714Y-89826428D01*
X124686428Y-89790714D01*
X124757857Y-89755000D01*
X124936428Y-89755000D01*
X125007857Y-89790714D01*
X125043571Y-89826428D01*
X125079285Y-89897857D01*
X125079285Y-90076428D01*
X125043571Y-90147857D01*
X125007857Y-90183571D01*
X124936428Y-90219285D01*
X124757857Y-90219285D01*
X124686428Y-90183571D01*
X124650714Y-90147857D01*
M02*
