G04 #@! TF.FileFunction,Legend,Top*
%FSLAX46Y46*%
G04 Gerber Fmt 4.6, Leading zero omitted, Abs format (unit mm)*
G04 Created by KiCad (PCBNEW 4.0.2-stable) date 7/18/2016 7:19:54 PM*
%MOMM*%
G01*
G04 APERTURE LIST*
%ADD10C,0.100000*%
%ADD11C,0.187500*%
%ADD12C,0.300000*%
%ADD13C,0.150000*%
%ADD14C,0.050000*%
%ADD15C,0.381000*%
%ADD16C,0.304800*%
G04 APERTURE END LIST*
D10*
D11*
X181299200Y-75602543D02*
X181334914Y-75531114D01*
X181334914Y-75423971D01*
X181299200Y-75316828D01*
X181227771Y-75245400D01*
X181156343Y-75209685D01*
X181013486Y-75173971D01*
X180906343Y-75173971D01*
X180763486Y-75209685D01*
X180692057Y-75245400D01*
X180620629Y-75316828D01*
X180584914Y-75423971D01*
X180584914Y-75495400D01*
X180620629Y-75602543D01*
X180656343Y-75638257D01*
X180906343Y-75638257D01*
X180906343Y-75495400D01*
X180584914Y-75959685D02*
X181334914Y-75959685D01*
X180584914Y-76388257D01*
X181334914Y-76388257D01*
X180584914Y-76745399D02*
X181334914Y-76745399D01*
X181334914Y-76923971D01*
X181299200Y-77031114D01*
X181227771Y-77102542D01*
X181156343Y-77138257D01*
X181013486Y-77173971D01*
X180906343Y-77173971D01*
X180763486Y-77138257D01*
X180692057Y-77102542D01*
X180620629Y-77031114D01*
X180584914Y-76923971D01*
X180584914Y-76745399D01*
X180584914Y-78459686D02*
X180584914Y-78031114D01*
X180584914Y-78245400D02*
X181334914Y-78245400D01*
X181227771Y-78173971D01*
X181156343Y-78102543D01*
X181120629Y-78031114D01*
X181263486Y-78745400D02*
X181299200Y-78781114D01*
X181334914Y-78852543D01*
X181334914Y-79031114D01*
X181299200Y-79102543D01*
X181263486Y-79138257D01*
X181192057Y-79173972D01*
X181120629Y-79173972D01*
X181013486Y-79138257D01*
X180584914Y-78709686D01*
X180584914Y-79173972D01*
X181334914Y-79388258D02*
X180584914Y-79638258D01*
X181334914Y-79888258D01*
X186782514Y-62161314D02*
X186782514Y-61732742D01*
X186782514Y-61947028D02*
X187532514Y-61947028D01*
X187425371Y-61875599D01*
X187353943Y-61804171D01*
X187318229Y-61732742D01*
X187461086Y-62447028D02*
X187496800Y-62482742D01*
X187532514Y-62554171D01*
X187532514Y-62732742D01*
X187496800Y-62804171D01*
X187461086Y-62839885D01*
X187389657Y-62875600D01*
X187318229Y-62875600D01*
X187211086Y-62839885D01*
X186782514Y-62411314D01*
X186782514Y-62875600D01*
X187532514Y-63089886D02*
X186782514Y-63339886D01*
X187532514Y-63589886D01*
X186818229Y-64375600D02*
X186782514Y-64482743D01*
X186782514Y-64661314D01*
X186818229Y-64732743D01*
X186853943Y-64768457D01*
X186925371Y-64804172D01*
X186996800Y-64804172D01*
X187068229Y-64768457D01*
X187103943Y-64732743D01*
X187139657Y-64661314D01*
X187175371Y-64518457D01*
X187211086Y-64447029D01*
X187246800Y-64411314D01*
X187318229Y-64375600D01*
X187389657Y-64375600D01*
X187461086Y-64411314D01*
X187496800Y-64447029D01*
X187532514Y-64518457D01*
X187532514Y-64697029D01*
X187496800Y-64804172D01*
X187532514Y-65054172D02*
X186782514Y-65232743D01*
X187318229Y-65375600D01*
X186782514Y-65518458D01*
X187532514Y-65697029D01*
X187496800Y-66947030D02*
X187532514Y-66875601D01*
X187532514Y-66768458D01*
X187496800Y-66661315D01*
X187425371Y-66589887D01*
X187353943Y-66554172D01*
X187211086Y-66518458D01*
X187103943Y-66518458D01*
X186961086Y-66554172D01*
X186889657Y-66589887D01*
X186818229Y-66661315D01*
X186782514Y-66768458D01*
X186782514Y-66839887D01*
X186818229Y-66947030D01*
X186853943Y-66982744D01*
X187103943Y-66982744D01*
X187103943Y-66839887D01*
X186782514Y-67304172D02*
X187532514Y-67304172D01*
X186782514Y-67732744D01*
X187532514Y-67732744D01*
X186782514Y-68089886D02*
X187532514Y-68089886D01*
X187532514Y-68268458D01*
X187496800Y-68375601D01*
X187425371Y-68447029D01*
X187353943Y-68482744D01*
X187211086Y-68518458D01*
X187103943Y-68518458D01*
X186961086Y-68482744D01*
X186889657Y-68447029D01*
X186818229Y-68375601D01*
X186782514Y-68268458D01*
X186782514Y-68089886D01*
D12*
X236166400Y-80509371D02*
X236452114Y-80509371D01*
X236594972Y-80580800D01*
X236737829Y-80723657D01*
X236809257Y-81009371D01*
X236809257Y-81509371D01*
X236737829Y-81795086D01*
X236594972Y-81937943D01*
X236452114Y-82009371D01*
X236166400Y-82009371D01*
X236023543Y-81937943D01*
X235880686Y-81795086D01*
X235809257Y-81509371D01*
X235809257Y-81009371D01*
X235880686Y-80723657D01*
X236023543Y-80580800D01*
X236166400Y-80509371D01*
X237452115Y-80509371D02*
X237452115Y-81723657D01*
X237523543Y-81866514D01*
X237594972Y-81937943D01*
X237737829Y-82009371D01*
X238023543Y-82009371D01*
X238166401Y-81937943D01*
X238237829Y-81866514D01*
X238309258Y-81723657D01*
X238309258Y-80509371D01*
X238809258Y-80509371D02*
X239666401Y-80509371D01*
X239237830Y-82009371D02*
X239237830Y-80509371D01*
X241309258Y-81437943D02*
X242452115Y-81437943D01*
X235633000Y-57242971D02*
X235918714Y-57242971D01*
X236061572Y-57314400D01*
X236204429Y-57457257D01*
X236275857Y-57742971D01*
X236275857Y-58242971D01*
X236204429Y-58528686D01*
X236061572Y-58671543D01*
X235918714Y-58742971D01*
X235633000Y-58742971D01*
X235490143Y-58671543D01*
X235347286Y-58528686D01*
X235275857Y-58242971D01*
X235275857Y-57742971D01*
X235347286Y-57457257D01*
X235490143Y-57314400D01*
X235633000Y-57242971D01*
X236918715Y-57242971D02*
X236918715Y-58457257D01*
X236990143Y-58600114D01*
X237061572Y-58671543D01*
X237204429Y-58742971D01*
X237490143Y-58742971D01*
X237633001Y-58671543D01*
X237704429Y-58600114D01*
X237775858Y-58457257D01*
X237775858Y-57242971D01*
X238275858Y-57242971D02*
X239133001Y-57242971D01*
X238704430Y-58742971D02*
X238704430Y-57242971D01*
X240775858Y-58171543D02*
X241918715Y-58171543D01*
X241347286Y-58742971D02*
X241347286Y-57600114D01*
X182829486Y-58793771D02*
X182829486Y-57293771D01*
X183543772Y-58793771D02*
X183543772Y-57293771D01*
X184400915Y-58793771D01*
X184400915Y-57293771D01*
X186258058Y-58222343D02*
X187400915Y-58222343D01*
X186829486Y-58793771D02*
X186829486Y-57650914D01*
X182219886Y-82288771D02*
X182219886Y-80788771D01*
X182934172Y-82288771D02*
X182934172Y-80788771D01*
X183791315Y-82288771D01*
X183791315Y-80788771D01*
X185648458Y-81717343D02*
X186791315Y-81717343D01*
D13*
X182092600Y-69570600D02*
X182092600Y-74650600D01*
X186537600Y-69570600D02*
X186537600Y-74650600D01*
X180187600Y-74650600D02*
X180187600Y-69570600D01*
X180187600Y-74650600D02*
X186537600Y-74650600D01*
X180187600Y-69570600D02*
X186537600Y-69570600D01*
X180187600Y-69088000D02*
X186537600Y-69088000D01*
X180187600Y-61468000D02*
X186537600Y-61468000D01*
X182092600Y-61468000D02*
X182092600Y-69088000D01*
X180187600Y-69088000D02*
X180187600Y-61468000D01*
X186537600Y-61468000D02*
X186537600Y-69088000D01*
X191862000Y-70516000D02*
X191862000Y-71216000D01*
X190662000Y-71216000D02*
X190662000Y-70516000D01*
X190944500Y-75438000D02*
X190563500Y-75438000D01*
X191960500Y-75438000D02*
X191579500Y-75438000D01*
X191579500Y-75438000D02*
X190944500Y-75819000D01*
X190944500Y-75819000D02*
X190944500Y-75057000D01*
X190944500Y-75057000D02*
X191579500Y-75438000D01*
X191579500Y-75946000D02*
X191579500Y-74930000D01*
X193262000Y-74538000D02*
X189722000Y-74538000D01*
X193262000Y-76338000D02*
X189722000Y-76338000D01*
X181700000Y-50700000D02*
X188300000Y-50700000D01*
X188300000Y-50700000D02*
X188300000Y-56300000D01*
X188300000Y-56300000D02*
X181700000Y-56300000D01*
X181700000Y-56300000D02*
X181700000Y-50700000D01*
X181700000Y-82925000D02*
X188300000Y-82925000D01*
X188300000Y-82925000D02*
X188300000Y-88525000D01*
X188300000Y-88525000D02*
X181700000Y-88525000D01*
X181700000Y-88525000D02*
X181700000Y-82925000D01*
D14*
X192000000Y-49000000D02*
X192000000Y-59000000D01*
X192000000Y-59000000D02*
X202000000Y-59000000D01*
X202000000Y-59000000D02*
X202000000Y-49000000D01*
X202000000Y-49000000D02*
X192000000Y-49000000D01*
X199828427Y-54000000D02*
G75*
G03X199828427Y-54000000I-2828427J0D01*
G01*
X222000000Y-49000000D02*
X222000000Y-59000000D01*
X222000000Y-59000000D02*
X232000000Y-59000000D01*
X232000000Y-59000000D02*
X232000000Y-49000000D01*
X232000000Y-49000000D02*
X222000000Y-49000000D01*
X229828427Y-54000000D02*
G75*
G03X229828427Y-54000000I-2828427J0D01*
G01*
D13*
X235700000Y-50700000D02*
X242300000Y-50700000D01*
X242300000Y-50700000D02*
X242300000Y-56300000D01*
X242300000Y-56300000D02*
X235700000Y-56300000D01*
X235700000Y-56300000D02*
X235700000Y-50700000D01*
X235700000Y-82925000D02*
X242300000Y-82925000D01*
X242300000Y-82925000D02*
X242300000Y-88525000D01*
X242300000Y-88525000D02*
X235700000Y-88525000D01*
X235700000Y-88525000D02*
X235700000Y-82925000D01*
D15*
X205351380Y-74736960D02*
X194952620Y-74736960D01*
X194952620Y-74736960D02*
X194952620Y-66939160D01*
X194952620Y-66939160D02*
X197352920Y-65638680D01*
X197352920Y-65638680D02*
X202951080Y-65638680D01*
X202951080Y-65638680D02*
X205351380Y-66939160D01*
X205351380Y-66939160D02*
X205351380Y-74736960D01*
X217289380Y-74736960D02*
X206890620Y-74736960D01*
X206890620Y-74736960D02*
X206890620Y-66939160D01*
X206890620Y-66939160D02*
X209290920Y-65638680D01*
X209290920Y-65638680D02*
X214889080Y-65638680D01*
X214889080Y-65638680D02*
X217289380Y-66939160D01*
X217289380Y-66939160D02*
X217289380Y-74736960D01*
X229227380Y-74736960D02*
X218828620Y-74736960D01*
X218828620Y-74736960D02*
X218828620Y-66939160D01*
X218828620Y-66939160D02*
X221228920Y-65638680D01*
X221228920Y-65638680D02*
X226827080Y-65638680D01*
X226827080Y-65638680D02*
X229227380Y-66939160D01*
X229227380Y-66939160D02*
X229227380Y-74736960D01*
D13*
X188809000Y-71366000D02*
X188809000Y-70366000D01*
X190159000Y-70366000D02*
X190159000Y-71366000D01*
X188381000Y-70366000D02*
X188381000Y-71366000D01*
X187031000Y-71366000D02*
X187031000Y-70366000D01*
X193715000Y-70366000D02*
X193715000Y-71366000D01*
X192365000Y-71366000D02*
X192365000Y-70366000D01*
X184859705Y-76042781D02*
X184859705Y-75042781D01*
X185240658Y-75042781D01*
X185335896Y-75090400D01*
X185383515Y-75138019D01*
X185431134Y-75233257D01*
X185431134Y-75376114D01*
X185383515Y-75471352D01*
X185335896Y-75518971D01*
X185240658Y-75566590D01*
X184859705Y-75566590D01*
X185764467Y-75042781D02*
X186431134Y-75042781D01*
X186002562Y-76042781D01*
X184188267Y-60882162D02*
X184331124Y-60929781D01*
X184569220Y-60929781D01*
X184664458Y-60882162D01*
X184712077Y-60834543D01*
X184759696Y-60739305D01*
X184759696Y-60644067D01*
X184712077Y-60548829D01*
X184664458Y-60501210D01*
X184569220Y-60453590D01*
X184378743Y-60405971D01*
X184283505Y-60358352D01*
X184235886Y-60310733D01*
X184188267Y-60215495D01*
X184188267Y-60120257D01*
X184235886Y-60025019D01*
X184283505Y-59977400D01*
X184378743Y-59929781D01*
X184616839Y-59929781D01*
X184759696Y-59977400D01*
X185093029Y-59929781D02*
X185331124Y-60929781D01*
X185521601Y-60215495D01*
X185712077Y-60929781D01*
X185950172Y-59929781D01*
X186854934Y-60929781D02*
X186283505Y-60929781D01*
X186569219Y-60929781D02*
X186569219Y-59929781D01*
X186473981Y-60072638D01*
X186378743Y-60167876D01*
X186283505Y-60215495D01*
X191619143Y-73318666D02*
X191666762Y-73366285D01*
X191714381Y-73509142D01*
X191714381Y-73604380D01*
X191666762Y-73747238D01*
X191571524Y-73842476D01*
X191476286Y-73890095D01*
X191285810Y-73937714D01*
X191142952Y-73937714D01*
X190952476Y-73890095D01*
X190857238Y-73842476D01*
X190762000Y-73747238D01*
X190714381Y-73604380D01*
X190714381Y-73509142D01*
X190762000Y-73366285D01*
X190809619Y-73318666D01*
X191714381Y-72366285D02*
X191714381Y-72937714D01*
X191714381Y-72652000D02*
X190714381Y-72652000D01*
X190857238Y-72747238D01*
X190952476Y-72842476D01*
X191000095Y-72937714D01*
X187221905Y-75890381D02*
X187221905Y-74890381D01*
X187460000Y-74890381D01*
X187602858Y-74938000D01*
X187698096Y-75033238D01*
X187745715Y-75128476D01*
X187793334Y-75318952D01*
X187793334Y-75461810D01*
X187745715Y-75652286D01*
X187698096Y-75747524D01*
X187602858Y-75842762D01*
X187460000Y-75890381D01*
X187221905Y-75890381D01*
X188745715Y-75890381D02*
X188174286Y-75890381D01*
X188460000Y-75890381D02*
X188460000Y-74890381D01*
X188364762Y-75033238D01*
X188269524Y-75128476D01*
X188174286Y-75176095D01*
D16*
X190275029Y-54591857D02*
X188751029Y-54591857D01*
X188751029Y-54011285D01*
X188823600Y-53866143D01*
X188896171Y-53793571D01*
X189041314Y-53721000D01*
X189259029Y-53721000D01*
X189404171Y-53793571D01*
X189476743Y-53866143D01*
X189549314Y-54011285D01*
X189549314Y-54591857D01*
X190275029Y-52269571D02*
X190275029Y-53140428D01*
X190275029Y-52705000D02*
X188751029Y-52705000D01*
X188968743Y-52850143D01*
X189113886Y-52995285D01*
X189186457Y-53140428D01*
X190478229Y-86646657D02*
X188954229Y-86646657D01*
X188954229Y-86066085D01*
X189026800Y-85920943D01*
X189099371Y-85848371D01*
X189244514Y-85775800D01*
X189462229Y-85775800D01*
X189607371Y-85848371D01*
X189679943Y-85920943D01*
X189752514Y-86066085D01*
X189752514Y-86646657D01*
X189099371Y-85195228D02*
X189026800Y-85122657D01*
X188954229Y-84977514D01*
X188954229Y-84614657D01*
X189026800Y-84469514D01*
X189099371Y-84396943D01*
X189244514Y-84324371D01*
X189389657Y-84324371D01*
X189607371Y-84396943D01*
X190478229Y-85267800D01*
X190478229Y-84324371D01*
D13*
X196642905Y-62199381D02*
X196642905Y-61199381D01*
X197023858Y-61199381D01*
X197119096Y-61247000D01*
X197166715Y-61294619D01*
X197214334Y-61389857D01*
X197214334Y-61532714D01*
X197166715Y-61627952D01*
X197119096Y-61675571D01*
X197023858Y-61723190D01*
X196642905Y-61723190D01*
X197547667Y-61199381D02*
X198166715Y-61199381D01*
X197833381Y-61580333D01*
X197976239Y-61580333D01*
X198071477Y-61627952D01*
X198119096Y-61675571D01*
X198166715Y-61770810D01*
X198166715Y-62008905D01*
X198119096Y-62104143D01*
X198071477Y-62151762D01*
X197976239Y-62199381D01*
X197690524Y-62199381D01*
X197595286Y-62151762D01*
X197547667Y-62104143D01*
X226642905Y-62199381D02*
X226642905Y-61199381D01*
X227023858Y-61199381D01*
X227119096Y-61247000D01*
X227166715Y-61294619D01*
X227214334Y-61389857D01*
X227214334Y-61532714D01*
X227166715Y-61627952D01*
X227119096Y-61675571D01*
X227023858Y-61723190D01*
X226642905Y-61723190D01*
X228071477Y-61532714D02*
X228071477Y-62199381D01*
X227833381Y-61151762D02*
X227595286Y-61866048D01*
X228214334Y-61866048D01*
D16*
X235182229Y-54617257D02*
X233658229Y-54617257D01*
X233658229Y-54036685D01*
X233730800Y-53891543D01*
X233803371Y-53818971D01*
X233948514Y-53746400D01*
X234166229Y-53746400D01*
X234311371Y-53818971D01*
X234383943Y-53891543D01*
X234456514Y-54036685D01*
X234456514Y-54617257D01*
X233658229Y-52367543D02*
X233658229Y-53093257D01*
X234383943Y-53165828D01*
X234311371Y-53093257D01*
X234238800Y-52948114D01*
X234238800Y-52585257D01*
X234311371Y-52440114D01*
X234383943Y-52367543D01*
X234529086Y-52294971D01*
X234891943Y-52294971D01*
X235037086Y-52367543D01*
X235109657Y-52440114D01*
X235182229Y-52585257D01*
X235182229Y-52948114D01*
X235109657Y-53093257D01*
X235037086Y-53165828D01*
X235080629Y-87205457D02*
X233556629Y-87205457D01*
X233556629Y-86624885D01*
X233629200Y-86479743D01*
X233701771Y-86407171D01*
X233846914Y-86334600D01*
X234064629Y-86334600D01*
X234209771Y-86407171D01*
X234282343Y-86479743D01*
X234354914Y-86624885D01*
X234354914Y-87205457D01*
X233556629Y-85028314D02*
X233556629Y-85318600D01*
X233629200Y-85463743D01*
X233701771Y-85536314D01*
X233919486Y-85681457D01*
X234209771Y-85754028D01*
X234790343Y-85754028D01*
X234935486Y-85681457D01*
X235008057Y-85608885D01*
X235080629Y-85463743D01*
X235080629Y-85173457D01*
X235008057Y-85028314D01*
X234935486Y-84955743D01*
X234790343Y-84883171D01*
X234427486Y-84883171D01*
X234282343Y-84955743D01*
X234209771Y-85028314D01*
X234137200Y-85173457D01*
X234137200Y-85463743D01*
X234209771Y-85608885D01*
X234282343Y-85681457D01*
X234427486Y-85754028D01*
X195108285Y-64626309D02*
X195108285Y-63102309D01*
X196704856Y-64626309D02*
X196196856Y-63900594D01*
X195833999Y-64626309D02*
X195833999Y-63102309D01*
X196414571Y-63102309D01*
X196559713Y-63174880D01*
X196632285Y-63247451D01*
X196704856Y-63392594D01*
X196704856Y-63610309D01*
X196632285Y-63755451D01*
X196559713Y-63828023D01*
X196414571Y-63900594D01*
X195833999Y-63900594D01*
X197865999Y-63828023D02*
X197357999Y-63828023D01*
X197357999Y-64626309D02*
X197357999Y-63102309D01*
X198083713Y-63102309D01*
X198591714Y-64553737D02*
X198809428Y-64626309D01*
X199172285Y-64626309D01*
X199317428Y-64553737D01*
X199389999Y-64481166D01*
X199462571Y-64336023D01*
X199462571Y-64190880D01*
X199389999Y-64045737D01*
X199317428Y-63973166D01*
X199172285Y-63900594D01*
X198881999Y-63828023D01*
X198736857Y-63755451D01*
X198664285Y-63682880D01*
X198591714Y-63537737D01*
X198591714Y-63392594D01*
X198664285Y-63247451D01*
X198736857Y-63174880D01*
X198881999Y-63102309D01*
X199244857Y-63102309D01*
X199462571Y-63174880D01*
X199970571Y-63102309D02*
X200986571Y-63102309D01*
X200333428Y-64626309D01*
X202292857Y-63102309D02*
X201567143Y-63102309D01*
X201494572Y-63828023D01*
X201567143Y-63755451D01*
X201712286Y-63682880D01*
X202075143Y-63682880D01*
X202220286Y-63755451D01*
X202292857Y-63828023D01*
X202365429Y-63973166D01*
X202365429Y-64336023D01*
X202292857Y-64481166D01*
X202220286Y-64553737D01*
X202075143Y-64626309D01*
X201712286Y-64626309D01*
X201567143Y-64553737D01*
X201494572Y-64481166D01*
X202873429Y-63102309D02*
X203816858Y-63102309D01*
X203308858Y-63682880D01*
X203526572Y-63682880D01*
X203671715Y-63755451D01*
X203744286Y-63828023D01*
X203816858Y-63973166D01*
X203816858Y-64336023D01*
X203744286Y-64481166D01*
X203671715Y-64553737D01*
X203526572Y-64626309D01*
X203091144Y-64626309D01*
X202946001Y-64553737D01*
X202873429Y-64481166D01*
X204760287Y-63102309D02*
X204905430Y-63102309D01*
X205050573Y-63174880D01*
X205123144Y-63247451D01*
X205195715Y-63392594D01*
X205268287Y-63682880D01*
X205268287Y-64045737D01*
X205195715Y-64336023D01*
X205123144Y-64481166D01*
X205050573Y-64553737D01*
X204905430Y-64626309D01*
X204760287Y-64626309D01*
X204615144Y-64553737D01*
X204542573Y-64481166D01*
X204470001Y-64336023D01*
X204397430Y-64045737D01*
X204397430Y-63682880D01*
X204470001Y-63392594D01*
X204542573Y-63247451D01*
X204615144Y-63174880D01*
X204760287Y-63102309D01*
X207046285Y-64626309D02*
X207046285Y-63102309D01*
X208642856Y-64626309D02*
X208134856Y-63900594D01*
X207771999Y-64626309D02*
X207771999Y-63102309D01*
X208352571Y-63102309D01*
X208497713Y-63174880D01*
X208570285Y-63247451D01*
X208642856Y-63392594D01*
X208642856Y-63610309D01*
X208570285Y-63755451D01*
X208497713Y-63828023D01*
X208352571Y-63900594D01*
X207771999Y-63900594D01*
X209803999Y-63828023D02*
X209295999Y-63828023D01*
X209295999Y-64626309D02*
X209295999Y-63102309D01*
X210021713Y-63102309D01*
X210529714Y-64553737D02*
X210747428Y-64626309D01*
X211110285Y-64626309D01*
X211255428Y-64553737D01*
X211327999Y-64481166D01*
X211400571Y-64336023D01*
X211400571Y-64190880D01*
X211327999Y-64045737D01*
X211255428Y-63973166D01*
X211110285Y-63900594D01*
X210819999Y-63828023D01*
X210674857Y-63755451D01*
X210602285Y-63682880D01*
X210529714Y-63537737D01*
X210529714Y-63392594D01*
X210602285Y-63247451D01*
X210674857Y-63174880D01*
X210819999Y-63102309D01*
X211182857Y-63102309D01*
X211400571Y-63174880D01*
X211908571Y-63102309D02*
X212924571Y-63102309D01*
X212271428Y-64626309D01*
X214230857Y-63102309D02*
X213505143Y-63102309D01*
X213432572Y-63828023D01*
X213505143Y-63755451D01*
X213650286Y-63682880D01*
X214013143Y-63682880D01*
X214158286Y-63755451D01*
X214230857Y-63828023D01*
X214303429Y-63973166D01*
X214303429Y-64336023D01*
X214230857Y-64481166D01*
X214158286Y-64553737D01*
X214013143Y-64626309D01*
X213650286Y-64626309D01*
X213505143Y-64553737D01*
X213432572Y-64481166D01*
X214811429Y-63102309D02*
X215754858Y-63102309D01*
X215246858Y-63682880D01*
X215464572Y-63682880D01*
X215609715Y-63755451D01*
X215682286Y-63828023D01*
X215754858Y-63973166D01*
X215754858Y-64336023D01*
X215682286Y-64481166D01*
X215609715Y-64553737D01*
X215464572Y-64626309D01*
X215029144Y-64626309D01*
X214884001Y-64553737D01*
X214811429Y-64481166D01*
X216698287Y-63102309D02*
X216843430Y-63102309D01*
X216988573Y-63174880D01*
X217061144Y-63247451D01*
X217133715Y-63392594D01*
X217206287Y-63682880D01*
X217206287Y-64045737D01*
X217133715Y-64336023D01*
X217061144Y-64481166D01*
X216988573Y-64553737D01*
X216843430Y-64626309D01*
X216698287Y-64626309D01*
X216553144Y-64553737D01*
X216480573Y-64481166D01*
X216408001Y-64336023D01*
X216335430Y-64045737D01*
X216335430Y-63682880D01*
X216408001Y-63392594D01*
X216480573Y-63247451D01*
X216553144Y-63174880D01*
X216698287Y-63102309D01*
X218984285Y-64626309D02*
X218984285Y-63102309D01*
X220580856Y-64626309D02*
X220072856Y-63900594D01*
X219709999Y-64626309D02*
X219709999Y-63102309D01*
X220290571Y-63102309D01*
X220435713Y-63174880D01*
X220508285Y-63247451D01*
X220580856Y-63392594D01*
X220580856Y-63610309D01*
X220508285Y-63755451D01*
X220435713Y-63828023D01*
X220290571Y-63900594D01*
X219709999Y-63900594D01*
X221741999Y-63828023D02*
X221233999Y-63828023D01*
X221233999Y-64626309D02*
X221233999Y-63102309D01*
X221959713Y-63102309D01*
X222467714Y-64553737D02*
X222685428Y-64626309D01*
X223048285Y-64626309D01*
X223193428Y-64553737D01*
X223265999Y-64481166D01*
X223338571Y-64336023D01*
X223338571Y-64190880D01*
X223265999Y-64045737D01*
X223193428Y-63973166D01*
X223048285Y-63900594D01*
X222757999Y-63828023D01*
X222612857Y-63755451D01*
X222540285Y-63682880D01*
X222467714Y-63537737D01*
X222467714Y-63392594D01*
X222540285Y-63247451D01*
X222612857Y-63174880D01*
X222757999Y-63102309D01*
X223120857Y-63102309D01*
X223338571Y-63174880D01*
X223846571Y-63102309D02*
X224862571Y-63102309D01*
X224209428Y-64626309D01*
X226168857Y-63102309D02*
X225443143Y-63102309D01*
X225370572Y-63828023D01*
X225443143Y-63755451D01*
X225588286Y-63682880D01*
X225951143Y-63682880D01*
X226096286Y-63755451D01*
X226168857Y-63828023D01*
X226241429Y-63973166D01*
X226241429Y-64336023D01*
X226168857Y-64481166D01*
X226096286Y-64553737D01*
X225951143Y-64626309D01*
X225588286Y-64626309D01*
X225443143Y-64553737D01*
X225370572Y-64481166D01*
X226749429Y-63102309D02*
X227692858Y-63102309D01*
X227184858Y-63682880D01*
X227402572Y-63682880D01*
X227547715Y-63755451D01*
X227620286Y-63828023D01*
X227692858Y-63973166D01*
X227692858Y-64336023D01*
X227620286Y-64481166D01*
X227547715Y-64553737D01*
X227402572Y-64626309D01*
X226967144Y-64626309D01*
X226822001Y-64553737D01*
X226749429Y-64481166D01*
X228636287Y-63102309D02*
X228781430Y-63102309D01*
X228926573Y-63174880D01*
X228999144Y-63247451D01*
X229071715Y-63392594D01*
X229144287Y-63682880D01*
X229144287Y-64045737D01*
X229071715Y-64336023D01*
X228999144Y-64481166D01*
X228926573Y-64553737D01*
X228781430Y-64626309D01*
X228636287Y-64626309D01*
X228491144Y-64553737D01*
X228418573Y-64481166D01*
X228346001Y-64336023D01*
X228273430Y-64045737D01*
X228273430Y-63682880D01*
X228346001Y-63392594D01*
X228418573Y-63247451D01*
X228491144Y-63174880D01*
X228636287Y-63102309D01*
D13*
X189936381Y-73318666D02*
X189460190Y-73652000D01*
X189936381Y-73890095D02*
X188936381Y-73890095D01*
X188936381Y-73509142D01*
X188984000Y-73413904D01*
X189031619Y-73366285D01*
X189126857Y-73318666D01*
X189269714Y-73318666D01*
X189364952Y-73366285D01*
X189412571Y-73413904D01*
X189460190Y-73509142D01*
X189460190Y-73890095D01*
X189936381Y-72366285D02*
X189936381Y-72937714D01*
X189936381Y-72652000D02*
X188936381Y-72652000D01*
X189079238Y-72747238D01*
X189174476Y-72842476D01*
X189222095Y-72937714D01*
X188158381Y-73318666D02*
X187682190Y-73652000D01*
X188158381Y-73890095D02*
X187158381Y-73890095D01*
X187158381Y-73509142D01*
X187206000Y-73413904D01*
X187253619Y-73366285D01*
X187348857Y-73318666D01*
X187491714Y-73318666D01*
X187586952Y-73366285D01*
X187634571Y-73413904D01*
X187682190Y-73509142D01*
X187682190Y-73890095D01*
X187253619Y-72937714D02*
X187206000Y-72890095D01*
X187158381Y-72794857D01*
X187158381Y-72556761D01*
X187206000Y-72461523D01*
X187253619Y-72413904D01*
X187348857Y-72366285D01*
X187444095Y-72366285D01*
X187586952Y-72413904D01*
X188158381Y-72985333D01*
X188158381Y-72366285D01*
X193492381Y-73318666D02*
X193016190Y-73652000D01*
X193492381Y-73890095D02*
X192492381Y-73890095D01*
X192492381Y-73509142D01*
X192540000Y-73413904D01*
X192587619Y-73366285D01*
X192682857Y-73318666D01*
X192825714Y-73318666D01*
X192920952Y-73366285D01*
X192968571Y-73413904D01*
X193016190Y-73509142D01*
X193016190Y-73890095D01*
X192492381Y-72985333D02*
X192492381Y-72366285D01*
X192873333Y-72699619D01*
X192873333Y-72556761D01*
X192920952Y-72461523D01*
X192968571Y-72413904D01*
X193063810Y-72366285D01*
X193301905Y-72366285D01*
X193397143Y-72413904D01*
X193444762Y-72461523D01*
X193492381Y-72556761D01*
X193492381Y-72842476D01*
X193444762Y-72937714D01*
X193397143Y-72985333D01*
M02*
