G04 #@! TF.GenerationSoftware,KiCad,Pcbnew,(2017-08-25 revision dd37d0595)-makepkg*
G04 #@! TF.CreationDate,2018-04-21T13:49:17-04:00*
G04 #@! TF.ProjectId,Anti-Spark-Switch,416E74692D537061726B2D5377697463,rev?*
G04 #@! TF.SameCoordinates,Original*
G04 #@! TF.FileFunction,Legend,Top*
G04 #@! TF.FilePolarity,Positive*
%FSLAX46Y46*%
G04 Gerber Fmt 4.6, Leading zero omitted, Abs format (unit mm)*
G04 Created by KiCad (PCBNEW (2017-08-25 revision dd37d0595)-makepkg) date 04/21/18 13:49:17*
%MOMM*%
%LPD*%
G01*
G04 APERTURE LIST*
%ADD10C,0.187500*%
%ADD11C,0.300000*%
%ADD12C,0.120000*%
%ADD13C,0.050000*%
%ADD14C,0.150000*%
%ADD15C,0.381000*%
%ADD16C,0.125000*%
%ADD17C,0.304800*%
G04 APERTURE END LIST*
D10*
X186225000Y-62107142D02*
X186260714Y-62035714D01*
X186260714Y-61928571D01*
X186225000Y-61821428D01*
X186153571Y-61750000D01*
X186082142Y-61714285D01*
X185939285Y-61678571D01*
X185832142Y-61678571D01*
X185689285Y-61714285D01*
X185617857Y-61750000D01*
X185546428Y-61821428D01*
X185510714Y-61928571D01*
X185510714Y-62000000D01*
X185546428Y-62107142D01*
X185582142Y-62142857D01*
X185832142Y-62142857D01*
X185832142Y-62000000D01*
X185510714Y-62464285D02*
X186260714Y-62464285D01*
X185510714Y-62892857D01*
X186260714Y-62892857D01*
X185510714Y-63250000D02*
X186260714Y-63250000D01*
X186260714Y-63428571D01*
X186225000Y-63535714D01*
X186153571Y-63607142D01*
X186082142Y-63642857D01*
X185939285Y-63678571D01*
X185832142Y-63678571D01*
X185689285Y-63642857D01*
X185617857Y-63607142D01*
X185546428Y-63535714D01*
X185510714Y-63428571D01*
X185510714Y-63250000D01*
X185510714Y-64964285D02*
X185510714Y-64535714D01*
X185510714Y-64750000D02*
X186260714Y-64750000D01*
X186153571Y-64678571D01*
X186082142Y-64607142D01*
X186046428Y-64535714D01*
X186189285Y-65250000D02*
X186225000Y-65285714D01*
X186260714Y-65357142D01*
X186260714Y-65535714D01*
X186225000Y-65607142D01*
X186189285Y-65642857D01*
X186117857Y-65678571D01*
X186046428Y-65678571D01*
X185939285Y-65642857D01*
X185510714Y-65214285D01*
X185510714Y-65678571D01*
X186260714Y-65892857D02*
X185510714Y-66142857D01*
X186260714Y-66392857D01*
X185487114Y-67901714D02*
X185487114Y-67473142D01*
X185487114Y-67687428D02*
X186237114Y-67687428D01*
X186129971Y-67616000D01*
X186058542Y-67544571D01*
X186022828Y-67473142D01*
X186165685Y-68187428D02*
X186201400Y-68223142D01*
X186237114Y-68294571D01*
X186237114Y-68473142D01*
X186201400Y-68544571D01*
X186165685Y-68580285D01*
X186094257Y-68616000D01*
X186022828Y-68616000D01*
X185915685Y-68580285D01*
X185487114Y-68151714D01*
X185487114Y-68616000D01*
X186237114Y-68830285D02*
X185487114Y-69080285D01*
X186237114Y-69330285D01*
X185522828Y-70116000D02*
X185487114Y-70223142D01*
X185487114Y-70401714D01*
X185522828Y-70473142D01*
X185558542Y-70508857D01*
X185629971Y-70544571D01*
X185701400Y-70544571D01*
X185772828Y-70508857D01*
X185808542Y-70473142D01*
X185844257Y-70401714D01*
X185879971Y-70258857D01*
X185915685Y-70187428D01*
X185951400Y-70151714D01*
X186022828Y-70116000D01*
X186094257Y-70116000D01*
X186165685Y-70151714D01*
X186201400Y-70187428D01*
X186237114Y-70258857D01*
X186237114Y-70437428D01*
X186201400Y-70544571D01*
X186237114Y-70794571D02*
X185487114Y-70973142D01*
X186022828Y-71116000D01*
X185487114Y-71258857D01*
X186237114Y-71437428D01*
X186201400Y-72687428D02*
X186237114Y-72616000D01*
X186237114Y-72508857D01*
X186201400Y-72401714D01*
X186129971Y-72330285D01*
X186058542Y-72294571D01*
X185915685Y-72258857D01*
X185808542Y-72258857D01*
X185665685Y-72294571D01*
X185594257Y-72330285D01*
X185522828Y-72401714D01*
X185487114Y-72508857D01*
X185487114Y-72580285D01*
X185522828Y-72687428D01*
X185558542Y-72723142D01*
X185808542Y-72723142D01*
X185808542Y-72580285D01*
X185487114Y-73044571D02*
X186237114Y-73044571D01*
X185487114Y-73473142D01*
X186237114Y-73473142D01*
X185487114Y-73830285D02*
X186237114Y-73830285D01*
X186237114Y-74008857D01*
X186201400Y-74116000D01*
X186129971Y-74187428D01*
X186058542Y-74223142D01*
X185915685Y-74258857D01*
X185808542Y-74258857D01*
X185665685Y-74223142D01*
X185594257Y-74187428D01*
X185522828Y-74116000D01*
X185487114Y-74008857D01*
X185487114Y-73830285D01*
D11*
X235450000Y-79928571D02*
X235735714Y-79928571D01*
X235878571Y-80000000D01*
X236021428Y-80142857D01*
X236092857Y-80428571D01*
X236092857Y-80928571D01*
X236021428Y-81214285D01*
X235878571Y-81357142D01*
X235735714Y-81428571D01*
X235450000Y-81428571D01*
X235307142Y-81357142D01*
X235164285Y-81214285D01*
X235092857Y-80928571D01*
X235092857Y-80428571D01*
X235164285Y-80142857D01*
X235307142Y-80000000D01*
X235450000Y-79928571D01*
X236735714Y-79928571D02*
X236735714Y-81142857D01*
X236807142Y-81285714D01*
X236878571Y-81357142D01*
X237021428Y-81428571D01*
X237307142Y-81428571D01*
X237450000Y-81357142D01*
X237521428Y-81285714D01*
X237592857Y-81142857D01*
X237592857Y-79928571D01*
X238092857Y-79928571D02*
X238950000Y-79928571D01*
X238521428Y-81428571D02*
X238521428Y-79928571D01*
X240592857Y-80857142D02*
X241735714Y-80857142D01*
X235710000Y-57668571D02*
X235995714Y-57668571D01*
X236138571Y-57740000D01*
X236281428Y-57882857D01*
X236352857Y-58168571D01*
X236352857Y-58668571D01*
X236281428Y-58954285D01*
X236138571Y-59097142D01*
X235995714Y-59168571D01*
X235710000Y-59168571D01*
X235567142Y-59097142D01*
X235424285Y-58954285D01*
X235352857Y-58668571D01*
X235352857Y-58168571D01*
X235424285Y-57882857D01*
X235567142Y-57740000D01*
X235710000Y-57668571D01*
X236995714Y-57668571D02*
X236995714Y-58882857D01*
X237067142Y-59025714D01*
X237138571Y-59097142D01*
X237281428Y-59168571D01*
X237567142Y-59168571D01*
X237710000Y-59097142D01*
X237781428Y-59025714D01*
X237852857Y-58882857D01*
X237852857Y-57668571D01*
X238352857Y-57668571D02*
X239210000Y-57668571D01*
X238781428Y-59168571D02*
X238781428Y-57668571D01*
X240852857Y-58597142D02*
X241995714Y-58597142D01*
X241424285Y-59168571D02*
X241424285Y-58025714D01*
X183194285Y-59118571D02*
X183194285Y-57618571D01*
X183908571Y-59118571D02*
X183908571Y-57618571D01*
X184765714Y-59118571D01*
X184765714Y-57618571D01*
X186622857Y-58547142D02*
X187765714Y-58547142D01*
X187194285Y-59118571D02*
X187194285Y-57975714D01*
X182784285Y-81448571D02*
X182784285Y-79948571D01*
X183498571Y-81448571D02*
X183498571Y-79948571D01*
X184355714Y-81448571D01*
X184355714Y-79948571D01*
X186212857Y-80877142D02*
X187355714Y-80877142D01*
D12*
X188534000Y-70087000D02*
X189234000Y-70087000D01*
X189234000Y-71287000D02*
X188534000Y-71287000D01*
X191125000Y-69995000D02*
X192125000Y-69995000D01*
X192125000Y-71355000D02*
X191125000Y-71355000D01*
X189384000Y-67811000D02*
X188384000Y-67811000D01*
X188384000Y-66451000D02*
X189384000Y-66451000D01*
X188384000Y-68229000D02*
X189384000Y-68229000D01*
X189384000Y-69589000D02*
X188384000Y-69589000D01*
D13*
X221625000Y-49000000D02*
X221625000Y-59000000D01*
X221625000Y-59000000D02*
X231625000Y-59000000D01*
X231625000Y-59000000D02*
X231625000Y-49000000D01*
X231625000Y-49000000D02*
X221625000Y-49000000D01*
X229170584Y-54000000D02*
G75*
G03X229170584Y-54000000I-2545584J0D01*
G01*
X191625000Y-49000000D02*
X191625000Y-59000000D01*
X191625000Y-59000000D02*
X201625000Y-59000000D01*
X201625000Y-59000000D02*
X201625000Y-49000000D01*
X201625000Y-49000000D02*
X191625000Y-49000000D01*
X199170584Y-54000000D02*
G75*
G03X199170584Y-54000000I-2545584J0D01*
G01*
D14*
X182143400Y-61417200D02*
X182143400Y-66497200D01*
X186588400Y-61417200D02*
X186588400Y-66497200D01*
X180238400Y-66497200D02*
X180238400Y-61417200D01*
X180238400Y-66497200D02*
X186588400Y-66497200D01*
X180238400Y-61417200D02*
X186588400Y-61417200D01*
X180187600Y-74650600D02*
X186537600Y-74650600D01*
X180187600Y-67030600D02*
X186537600Y-67030600D01*
X182092600Y-67030600D02*
X182092600Y-74650600D01*
X180187600Y-74650600D02*
X180187600Y-67030600D01*
X186537600Y-67030600D02*
X186537600Y-74650600D01*
X190067500Y-73425000D02*
X190448500Y-73425000D01*
X189051500Y-73425000D02*
X189432500Y-73425000D01*
X189432500Y-73425000D02*
X190067500Y-73044000D01*
X190067500Y-73044000D02*
X190067500Y-73806000D01*
X190067500Y-73806000D02*
X189432500Y-73425000D01*
X189432500Y-72917000D02*
X189432500Y-73933000D01*
X187750000Y-74325000D02*
X191290000Y-74325000D01*
X187750000Y-72525000D02*
X191290000Y-72525000D01*
D15*
X205351380Y-74736960D02*
X194952620Y-74736960D01*
X194952620Y-74736960D02*
X194952620Y-66939160D01*
X194952620Y-66939160D02*
X197352920Y-65638680D01*
X197352920Y-65638680D02*
X202951080Y-65638680D01*
X202951080Y-65638680D02*
X205351380Y-66939160D01*
X205351380Y-66939160D02*
X205351380Y-74736960D01*
X217289380Y-74736960D02*
X206890620Y-74736960D01*
X206890620Y-74736960D02*
X206890620Y-66939160D01*
X206890620Y-66939160D02*
X209290920Y-65638680D01*
X209290920Y-65638680D02*
X214889080Y-65638680D01*
X214889080Y-65638680D02*
X217289380Y-66939160D01*
X217289380Y-66939160D02*
X217289380Y-74736960D01*
X229227380Y-74736960D02*
X218828620Y-74736960D01*
X218828620Y-74736960D02*
X218828620Y-66939160D01*
X218828620Y-66939160D02*
X221228920Y-65638680D01*
X221228920Y-65638680D02*
X226827080Y-65638680D01*
X226827080Y-65638680D02*
X229227380Y-66939160D01*
X229227380Y-66939160D02*
X229227380Y-74736960D01*
D14*
X234310000Y-81850000D02*
X242910000Y-81850000D01*
X242910000Y-81850000D02*
X242910000Y-89450000D01*
X242910000Y-89450000D02*
X234310000Y-89450000D01*
X234310000Y-89450000D02*
X234310000Y-81850000D01*
X234210000Y-49690000D02*
X242810000Y-49690000D01*
X242810000Y-49690000D02*
X242810000Y-57290000D01*
X242810000Y-57290000D02*
X234210000Y-57290000D01*
X234210000Y-57290000D02*
X234210000Y-49690000D01*
X180700000Y-81925000D02*
X189300000Y-81925000D01*
X189300000Y-81925000D02*
X189300000Y-89525000D01*
X189300000Y-89525000D02*
X180700000Y-89525000D01*
X180700000Y-89525000D02*
X180700000Y-81925000D01*
X181220000Y-49710000D02*
X189820000Y-49710000D01*
X189820000Y-49710000D02*
X189820000Y-57310000D01*
X189820000Y-57310000D02*
X181220000Y-57310000D01*
X181220000Y-57310000D02*
X181220000Y-49710000D01*
D12*
X190030000Y-64775000D02*
X190030000Y-62775000D01*
X192170000Y-62775000D02*
X192170000Y-64775000D01*
X189845000Y-62775000D02*
X189845000Y-64775000D01*
X187705000Y-64775000D02*
X187705000Y-62775000D01*
D14*
X188717333Y-72544142D02*
X188669714Y-72591761D01*
X188526857Y-72639380D01*
X188431619Y-72639380D01*
X188288761Y-72591761D01*
X188193523Y-72496523D01*
X188145904Y-72401285D01*
X188098285Y-72210809D01*
X188098285Y-72067952D01*
X188145904Y-71877476D01*
X188193523Y-71782238D01*
X188288761Y-71687000D01*
X188431619Y-71639380D01*
X188526857Y-71639380D01*
X188669714Y-71687000D01*
X188717333Y-71734619D01*
X189669714Y-72639380D02*
X189098285Y-72639380D01*
X189384000Y-72639380D02*
X189384000Y-71639380D01*
X189288761Y-71782238D01*
X189193523Y-71877476D01*
X189098285Y-71925095D01*
X191458333Y-72577380D02*
X191125000Y-72101190D01*
X190886904Y-72577380D02*
X190886904Y-71577380D01*
X191267857Y-71577380D01*
X191363095Y-71625000D01*
X191410714Y-71672619D01*
X191458333Y-71767857D01*
X191458333Y-71910714D01*
X191410714Y-72005952D01*
X191363095Y-72053571D01*
X191267857Y-72101190D01*
X190886904Y-72101190D01*
X191791666Y-71577380D02*
X192410714Y-71577380D01*
X192077380Y-71958333D01*
X192220238Y-71958333D01*
X192315476Y-72005952D01*
X192363095Y-72053571D01*
X192410714Y-72148809D01*
X192410714Y-72386904D01*
X192363095Y-72482142D01*
X192315476Y-72529761D01*
X192220238Y-72577380D01*
X191934523Y-72577380D01*
X191839285Y-72529761D01*
X191791666Y-72482142D01*
X188717333Y-66133380D02*
X188384000Y-65657190D01*
X188145904Y-66133380D02*
X188145904Y-65133380D01*
X188526857Y-65133380D01*
X188622095Y-65181000D01*
X188669714Y-65228619D01*
X188717333Y-65323857D01*
X188717333Y-65466714D01*
X188669714Y-65561952D01*
X188622095Y-65609571D01*
X188526857Y-65657190D01*
X188145904Y-65657190D01*
X189098285Y-65228619D02*
X189145904Y-65181000D01*
X189241142Y-65133380D01*
X189479238Y-65133380D01*
X189574476Y-65181000D01*
X189622095Y-65228619D01*
X189669714Y-65323857D01*
X189669714Y-65419095D01*
X189622095Y-65561952D01*
X189050666Y-66133380D01*
X189669714Y-66133380D01*
X188717333Y-70811380D02*
X188384000Y-70335190D01*
X188145904Y-70811380D02*
X188145904Y-69811380D01*
X188526857Y-69811380D01*
X188622095Y-69859000D01*
X188669714Y-69906619D01*
X188717333Y-70001857D01*
X188717333Y-70144714D01*
X188669714Y-70239952D01*
X188622095Y-70287571D01*
X188526857Y-70335190D01*
X188145904Y-70335190D01*
X189669714Y-70811380D02*
X189098285Y-70811380D01*
X189384000Y-70811380D02*
X189384000Y-69811380D01*
X189288761Y-69954238D01*
X189193523Y-70049476D01*
X189098285Y-70097095D01*
X226267904Y-62199380D02*
X226267904Y-61199380D01*
X226648857Y-61199380D01*
X226744095Y-61247000D01*
X226791714Y-61294619D01*
X226839333Y-61389857D01*
X226839333Y-61532714D01*
X226791714Y-61627952D01*
X226744095Y-61675571D01*
X226648857Y-61723190D01*
X226267904Y-61723190D01*
X227696476Y-61532714D02*
X227696476Y-62199380D01*
X227458380Y-61151761D02*
X227220285Y-61866047D01*
X227839333Y-61866047D01*
X196267904Y-62199380D02*
X196267904Y-61199380D01*
X196648857Y-61199380D01*
X196744095Y-61247000D01*
X196791714Y-61294619D01*
X196839333Y-61389857D01*
X196839333Y-61532714D01*
X196791714Y-61627952D01*
X196744095Y-61675571D01*
X196648857Y-61723190D01*
X196267904Y-61723190D01*
X197172666Y-61199380D02*
X197791714Y-61199380D01*
X197458380Y-61580333D01*
X197601238Y-61580333D01*
X197696476Y-61627952D01*
X197744095Y-61675571D01*
X197791714Y-61770809D01*
X197791714Y-62008904D01*
X197744095Y-62104142D01*
X197696476Y-62151761D01*
X197601238Y-62199380D01*
X197315523Y-62199380D01*
X197220285Y-62151761D01*
X197172666Y-62104142D01*
X180757142Y-61127380D02*
X180280952Y-61127380D01*
X180280952Y-60127380D01*
X181090476Y-60603571D02*
X181423809Y-60603571D01*
X181566666Y-61127380D02*
X181090476Y-61127380D01*
X181090476Y-60127380D01*
X181566666Y-60127380D01*
X181995238Y-61127380D02*
X181995238Y-60127380D01*
X182233333Y-60127380D01*
X182376190Y-60175000D01*
X182471428Y-60270238D01*
X182519047Y-60365476D01*
X182566666Y-60555952D01*
X182566666Y-60698809D01*
X182519047Y-60889285D01*
X182471428Y-60984523D01*
X182376190Y-61079761D01*
X182233333Y-61127380D01*
X181995238Y-61127380D01*
X180325000Y-75954761D02*
X180467857Y-76002380D01*
X180705952Y-76002380D01*
X180801190Y-75954761D01*
X180848809Y-75907142D01*
X180896428Y-75811904D01*
X180896428Y-75716666D01*
X180848809Y-75621428D01*
X180801190Y-75573809D01*
X180705952Y-75526190D01*
X180515476Y-75478571D01*
X180420238Y-75430952D01*
X180372619Y-75383333D01*
X180325000Y-75288095D01*
X180325000Y-75192857D01*
X180372619Y-75097619D01*
X180420238Y-75050000D01*
X180515476Y-75002380D01*
X180753571Y-75002380D01*
X180896428Y-75050000D01*
X181229761Y-75002380D02*
X181467857Y-76002380D01*
X181658333Y-75288095D01*
X181848809Y-76002380D01*
X182086904Y-75002380D01*
X182467857Y-76002380D02*
X182467857Y-75002380D01*
X182801190Y-75002380D02*
X183372619Y-75002380D01*
X183086904Y-76002380D02*
X183086904Y-75002380D01*
X184277380Y-75907142D02*
X184229761Y-75954761D01*
X184086904Y-76002380D01*
X183991666Y-76002380D01*
X183848809Y-75954761D01*
X183753571Y-75859523D01*
X183705952Y-75764285D01*
X183658333Y-75573809D01*
X183658333Y-75430952D01*
X183705952Y-75240476D01*
X183753571Y-75145238D01*
X183848809Y-75050000D01*
X183991666Y-75002380D01*
X184086904Y-75002380D01*
X184229761Y-75050000D01*
X184277380Y-75097619D01*
X184705952Y-76002380D02*
X184705952Y-75002380D01*
X184705952Y-75478571D02*
X185277380Y-75478571D01*
X185277380Y-76002380D02*
X185277380Y-75002380D01*
D16*
X191242952Y-75059190D02*
X191242952Y-74559190D01*
X191362000Y-74559190D01*
X191433428Y-74583000D01*
X191481047Y-74630619D01*
X191504857Y-74678238D01*
X191528666Y-74773476D01*
X191528666Y-74844904D01*
X191504857Y-74940142D01*
X191481047Y-74987761D01*
X191433428Y-75035380D01*
X191362000Y-75059190D01*
X191242952Y-75059190D01*
X192004857Y-75059190D02*
X191719142Y-75059190D01*
X191862000Y-75059190D02*
X191862000Y-74559190D01*
X191814380Y-74630619D01*
X191766761Y-74678238D01*
X191719142Y-74702047D01*
D17*
X195108285Y-64626308D02*
X195108285Y-63102308D01*
X196704857Y-64626308D02*
X196196857Y-63900594D01*
X195834000Y-64626308D02*
X195834000Y-63102308D01*
X196414571Y-63102308D01*
X196559714Y-63174880D01*
X196632285Y-63247451D01*
X196704857Y-63392594D01*
X196704857Y-63610308D01*
X196632285Y-63755451D01*
X196559714Y-63828022D01*
X196414571Y-63900594D01*
X195834000Y-63900594D01*
X197866000Y-63828022D02*
X197358000Y-63828022D01*
X197358000Y-64626308D02*
X197358000Y-63102308D01*
X198083714Y-63102308D01*
X198591714Y-64553737D02*
X198809428Y-64626308D01*
X199172285Y-64626308D01*
X199317428Y-64553737D01*
X199390000Y-64481165D01*
X199462571Y-64336022D01*
X199462571Y-64190880D01*
X199390000Y-64045737D01*
X199317428Y-63973165D01*
X199172285Y-63900594D01*
X198882000Y-63828022D01*
X198736857Y-63755451D01*
X198664285Y-63682880D01*
X198591714Y-63537737D01*
X198591714Y-63392594D01*
X198664285Y-63247451D01*
X198736857Y-63174880D01*
X198882000Y-63102308D01*
X199244857Y-63102308D01*
X199462571Y-63174880D01*
X199970571Y-63102308D02*
X200986571Y-63102308D01*
X200333428Y-64626308D01*
X202292857Y-63102308D02*
X201567142Y-63102308D01*
X201494571Y-63828022D01*
X201567142Y-63755451D01*
X201712285Y-63682880D01*
X202075142Y-63682880D01*
X202220285Y-63755451D01*
X202292857Y-63828022D01*
X202365428Y-63973165D01*
X202365428Y-64336022D01*
X202292857Y-64481165D01*
X202220285Y-64553737D01*
X202075142Y-64626308D01*
X201712285Y-64626308D01*
X201567142Y-64553737D01*
X201494571Y-64481165D01*
X202873428Y-63102308D02*
X203816857Y-63102308D01*
X203308857Y-63682880D01*
X203526571Y-63682880D01*
X203671714Y-63755451D01*
X203744285Y-63828022D01*
X203816857Y-63973165D01*
X203816857Y-64336022D01*
X203744285Y-64481165D01*
X203671714Y-64553737D01*
X203526571Y-64626308D01*
X203091142Y-64626308D01*
X202946000Y-64553737D01*
X202873428Y-64481165D01*
X204760285Y-63102308D02*
X204905428Y-63102308D01*
X205050571Y-63174880D01*
X205123142Y-63247451D01*
X205195714Y-63392594D01*
X205268285Y-63682880D01*
X205268285Y-64045737D01*
X205195714Y-64336022D01*
X205123142Y-64481165D01*
X205050571Y-64553737D01*
X204905428Y-64626308D01*
X204760285Y-64626308D01*
X204615142Y-64553737D01*
X204542571Y-64481165D01*
X204470000Y-64336022D01*
X204397428Y-64045737D01*
X204397428Y-63682880D01*
X204470000Y-63392594D01*
X204542571Y-63247451D01*
X204615142Y-63174880D01*
X204760285Y-63102308D01*
X207046285Y-64626308D02*
X207046285Y-63102308D01*
X208642857Y-64626308D02*
X208134857Y-63900594D01*
X207772000Y-64626308D02*
X207772000Y-63102308D01*
X208352571Y-63102308D01*
X208497714Y-63174880D01*
X208570285Y-63247451D01*
X208642857Y-63392594D01*
X208642857Y-63610308D01*
X208570285Y-63755451D01*
X208497714Y-63828022D01*
X208352571Y-63900594D01*
X207772000Y-63900594D01*
X209804000Y-63828022D02*
X209296000Y-63828022D01*
X209296000Y-64626308D02*
X209296000Y-63102308D01*
X210021714Y-63102308D01*
X210529714Y-64553737D02*
X210747428Y-64626308D01*
X211110285Y-64626308D01*
X211255428Y-64553737D01*
X211328000Y-64481165D01*
X211400571Y-64336022D01*
X211400571Y-64190880D01*
X211328000Y-64045737D01*
X211255428Y-63973165D01*
X211110285Y-63900594D01*
X210820000Y-63828022D01*
X210674857Y-63755451D01*
X210602285Y-63682880D01*
X210529714Y-63537737D01*
X210529714Y-63392594D01*
X210602285Y-63247451D01*
X210674857Y-63174880D01*
X210820000Y-63102308D01*
X211182857Y-63102308D01*
X211400571Y-63174880D01*
X211908571Y-63102308D02*
X212924571Y-63102308D01*
X212271428Y-64626308D01*
X214230857Y-63102308D02*
X213505142Y-63102308D01*
X213432571Y-63828022D01*
X213505142Y-63755451D01*
X213650285Y-63682880D01*
X214013142Y-63682880D01*
X214158285Y-63755451D01*
X214230857Y-63828022D01*
X214303428Y-63973165D01*
X214303428Y-64336022D01*
X214230857Y-64481165D01*
X214158285Y-64553737D01*
X214013142Y-64626308D01*
X213650285Y-64626308D01*
X213505142Y-64553737D01*
X213432571Y-64481165D01*
X214811428Y-63102308D02*
X215754857Y-63102308D01*
X215246857Y-63682880D01*
X215464571Y-63682880D01*
X215609714Y-63755451D01*
X215682285Y-63828022D01*
X215754857Y-63973165D01*
X215754857Y-64336022D01*
X215682285Y-64481165D01*
X215609714Y-64553737D01*
X215464571Y-64626308D01*
X215029142Y-64626308D01*
X214884000Y-64553737D01*
X214811428Y-64481165D01*
X216698285Y-63102308D02*
X216843428Y-63102308D01*
X216988571Y-63174880D01*
X217061142Y-63247451D01*
X217133714Y-63392594D01*
X217206285Y-63682880D01*
X217206285Y-64045737D01*
X217133714Y-64336022D01*
X217061142Y-64481165D01*
X216988571Y-64553737D01*
X216843428Y-64626308D01*
X216698285Y-64626308D01*
X216553142Y-64553737D01*
X216480571Y-64481165D01*
X216408000Y-64336022D01*
X216335428Y-64045737D01*
X216335428Y-63682880D01*
X216408000Y-63392594D01*
X216480571Y-63247451D01*
X216553142Y-63174880D01*
X216698285Y-63102308D01*
X218984285Y-64626308D02*
X218984285Y-63102308D01*
X220580857Y-64626308D02*
X220072857Y-63900594D01*
X219710000Y-64626308D02*
X219710000Y-63102308D01*
X220290571Y-63102308D01*
X220435714Y-63174880D01*
X220508285Y-63247451D01*
X220580857Y-63392594D01*
X220580857Y-63610308D01*
X220508285Y-63755451D01*
X220435714Y-63828022D01*
X220290571Y-63900594D01*
X219710000Y-63900594D01*
X221742000Y-63828022D02*
X221234000Y-63828022D01*
X221234000Y-64626308D02*
X221234000Y-63102308D01*
X221959714Y-63102308D01*
X222467714Y-64553737D02*
X222685428Y-64626308D01*
X223048285Y-64626308D01*
X223193428Y-64553737D01*
X223266000Y-64481165D01*
X223338571Y-64336022D01*
X223338571Y-64190880D01*
X223266000Y-64045737D01*
X223193428Y-63973165D01*
X223048285Y-63900594D01*
X222758000Y-63828022D01*
X222612857Y-63755451D01*
X222540285Y-63682880D01*
X222467714Y-63537737D01*
X222467714Y-63392594D01*
X222540285Y-63247451D01*
X222612857Y-63174880D01*
X222758000Y-63102308D01*
X223120857Y-63102308D01*
X223338571Y-63174880D01*
X223846571Y-63102308D02*
X224862571Y-63102308D01*
X224209428Y-64626308D01*
X226168857Y-63102308D02*
X225443142Y-63102308D01*
X225370571Y-63828022D01*
X225443142Y-63755451D01*
X225588285Y-63682880D01*
X225951142Y-63682880D01*
X226096285Y-63755451D01*
X226168857Y-63828022D01*
X226241428Y-63973165D01*
X226241428Y-64336022D01*
X226168857Y-64481165D01*
X226096285Y-64553737D01*
X225951142Y-64626308D01*
X225588285Y-64626308D01*
X225443142Y-64553737D01*
X225370571Y-64481165D01*
X226749428Y-63102308D02*
X227692857Y-63102308D01*
X227184857Y-63682880D01*
X227402571Y-63682880D01*
X227547714Y-63755451D01*
X227620285Y-63828022D01*
X227692857Y-63973165D01*
X227692857Y-64336022D01*
X227620285Y-64481165D01*
X227547714Y-64553737D01*
X227402571Y-64626308D01*
X226967142Y-64626308D01*
X226822000Y-64553737D01*
X226749428Y-64481165D01*
X228636285Y-63102308D02*
X228781428Y-63102308D01*
X228926571Y-63174880D01*
X228999142Y-63247451D01*
X229071714Y-63392594D01*
X229144285Y-63682880D01*
X229144285Y-64045737D01*
X229071714Y-64336022D01*
X228999142Y-64481165D01*
X228926571Y-64553737D01*
X228781428Y-64626308D01*
X228636285Y-64626308D01*
X228491142Y-64553737D01*
X228418571Y-64481165D01*
X228346000Y-64336022D01*
X228273428Y-64045737D01*
X228273428Y-63682880D01*
X228346000Y-63392594D01*
X228418571Y-63247451D01*
X228491142Y-63174880D01*
X228636285Y-63102308D01*
X233929428Y-86774857D02*
X232405428Y-86774857D01*
X232405428Y-86194285D01*
X232478000Y-86049142D01*
X232550571Y-85976571D01*
X232695714Y-85904000D01*
X232913428Y-85904000D01*
X233058571Y-85976571D01*
X233131142Y-86049142D01*
X233203714Y-86194285D01*
X233203714Y-86774857D01*
X232405428Y-84597714D02*
X232405428Y-84888000D01*
X232478000Y-85033142D01*
X232550571Y-85105714D01*
X232768285Y-85250857D01*
X233058571Y-85323428D01*
X233639142Y-85323428D01*
X233784285Y-85250857D01*
X233856857Y-85178285D01*
X233929428Y-85033142D01*
X233929428Y-84742857D01*
X233856857Y-84597714D01*
X233784285Y-84525142D01*
X233639142Y-84452571D01*
X233276285Y-84452571D01*
X233131142Y-84525142D01*
X233058571Y-84597714D01*
X232986000Y-84742857D01*
X232986000Y-85033142D01*
X233058571Y-85178285D01*
X233131142Y-85250857D01*
X233276285Y-85323428D01*
X233949428Y-54604857D02*
X232425428Y-54604857D01*
X232425428Y-54024285D01*
X232498000Y-53879142D01*
X232570571Y-53806571D01*
X232715714Y-53734000D01*
X232933428Y-53734000D01*
X233078571Y-53806571D01*
X233151142Y-53879142D01*
X233223714Y-54024285D01*
X233223714Y-54604857D01*
X232425428Y-52355142D02*
X232425428Y-53080857D01*
X233151142Y-53153428D01*
X233078571Y-53080857D01*
X233006000Y-52935714D01*
X233006000Y-52572857D01*
X233078571Y-52427714D01*
X233151142Y-52355142D01*
X233296285Y-52282571D01*
X233659142Y-52282571D01*
X233804285Y-52355142D01*
X233876857Y-52427714D01*
X233949428Y-52572857D01*
X233949428Y-52935714D01*
X233876857Y-53080857D01*
X233804285Y-53153428D01*
X191489428Y-86844857D02*
X189965428Y-86844857D01*
X189965428Y-86264285D01*
X190038000Y-86119142D01*
X190110571Y-86046571D01*
X190255714Y-85974000D01*
X190473428Y-85974000D01*
X190618571Y-86046571D01*
X190691142Y-86119142D01*
X190763714Y-86264285D01*
X190763714Y-86844857D01*
X190110571Y-85393428D02*
X190038000Y-85320857D01*
X189965428Y-85175714D01*
X189965428Y-84812857D01*
X190038000Y-84667714D01*
X190110571Y-84595142D01*
X190255714Y-84522571D01*
X190400857Y-84522571D01*
X190618571Y-84595142D01*
X191489428Y-85466000D01*
X191489428Y-84522571D01*
X191659428Y-54634857D02*
X190135428Y-54634857D01*
X190135428Y-54054285D01*
X190208000Y-53909142D01*
X190280571Y-53836571D01*
X190425714Y-53764000D01*
X190643428Y-53764000D01*
X190788571Y-53836571D01*
X190861142Y-53909142D01*
X190933714Y-54054285D01*
X190933714Y-54634857D01*
X191659428Y-52312571D02*
X191659428Y-53183428D01*
X191659428Y-52748000D02*
X190135428Y-52748000D01*
X190353142Y-52893142D01*
X190498285Y-53038285D01*
X190570857Y-53183428D01*
D14*
X193402380Y-63941666D02*
X192926190Y-64275000D01*
X193402380Y-64513095D02*
X192402380Y-64513095D01*
X192402380Y-64132142D01*
X192450000Y-64036904D01*
X192497619Y-63989285D01*
X192592857Y-63941666D01*
X192735714Y-63941666D01*
X192830952Y-63989285D01*
X192878571Y-64036904D01*
X192926190Y-64132142D01*
X192926190Y-64513095D01*
X192735714Y-63084523D02*
X193402380Y-63084523D01*
X192354761Y-63322619D02*
X193069047Y-63560714D01*
X193069047Y-62941666D01*
X191077380Y-63941666D02*
X190601190Y-64275000D01*
X191077380Y-64513095D02*
X190077380Y-64513095D01*
X190077380Y-64132142D01*
X190125000Y-64036904D01*
X190172619Y-63989285D01*
X190267857Y-63941666D01*
X190410714Y-63941666D01*
X190505952Y-63989285D01*
X190553571Y-64036904D01*
X190601190Y-64132142D01*
X190601190Y-64513095D01*
X190077380Y-63036904D02*
X190077380Y-63513095D01*
X190553571Y-63560714D01*
X190505952Y-63513095D01*
X190458333Y-63417857D01*
X190458333Y-63179761D01*
X190505952Y-63084523D01*
X190553571Y-63036904D01*
X190648809Y-62989285D01*
X190886904Y-62989285D01*
X190982142Y-63036904D01*
X191029761Y-63084523D01*
X191077380Y-63179761D01*
X191077380Y-63417857D01*
X191029761Y-63513095D01*
X190982142Y-63560714D01*
M02*
