G04 #@! TF.GenerationSoftware,KiCad,Pcbnew,(2017-08-25 revision dd37d0595)-makepkg*
G04 #@! TF.CreationDate,2018-05-19T22:22:17-04:00*
G04 #@! TF.ProjectId,Anti-Spark-Switch,416E74692D537061726B2D5377697463,rev?*
G04 #@! TF.SameCoordinates,Original*
G04 #@! TF.FileFunction,Copper,L2,Bot,Signal*
G04 #@! TF.FilePolarity,Positive*
%FSLAX46Y46*%
G04 Gerber Fmt 4.6, Leading zero omitted, Abs format (unit mm)*
G04 Created by KiCad (PCBNEW (2017-08-25 revision dd37d0595)-makepkg) date 05/19/18 22:22:17*
%MOMM*%
%LPD*%
G01*
G04 APERTURE LIST*
%ADD10C,0.546100*%
%ADD11R,1.700000X1.700000*%
%ADD12O,1.750000X1.200000*%
%ADD13R,1.750000X1.200000*%
%ADD14C,0.635000*%
%ADD15C,0.250000*%
%ADD16C,0.254000*%
G04 APERTURE END LIST*
D10*
X176090000Y-93090000D03*
X172090000Y-93090000D03*
X168090000Y-93090000D03*
X164090000Y-93090000D03*
X160090000Y-93090000D03*
X156090000Y-93090000D03*
X152090000Y-93090000D03*
X148090000Y-93090000D03*
X144090000Y-93090000D03*
X140090000Y-93090000D03*
X136090000Y-93090000D03*
X132090000Y-93090000D03*
X176090000Y-90590000D03*
X172090000Y-90590000D03*
X168090000Y-90590000D03*
X164090000Y-90590000D03*
X160090000Y-90590000D03*
X156090000Y-90590000D03*
X152090000Y-90590000D03*
X148090000Y-90590000D03*
X144090000Y-90590000D03*
X140090000Y-90590000D03*
X136090000Y-90590000D03*
X132090000Y-90590000D03*
D11*
X119100000Y-91130000D03*
D12*
X119100000Y-102000000D03*
X119100000Y-100000000D03*
X119100000Y-98000000D03*
D13*
X119100000Y-96000000D03*
D14*
X127065000Y-103490000D03*
X126290000Y-95915000D03*
X122697000Y-116533800D03*
X121697000Y-116533800D03*
X120697000Y-116533800D03*
X119697000Y-116533800D03*
X118697000Y-116533800D03*
X122697000Y-115533800D03*
X121697000Y-115533800D03*
X120697000Y-115533800D03*
X119697000Y-115533800D03*
X118697000Y-115533800D03*
X122697000Y-114533800D03*
X121697000Y-114533800D03*
X120697000Y-114533800D03*
X119697000Y-114533800D03*
X118697000Y-114533800D03*
X122697000Y-113533800D03*
X121697000Y-113533800D03*
X120697000Y-113533800D03*
X119697000Y-113533800D03*
X118697000Y-113533800D03*
X122697000Y-112533800D03*
X121697000Y-112533800D03*
X120697000Y-112533800D03*
X119697000Y-112533800D03*
X118697000Y-112533800D03*
X134292600Y-117102000D03*
X135308600Y-117102000D03*
X136299200Y-117102000D03*
X137289800Y-117102000D03*
X133302000Y-116115200D03*
X135308600Y-116102000D03*
X136299200Y-116102000D03*
X138302000Y-116089800D03*
X133302000Y-115099200D03*
X134302000Y-115099200D03*
X138302000Y-115099200D03*
X137302000Y-115099200D03*
X133302000Y-114108600D03*
X135308600Y-114102000D03*
X138302000Y-114108600D03*
X137302000Y-114108600D03*
X138302000Y-113092600D03*
X136299200Y-113102000D03*
X135308600Y-113102000D03*
X134292600Y-113102000D03*
X137289800Y-112102000D03*
X136299200Y-112102000D03*
X135308600Y-112102000D03*
X134292600Y-112102000D03*
X150494000Y-116115200D03*
X150494000Y-115099200D03*
X150494000Y-114108600D03*
X149481800Y-117102000D03*
X149494000Y-115099200D03*
X149494000Y-114108600D03*
X145494000Y-116115200D03*
X145494000Y-115099200D03*
X145494000Y-114108600D03*
X148491200Y-117102000D03*
X148491200Y-116102000D03*
X147500600Y-117102000D03*
X147500600Y-116102000D03*
X147494000Y-115102000D03*
X147500600Y-114102000D03*
X146484600Y-117102000D03*
X146494000Y-115099200D03*
X146510000Y-113102000D03*
X147500600Y-113102000D03*
X148491200Y-113102000D03*
X150494000Y-113092600D03*
X146510000Y-112102000D03*
X147500600Y-112102000D03*
X148491200Y-112102000D03*
X149481800Y-112102000D03*
X157305000Y-116115200D03*
X157305000Y-115099200D03*
X157305000Y-114108600D03*
X158295600Y-113102000D03*
X159311600Y-113102000D03*
X160302200Y-113102000D03*
X158305000Y-115099200D03*
X158295600Y-117102000D03*
X159311600Y-117102000D03*
X160302200Y-117102000D03*
X161318200Y-117102000D03*
X159311600Y-114102000D03*
X159311600Y-116102000D03*
X160302200Y-116102000D03*
X161305000Y-115099200D03*
X161305000Y-114108600D03*
X162305000Y-116089800D03*
X162305000Y-115099200D03*
X162305000Y-114108600D03*
X162305000Y-113092600D03*
X161305500Y-112102000D03*
X160302200Y-112102000D03*
X159311600Y-112102000D03*
X158295600Y-112102000D03*
X133302000Y-112102000D03*
X133302000Y-113102000D03*
X134302000Y-116102000D03*
X133302000Y-117102000D03*
X135302000Y-115102000D03*
X134302000Y-114102000D03*
X136302000Y-114102000D03*
X138302000Y-117102000D03*
X137302000Y-116102000D03*
X136302000Y-115102000D03*
X138302000Y-112102000D03*
X137302000Y-113102000D03*
X145494000Y-112102000D03*
X145494000Y-113102000D03*
X146494000Y-116102000D03*
X145494000Y-117102000D03*
X146494000Y-114102000D03*
X148494000Y-114102000D03*
X150494000Y-117102000D03*
X149494000Y-116102000D03*
X148494000Y-115102000D03*
X150494000Y-112102000D03*
X149494000Y-113102000D03*
X162305000Y-117102000D03*
X157305000Y-117102000D03*
X161305000Y-116102000D03*
X158305000Y-116102000D03*
X160305000Y-115102000D03*
X159305000Y-115102000D03*
X160305000Y-114102000D03*
X158305000Y-114102000D03*
X161305000Y-113102000D03*
X157305000Y-113102000D03*
X162305000Y-112102000D03*
X157305000Y-112102000D03*
X130015000Y-90315000D03*
X176697400Y-116508400D03*
X175697400Y-116508400D03*
X174697400Y-116508400D03*
X173697400Y-116508400D03*
X172697400Y-116508400D03*
X176697400Y-115508400D03*
X175697400Y-115508400D03*
X174697400Y-115508400D03*
X173697400Y-115508400D03*
X172697400Y-115508400D03*
X176697400Y-114508400D03*
X175697400Y-114508400D03*
X174697400Y-114508400D03*
X173697400Y-114508400D03*
X172697400Y-114508400D03*
X176697400Y-113508400D03*
X175697400Y-113508400D03*
X174697400Y-113508400D03*
X173697400Y-113508400D03*
X172697400Y-113508400D03*
X176697400Y-112508400D03*
X175697400Y-112508400D03*
X174697400Y-112508400D03*
X173697400Y-112508400D03*
X172697400Y-112508400D03*
X133302000Y-98787580D03*
X134302000Y-98787580D03*
X133302000Y-99787580D03*
X133302000Y-100787580D03*
X134302000Y-99787580D03*
X135302000Y-99787580D03*
X134302000Y-100787580D03*
X135302000Y-100787580D03*
X135302000Y-97787580D03*
X136302000Y-98787580D03*
X136302000Y-97787580D03*
X137302000Y-97787580D03*
X135302000Y-98787580D03*
X137302000Y-98787580D03*
X136302000Y-95787580D03*
X138302000Y-96787580D03*
X137302000Y-95787580D03*
X138302000Y-95787580D03*
X136302000Y-96787580D03*
X137302000Y-96787580D03*
X138302000Y-97787580D03*
X138302000Y-98787580D03*
X136302000Y-99787580D03*
X137302000Y-100787580D03*
X138302000Y-99787580D03*
X136302000Y-100787580D03*
X138302000Y-100787580D03*
X137302000Y-99787580D03*
X133302000Y-95787580D03*
X134302000Y-97787580D03*
X134302000Y-95787580D03*
X135302000Y-95787580D03*
X133302000Y-96787580D03*
X134302000Y-96787580D03*
X135302000Y-96787580D03*
X133302000Y-97787580D03*
X150240000Y-100787580D03*
X149240000Y-100787580D03*
X148240000Y-100787580D03*
X147240000Y-100787580D03*
X146240000Y-100787580D03*
X145240000Y-100787580D03*
X150240000Y-99787580D03*
X149240000Y-99787580D03*
X148240000Y-99787580D03*
X147240000Y-99787580D03*
X146240000Y-99787580D03*
X145240000Y-99787580D03*
X150240000Y-98787580D03*
X149240000Y-98787580D03*
X148240000Y-98787580D03*
X147240000Y-98787580D03*
X146240000Y-98787580D03*
X145240000Y-98787580D03*
X150240000Y-97787580D03*
X149240000Y-97787580D03*
X148240000Y-97787580D03*
X147240000Y-97787580D03*
X146240000Y-97787580D03*
X145240000Y-97787580D03*
X150240000Y-96787580D03*
X149240000Y-96787580D03*
X148240000Y-96787580D03*
X147240000Y-96787580D03*
X146240000Y-96787580D03*
X145240000Y-96787580D03*
X150240000Y-95787580D03*
X149240000Y-95787580D03*
X148240000Y-95787580D03*
X147240000Y-95787580D03*
X146240000Y-95787580D03*
X145240000Y-95787580D03*
X162178000Y-100787580D03*
X161178000Y-100787580D03*
X160178000Y-100787580D03*
X159178000Y-100787580D03*
X158178000Y-100787580D03*
X157178000Y-100787580D03*
X162178000Y-99787580D03*
X161178000Y-99787580D03*
X160178000Y-99787580D03*
X159178000Y-99787580D03*
X158178000Y-99787580D03*
X157178000Y-99787580D03*
X162178000Y-98787580D03*
X161178000Y-98787580D03*
X160178000Y-98787580D03*
X159178000Y-98787580D03*
X158178000Y-98787580D03*
X157178000Y-98787580D03*
X162178000Y-97787580D03*
X161178000Y-97787580D03*
X160178000Y-97787580D03*
X159178000Y-97787580D03*
X158178000Y-97787580D03*
X157178000Y-97787580D03*
X162178000Y-96787580D03*
X161178000Y-96787580D03*
X160178000Y-96787580D03*
X159178000Y-96787580D03*
X158178000Y-96787580D03*
X157178000Y-96787580D03*
X162178000Y-95787580D03*
X161178000Y-95787580D03*
X160178000Y-95787580D03*
X159178000Y-95787580D03*
X158178000Y-95787580D03*
X157178000Y-95787580D03*
D15*
X135308600Y-117102000D02*
X134292600Y-117102000D01*
X134292600Y-117102000D02*
X133302000Y-117102000D01*
X134302000Y-116102000D02*
X134302000Y-117092600D01*
X134302000Y-117092600D02*
X134292600Y-117102000D01*
X136299200Y-117102000D02*
X135308600Y-117102000D01*
X135308600Y-116102000D02*
X135308600Y-117102000D01*
X137289800Y-117102000D02*
X136299200Y-117102000D01*
X136299200Y-116102000D02*
X136299200Y-117102000D01*
X138302000Y-117102000D02*
X137289800Y-117102000D01*
X137302000Y-116102000D02*
X137302000Y-117089800D01*
X137302000Y-117089800D02*
X137289800Y-117102000D01*
X133302000Y-117102000D02*
X133302000Y-116115200D01*
X133302000Y-116115200D02*
X133302000Y-115099200D01*
X134302000Y-116102000D02*
X133315200Y-116102000D01*
X133315200Y-116102000D02*
X133302000Y-116115200D01*
X136299200Y-116102000D02*
X135308600Y-116102000D01*
X135308600Y-116102000D02*
X134302000Y-116102000D01*
X135302000Y-115102000D02*
X135302000Y-116095400D01*
X135302000Y-116095400D02*
X135308600Y-116102000D01*
X137302000Y-116102000D02*
X136299200Y-116102000D01*
X136302000Y-115102000D02*
X136302000Y-116099200D01*
X136302000Y-116099200D02*
X136299200Y-116102000D01*
X138302000Y-115099200D02*
X138302000Y-116089800D01*
X138302000Y-116089800D02*
X138302000Y-117102000D01*
X137302000Y-116102000D02*
X138289800Y-116102000D01*
X138289800Y-116102000D02*
X138302000Y-116089800D01*
X133302000Y-115099200D02*
X133302000Y-114108600D01*
X134302000Y-115099200D02*
X133302000Y-115099200D01*
X134302000Y-116102000D02*
X134302000Y-115099200D01*
X134302000Y-115099200D02*
X134302000Y-114102000D01*
X135302000Y-115102000D02*
X134304800Y-115102000D01*
X134304800Y-115102000D02*
X134302000Y-115099200D01*
X138302000Y-114108600D02*
X138302000Y-115099200D01*
X137302000Y-115099200D02*
X138302000Y-115099200D01*
X137302000Y-114108600D02*
X137302000Y-115099200D01*
X137302000Y-115099200D02*
X137302000Y-116102000D01*
X136302000Y-115102000D02*
X137299200Y-115102000D01*
X137299200Y-115102000D02*
X137302000Y-115099200D01*
X133302000Y-114108600D02*
X133302000Y-113102000D01*
X134302000Y-114102000D02*
X133308600Y-114102000D01*
X133308600Y-114102000D02*
X133302000Y-114108600D01*
X134302000Y-114102000D02*
X135308600Y-114102000D01*
X135308600Y-114102000D02*
X136302000Y-114102000D01*
X135308600Y-113102000D02*
X135308600Y-114102000D01*
X138302000Y-113092600D02*
X138302000Y-114108600D01*
X137302000Y-114108600D02*
X138302000Y-114108600D01*
X137302000Y-113102000D02*
X137302000Y-114108600D01*
X138302000Y-112102000D02*
X138302000Y-113092600D01*
X137302000Y-113102000D02*
X138292600Y-113102000D01*
X138292600Y-113102000D02*
X138302000Y-113092600D01*
X137302000Y-113102000D02*
X136299200Y-113102000D01*
X135308600Y-113102000D02*
X136299200Y-113102000D01*
X134292600Y-113102000D02*
X135308600Y-113102000D01*
X133302000Y-113102000D02*
X134292600Y-113102000D01*
X137289800Y-112102000D02*
X138302000Y-112102000D01*
X136299200Y-112102000D02*
X137289800Y-112102000D01*
X135308600Y-112102000D02*
X136299200Y-112102000D01*
X134292600Y-112102000D02*
X135308600Y-112102000D01*
X133302000Y-112102000D02*
X134292600Y-112102000D01*
X150494000Y-116115200D02*
X150494000Y-117102000D01*
X150494000Y-115099200D02*
X150494000Y-116115200D01*
X150494000Y-114108600D02*
X150494000Y-115099200D01*
X150494000Y-113092600D02*
X150494000Y-114108600D01*
X150494000Y-117102000D02*
X149481800Y-117102000D01*
X149481800Y-117102000D02*
X148491200Y-117102000D01*
X149494000Y-116102000D02*
X149494000Y-117089800D01*
X149494000Y-117089800D02*
X149481800Y-117102000D01*
X149494000Y-115099200D02*
X149494000Y-116102000D01*
X149494000Y-114108600D02*
X149494000Y-115099200D01*
X149494000Y-113102000D02*
X149494000Y-114108600D01*
X145494000Y-117102000D02*
X145494000Y-116115200D01*
X145494000Y-115099200D02*
X145494000Y-116115200D01*
X145494000Y-114108600D02*
X145494000Y-115099200D01*
X145494000Y-113102000D02*
X145494000Y-114108600D01*
X148491200Y-117102000D02*
X147500600Y-117102000D01*
X148491200Y-116102000D02*
X148491200Y-117102000D01*
X149494000Y-116102000D02*
X148491200Y-116102000D01*
X148491200Y-116102000D02*
X147500600Y-116102000D01*
X148494000Y-115102000D02*
X148494000Y-116099200D01*
X148494000Y-116099200D02*
X148491200Y-116102000D01*
X147500600Y-117102000D02*
X146484600Y-117102000D01*
X147500600Y-116102000D02*
X147500600Y-117102000D01*
X147500600Y-116102000D02*
X146494000Y-116102000D01*
X147494000Y-115102000D02*
X147494000Y-116095400D01*
X147494000Y-116095400D02*
X147500600Y-116102000D01*
X147500600Y-114102000D02*
X147500600Y-115095400D01*
X147500600Y-115095400D02*
X147494000Y-115102000D01*
X146494000Y-114102000D02*
X147500600Y-114102000D01*
X147500600Y-114102000D02*
X148494000Y-114102000D01*
X147500600Y-113102000D02*
X147500600Y-114102000D01*
X146494000Y-117092600D02*
X146484600Y-117102000D01*
X146484600Y-117102000D02*
X145494000Y-117102000D01*
X146494000Y-116102000D02*
X146494000Y-117092600D01*
X146494000Y-116102000D02*
X146494000Y-115099200D01*
X146494000Y-114102000D02*
X146494000Y-115099200D01*
X146510000Y-113102000D02*
X145494000Y-113102000D01*
X147500600Y-113102000D02*
X146510000Y-113102000D01*
X148491200Y-113102000D02*
X147500600Y-113102000D01*
X149494000Y-113102000D02*
X148491200Y-113102000D01*
X150494000Y-112102000D02*
X150494000Y-113092600D01*
X145494000Y-112102000D02*
X146510000Y-112102000D01*
X147500600Y-112102000D02*
X146510000Y-112102000D01*
X148491200Y-112102000D02*
X147500600Y-112102000D01*
X149481800Y-112102000D02*
X148491200Y-112102000D01*
X150494000Y-112102000D02*
X149481800Y-112102000D01*
X157305000Y-117102000D02*
X157305000Y-116115200D01*
X157305000Y-115124600D02*
X157305000Y-116115200D01*
X157305000Y-114108600D02*
X157305000Y-115124600D01*
X157305000Y-113102000D02*
X157305000Y-114108600D01*
X158295600Y-113102000D02*
X157305000Y-113102000D01*
X159311600Y-113102000D02*
X158295600Y-113102000D01*
X160302200Y-113102000D02*
X159311600Y-113102000D01*
X161305000Y-113102000D02*
X160302200Y-113102000D01*
X158305000Y-116102000D02*
X158305000Y-115099200D01*
X158305000Y-115099200D02*
X158305000Y-114102000D01*
X159305000Y-115102000D02*
X158307800Y-115102000D01*
X158307800Y-115102000D02*
X158305000Y-115099200D01*
X158295600Y-117102000D02*
X157305000Y-117102000D01*
X159311600Y-117102000D02*
X158295600Y-117102000D01*
X160302200Y-117102000D02*
X159311600Y-117102000D01*
X161318200Y-117102000D02*
X160302200Y-117102000D01*
X162305000Y-117102000D02*
X161318200Y-117102000D01*
X158305000Y-114102000D02*
X159311600Y-114102000D01*
X159311600Y-114102000D02*
X160305000Y-114102000D01*
X160302200Y-116102000D02*
X159311600Y-116102000D01*
X159311600Y-116102000D02*
X158305000Y-116102000D01*
X161305000Y-116102000D02*
X160302200Y-116102000D01*
X161305000Y-114108600D02*
X161305000Y-115099200D01*
X161305000Y-115099200D02*
X161305000Y-116102000D01*
X161305000Y-113102000D02*
X161305000Y-114108600D01*
X162305000Y-115099200D02*
X162305000Y-116089800D01*
X162305000Y-116089800D02*
X162305000Y-117102000D01*
X162305000Y-114108600D02*
X162305000Y-115099200D01*
X162305000Y-113092600D02*
X162305000Y-114108600D01*
X162305000Y-112102000D02*
X162305000Y-113092600D01*
X160353000Y-112102000D02*
X161305500Y-112102000D01*
X161305500Y-112102000D02*
X162305000Y-112102000D01*
X159337000Y-112102000D02*
X160353000Y-112102000D01*
X158321000Y-112102000D02*
X159337000Y-112102000D01*
X157305000Y-112102000D02*
X158321000Y-112102000D01*
X145494000Y-112102000D02*
X145194001Y-111802001D01*
X145194001Y-111802001D02*
X138601999Y-111802001D01*
X138601999Y-111802001D02*
X138302000Y-112102000D01*
X157305000Y-112102000D02*
X156930001Y-112476999D01*
X156930001Y-112476999D02*
X150868999Y-112476999D01*
X150868999Y-112476999D02*
X150793999Y-112401999D01*
X150793999Y-112401999D02*
X150494000Y-112102000D01*
X136302000Y-115102000D02*
X135302000Y-115102000D01*
X136302000Y-115102000D02*
X136302000Y-114102000D01*
X148494000Y-115102000D02*
X147494000Y-115102000D01*
X148494000Y-115102000D02*
X148494000Y-114102000D01*
X160305000Y-115102000D02*
X159305000Y-115102000D01*
X160305000Y-115102000D02*
X160305000Y-114102000D01*
D16*
G36*
X178260000Y-117563000D02*
X168608000Y-117563000D01*
X168608000Y-106641000D01*
X168598333Y-106592399D01*
X168555207Y-106537935D01*
X165380207Y-104251935D01*
X165335117Y-104231383D01*
X165306000Y-104228000D01*
X129619000Y-104228000D01*
X129619000Y-89877000D01*
X178260000Y-89877000D01*
X178260000Y-117563000D01*
X178260000Y-117563000D01*
G37*
X178260000Y-117563000D02*
X168608000Y-117563000D01*
X168608000Y-106641000D01*
X168598333Y-106592399D01*
X168555207Y-106537935D01*
X165380207Y-104251935D01*
X165335117Y-104231383D01*
X165306000Y-104228000D01*
X129619000Y-104228000D01*
X129619000Y-89877000D01*
X178260000Y-89877000D01*
X178260000Y-117563000D01*
G36*
X127963000Y-107090000D02*
X127972667Y-107138601D01*
X128000197Y-107179803D01*
X128041399Y-107207333D01*
X128090000Y-107217000D01*
X164063000Y-107217000D01*
X164063000Y-118334000D01*
X116917000Y-118334000D01*
X116917000Y-100000000D01*
X117819394Y-100000000D01*
X117894068Y-100375412D01*
X118106722Y-100693672D01*
X118424982Y-100906326D01*
X118800394Y-100981000D01*
X119399606Y-100981000D01*
X119775018Y-100906326D01*
X120093278Y-100693672D01*
X120305932Y-100375412D01*
X120380606Y-100000000D01*
X120305932Y-99624588D01*
X120093278Y-99306328D01*
X119775018Y-99093674D01*
X119399606Y-99019000D01*
X118800394Y-99019000D01*
X118424982Y-99093674D01*
X118106722Y-99306328D01*
X117894068Y-99624588D01*
X117819394Y-100000000D01*
X116917000Y-100000000D01*
X116917000Y-98000000D01*
X117819394Y-98000000D01*
X117894068Y-98375412D01*
X118106722Y-98693672D01*
X118424982Y-98906326D01*
X118800394Y-98981000D01*
X119399606Y-98981000D01*
X119775018Y-98906326D01*
X120093278Y-98693672D01*
X120305932Y-98375412D01*
X120380606Y-98000000D01*
X120305932Y-97624588D01*
X120093278Y-97306328D01*
X119775018Y-97093674D01*
X119399606Y-97019000D01*
X118800394Y-97019000D01*
X118424982Y-97093674D01*
X118106722Y-97306328D01*
X117894068Y-97624588D01*
X117819394Y-98000000D01*
X116917000Y-98000000D01*
X116917000Y-95400000D01*
X117836536Y-95400000D01*
X117836536Y-96600000D01*
X117866106Y-96748659D01*
X117950314Y-96874686D01*
X118076341Y-96958894D01*
X118225000Y-96988464D01*
X119975000Y-96988464D01*
X120123659Y-96958894D01*
X120249686Y-96874686D01*
X120333894Y-96748659D01*
X120363464Y-96600000D01*
X120363464Y-95400000D01*
X120333894Y-95251341D01*
X120249686Y-95125314D01*
X120123659Y-95041106D01*
X119975000Y-95011536D01*
X118225000Y-95011536D01*
X118076341Y-95041106D01*
X117950314Y-95125314D01*
X117866106Y-95251341D01*
X117836536Y-95400000D01*
X116917000Y-95400000D01*
X116917000Y-92917000D01*
X127963000Y-92917000D01*
X127963000Y-107090000D01*
X127963000Y-107090000D01*
G37*
X127963000Y-107090000D02*
X127972667Y-107138601D01*
X128000197Y-107179803D01*
X128041399Y-107207333D01*
X128090000Y-107217000D01*
X164063000Y-107217000D01*
X164063000Y-118334000D01*
X116917000Y-118334000D01*
X116917000Y-100000000D01*
X117819394Y-100000000D01*
X117894068Y-100375412D01*
X118106722Y-100693672D01*
X118424982Y-100906326D01*
X118800394Y-100981000D01*
X119399606Y-100981000D01*
X119775018Y-100906326D01*
X120093278Y-100693672D01*
X120305932Y-100375412D01*
X120380606Y-100000000D01*
X120305932Y-99624588D01*
X120093278Y-99306328D01*
X119775018Y-99093674D01*
X119399606Y-99019000D01*
X118800394Y-99019000D01*
X118424982Y-99093674D01*
X118106722Y-99306328D01*
X117894068Y-99624588D01*
X117819394Y-100000000D01*
X116917000Y-100000000D01*
X116917000Y-98000000D01*
X117819394Y-98000000D01*
X117894068Y-98375412D01*
X118106722Y-98693672D01*
X118424982Y-98906326D01*
X118800394Y-98981000D01*
X119399606Y-98981000D01*
X119775018Y-98906326D01*
X120093278Y-98693672D01*
X120305932Y-98375412D01*
X120380606Y-98000000D01*
X120305932Y-97624588D01*
X120093278Y-97306328D01*
X119775018Y-97093674D01*
X119399606Y-97019000D01*
X118800394Y-97019000D01*
X118424982Y-97093674D01*
X118106722Y-97306328D01*
X117894068Y-97624588D01*
X117819394Y-98000000D01*
X116917000Y-98000000D01*
X116917000Y-95400000D01*
X117836536Y-95400000D01*
X117836536Y-96600000D01*
X117866106Y-96748659D01*
X117950314Y-96874686D01*
X118076341Y-96958894D01*
X118225000Y-96988464D01*
X119975000Y-96988464D01*
X120123659Y-96958894D01*
X120249686Y-96874686D01*
X120333894Y-96748659D01*
X120363464Y-96600000D01*
X120363464Y-95400000D01*
X120333894Y-95251341D01*
X120249686Y-95125314D01*
X120123659Y-95041106D01*
X119975000Y-95011536D01*
X118225000Y-95011536D01*
X118076341Y-95041106D01*
X117950314Y-95125314D01*
X117866106Y-95251341D01*
X117836536Y-95400000D01*
X116917000Y-95400000D01*
X116917000Y-92917000D01*
X127963000Y-92917000D01*
X127963000Y-107090000D01*
M02*
