G04 #@! TF.FileFunction,Copper,L1,Top,Signal*
%FSLAX46Y46*%
G04 Gerber Fmt 4.6, Leading zero omitted, Abs format (unit mm)*
G04 Created by KiCad (PCBNEW 4.0.2-stable) date 7/12/2016 10:14:01 PM*
%MOMM*%
G01*
G04 APERTURE LIST*
%ADD10C,0.100000*%
%ADD11O,3.014980X1.506220*%
%ADD12R,0.750000X0.800000*%
%ADD13R,0.910000X1.220000*%
%ADD14R,6.000000X5.000000*%
%ADD15C,2.000000*%
%ADD16R,10.800080X8.150860*%
%ADD17R,0.899160X3.200400*%
%ADD18R,0.900000X0.500000*%
%ADD19C,0.600000*%
%ADD20C,0.800000*%
%ADD21C,0.250000*%
%ADD22C,8.000000*%
%ADD23C,0.500000*%
%ADD24C,0.254000*%
G04 APERTURE END LIST*
D10*
D11*
X183362600Y-73380600D03*
X183362600Y-70840600D03*
X183362600Y-67818000D03*
X183362600Y-65278000D03*
X183362600Y-62738000D03*
D12*
X191262000Y-70116000D03*
X191262000Y-71616000D03*
D13*
X192897000Y-75438000D03*
X189627000Y-75438000D03*
D14*
X185000000Y-53500000D03*
X185000000Y-85725000D03*
D15*
X195730000Y-57810000D03*
X198270000Y-57810000D03*
X200810000Y-57810000D03*
X200810000Y-55270000D03*
X200810000Y-52730000D03*
X200810000Y-50190000D03*
X193190000Y-57810000D03*
X193190000Y-55270000D03*
X193190000Y-52730000D03*
X193190000Y-50190000D03*
X195730000Y-50190000D03*
X198270000Y-50190000D03*
X225730000Y-57810000D03*
X228270000Y-57810000D03*
X230810000Y-57810000D03*
X230810000Y-55270000D03*
X230810000Y-52730000D03*
X230810000Y-50190000D03*
X223190000Y-57810000D03*
X223190000Y-55270000D03*
X223190000Y-52730000D03*
X223190000Y-50190000D03*
X225730000Y-50190000D03*
X228270000Y-50190000D03*
D14*
X239000000Y-53500000D03*
X239000000Y-85725000D03*
D16*
X200152000Y-69537580D03*
D17*
X196342000Y-80139540D03*
X197612000Y-80139540D03*
X198882000Y-80139540D03*
X201422000Y-80139540D03*
X202692000Y-80139540D03*
X203962000Y-80139540D03*
D16*
X212090000Y-69537580D03*
D17*
X208280000Y-80139540D03*
X209550000Y-80139540D03*
X210820000Y-80139540D03*
X213360000Y-80139540D03*
X214630000Y-80139540D03*
X215900000Y-80139540D03*
D16*
X224028000Y-69537580D03*
D17*
X220218000Y-80139540D03*
X221488000Y-80139540D03*
X222758000Y-80139540D03*
X225298000Y-80139540D03*
X226568000Y-80139540D03*
X227838000Y-80139540D03*
D18*
X189484000Y-70116000D03*
X189484000Y-71616000D03*
X187706000Y-71616000D03*
X187706000Y-70116000D03*
X193040000Y-71616000D03*
X193040000Y-70116000D03*
D19*
X187007000Y-55511200D03*
X186007000Y-55511200D03*
X185007000Y-55511200D03*
X184007000Y-55511200D03*
X183007000Y-55511200D03*
X187007000Y-54511200D03*
X186007000Y-54511200D03*
X185007000Y-54511200D03*
X184007000Y-54511200D03*
X183007000Y-54511200D03*
X187007000Y-53511200D03*
X186007000Y-53511200D03*
X185007000Y-53511200D03*
X184007000Y-53511200D03*
X183007000Y-53511200D03*
X187007000Y-52511200D03*
X186007000Y-52511200D03*
X185007000Y-52511200D03*
X184007000Y-52511200D03*
X183007000Y-52511200D03*
X187007000Y-51511200D03*
X186007000Y-51511200D03*
X185007000Y-51511200D03*
X184007000Y-51511200D03*
X183007000Y-51511200D03*
X187007000Y-87743800D03*
X186007000Y-87743800D03*
X185007000Y-87743800D03*
X184007000Y-87743800D03*
X183007000Y-87743800D03*
X187007000Y-86743800D03*
X186007000Y-86743800D03*
X185007000Y-86743800D03*
X184007000Y-86743800D03*
X183007000Y-86743800D03*
X187007000Y-85743800D03*
X186007000Y-85743800D03*
X185007000Y-85743800D03*
X184007000Y-85743800D03*
X183007000Y-85743800D03*
X187007000Y-84743800D03*
X186007000Y-84743800D03*
X185007000Y-84743800D03*
X184007000Y-84743800D03*
X183007000Y-84743800D03*
X187007000Y-83743800D03*
X186007000Y-83743800D03*
X185007000Y-83743800D03*
X184007000Y-83743800D03*
X183007000Y-83743800D03*
X198602600Y-88312000D03*
X199618600Y-88312000D03*
X200609200Y-88312000D03*
X201599800Y-88312000D03*
X197612000Y-87325200D03*
X199618600Y-87312000D03*
X200609200Y-87312000D03*
X202612000Y-87299800D03*
X197612000Y-86309200D03*
X198612000Y-86309200D03*
X202612000Y-86309200D03*
X201612000Y-86309200D03*
X197612000Y-85318600D03*
X199618600Y-85312000D03*
X202612000Y-85318600D03*
X201612000Y-85318600D03*
X202612000Y-84302600D03*
X200609200Y-84312000D03*
X199618600Y-84312000D03*
X198602600Y-84312000D03*
X201599800Y-83312000D03*
X200609200Y-83312000D03*
X199618600Y-83312000D03*
X198602600Y-83312000D03*
X214804000Y-87325200D03*
X214804000Y-86309200D03*
X214804000Y-85318600D03*
X213791800Y-88312000D03*
X213804000Y-86309200D03*
X213804000Y-85318600D03*
X209804000Y-87325200D03*
X209804000Y-86309200D03*
X209804000Y-85318600D03*
X212801200Y-88312000D03*
X212801200Y-87312000D03*
X211810600Y-88312000D03*
X211810600Y-87312000D03*
X211804000Y-86312000D03*
X211810600Y-85312000D03*
X210794600Y-88312000D03*
X210804000Y-86309200D03*
X210820000Y-84312000D03*
X211810600Y-84312000D03*
X212801200Y-84312000D03*
X214804000Y-84302600D03*
X210820000Y-83312000D03*
X211810600Y-83312000D03*
X212801200Y-83312000D03*
X213791800Y-83312000D03*
X221615000Y-87325200D03*
X221615000Y-86309200D03*
X221615000Y-85318600D03*
X222605600Y-84312000D03*
X223621600Y-84312000D03*
X224612200Y-84312000D03*
X222615000Y-86309200D03*
X222605600Y-88312000D03*
X223621600Y-88312000D03*
X224612200Y-88312000D03*
X225628200Y-88312000D03*
X223621600Y-85312000D03*
X223621600Y-87312000D03*
X224612200Y-87312000D03*
X225615000Y-86309200D03*
X225615000Y-85318600D03*
X226615000Y-87299800D03*
X226615000Y-86309200D03*
X226615000Y-85318600D03*
X226615000Y-84302600D03*
X225615500Y-83312000D03*
X224612200Y-83312000D03*
X223621600Y-83312000D03*
X222605600Y-83312000D03*
X187706000Y-68834000D03*
X188087000Y-75438000D03*
X197612000Y-83312000D03*
X197612000Y-84312000D03*
X198612000Y-87312000D03*
X197612000Y-88312000D03*
X199612000Y-86312000D03*
X198612000Y-85312000D03*
X200612000Y-85312000D03*
X202612000Y-88312000D03*
X201612000Y-87312000D03*
X200612000Y-86312000D03*
X202612000Y-83312000D03*
X201612000Y-84312000D03*
X209804000Y-83312000D03*
X209804000Y-84312000D03*
X210804000Y-87312000D03*
X209804000Y-88312000D03*
X210804000Y-85312000D03*
X212804000Y-85312000D03*
X214804000Y-88312000D03*
X213804000Y-87312000D03*
X212804000Y-86312000D03*
X214804000Y-83312000D03*
X213804000Y-84312000D03*
X226615000Y-88312000D03*
X221615000Y-88312000D03*
X225615000Y-87312000D03*
X222615000Y-87312000D03*
X224615000Y-86312000D03*
X223615000Y-86312000D03*
X224615000Y-85312000D03*
X222615000Y-85312000D03*
X225615000Y-84312000D03*
X221615000Y-84312000D03*
X226615000Y-83312000D03*
X221615000Y-83312000D03*
X241007400Y-55485800D03*
X240007400Y-55485800D03*
X239007400Y-55485800D03*
X238007400Y-55485800D03*
X237007400Y-55485800D03*
X241007400Y-54485800D03*
X240007400Y-54485800D03*
X239007400Y-54485800D03*
X238007400Y-54485800D03*
X237007400Y-54485800D03*
X241007400Y-53485800D03*
X240007400Y-53485800D03*
X239007400Y-53485800D03*
X238007400Y-53485800D03*
X237007400Y-53485800D03*
X241007400Y-52485800D03*
X240007400Y-52485800D03*
X239007400Y-52485800D03*
X238007400Y-52485800D03*
X237007400Y-52485800D03*
X241007400Y-51485800D03*
X240007400Y-51485800D03*
X239007400Y-51485800D03*
X238007400Y-51485800D03*
X237007400Y-51485800D03*
X241007400Y-87718400D03*
X240007400Y-87718400D03*
X239007400Y-87718400D03*
X238007400Y-87718400D03*
X237007400Y-87718400D03*
X241007400Y-86718400D03*
X240007400Y-86718400D03*
X239007400Y-86718400D03*
X238007400Y-86718400D03*
X237007400Y-86718400D03*
X241007400Y-85718400D03*
X240007400Y-85718400D03*
X239007400Y-85718400D03*
X238007400Y-85718400D03*
X237007400Y-85718400D03*
X241007400Y-84718400D03*
X240007400Y-84718400D03*
X239007400Y-84718400D03*
X238007400Y-84718400D03*
X237007400Y-84718400D03*
X241007400Y-83718400D03*
X240007400Y-83718400D03*
X239007400Y-83718400D03*
X238007400Y-83718400D03*
X237007400Y-83718400D03*
X197612000Y-69997580D03*
X198612000Y-69997580D03*
X197612000Y-70997580D03*
X197612000Y-71997580D03*
X198612000Y-70997580D03*
X199612000Y-70997580D03*
X198612000Y-71997580D03*
X199612000Y-71997580D03*
X199612000Y-68997580D03*
X200612000Y-69997580D03*
X200612000Y-68997580D03*
X201612000Y-68997580D03*
X199612000Y-69997580D03*
X201612000Y-69997580D03*
X200612000Y-66997580D03*
X202612000Y-67997580D03*
X201612000Y-66997580D03*
X202612000Y-66997580D03*
X200612000Y-67997580D03*
X201612000Y-67997580D03*
X202612000Y-68997580D03*
X202612000Y-69997580D03*
X200612000Y-70997580D03*
X201612000Y-71997580D03*
X202612000Y-70997580D03*
X200612000Y-71997580D03*
X202612000Y-71997580D03*
X201612000Y-70997580D03*
X197612000Y-66997580D03*
X198612000Y-68997580D03*
X198612000Y-66997580D03*
X199612000Y-66997580D03*
X197612000Y-67997580D03*
X198612000Y-67997580D03*
X199612000Y-67997580D03*
X197612000Y-68997580D03*
X214550000Y-71997580D03*
X213550000Y-71997580D03*
X212550000Y-71997580D03*
X211550000Y-71997580D03*
X210550000Y-71997580D03*
X209550000Y-71997580D03*
X214550000Y-70997580D03*
X213550000Y-70997580D03*
X212550000Y-70997580D03*
X211550000Y-70997580D03*
X210550000Y-70997580D03*
X209550000Y-70997580D03*
X214550000Y-69997580D03*
X213550000Y-69997580D03*
X212550000Y-69997580D03*
X211550000Y-69997580D03*
X210550000Y-69997580D03*
X209550000Y-69997580D03*
X214550000Y-68997580D03*
X213550000Y-68997580D03*
X212550000Y-68997580D03*
X211550000Y-68997580D03*
X210550000Y-68997580D03*
X209550000Y-68997580D03*
X214550000Y-67997580D03*
X213550000Y-67997580D03*
X212550000Y-67997580D03*
X211550000Y-67997580D03*
X210550000Y-67997580D03*
X209550000Y-67997580D03*
X214550000Y-66997580D03*
X213550000Y-66997580D03*
X212550000Y-66997580D03*
X211550000Y-66997580D03*
X210550000Y-66997580D03*
X209550000Y-66997580D03*
X226488000Y-71997580D03*
X225488000Y-71997580D03*
X224488000Y-71997580D03*
X223488000Y-71997580D03*
X222488000Y-71997580D03*
X221488000Y-71997580D03*
X226488000Y-70997580D03*
X225488000Y-70997580D03*
X224488000Y-70997580D03*
X223488000Y-70997580D03*
X222488000Y-70997580D03*
X221488000Y-70997580D03*
X226488000Y-69997580D03*
X225488000Y-69997580D03*
X224488000Y-69997580D03*
X223488000Y-69997580D03*
X222488000Y-69997580D03*
X221488000Y-69997580D03*
X226488000Y-68997580D03*
X225488000Y-68997580D03*
X224488000Y-68997580D03*
X223488000Y-68997580D03*
X222488000Y-68997580D03*
X221488000Y-68997580D03*
X226488000Y-67997580D03*
X225488000Y-67997580D03*
X224488000Y-67997580D03*
X223488000Y-67997580D03*
X222488000Y-67997580D03*
X221488000Y-67997580D03*
X226488000Y-66997580D03*
X225488000Y-66997580D03*
X224488000Y-66997580D03*
X223488000Y-66997580D03*
X222488000Y-66997580D03*
X221488000Y-66997580D03*
D20*
X193190000Y-57810000D02*
X193190000Y-62029200D01*
X189484000Y-65735200D02*
X189484000Y-70116000D01*
X193190000Y-62029200D02*
X189484000Y-65735200D01*
D21*
X186007000Y-55511200D02*
X187007000Y-55511200D01*
X185007000Y-55511200D02*
X186007000Y-55511200D01*
X184007000Y-55511200D02*
X185007000Y-55511200D01*
X184007000Y-55511200D02*
X183007000Y-55511200D01*
X183007000Y-54511200D02*
X183007000Y-55511200D01*
X184007000Y-54511200D02*
X183007000Y-54511200D01*
X185007000Y-54511200D02*
X184007000Y-54511200D01*
X186007000Y-54511200D02*
X185007000Y-54511200D01*
X187007000Y-54511200D02*
X186007000Y-54511200D01*
X187007000Y-53511200D02*
X187007000Y-54511200D01*
X186007000Y-53511200D02*
X187007000Y-53511200D01*
X185007000Y-53511200D02*
X186007000Y-53511200D01*
X184007000Y-53511200D02*
X185007000Y-53511200D01*
X183007000Y-53511200D02*
X184007000Y-53511200D01*
X183007000Y-52511200D02*
X183007000Y-53511200D01*
X184007000Y-52511200D02*
X183007000Y-52511200D01*
X185007000Y-52511200D02*
X184007000Y-52511200D01*
X186007000Y-52511200D02*
X185007000Y-52511200D01*
X187007000Y-52511200D02*
X186007000Y-52511200D01*
X187007000Y-51511200D02*
X187007000Y-52511200D01*
X186007000Y-51511200D02*
X187007000Y-51511200D01*
X185007000Y-51511200D02*
X186007000Y-51511200D01*
X185007000Y-51511200D02*
X184007000Y-51511200D01*
X183007000Y-51511200D02*
X184007000Y-51511200D01*
X184007000Y-52511200D02*
X183007000Y-51511200D01*
X185007000Y-53511200D02*
X184007000Y-52511200D01*
X186007000Y-85743800D02*
X187007000Y-85743800D01*
X185007000Y-85743800D02*
X186007000Y-85743800D01*
X185007000Y-85743800D02*
X184007000Y-85743800D01*
X183007000Y-85743800D02*
X184007000Y-85743800D01*
X183007000Y-84743800D02*
X183007000Y-85743800D01*
X184007000Y-84743800D02*
X183007000Y-84743800D01*
X185007000Y-84743800D02*
X184007000Y-84743800D01*
X186007000Y-84743800D02*
X185007000Y-84743800D01*
X187007000Y-84743800D02*
X186007000Y-84743800D01*
X187007000Y-83743800D02*
X187007000Y-84743800D01*
X186007000Y-83743800D02*
X187007000Y-83743800D01*
X185007000Y-83743800D02*
X186007000Y-83743800D01*
X184007000Y-83743800D02*
X185007000Y-83743800D01*
X184007000Y-83743800D02*
X184007000Y-84743800D01*
X184007000Y-84743800D02*
X185007000Y-85743800D01*
X183007000Y-83743800D02*
X184007000Y-83743800D01*
X184007000Y-87743800D02*
X183007000Y-87743800D01*
X185007000Y-87743800D02*
X184007000Y-87743800D01*
X186007000Y-87743800D02*
X185007000Y-87743800D01*
X187007000Y-87743800D02*
X186007000Y-87743800D01*
X187007000Y-86743800D02*
X187007000Y-87743800D01*
X187007000Y-86743800D02*
X186018800Y-86743800D01*
X186018800Y-86743800D02*
X185000000Y-85725000D01*
X186007000Y-86743800D02*
X187007000Y-86743800D01*
X185007000Y-86743800D02*
X186007000Y-86743800D01*
X184007000Y-86743800D02*
X185007000Y-86743800D01*
X183007000Y-86743800D02*
X184007000Y-86743800D01*
X183007000Y-85743800D02*
X183007000Y-86743800D01*
X185007000Y-85743800D02*
X185007000Y-85732000D01*
X185007000Y-85732000D02*
X185000000Y-85725000D01*
X183007000Y-83743800D02*
X185007000Y-85743800D01*
X225628200Y-88312000D02*
X224612200Y-88312000D01*
X226615000Y-88312000D02*
X225628200Y-88312000D01*
X224615000Y-85312000D02*
X223621600Y-85312000D01*
X224612200Y-87312000D02*
X223621600Y-87312000D01*
X225615000Y-87312000D02*
X224612200Y-87312000D01*
X225615000Y-85318600D02*
X225615000Y-86309200D01*
X225615000Y-84312000D02*
X225615000Y-85318600D01*
X226615000Y-86309200D02*
X226615000Y-87299800D01*
X226615000Y-85318600D02*
X226615000Y-86309200D01*
X226615000Y-84302600D02*
X226615000Y-85318600D01*
X226615000Y-83312000D02*
X226615000Y-84302600D01*
X224663000Y-83312000D02*
X225615500Y-83312000D01*
X221615000Y-83312000D02*
X222631000Y-83312000D01*
D20*
X187706000Y-70116000D02*
X187706000Y-68834000D01*
X189627000Y-75438000D02*
X188087000Y-75438000D01*
D21*
X209804000Y-83312000D02*
X209804000Y-80393540D01*
X209804000Y-80393540D02*
X209550000Y-80139540D01*
X197612000Y-83312000D02*
X197612000Y-80139540D01*
X197485000Y-83185000D02*
X197612000Y-83312000D01*
X209677000Y-83185000D02*
X209804000Y-83312000D01*
X221488000Y-80139540D02*
X221488000Y-83185000D01*
X221488000Y-83185000D02*
X221615000Y-83312000D01*
D20*
X185928000Y-70612000D02*
X185928000Y-66936620D01*
X185928000Y-66936620D02*
X183888380Y-65151000D01*
D21*
X183888380Y-65151000D02*
X183134000Y-65151000D01*
D20*
X186678000Y-71616000D02*
X185928000Y-70612000D01*
X187706000Y-71616000D02*
X186678000Y-71616000D01*
X219252800Y-76657200D02*
X208280000Y-76657200D01*
X208280000Y-76657200D02*
X196392800Y-76657200D01*
X208280000Y-80139540D02*
X208280000Y-78289340D01*
X208280000Y-78289340D02*
X208280000Y-76657200D01*
X196392800Y-76657200D02*
X195046600Y-76657200D01*
X196342000Y-80139540D02*
X196342000Y-76708000D01*
D21*
X196342000Y-76708000D02*
X196392800Y-76657200D01*
D20*
X195046600Y-76657200D02*
X193827400Y-75438000D01*
X193827400Y-75438000D02*
X192897000Y-75438000D01*
X220218000Y-77622400D02*
X219252800Y-76657200D01*
X220218000Y-80139540D02*
X220218000Y-77622400D01*
X191262000Y-71616000D02*
X191262000Y-74508000D01*
X191262000Y-74508000D02*
X192192000Y-75438000D01*
X192192000Y-75438000D02*
X192897000Y-75438000D01*
X187706000Y-71616000D02*
X189484000Y-71616000D01*
X191262000Y-71616000D02*
X189484000Y-71616000D01*
X193040000Y-70116000D02*
X191262000Y-70116000D01*
D21*
X238007400Y-55485800D02*
X237007400Y-55485800D01*
X239007400Y-55485800D02*
X238007400Y-55485800D01*
X240007400Y-55485800D02*
X239007400Y-55485800D01*
X241007400Y-55485800D02*
X240007400Y-55485800D01*
X241007400Y-54485800D02*
X241007400Y-55485800D01*
X240007400Y-54485800D02*
X241007400Y-54485800D01*
X239007400Y-54485800D02*
X240007400Y-54485800D01*
X238007400Y-54485800D02*
X239007400Y-54485800D01*
X237007400Y-54485800D02*
X238007400Y-54485800D01*
X237007400Y-53485800D02*
X237007400Y-54485800D01*
X238007400Y-53485800D02*
X237007400Y-53485800D01*
X239007400Y-53485800D02*
X238007400Y-53485800D01*
X240007400Y-53485800D02*
X239007400Y-53485800D01*
X241007400Y-53485800D02*
X240007400Y-53485800D01*
X241007400Y-52485800D02*
X241007400Y-53485800D01*
X240007400Y-52485800D02*
X241007400Y-52485800D01*
X239007400Y-52485800D02*
X240007400Y-52485800D01*
X238007400Y-52485800D02*
X239007400Y-52485800D01*
X238007400Y-52485800D02*
X237007400Y-52485800D01*
X237007400Y-51485800D02*
X237007400Y-52485800D01*
X238007400Y-51485800D02*
X237007400Y-51485800D01*
X239007400Y-51485800D02*
X238007400Y-51485800D01*
X240007400Y-51485800D02*
X239007400Y-51485800D01*
X241007400Y-51485800D02*
X240007400Y-51485800D01*
X241007400Y-51485800D02*
X239007400Y-53485800D01*
X241007400Y-86718400D02*
X241007400Y-87718400D01*
X240007400Y-86718400D02*
X241007400Y-86718400D01*
X240007400Y-87718400D02*
X240007400Y-86718400D01*
X239007400Y-87718400D02*
X240007400Y-87718400D01*
X239007400Y-86718400D02*
X239007400Y-87718400D01*
X238007400Y-86718400D02*
X239007400Y-86718400D01*
X238007400Y-87718400D02*
X238007400Y-86718400D01*
X237007400Y-87718400D02*
X238007400Y-87718400D01*
X237007400Y-86718400D02*
X237007400Y-87718400D01*
X237007400Y-85718400D02*
X237007400Y-86718400D01*
X238007400Y-85718400D02*
X237007400Y-85718400D01*
X239007400Y-85718400D02*
X238007400Y-85718400D01*
X240007400Y-85718400D02*
X239007400Y-85718400D01*
X241007400Y-85718400D02*
X240007400Y-85718400D01*
X241007400Y-84718400D02*
X241007400Y-85718400D01*
X240007400Y-84718400D02*
X241007400Y-84718400D01*
X239007400Y-84718400D02*
X240007400Y-84718400D01*
X238007400Y-84718400D02*
X239007400Y-84718400D01*
X238007400Y-84718400D02*
X237007400Y-84718400D01*
X237007400Y-83718400D02*
X237007400Y-84718400D01*
X238007400Y-83718400D02*
X237007400Y-83718400D01*
X239007400Y-83718400D02*
X238007400Y-83718400D01*
X240007400Y-83718400D02*
X239007400Y-83718400D01*
X240007400Y-83718400D02*
X240007400Y-84718400D01*
X240007400Y-84718400D02*
X239007400Y-85718400D01*
X241007400Y-83718400D02*
X240007400Y-83718400D01*
X226488000Y-67997580D02*
X226488000Y-66997580D01*
X226488000Y-68997580D02*
X226488000Y-67997580D01*
X226488000Y-69997580D02*
X226488000Y-68997580D01*
X226488000Y-70997580D02*
X226488000Y-69997580D01*
X226488000Y-71997580D02*
X226488000Y-70997580D01*
X225488000Y-71997580D02*
X226488000Y-71997580D01*
X225488000Y-70997580D02*
X225488000Y-71997580D01*
X225488000Y-69997580D02*
X225488000Y-70997580D01*
X225488000Y-69997580D02*
X225488000Y-68997580D01*
X225488000Y-68997580D02*
X223488000Y-68997580D01*
X223488000Y-68997580D02*
X221488000Y-66997580D01*
X225488000Y-67997580D02*
X225488000Y-68997580D01*
X225488000Y-66997580D02*
X225488000Y-67997580D01*
X224488000Y-66997580D02*
X225488000Y-66997580D01*
X224488000Y-67997580D02*
X224488000Y-66997580D01*
X224488000Y-68997580D02*
X224488000Y-67997580D01*
X224488000Y-69997580D02*
X224488000Y-68997580D01*
X224488000Y-70997580D02*
X224488000Y-69997580D01*
X224488000Y-71997580D02*
X224488000Y-70997580D01*
X223488000Y-71997580D02*
X224488000Y-71997580D01*
X223488000Y-70997580D02*
X223488000Y-71997580D01*
X223488000Y-69997580D02*
X223488000Y-70997580D01*
X223488000Y-68997580D02*
X223488000Y-69997580D01*
X223488000Y-67997580D02*
X223488000Y-68997580D01*
X223488000Y-66997580D02*
X223488000Y-67997580D01*
X222488000Y-66997580D02*
X223488000Y-66997580D01*
X224028000Y-69537580D02*
X212090000Y-69537580D01*
X222488000Y-67997580D02*
X222488000Y-66997580D01*
X222488000Y-68997580D02*
X222488000Y-67997580D01*
X222488000Y-69997580D02*
X222488000Y-68997580D01*
X222488000Y-70997580D02*
X222488000Y-69997580D01*
X222488000Y-71997580D02*
X222488000Y-70997580D01*
X221488000Y-71997580D02*
X222488000Y-71997580D01*
X221488000Y-70997580D02*
X221488000Y-71997580D01*
X221488000Y-69997580D02*
X221488000Y-70997580D01*
X221488000Y-68997580D02*
X221488000Y-69997580D01*
X221488000Y-67997580D02*
X221488000Y-68997580D01*
X221488000Y-67997580D02*
X221488000Y-66997580D01*
X222488000Y-67997580D02*
X221488000Y-67997580D01*
X221488000Y-66997580D02*
X222488000Y-66997580D01*
D22*
X212090000Y-69537580D02*
X200152000Y-69537580D01*
D20*
X193740000Y-71616000D02*
X198073580Y-71616000D01*
D21*
X198073580Y-71616000D02*
X200152000Y-69537580D01*
D20*
X193040000Y-71616000D02*
X193740000Y-71616000D01*
D21*
X195818420Y-69537580D02*
X200152000Y-69537580D01*
D23*
X180594000Y-64396620D02*
X182379620Y-62611000D01*
D21*
X182379620Y-62611000D02*
X183134000Y-62611000D01*
D23*
X180594000Y-71861490D02*
X180594000Y-64396620D01*
D21*
X183134000Y-73406000D02*
X182138510Y-73406000D01*
D23*
X182138510Y-73406000D02*
X180594000Y-71861490D01*
D24*
G36*
X204343000Y-82169000D02*
X204353006Y-82218410D01*
X204381447Y-82260035D01*
X204423841Y-82287315D01*
X204470000Y-82296000D01*
X207519738Y-82296000D01*
X207578530Y-82336171D01*
X207830420Y-82387180D01*
X208729580Y-82387180D01*
X208964897Y-82342902D01*
X209037785Y-82296000D01*
X209042000Y-82296000D01*
X209091410Y-82285994D01*
X209133035Y-82257553D01*
X209158124Y-82218564D01*
X209181021Y-82203830D01*
X209326011Y-81991630D01*
X209377020Y-81739740D01*
X209377020Y-78539340D01*
X209366983Y-78486000D01*
X216281000Y-78486000D01*
X216281000Y-82169000D01*
X216291006Y-82218410D01*
X216319447Y-82260035D01*
X216361841Y-82287315D01*
X216408000Y-82296000D01*
X219457738Y-82296000D01*
X219516530Y-82336171D01*
X219768420Y-82387180D01*
X220667580Y-82387180D01*
X220902897Y-82342902D01*
X220975785Y-82296000D01*
X220980000Y-82296000D01*
X221029410Y-82285994D01*
X221071035Y-82257553D01*
X221096124Y-82218564D01*
X221119021Y-82203830D01*
X221264011Y-81991630D01*
X221315020Y-81739740D01*
X221315020Y-78539340D01*
X221304983Y-78486000D01*
X228346000Y-78486000D01*
X228346000Y-89281000D01*
X181229000Y-89281000D01*
X181229000Y-82296000D01*
X195581738Y-82296000D01*
X195640530Y-82336171D01*
X195892420Y-82387180D01*
X196791580Y-82387180D01*
X197026897Y-82342902D01*
X197099785Y-82296000D01*
X197104000Y-82296000D01*
X197153410Y-82285994D01*
X197195035Y-82257553D01*
X197220124Y-82218564D01*
X197243021Y-82203830D01*
X197388011Y-81991630D01*
X197439020Y-81739740D01*
X197439020Y-78539340D01*
X197428983Y-78486000D01*
X204343000Y-78486000D01*
X204343000Y-82169000D01*
X204343000Y-82169000D01*
G37*
X204343000Y-82169000D02*
X204353006Y-82218410D01*
X204381447Y-82260035D01*
X204423841Y-82287315D01*
X204470000Y-82296000D01*
X207519738Y-82296000D01*
X207578530Y-82336171D01*
X207830420Y-82387180D01*
X208729580Y-82387180D01*
X208964897Y-82342902D01*
X209037785Y-82296000D01*
X209042000Y-82296000D01*
X209091410Y-82285994D01*
X209133035Y-82257553D01*
X209158124Y-82218564D01*
X209181021Y-82203830D01*
X209326011Y-81991630D01*
X209377020Y-81739740D01*
X209377020Y-78539340D01*
X209366983Y-78486000D01*
X216281000Y-78486000D01*
X216281000Y-82169000D01*
X216291006Y-82218410D01*
X216319447Y-82260035D01*
X216361841Y-82287315D01*
X216408000Y-82296000D01*
X219457738Y-82296000D01*
X219516530Y-82336171D01*
X219768420Y-82387180D01*
X220667580Y-82387180D01*
X220902897Y-82342902D01*
X220975785Y-82296000D01*
X220980000Y-82296000D01*
X221029410Y-82285994D01*
X221071035Y-82257553D01*
X221096124Y-82218564D01*
X221119021Y-82203830D01*
X221264011Y-81991630D01*
X221315020Y-81739740D01*
X221315020Y-78539340D01*
X221304983Y-78486000D01*
X228346000Y-78486000D01*
X228346000Y-89281000D01*
X181229000Y-89281000D01*
X181229000Y-82296000D01*
X195581738Y-82296000D01*
X195640530Y-82336171D01*
X195892420Y-82387180D01*
X196791580Y-82387180D01*
X197026897Y-82342902D01*
X197099785Y-82296000D01*
X197104000Y-82296000D01*
X197153410Y-82285994D01*
X197195035Y-82257553D01*
X197220124Y-82218564D01*
X197243021Y-82203830D01*
X197388011Y-81991630D01*
X197439020Y-81739740D01*
X197439020Y-78539340D01*
X197428983Y-78486000D01*
X204343000Y-78486000D01*
X204343000Y-82169000D01*
G36*
X202184000Y-59309000D02*
X181610000Y-59309000D01*
X181610000Y-48768000D01*
X202184000Y-48768000D01*
X202184000Y-59309000D01*
X202184000Y-59309000D01*
G37*
X202184000Y-59309000D02*
X181610000Y-59309000D01*
X181610000Y-48768000D01*
X202184000Y-48768000D01*
X202184000Y-59309000D01*
G36*
X242540000Y-59309000D02*
X221928898Y-59309000D01*
X221928898Y-48768000D01*
X242540000Y-48768000D01*
X242540000Y-59309000D01*
X242540000Y-59309000D01*
G37*
X242540000Y-59309000D02*
X221928898Y-59309000D01*
X221928898Y-48768000D01*
X242540000Y-48768000D01*
X242540000Y-59309000D01*
G36*
X242540000Y-65539049D02*
X242540000Y-88773000D01*
X234696000Y-88773000D01*
X234696000Y-77470000D01*
X234685994Y-77420590D01*
X234643067Y-77366835D01*
X229690067Y-73810835D01*
X229644095Y-73790147D01*
X229616000Y-73787000D01*
X194564000Y-73787000D01*
X194564000Y-65024000D01*
X242127961Y-65024000D01*
X242540000Y-65539049D01*
X242540000Y-65539049D01*
G37*
X242540000Y-65539049D02*
X242540000Y-88773000D01*
X234696000Y-88773000D01*
X234696000Y-77470000D01*
X234685994Y-77420590D01*
X234643067Y-77366835D01*
X229690067Y-73810835D01*
X229644095Y-73790147D01*
X229616000Y-73787000D01*
X194564000Y-73787000D01*
X194564000Y-65024000D01*
X242127961Y-65024000D01*
X242540000Y-65539049D01*
M02*
