G04 #@! TF.GenerationSoftware,KiCad,Pcbnew,(2017-08-25 revision dd37d0595)-makepkg*
G04 #@! TF.CreationDate,2018-04-21T13:49:17-04:00*
G04 #@! TF.ProjectId,Anti-Spark-Switch,416E74692D537061726B2D5377697463,rev?*
G04 #@! TF.SameCoordinates,Original*
G04 #@! TF.FileFunction,Copper,L2,Bot,Signal*
G04 #@! TF.FilePolarity,Positive*
%FSLAX46Y46*%
G04 Gerber Fmt 4.6, Leading zero omitted, Abs format (unit mm)*
G04 Created by KiCad (PCBNEW (2017-08-25 revision dd37d0595)-makepkg) date 04/21/18 13:49:17*
%MOMM*%
%LPD*%
G01*
G04 APERTURE LIST*
%ADD10C,2.300000*%
%ADD11C,4.500000*%
%ADD12O,3.014980X1.506220*%
%ADD13C,0.635000*%
%ADD14C,0.250000*%
%ADD15C,0.254000*%
G04 APERTURE END LIST*
D10*
X225355000Y-57810000D03*
X227895000Y-57810000D03*
X230435000Y-57810000D03*
X230435000Y-55270000D03*
X230435000Y-52730000D03*
X230435000Y-50190000D03*
X222815000Y-57810000D03*
X222815000Y-55270000D03*
X222815000Y-52730000D03*
X222815000Y-50190000D03*
X225355000Y-50190000D03*
X227895000Y-50190000D03*
D11*
X226625000Y-54000000D03*
D10*
X195355000Y-57810000D03*
X197895000Y-57810000D03*
X200435000Y-57810000D03*
X200435000Y-55270000D03*
X200435000Y-52730000D03*
X200435000Y-50190000D03*
X192815000Y-57810000D03*
X192815000Y-55270000D03*
X192815000Y-52730000D03*
X192815000Y-50190000D03*
X195355000Y-50190000D03*
X197895000Y-50190000D03*
D11*
X196625000Y-54000000D03*
D12*
X183413400Y-65227200D03*
X183413400Y-62687200D03*
X183362600Y-73380600D03*
X183362600Y-70840600D03*
X183362600Y-68300600D03*
D13*
X187007000Y-55511200D03*
X186007000Y-55511200D03*
X185007000Y-55511200D03*
X184007000Y-55511200D03*
X183007000Y-55511200D03*
X187007000Y-54511200D03*
X186007000Y-54511200D03*
X185007000Y-54511200D03*
X184007000Y-54511200D03*
X183007000Y-54511200D03*
X187007000Y-53511200D03*
X186007000Y-53511200D03*
X185007000Y-53511200D03*
X184007000Y-53511200D03*
X183007000Y-53511200D03*
X187007000Y-52511200D03*
X186007000Y-52511200D03*
X185007000Y-52511200D03*
X184007000Y-52511200D03*
X183007000Y-52511200D03*
X187007000Y-51511200D03*
X186007000Y-51511200D03*
X185007000Y-51511200D03*
X184007000Y-51511200D03*
X183007000Y-51511200D03*
X191375000Y-74700000D03*
X190600000Y-67125000D03*
X187007000Y-87743800D03*
X186007000Y-87743800D03*
X185007000Y-87743800D03*
X184007000Y-87743800D03*
X183007000Y-87743800D03*
X187007000Y-86743800D03*
X186007000Y-86743800D03*
X185007000Y-86743800D03*
X184007000Y-86743800D03*
X183007000Y-86743800D03*
X187007000Y-85743800D03*
X186007000Y-85743800D03*
X185007000Y-85743800D03*
X184007000Y-85743800D03*
X183007000Y-85743800D03*
X187007000Y-84743800D03*
X186007000Y-84743800D03*
X185007000Y-84743800D03*
X184007000Y-84743800D03*
X183007000Y-84743800D03*
X187007000Y-83743800D03*
X186007000Y-83743800D03*
X185007000Y-83743800D03*
X184007000Y-83743800D03*
X183007000Y-83743800D03*
X198602600Y-88312000D03*
X199618600Y-88312000D03*
X200609200Y-88312000D03*
X201599800Y-88312000D03*
X197612000Y-87325200D03*
X199618600Y-87312000D03*
X200609200Y-87312000D03*
X202612000Y-87299800D03*
X197612000Y-86309200D03*
X198612000Y-86309200D03*
X202612000Y-86309200D03*
X201612000Y-86309200D03*
X197612000Y-85318600D03*
X199618600Y-85312000D03*
X202612000Y-85318600D03*
X201612000Y-85318600D03*
X202612000Y-84302600D03*
X200609200Y-84312000D03*
X199618600Y-84312000D03*
X198602600Y-84312000D03*
X201599800Y-83312000D03*
X200609200Y-83312000D03*
X199618600Y-83312000D03*
X198602600Y-83312000D03*
X214804000Y-87325200D03*
X214804000Y-86309200D03*
X214804000Y-85318600D03*
X213791800Y-88312000D03*
X213804000Y-86309200D03*
X213804000Y-85318600D03*
X209804000Y-87325200D03*
X209804000Y-86309200D03*
X209804000Y-85318600D03*
X212801200Y-88312000D03*
X212801200Y-87312000D03*
X211810600Y-88312000D03*
X211810600Y-87312000D03*
X211804000Y-86312000D03*
X211810600Y-85312000D03*
X210794600Y-88312000D03*
X210804000Y-86309200D03*
X210820000Y-84312000D03*
X211810600Y-84312000D03*
X212801200Y-84312000D03*
X214804000Y-84302600D03*
X210820000Y-83312000D03*
X211810600Y-83312000D03*
X212801200Y-83312000D03*
X213791800Y-83312000D03*
X221615000Y-87325200D03*
X221615000Y-86309200D03*
X221615000Y-85318600D03*
X222605600Y-84312000D03*
X223621600Y-84312000D03*
X224612200Y-84312000D03*
X222615000Y-86309200D03*
X222605600Y-88312000D03*
X223621600Y-88312000D03*
X224612200Y-88312000D03*
X225628200Y-88312000D03*
X223621600Y-85312000D03*
X223621600Y-87312000D03*
X224612200Y-87312000D03*
X225615000Y-86309200D03*
X225615000Y-85318600D03*
X226615000Y-87299800D03*
X226615000Y-86309200D03*
X226615000Y-85318600D03*
X226615000Y-84302600D03*
X225615500Y-83312000D03*
X224612200Y-83312000D03*
X223621600Y-83312000D03*
X222605600Y-83312000D03*
X197612000Y-83312000D03*
X197612000Y-84312000D03*
X198612000Y-87312000D03*
X197612000Y-88312000D03*
X199612000Y-86312000D03*
X198612000Y-85312000D03*
X200612000Y-85312000D03*
X202612000Y-88312000D03*
X201612000Y-87312000D03*
X200612000Y-86312000D03*
X202612000Y-83312000D03*
X201612000Y-84312000D03*
X209804000Y-83312000D03*
X209804000Y-84312000D03*
X210804000Y-87312000D03*
X209804000Y-88312000D03*
X210804000Y-85312000D03*
X212804000Y-85312000D03*
X214804000Y-88312000D03*
X213804000Y-87312000D03*
X212804000Y-86312000D03*
X214804000Y-83312000D03*
X213804000Y-84312000D03*
X226615000Y-88312000D03*
X221615000Y-88312000D03*
X225615000Y-87312000D03*
X222615000Y-87312000D03*
X224615000Y-86312000D03*
X223615000Y-86312000D03*
X224615000Y-85312000D03*
X222615000Y-85312000D03*
X225615000Y-84312000D03*
X221615000Y-84312000D03*
X226615000Y-83312000D03*
X221615000Y-83312000D03*
X241007400Y-55485800D03*
X240007400Y-55485800D03*
X239007400Y-55485800D03*
X238007400Y-55485800D03*
X237007400Y-55485800D03*
X241007400Y-54485800D03*
X240007400Y-54485800D03*
X239007400Y-54485800D03*
X238007400Y-54485800D03*
X237007400Y-54485800D03*
X241007400Y-53485800D03*
X240007400Y-53485800D03*
X239007400Y-53485800D03*
X238007400Y-53485800D03*
X237007400Y-53485800D03*
X241007400Y-52485800D03*
X240007400Y-52485800D03*
X239007400Y-52485800D03*
X238007400Y-52485800D03*
X237007400Y-52485800D03*
X241007400Y-51485800D03*
X240007400Y-51485800D03*
X239007400Y-51485800D03*
X238007400Y-51485800D03*
X237007400Y-51485800D03*
X194325000Y-61525000D03*
X241007400Y-87718400D03*
X240007400Y-87718400D03*
X239007400Y-87718400D03*
X238007400Y-87718400D03*
X237007400Y-87718400D03*
X241007400Y-86718400D03*
X240007400Y-86718400D03*
X239007400Y-86718400D03*
X238007400Y-86718400D03*
X237007400Y-86718400D03*
X241007400Y-85718400D03*
X240007400Y-85718400D03*
X239007400Y-85718400D03*
X238007400Y-85718400D03*
X237007400Y-85718400D03*
X241007400Y-84718400D03*
X240007400Y-84718400D03*
X239007400Y-84718400D03*
X238007400Y-84718400D03*
X237007400Y-84718400D03*
X241007400Y-83718400D03*
X240007400Y-83718400D03*
X239007400Y-83718400D03*
X238007400Y-83718400D03*
X237007400Y-83718400D03*
X197612000Y-69997580D03*
X198612000Y-69997580D03*
X197612000Y-70997580D03*
X197612000Y-71997580D03*
X198612000Y-70997580D03*
X199612000Y-70997580D03*
X198612000Y-71997580D03*
X199612000Y-71997580D03*
X199612000Y-68997580D03*
X200612000Y-69997580D03*
X200612000Y-68997580D03*
X201612000Y-68997580D03*
X199612000Y-69997580D03*
X201612000Y-69997580D03*
X200612000Y-66997580D03*
X202612000Y-67997580D03*
X201612000Y-66997580D03*
X202612000Y-66997580D03*
X200612000Y-67997580D03*
X201612000Y-67997580D03*
X202612000Y-68997580D03*
X202612000Y-69997580D03*
X200612000Y-70997580D03*
X201612000Y-71997580D03*
X202612000Y-70997580D03*
X200612000Y-71997580D03*
X202612000Y-71997580D03*
X201612000Y-70997580D03*
X197612000Y-66997580D03*
X198612000Y-68997580D03*
X198612000Y-66997580D03*
X199612000Y-66997580D03*
X197612000Y-67997580D03*
X198612000Y-67997580D03*
X199612000Y-67997580D03*
X197612000Y-68997580D03*
X214550000Y-71997580D03*
X213550000Y-71997580D03*
X212550000Y-71997580D03*
X211550000Y-71997580D03*
X210550000Y-71997580D03*
X209550000Y-71997580D03*
X214550000Y-70997580D03*
X213550000Y-70997580D03*
X212550000Y-70997580D03*
X211550000Y-70997580D03*
X210550000Y-70997580D03*
X209550000Y-70997580D03*
X214550000Y-69997580D03*
X213550000Y-69997580D03*
X212550000Y-69997580D03*
X211550000Y-69997580D03*
X210550000Y-69997580D03*
X209550000Y-69997580D03*
X214550000Y-68997580D03*
X213550000Y-68997580D03*
X212550000Y-68997580D03*
X211550000Y-68997580D03*
X210550000Y-68997580D03*
X209550000Y-68997580D03*
X214550000Y-67997580D03*
X213550000Y-67997580D03*
X212550000Y-67997580D03*
X211550000Y-67997580D03*
X210550000Y-67997580D03*
X209550000Y-67997580D03*
X214550000Y-66997580D03*
X213550000Y-66997580D03*
X212550000Y-66997580D03*
X211550000Y-66997580D03*
X210550000Y-66997580D03*
X209550000Y-66997580D03*
X226488000Y-71997580D03*
X225488000Y-71997580D03*
X224488000Y-71997580D03*
X223488000Y-71997580D03*
X222488000Y-71997580D03*
X221488000Y-71997580D03*
X226488000Y-70997580D03*
X225488000Y-70997580D03*
X224488000Y-70997580D03*
X223488000Y-70997580D03*
X222488000Y-70997580D03*
X221488000Y-70997580D03*
X226488000Y-69997580D03*
X225488000Y-69997580D03*
X224488000Y-69997580D03*
X223488000Y-69997580D03*
X222488000Y-69997580D03*
X221488000Y-69997580D03*
X226488000Y-68997580D03*
X225488000Y-68997580D03*
X224488000Y-68997580D03*
X223488000Y-68997580D03*
X222488000Y-68997580D03*
X221488000Y-68997580D03*
X226488000Y-67997580D03*
X225488000Y-67997580D03*
X224488000Y-67997580D03*
X223488000Y-67997580D03*
X222488000Y-67997580D03*
X221488000Y-67997580D03*
X226488000Y-66997580D03*
X225488000Y-66997580D03*
X224488000Y-66997580D03*
X223488000Y-66997580D03*
X222488000Y-66997580D03*
X221488000Y-66997580D03*
D14*
X199618600Y-88312000D02*
X198602600Y-88312000D01*
X198602600Y-88312000D02*
X197612000Y-88312000D01*
X198612000Y-87312000D02*
X198612000Y-88302600D01*
X198612000Y-88302600D02*
X198602600Y-88312000D01*
X200609200Y-88312000D02*
X199618600Y-88312000D01*
X199618600Y-87312000D02*
X199618600Y-88312000D01*
X201599800Y-88312000D02*
X200609200Y-88312000D01*
X200609200Y-87312000D02*
X200609200Y-88312000D01*
X202612000Y-88312000D02*
X201599800Y-88312000D01*
X201612000Y-87312000D02*
X201612000Y-88299800D01*
X201612000Y-88299800D02*
X201599800Y-88312000D01*
X197612000Y-88312000D02*
X197612000Y-87325200D01*
X197612000Y-87325200D02*
X197612000Y-86309200D01*
X198612000Y-87312000D02*
X197625200Y-87312000D01*
X197625200Y-87312000D02*
X197612000Y-87325200D01*
X200609200Y-87312000D02*
X199618600Y-87312000D01*
X199618600Y-87312000D02*
X198612000Y-87312000D01*
X199612000Y-86312000D02*
X199612000Y-87305400D01*
X199612000Y-87305400D02*
X199618600Y-87312000D01*
X201612000Y-87312000D02*
X200609200Y-87312000D01*
X200612000Y-86312000D02*
X200612000Y-87309200D01*
X200612000Y-87309200D02*
X200609200Y-87312000D01*
X202612000Y-86309200D02*
X202612000Y-87299800D01*
X202612000Y-87299800D02*
X202612000Y-88312000D01*
X201612000Y-87312000D02*
X202599800Y-87312000D01*
X202599800Y-87312000D02*
X202612000Y-87299800D01*
X197612000Y-86309200D02*
X197612000Y-85318600D01*
X198612000Y-86309200D02*
X197612000Y-86309200D01*
X198612000Y-87312000D02*
X198612000Y-86309200D01*
X198612000Y-86309200D02*
X198612000Y-85312000D01*
X199612000Y-86312000D02*
X198614800Y-86312000D01*
X198614800Y-86312000D02*
X198612000Y-86309200D01*
X202612000Y-85318600D02*
X202612000Y-86309200D01*
X201612000Y-86309200D02*
X202612000Y-86309200D01*
X201612000Y-85318600D02*
X201612000Y-86309200D01*
X201612000Y-86309200D02*
X201612000Y-87312000D01*
X200612000Y-86312000D02*
X201609200Y-86312000D01*
X201609200Y-86312000D02*
X201612000Y-86309200D01*
X197612000Y-85318600D02*
X197612000Y-84312000D01*
X198612000Y-85312000D02*
X197618600Y-85312000D01*
X197618600Y-85312000D02*
X197612000Y-85318600D01*
X198612000Y-85312000D02*
X199618600Y-85312000D01*
X199618600Y-85312000D02*
X200612000Y-85312000D01*
X199618600Y-84312000D02*
X199618600Y-85312000D01*
X202612000Y-84302600D02*
X202612000Y-85318600D01*
X201612000Y-85318600D02*
X202612000Y-85318600D01*
X201612000Y-84312000D02*
X201612000Y-85318600D01*
X202612000Y-83312000D02*
X202612000Y-84302600D01*
X201612000Y-84312000D02*
X202602600Y-84312000D01*
X202602600Y-84312000D02*
X202612000Y-84302600D01*
X201612000Y-84312000D02*
X200609200Y-84312000D01*
X199618600Y-84312000D02*
X200609200Y-84312000D01*
X198602600Y-84312000D02*
X199618600Y-84312000D01*
X197612000Y-84312000D02*
X198602600Y-84312000D01*
X201599800Y-83312000D02*
X202612000Y-83312000D01*
X200609200Y-83312000D02*
X201599800Y-83312000D01*
X199618600Y-83312000D02*
X200609200Y-83312000D01*
X198602600Y-83312000D02*
X199618600Y-83312000D01*
X197612000Y-83312000D02*
X198602600Y-83312000D01*
X214804000Y-87325200D02*
X214804000Y-88312000D01*
X214804000Y-86309200D02*
X214804000Y-87325200D01*
X214804000Y-85318600D02*
X214804000Y-86309200D01*
X214804000Y-84302600D02*
X214804000Y-85318600D01*
X214804000Y-88312000D02*
X213791800Y-88312000D01*
X213791800Y-88312000D02*
X212801200Y-88312000D01*
X213804000Y-87312000D02*
X213804000Y-88299800D01*
X213804000Y-88299800D02*
X213791800Y-88312000D01*
X213804000Y-86309200D02*
X213804000Y-87312000D01*
X213804000Y-85318600D02*
X213804000Y-86309200D01*
X213804000Y-84312000D02*
X213804000Y-85318600D01*
X209804000Y-88312000D02*
X209804000Y-87325200D01*
X209804000Y-86309200D02*
X209804000Y-87325200D01*
X209804000Y-85318600D02*
X209804000Y-86309200D01*
X209804000Y-84312000D02*
X209804000Y-85318600D01*
X212801200Y-88312000D02*
X211810600Y-88312000D01*
X212801200Y-87312000D02*
X212801200Y-88312000D01*
X213804000Y-87312000D02*
X212801200Y-87312000D01*
X212801200Y-87312000D02*
X211810600Y-87312000D01*
X212804000Y-86312000D02*
X212804000Y-87309200D01*
X212804000Y-87309200D02*
X212801200Y-87312000D01*
X211810600Y-88312000D02*
X210794600Y-88312000D01*
X211810600Y-87312000D02*
X211810600Y-88312000D01*
X211810600Y-87312000D02*
X210804000Y-87312000D01*
X211804000Y-86312000D02*
X211804000Y-87305400D01*
X211804000Y-87305400D02*
X211810600Y-87312000D01*
X211810600Y-85312000D02*
X211810600Y-86305400D01*
X211810600Y-86305400D02*
X211804000Y-86312000D01*
X210804000Y-85312000D02*
X211810600Y-85312000D01*
X211810600Y-85312000D02*
X212804000Y-85312000D01*
X211810600Y-84312000D02*
X211810600Y-85312000D01*
X210804000Y-88302600D02*
X210794600Y-88312000D01*
X210794600Y-88312000D02*
X209804000Y-88312000D01*
X210804000Y-87312000D02*
X210804000Y-88302600D01*
X210804000Y-87312000D02*
X210804000Y-86309200D01*
X210804000Y-85312000D02*
X210804000Y-86309200D01*
X210820000Y-84312000D02*
X209804000Y-84312000D01*
X211810600Y-84312000D02*
X210820000Y-84312000D01*
X212801200Y-84312000D02*
X211810600Y-84312000D01*
X213804000Y-84312000D02*
X212801200Y-84312000D01*
X214804000Y-83312000D02*
X214804000Y-84302600D01*
X209804000Y-83312000D02*
X210820000Y-83312000D01*
X211810600Y-83312000D02*
X210820000Y-83312000D01*
X212801200Y-83312000D02*
X211810600Y-83312000D01*
X213791800Y-83312000D02*
X212801200Y-83312000D01*
X214804000Y-83312000D02*
X213791800Y-83312000D01*
X221615000Y-88312000D02*
X221615000Y-87325200D01*
X221615000Y-86334600D02*
X221615000Y-87325200D01*
X221615000Y-85318600D02*
X221615000Y-86334600D01*
X221615000Y-84312000D02*
X221615000Y-85318600D01*
X222605600Y-84312000D02*
X221615000Y-84312000D01*
X223621600Y-84312000D02*
X222605600Y-84312000D01*
X224612200Y-84312000D02*
X223621600Y-84312000D01*
X225615000Y-84312000D02*
X224612200Y-84312000D01*
X222615000Y-87312000D02*
X222615000Y-86309200D01*
X222615000Y-86309200D02*
X222615000Y-85312000D01*
X223615000Y-86312000D02*
X222617800Y-86312000D01*
X222617800Y-86312000D02*
X222615000Y-86309200D01*
X222605600Y-88312000D02*
X221615000Y-88312000D01*
X223621600Y-88312000D02*
X222605600Y-88312000D01*
X224612200Y-88312000D02*
X223621600Y-88312000D01*
X225628200Y-88312000D02*
X224612200Y-88312000D01*
X226615000Y-88312000D02*
X225628200Y-88312000D01*
X222615000Y-85312000D02*
X223621600Y-85312000D01*
X223621600Y-85312000D02*
X224615000Y-85312000D01*
X224612200Y-87312000D02*
X223621600Y-87312000D01*
X223621600Y-87312000D02*
X222615000Y-87312000D01*
X225615000Y-87312000D02*
X224612200Y-87312000D01*
X225615000Y-85318600D02*
X225615000Y-86309200D01*
X225615000Y-86309200D02*
X225615000Y-87312000D01*
X225615000Y-84312000D02*
X225615000Y-85318600D01*
X226615000Y-86309200D02*
X226615000Y-87299800D01*
X226615000Y-87299800D02*
X226615000Y-88312000D01*
X226615000Y-85318600D02*
X226615000Y-86309200D01*
X226615000Y-84302600D02*
X226615000Y-85318600D01*
X226615000Y-83312000D02*
X226615000Y-84302600D01*
X224663000Y-83312000D02*
X225615500Y-83312000D01*
X225615500Y-83312000D02*
X226615000Y-83312000D01*
X223647000Y-83312000D02*
X224663000Y-83312000D01*
X222631000Y-83312000D02*
X223647000Y-83312000D01*
X221615000Y-83312000D02*
X222631000Y-83312000D01*
X209804000Y-83312000D02*
X209504001Y-83012001D01*
X209504001Y-83012001D02*
X202911999Y-83012001D01*
X202911999Y-83012001D02*
X202612000Y-83312000D01*
X221615000Y-83312000D02*
X221240001Y-83686999D01*
X221240001Y-83686999D02*
X215178999Y-83686999D01*
X215178999Y-83686999D02*
X215103999Y-83611999D01*
X215103999Y-83611999D02*
X214804000Y-83312000D01*
X188087000Y-75438000D02*
X188087000Y-75862264D01*
X200612000Y-86312000D02*
X199612000Y-86312000D01*
X200612000Y-86312000D02*
X200612000Y-85312000D01*
X212804000Y-86312000D02*
X211804000Y-86312000D01*
X212804000Y-86312000D02*
X212804000Y-85312000D01*
X224615000Y-86312000D02*
X223615000Y-86312000D01*
X224615000Y-86312000D02*
X224615000Y-85312000D01*
D15*
G36*
X203173000Y-59373000D02*
X180456000Y-59373000D01*
X180456000Y-54521042D01*
X193993545Y-54521042D01*
X194393246Y-55488395D01*
X195132713Y-56229152D01*
X196099366Y-56630542D01*
X197146042Y-56631455D01*
X198113395Y-56231754D01*
X198854152Y-55492287D01*
X199255542Y-54525634D01*
X199256455Y-53478958D01*
X198856754Y-52511605D01*
X198117287Y-51770848D01*
X197150634Y-51369458D01*
X196103958Y-51368545D01*
X195136605Y-51768246D01*
X194395848Y-52507713D01*
X193994458Y-53474366D01*
X193993545Y-54521042D01*
X180456000Y-54521042D01*
X180456000Y-48456000D01*
X203173000Y-48456000D01*
X203173000Y-59373000D01*
X203173000Y-59373000D01*
G37*
X203173000Y-59373000D02*
X180456000Y-59373000D01*
X180456000Y-54521042D01*
X193993545Y-54521042D01*
X194393246Y-55488395D01*
X195132713Y-56229152D01*
X196099366Y-56630542D01*
X197146042Y-56631455D01*
X198113395Y-56231754D01*
X198854152Y-55492287D01*
X199255542Y-54525634D01*
X199256455Y-53478958D01*
X198856754Y-52511605D01*
X198117287Y-51770848D01*
X197150634Y-51369458D01*
X196103958Y-51368545D01*
X195136605Y-51768246D01*
X194395848Y-52507713D01*
X193994458Y-53474366D01*
X193993545Y-54521042D01*
X180456000Y-54521042D01*
X180456000Y-48456000D01*
X203173000Y-48456000D01*
X203173000Y-59373000D01*
G36*
X242794000Y-59373000D02*
X220027000Y-59373000D01*
X220027000Y-54521042D01*
X223993545Y-54521042D01*
X224393246Y-55488395D01*
X225132713Y-56229152D01*
X226099366Y-56630542D01*
X227146042Y-56631455D01*
X228113395Y-56231754D01*
X228854152Y-55492287D01*
X229255542Y-54525634D01*
X229256455Y-53478958D01*
X228856754Y-52511605D01*
X228117287Y-51770848D01*
X227150634Y-51369458D01*
X226103958Y-51368545D01*
X225136605Y-51768246D01*
X224395848Y-52507713D01*
X223994458Y-53474366D01*
X223993545Y-54521042D01*
X220027000Y-54521042D01*
X220027000Y-48456000D01*
X242794000Y-48456000D01*
X242794000Y-59373000D01*
X242794000Y-59373000D01*
G37*
X242794000Y-59373000D02*
X220027000Y-59373000D01*
X220027000Y-54521042D01*
X223993545Y-54521042D01*
X224393246Y-55488395D01*
X225132713Y-56229152D01*
X226099366Y-56630542D01*
X227146042Y-56631455D01*
X228113395Y-56231754D01*
X228854152Y-55492287D01*
X229255542Y-54525634D01*
X229256455Y-53478958D01*
X228856754Y-52511605D01*
X228117287Y-51770848D01*
X227150634Y-51369458D01*
X226103958Y-51368545D01*
X225136605Y-51768246D01*
X224395848Y-52507713D01*
X223994458Y-53474366D01*
X223993545Y-54521042D01*
X220027000Y-54521042D01*
X220027000Y-48456000D01*
X242794000Y-48456000D01*
X242794000Y-59373000D01*
G36*
X242570000Y-88773000D02*
X232918000Y-88773000D01*
X232918000Y-77851000D01*
X232908333Y-77802399D01*
X232865207Y-77747935D01*
X229690207Y-75461935D01*
X229645117Y-75441383D01*
X229616000Y-75438000D01*
X193929000Y-75438000D01*
X193929000Y-61087000D01*
X242570000Y-61087000D01*
X242570000Y-88773000D01*
X242570000Y-88773000D01*
G37*
X242570000Y-88773000D02*
X232918000Y-88773000D01*
X232918000Y-77851000D01*
X232908333Y-77802399D01*
X232865207Y-77747935D01*
X229690207Y-75461935D01*
X229645117Y-75441383D01*
X229616000Y-75438000D01*
X193929000Y-75438000D01*
X193929000Y-61087000D01*
X242570000Y-61087000D01*
X242570000Y-88773000D01*
G36*
X182188017Y-64179419D02*
X181820085Y-64425263D01*
X181574241Y-64793195D01*
X181487912Y-65227200D01*
X181574241Y-65661205D01*
X181820085Y-66029137D01*
X182188017Y-66274981D01*
X182622022Y-66361310D01*
X184204778Y-66361310D01*
X184638783Y-66274981D01*
X185006715Y-66029137D01*
X185252559Y-65661205D01*
X185338888Y-65227200D01*
X185252559Y-64793195D01*
X185006715Y-64425263D01*
X184638783Y-64179419D01*
X184375255Y-64127000D01*
X192273000Y-64127000D01*
X192273000Y-78300000D01*
X192282667Y-78348601D01*
X192310197Y-78389803D01*
X192351399Y-78417333D01*
X192400000Y-78427000D01*
X228373000Y-78427000D01*
X228373000Y-89544000D01*
X181227000Y-89544000D01*
X181227000Y-70840600D01*
X181437112Y-70840600D01*
X181523441Y-71274605D01*
X181769285Y-71642537D01*
X182137217Y-71888381D01*
X182571222Y-71974710D01*
X184153978Y-71974710D01*
X184587983Y-71888381D01*
X184955915Y-71642537D01*
X185201759Y-71274605D01*
X185288088Y-70840600D01*
X185201759Y-70406595D01*
X184955915Y-70038663D01*
X184587983Y-69792819D01*
X184153978Y-69706490D01*
X182571222Y-69706490D01*
X182137217Y-69792819D01*
X181769285Y-70038663D01*
X181523441Y-70406595D01*
X181437112Y-70840600D01*
X181227000Y-70840600D01*
X181227000Y-68300600D01*
X181437112Y-68300600D01*
X181523441Y-68734605D01*
X181769285Y-69102537D01*
X182137217Y-69348381D01*
X182571222Y-69434710D01*
X184153978Y-69434710D01*
X184587983Y-69348381D01*
X184955915Y-69102537D01*
X185201759Y-68734605D01*
X185288088Y-68300600D01*
X185201759Y-67866595D01*
X184955915Y-67498663D01*
X184587983Y-67252819D01*
X184153978Y-67166490D01*
X182571222Y-67166490D01*
X182137217Y-67252819D01*
X181769285Y-67498663D01*
X181523441Y-67866595D01*
X181437112Y-68300600D01*
X181227000Y-68300600D01*
X181227000Y-64127000D01*
X182451545Y-64127000D01*
X182188017Y-64179419D01*
X182188017Y-64179419D01*
G37*
X182188017Y-64179419D02*
X181820085Y-64425263D01*
X181574241Y-64793195D01*
X181487912Y-65227200D01*
X181574241Y-65661205D01*
X181820085Y-66029137D01*
X182188017Y-66274981D01*
X182622022Y-66361310D01*
X184204778Y-66361310D01*
X184638783Y-66274981D01*
X185006715Y-66029137D01*
X185252559Y-65661205D01*
X185338888Y-65227200D01*
X185252559Y-64793195D01*
X185006715Y-64425263D01*
X184638783Y-64179419D01*
X184375255Y-64127000D01*
X192273000Y-64127000D01*
X192273000Y-78300000D01*
X192282667Y-78348601D01*
X192310197Y-78389803D01*
X192351399Y-78417333D01*
X192400000Y-78427000D01*
X228373000Y-78427000D01*
X228373000Y-89544000D01*
X181227000Y-89544000D01*
X181227000Y-70840600D01*
X181437112Y-70840600D01*
X181523441Y-71274605D01*
X181769285Y-71642537D01*
X182137217Y-71888381D01*
X182571222Y-71974710D01*
X184153978Y-71974710D01*
X184587983Y-71888381D01*
X184955915Y-71642537D01*
X185201759Y-71274605D01*
X185288088Y-70840600D01*
X185201759Y-70406595D01*
X184955915Y-70038663D01*
X184587983Y-69792819D01*
X184153978Y-69706490D01*
X182571222Y-69706490D01*
X182137217Y-69792819D01*
X181769285Y-70038663D01*
X181523441Y-70406595D01*
X181437112Y-70840600D01*
X181227000Y-70840600D01*
X181227000Y-68300600D01*
X181437112Y-68300600D01*
X181523441Y-68734605D01*
X181769285Y-69102537D01*
X182137217Y-69348381D01*
X182571222Y-69434710D01*
X184153978Y-69434710D01*
X184587983Y-69348381D01*
X184955915Y-69102537D01*
X185201759Y-68734605D01*
X185288088Y-68300600D01*
X185201759Y-67866595D01*
X184955915Y-67498663D01*
X184587983Y-67252819D01*
X184153978Y-67166490D01*
X182571222Y-67166490D01*
X182137217Y-67252819D01*
X181769285Y-67498663D01*
X181523441Y-67866595D01*
X181437112Y-68300600D01*
X181227000Y-68300600D01*
X181227000Y-64127000D01*
X182451545Y-64127000D01*
X182188017Y-64179419D01*
M02*
