G04 #@! TF.FileFunction,Copper,L2,Bot,Signal*
%FSLAX46Y46*%
G04 Gerber Fmt 4.6, Leading zero omitted, Abs format (unit mm)*
G04 Created by KiCad (PCBNEW 4.0.2-stable) date 9/23/2016 4:14:50 PM*
%MOMM*%
G01*
G04 APERTURE LIST*
%ADD10C,0.100000*%
%ADD11O,3.014980X1.506220*%
%ADD12C,2.100000*%
%ADD13C,0.600000*%
%ADD14C,0.250000*%
%ADD15C,0.254000*%
G04 APERTURE END LIST*
D10*
D11*
X183362600Y-73380600D03*
X183362600Y-70840600D03*
X183362600Y-67818000D03*
X183362600Y-65278000D03*
X183362600Y-62738000D03*
D12*
X225730000Y-57810000D03*
X228270000Y-57810000D03*
X230810000Y-57810000D03*
X230810000Y-55270000D03*
X230810000Y-52730000D03*
X230810000Y-50190000D03*
X223190000Y-57810000D03*
X223190000Y-55270000D03*
X223190000Y-52730000D03*
X223190000Y-50190000D03*
X225730000Y-50190000D03*
X228270000Y-50190000D03*
X195730000Y-57810000D03*
X198270000Y-57810000D03*
X200810000Y-57810000D03*
X200810000Y-55270000D03*
X200810000Y-52730000D03*
X200810000Y-50190000D03*
X193190000Y-57810000D03*
X193190000Y-55270000D03*
X193190000Y-52730000D03*
X193190000Y-50190000D03*
X195730000Y-50190000D03*
X198270000Y-50190000D03*
D13*
X187007000Y-55511200D03*
X186007000Y-55511200D03*
X185007000Y-55511200D03*
X184007000Y-55511200D03*
X183007000Y-55511200D03*
X187007000Y-54511200D03*
X186007000Y-54511200D03*
X185007000Y-54511200D03*
X184007000Y-54511200D03*
X183007000Y-54511200D03*
X187007000Y-53511200D03*
X186007000Y-53511200D03*
X185007000Y-53511200D03*
X184007000Y-53511200D03*
X183007000Y-53511200D03*
X187007000Y-52511200D03*
X186007000Y-52511200D03*
X185007000Y-52511200D03*
X184007000Y-52511200D03*
X183007000Y-52511200D03*
X187007000Y-51511200D03*
X186007000Y-51511200D03*
X185007000Y-51511200D03*
X184007000Y-51511200D03*
X183007000Y-51511200D03*
X187007000Y-87743800D03*
X186007000Y-87743800D03*
X185007000Y-87743800D03*
X184007000Y-87743800D03*
X183007000Y-87743800D03*
X187007000Y-86743800D03*
X186007000Y-86743800D03*
X185007000Y-86743800D03*
X184007000Y-86743800D03*
X183007000Y-86743800D03*
X187007000Y-85743800D03*
X186007000Y-85743800D03*
X185007000Y-85743800D03*
X184007000Y-85743800D03*
X183007000Y-85743800D03*
X187007000Y-84743800D03*
X186007000Y-84743800D03*
X185007000Y-84743800D03*
X184007000Y-84743800D03*
X183007000Y-84743800D03*
X187007000Y-83743800D03*
X186007000Y-83743800D03*
X185007000Y-83743800D03*
X184007000Y-83743800D03*
X183007000Y-83743800D03*
X198602600Y-88312000D03*
X199618600Y-88312000D03*
X200609200Y-88312000D03*
X201599800Y-88312000D03*
X197612000Y-87325200D03*
X199618600Y-87312000D03*
X200609200Y-87312000D03*
X202612000Y-87299800D03*
X197612000Y-86309200D03*
X198612000Y-86309200D03*
X202612000Y-86309200D03*
X201612000Y-86309200D03*
X197612000Y-85318600D03*
X199618600Y-85312000D03*
X202612000Y-85318600D03*
X201612000Y-85318600D03*
X202612000Y-84302600D03*
X200609200Y-84312000D03*
X199618600Y-84312000D03*
X198602600Y-84312000D03*
X201599800Y-83312000D03*
X200609200Y-83312000D03*
X199618600Y-83312000D03*
X198602600Y-83312000D03*
X214804000Y-87325200D03*
X214804000Y-86309200D03*
X214804000Y-85318600D03*
X213791800Y-88312000D03*
X213804000Y-86309200D03*
X213804000Y-85318600D03*
X209804000Y-87325200D03*
X209804000Y-86309200D03*
X209804000Y-85318600D03*
X212801200Y-88312000D03*
X212801200Y-87312000D03*
X211810600Y-88312000D03*
X211810600Y-87312000D03*
X211804000Y-86312000D03*
X211810600Y-85312000D03*
X210794600Y-88312000D03*
X210804000Y-86309200D03*
X210820000Y-84312000D03*
X211810600Y-84312000D03*
X212801200Y-84312000D03*
X214804000Y-84302600D03*
X210820000Y-83312000D03*
X211810600Y-83312000D03*
X212801200Y-83312000D03*
X213791800Y-83312000D03*
X221615000Y-87325200D03*
X221615000Y-86309200D03*
X221615000Y-85318600D03*
X222605600Y-84312000D03*
X223621600Y-84312000D03*
X224612200Y-84312000D03*
X222615000Y-86309200D03*
X222605600Y-88312000D03*
X223621600Y-88312000D03*
X224612200Y-88312000D03*
X225628200Y-88312000D03*
X223621600Y-85312000D03*
X223621600Y-87312000D03*
X224612200Y-87312000D03*
X225615000Y-86309200D03*
X225615000Y-85318600D03*
X226615000Y-87299800D03*
X226615000Y-86309200D03*
X226615000Y-85318600D03*
X226615000Y-84302600D03*
X225615500Y-83312000D03*
X224612200Y-83312000D03*
X223621600Y-83312000D03*
X222605600Y-83312000D03*
X187706000Y-68834000D03*
X188087000Y-75438000D03*
X197612000Y-83312000D03*
X197612000Y-84312000D03*
X198612000Y-87312000D03*
X197612000Y-88312000D03*
X199612000Y-86312000D03*
X198612000Y-85312000D03*
X200612000Y-85312000D03*
X202612000Y-88312000D03*
X201612000Y-87312000D03*
X200612000Y-86312000D03*
X202612000Y-83312000D03*
X201612000Y-84312000D03*
X209804000Y-83312000D03*
X209804000Y-84312000D03*
X210804000Y-87312000D03*
X209804000Y-88312000D03*
X210804000Y-85312000D03*
X212804000Y-85312000D03*
X214804000Y-88312000D03*
X213804000Y-87312000D03*
X212804000Y-86312000D03*
X214804000Y-83312000D03*
X213804000Y-84312000D03*
X226615000Y-88312000D03*
X221615000Y-88312000D03*
X225615000Y-87312000D03*
X222615000Y-87312000D03*
X224615000Y-86312000D03*
X223615000Y-86312000D03*
X224615000Y-85312000D03*
X222615000Y-85312000D03*
X225615000Y-84312000D03*
X221615000Y-84312000D03*
X226615000Y-83312000D03*
X221615000Y-83312000D03*
X241007400Y-55485800D03*
X240007400Y-55485800D03*
X239007400Y-55485800D03*
X238007400Y-55485800D03*
X237007400Y-55485800D03*
X241007400Y-54485800D03*
X240007400Y-54485800D03*
X239007400Y-54485800D03*
X238007400Y-54485800D03*
X237007400Y-54485800D03*
X241007400Y-53485800D03*
X240007400Y-53485800D03*
X239007400Y-53485800D03*
X238007400Y-53485800D03*
X237007400Y-53485800D03*
X241007400Y-52485800D03*
X240007400Y-52485800D03*
X239007400Y-52485800D03*
X238007400Y-52485800D03*
X237007400Y-52485800D03*
X241007400Y-51485800D03*
X240007400Y-51485800D03*
X239007400Y-51485800D03*
X238007400Y-51485800D03*
X237007400Y-51485800D03*
X241007400Y-87718400D03*
X240007400Y-87718400D03*
X239007400Y-87718400D03*
X238007400Y-87718400D03*
X237007400Y-87718400D03*
X241007400Y-86718400D03*
X240007400Y-86718400D03*
X239007400Y-86718400D03*
X238007400Y-86718400D03*
X237007400Y-86718400D03*
X241007400Y-85718400D03*
X240007400Y-85718400D03*
X239007400Y-85718400D03*
X238007400Y-85718400D03*
X237007400Y-85718400D03*
X241007400Y-84718400D03*
X240007400Y-84718400D03*
X239007400Y-84718400D03*
X238007400Y-84718400D03*
X237007400Y-84718400D03*
X241007400Y-83718400D03*
X240007400Y-83718400D03*
X239007400Y-83718400D03*
X238007400Y-83718400D03*
X237007400Y-83718400D03*
X197612000Y-69997580D03*
X198612000Y-69997580D03*
X197612000Y-70997580D03*
X197612000Y-71997580D03*
X198612000Y-70997580D03*
X199612000Y-70997580D03*
X198612000Y-71997580D03*
X199612000Y-71997580D03*
X199612000Y-68997580D03*
X200612000Y-69997580D03*
X200612000Y-68997580D03*
X201612000Y-68997580D03*
X199612000Y-69997580D03*
X201612000Y-69997580D03*
X200612000Y-66997580D03*
X202612000Y-67997580D03*
X201612000Y-66997580D03*
X202612000Y-66997580D03*
X200612000Y-67997580D03*
X201612000Y-67997580D03*
X202612000Y-68997580D03*
X202612000Y-69997580D03*
X200612000Y-70997580D03*
X201612000Y-71997580D03*
X202612000Y-70997580D03*
X200612000Y-71997580D03*
X202612000Y-71997580D03*
X201612000Y-70997580D03*
X197612000Y-66997580D03*
X198612000Y-68997580D03*
X198612000Y-66997580D03*
X199612000Y-66997580D03*
X197612000Y-67997580D03*
X198612000Y-67997580D03*
X199612000Y-67997580D03*
X197612000Y-68997580D03*
X214550000Y-71997580D03*
X213550000Y-71997580D03*
X212550000Y-71997580D03*
X211550000Y-71997580D03*
X210550000Y-71997580D03*
X209550000Y-71997580D03*
X214550000Y-70997580D03*
X213550000Y-70997580D03*
X212550000Y-70997580D03*
X211550000Y-70997580D03*
X210550000Y-70997580D03*
X209550000Y-70997580D03*
X214550000Y-69997580D03*
X213550000Y-69997580D03*
X212550000Y-69997580D03*
X211550000Y-69997580D03*
X210550000Y-69997580D03*
X209550000Y-69997580D03*
X214550000Y-68997580D03*
X213550000Y-68997580D03*
X212550000Y-68997580D03*
X211550000Y-68997580D03*
X210550000Y-68997580D03*
X209550000Y-68997580D03*
X214550000Y-67997580D03*
X213550000Y-67997580D03*
X212550000Y-67997580D03*
X211550000Y-67997580D03*
X210550000Y-67997580D03*
X209550000Y-67997580D03*
X214550000Y-66997580D03*
X213550000Y-66997580D03*
X212550000Y-66997580D03*
X211550000Y-66997580D03*
X210550000Y-66997580D03*
X209550000Y-66997580D03*
X226488000Y-71997580D03*
X225488000Y-71997580D03*
X224488000Y-71997580D03*
X223488000Y-71997580D03*
X222488000Y-71997580D03*
X221488000Y-71997580D03*
X226488000Y-70997580D03*
X225488000Y-70997580D03*
X224488000Y-70997580D03*
X223488000Y-70997580D03*
X222488000Y-70997580D03*
X221488000Y-70997580D03*
X226488000Y-69997580D03*
X225488000Y-69997580D03*
X224488000Y-69997580D03*
X223488000Y-69997580D03*
X222488000Y-69997580D03*
X221488000Y-69997580D03*
X226488000Y-68997580D03*
X225488000Y-68997580D03*
X224488000Y-68997580D03*
X223488000Y-68997580D03*
X222488000Y-68997580D03*
X221488000Y-68997580D03*
X226488000Y-67997580D03*
X225488000Y-67997580D03*
X224488000Y-67997580D03*
X223488000Y-67997580D03*
X222488000Y-67997580D03*
X221488000Y-67997580D03*
X226488000Y-66997580D03*
X225488000Y-66997580D03*
X224488000Y-66997580D03*
X223488000Y-66997580D03*
X222488000Y-66997580D03*
X221488000Y-66997580D03*
D14*
X199618600Y-88312000D02*
X198602600Y-88312000D01*
X198602600Y-88312000D02*
X197612000Y-88312000D01*
X198612000Y-87312000D02*
X198612000Y-88302600D01*
X198612000Y-88302600D02*
X198602600Y-88312000D01*
X200609200Y-88312000D02*
X199618600Y-88312000D01*
X199618600Y-87312000D02*
X199618600Y-88312000D01*
X201599800Y-88312000D02*
X200609200Y-88312000D01*
X200609200Y-87312000D02*
X200609200Y-88312000D01*
X202612000Y-88312000D02*
X201599800Y-88312000D01*
X201612000Y-87312000D02*
X201612000Y-88299800D01*
X201612000Y-88299800D02*
X201599800Y-88312000D01*
X197612000Y-88312000D02*
X197612000Y-87325200D01*
X197612000Y-87325200D02*
X197612000Y-86309200D01*
X198612000Y-87312000D02*
X197625200Y-87312000D01*
X197625200Y-87312000D02*
X197612000Y-87325200D01*
X200609200Y-87312000D02*
X199618600Y-87312000D01*
X199618600Y-87312000D02*
X198612000Y-87312000D01*
X199612000Y-86312000D02*
X199612000Y-87305400D01*
X199612000Y-87305400D02*
X199618600Y-87312000D01*
X201612000Y-87312000D02*
X200609200Y-87312000D01*
X200612000Y-86312000D02*
X200612000Y-87309200D01*
X200612000Y-87309200D02*
X200609200Y-87312000D01*
X202612000Y-86309200D02*
X202612000Y-87299800D01*
X202612000Y-87299800D02*
X202612000Y-88312000D01*
X201612000Y-87312000D02*
X202599800Y-87312000D01*
X202599800Y-87312000D02*
X202612000Y-87299800D01*
X197612000Y-86309200D02*
X197612000Y-85318600D01*
X198612000Y-86309200D02*
X197612000Y-86309200D01*
X198612000Y-87312000D02*
X198612000Y-86309200D01*
X198612000Y-86309200D02*
X198612000Y-85312000D01*
X199612000Y-86312000D02*
X198614800Y-86312000D01*
X198614800Y-86312000D02*
X198612000Y-86309200D01*
X202612000Y-85318600D02*
X202612000Y-86309200D01*
X201612000Y-86309200D02*
X202612000Y-86309200D01*
X201612000Y-85318600D02*
X201612000Y-86309200D01*
X201612000Y-86309200D02*
X201612000Y-87312000D01*
X200612000Y-86312000D02*
X201609200Y-86312000D01*
X201609200Y-86312000D02*
X201612000Y-86309200D01*
X197612000Y-85318600D02*
X197612000Y-84312000D01*
X198612000Y-85312000D02*
X197618600Y-85312000D01*
X197618600Y-85312000D02*
X197612000Y-85318600D01*
X198612000Y-85312000D02*
X199618600Y-85312000D01*
X199618600Y-85312000D02*
X200612000Y-85312000D01*
X199618600Y-84312000D02*
X199618600Y-85312000D01*
X202612000Y-84302600D02*
X202612000Y-85318600D01*
X201612000Y-85318600D02*
X202612000Y-85318600D01*
X201612000Y-84312000D02*
X201612000Y-85318600D01*
X202612000Y-83312000D02*
X202612000Y-84302600D01*
X201612000Y-84312000D02*
X202602600Y-84312000D01*
X202602600Y-84312000D02*
X202612000Y-84302600D01*
X201612000Y-84312000D02*
X200609200Y-84312000D01*
X199618600Y-84312000D02*
X200609200Y-84312000D01*
X198602600Y-84312000D02*
X199618600Y-84312000D01*
X197612000Y-84312000D02*
X198602600Y-84312000D01*
X201599800Y-83312000D02*
X202612000Y-83312000D01*
X200609200Y-83312000D02*
X201599800Y-83312000D01*
X199618600Y-83312000D02*
X200609200Y-83312000D01*
X198602600Y-83312000D02*
X199618600Y-83312000D01*
X197612000Y-83312000D02*
X198602600Y-83312000D01*
X214804000Y-87325200D02*
X214804000Y-88312000D01*
X214804000Y-86309200D02*
X214804000Y-87325200D01*
X214804000Y-85318600D02*
X214804000Y-86309200D01*
X214804000Y-84302600D02*
X214804000Y-85318600D01*
X214804000Y-88312000D02*
X213791800Y-88312000D01*
X213791800Y-88312000D02*
X212801200Y-88312000D01*
X213804000Y-87312000D02*
X213804000Y-88299800D01*
X213804000Y-88299800D02*
X213791800Y-88312000D01*
X213804000Y-86309200D02*
X213804000Y-87312000D01*
X213804000Y-85318600D02*
X213804000Y-86309200D01*
X213804000Y-84312000D02*
X213804000Y-85318600D01*
X209804000Y-88312000D02*
X209804000Y-87325200D01*
X209804000Y-86309200D02*
X209804000Y-87325200D01*
X209804000Y-85318600D02*
X209804000Y-86309200D01*
X209804000Y-84312000D02*
X209804000Y-85318600D01*
X212801200Y-88312000D02*
X211810600Y-88312000D01*
X212801200Y-87312000D02*
X212801200Y-88312000D01*
X213804000Y-87312000D02*
X212801200Y-87312000D01*
X212801200Y-87312000D02*
X211810600Y-87312000D01*
X212804000Y-86312000D02*
X212804000Y-87309200D01*
X212804000Y-87309200D02*
X212801200Y-87312000D01*
X211810600Y-88312000D02*
X210794600Y-88312000D01*
X211810600Y-87312000D02*
X211810600Y-88312000D01*
X211810600Y-87312000D02*
X210804000Y-87312000D01*
X211804000Y-86312000D02*
X211804000Y-87305400D01*
X211804000Y-87305400D02*
X211810600Y-87312000D01*
X211810600Y-85312000D02*
X211810600Y-86305400D01*
X211810600Y-86305400D02*
X211804000Y-86312000D01*
X210804000Y-85312000D02*
X211810600Y-85312000D01*
X211810600Y-85312000D02*
X212804000Y-85312000D01*
X211810600Y-84312000D02*
X211810600Y-85312000D01*
X210804000Y-88302600D02*
X210794600Y-88312000D01*
X210794600Y-88312000D02*
X209804000Y-88312000D01*
X210804000Y-87312000D02*
X210804000Y-88302600D01*
X210804000Y-87312000D02*
X210804000Y-86309200D01*
X210804000Y-85312000D02*
X210804000Y-86309200D01*
X210820000Y-84312000D02*
X209804000Y-84312000D01*
X211810600Y-84312000D02*
X210820000Y-84312000D01*
X212801200Y-84312000D02*
X211810600Y-84312000D01*
X213804000Y-84312000D02*
X212801200Y-84312000D01*
X214804000Y-83312000D02*
X214804000Y-84302600D01*
X209804000Y-83312000D02*
X210820000Y-83312000D01*
X211810600Y-83312000D02*
X210820000Y-83312000D01*
X212801200Y-83312000D02*
X211810600Y-83312000D01*
X213791800Y-83312000D02*
X212801200Y-83312000D01*
X214804000Y-83312000D02*
X213791800Y-83312000D01*
X221615000Y-88312000D02*
X221615000Y-87325200D01*
X221615000Y-86334600D02*
X221615000Y-87325200D01*
X221615000Y-85318600D02*
X221615000Y-86334600D01*
X221615000Y-84312000D02*
X221615000Y-85318600D01*
X222605600Y-84312000D02*
X221615000Y-84312000D01*
X223621600Y-84312000D02*
X222605600Y-84312000D01*
X224612200Y-84312000D02*
X223621600Y-84312000D01*
X225615000Y-84312000D02*
X224612200Y-84312000D01*
X222615000Y-87312000D02*
X222615000Y-86309200D01*
X222615000Y-86309200D02*
X222615000Y-85312000D01*
X223615000Y-86312000D02*
X222617800Y-86312000D01*
X222617800Y-86312000D02*
X222615000Y-86309200D01*
X222605600Y-88312000D02*
X221615000Y-88312000D01*
X223621600Y-88312000D02*
X222605600Y-88312000D01*
X224612200Y-88312000D02*
X223621600Y-88312000D01*
X225628200Y-88312000D02*
X224612200Y-88312000D01*
X226615000Y-88312000D02*
X225628200Y-88312000D01*
X222615000Y-85312000D02*
X223621600Y-85312000D01*
X223621600Y-85312000D02*
X224615000Y-85312000D01*
X224612200Y-87312000D02*
X223621600Y-87312000D01*
X223621600Y-87312000D02*
X222615000Y-87312000D01*
X225615000Y-87312000D02*
X224612200Y-87312000D01*
X225615000Y-85318600D02*
X225615000Y-86309200D01*
X225615000Y-86309200D02*
X225615000Y-87312000D01*
X225615000Y-84312000D02*
X225615000Y-85318600D01*
X226615000Y-86309200D02*
X226615000Y-87299800D01*
X226615000Y-87299800D02*
X226615000Y-88312000D01*
X226615000Y-85318600D02*
X226615000Y-86309200D01*
X226615000Y-84302600D02*
X226615000Y-85318600D01*
X226615000Y-83312000D02*
X226615000Y-84302600D01*
X224663000Y-83312000D02*
X225615500Y-83312000D01*
X225615500Y-83312000D02*
X226615000Y-83312000D01*
X223647000Y-83312000D02*
X224663000Y-83312000D01*
X222631000Y-83312000D02*
X223647000Y-83312000D01*
X221615000Y-83312000D02*
X222631000Y-83312000D01*
X209804000Y-83312000D02*
X209504001Y-83012001D01*
X209504001Y-83012001D02*
X202911999Y-83012001D01*
X202911999Y-83012001D02*
X202612000Y-83312000D01*
X221615000Y-83312000D02*
X221240001Y-83686999D01*
X221240001Y-83686999D02*
X215178999Y-83686999D01*
X215178999Y-83686999D02*
X215103999Y-83611999D01*
X215103999Y-83611999D02*
X214804000Y-83312000D01*
X188087000Y-75438000D02*
X188087000Y-75862264D01*
X200612000Y-86312000D02*
X199612000Y-86312000D01*
X200612000Y-86312000D02*
X200612000Y-85312000D01*
X212804000Y-86312000D02*
X211804000Y-86312000D01*
X212804000Y-86312000D02*
X212804000Y-85312000D01*
X224615000Y-86312000D02*
X223615000Y-86312000D01*
X224615000Y-86312000D02*
X224615000Y-85312000D01*
D15*
G36*
X202184000Y-59309000D02*
X181610000Y-59309000D01*
X181610000Y-48768000D01*
X202184000Y-48768000D01*
X202184000Y-59309000D01*
X202184000Y-59309000D01*
G37*
X202184000Y-59309000D02*
X181610000Y-59309000D01*
X181610000Y-48768000D01*
X202184000Y-48768000D01*
X202184000Y-59309000D01*
G36*
X242540000Y-59309000D02*
X221928898Y-59309000D01*
X221928898Y-48768000D01*
X242540000Y-48768000D01*
X242540000Y-59309000D01*
X242540000Y-59309000D01*
G37*
X242540000Y-59309000D02*
X221928898Y-59309000D01*
X221928898Y-48768000D01*
X242540000Y-48768000D01*
X242540000Y-59309000D01*
G36*
X242540000Y-88773000D02*
X232918000Y-88773000D01*
X232918000Y-77851000D01*
X232907994Y-77801590D01*
X232865207Y-77747935D01*
X229690207Y-75461935D01*
X229644262Y-75441185D01*
X229616000Y-75438000D01*
X193929000Y-75438000D01*
X193929000Y-61087000D01*
X242540000Y-61087000D01*
X242540000Y-88773000D01*
X242540000Y-88773000D01*
G37*
X242540000Y-88773000D02*
X232918000Y-88773000D01*
X232918000Y-77851000D01*
X232907994Y-77801590D01*
X232865207Y-77747935D01*
X229690207Y-75461935D01*
X229644262Y-75441185D01*
X229616000Y-75438000D01*
X193929000Y-75438000D01*
X193929000Y-61087000D01*
X242540000Y-61087000D01*
X242540000Y-88773000D01*
G36*
X192278000Y-78359000D02*
X192288006Y-78408410D01*
X192316447Y-78450035D01*
X192358841Y-78477315D01*
X192405000Y-78486000D01*
X228346000Y-78486000D01*
X228346000Y-89281000D01*
X181229000Y-89281000D01*
X181229000Y-73636310D01*
X181283800Y-73911807D01*
X181584704Y-74362142D01*
X182035039Y-74663046D01*
X182566246Y-74768710D01*
X184158954Y-74768710D01*
X184690161Y-74663046D01*
X185140496Y-74362142D01*
X185441400Y-73911807D01*
X185547064Y-73380600D01*
X185441400Y-72849393D01*
X185140496Y-72399058D01*
X184690161Y-72098154D01*
X184158954Y-71992490D01*
X182566246Y-71992490D01*
X182035039Y-72098154D01*
X181584704Y-72399058D01*
X181283800Y-72849393D01*
X181229000Y-73124890D01*
X181229000Y-65533710D01*
X181283800Y-65809207D01*
X181584704Y-66259542D01*
X182035039Y-66560446D01*
X182566246Y-66666110D01*
X184158954Y-66666110D01*
X184690161Y-66560446D01*
X185140496Y-66259542D01*
X185441400Y-65809207D01*
X185547064Y-65278000D01*
X185441400Y-64746793D01*
X185140496Y-64296458D01*
X184708788Y-64008000D01*
X185140496Y-63719542D01*
X185441400Y-63269207D01*
X185547064Y-62738000D01*
X185441400Y-62206793D01*
X185140496Y-61756458D01*
X184690161Y-61455554D01*
X184158954Y-61349890D01*
X182566246Y-61349890D01*
X182035039Y-61455554D01*
X181584704Y-61756458D01*
X181283800Y-62206793D01*
X181229000Y-62482290D01*
X181229000Y-61087000D01*
X192278000Y-61087000D01*
X192278000Y-78359000D01*
X192278000Y-78359000D01*
G37*
X192278000Y-78359000D02*
X192288006Y-78408410D01*
X192316447Y-78450035D01*
X192358841Y-78477315D01*
X192405000Y-78486000D01*
X228346000Y-78486000D01*
X228346000Y-89281000D01*
X181229000Y-89281000D01*
X181229000Y-73636310D01*
X181283800Y-73911807D01*
X181584704Y-74362142D01*
X182035039Y-74663046D01*
X182566246Y-74768710D01*
X184158954Y-74768710D01*
X184690161Y-74663046D01*
X185140496Y-74362142D01*
X185441400Y-73911807D01*
X185547064Y-73380600D01*
X185441400Y-72849393D01*
X185140496Y-72399058D01*
X184690161Y-72098154D01*
X184158954Y-71992490D01*
X182566246Y-71992490D01*
X182035039Y-72098154D01*
X181584704Y-72399058D01*
X181283800Y-72849393D01*
X181229000Y-73124890D01*
X181229000Y-65533710D01*
X181283800Y-65809207D01*
X181584704Y-66259542D01*
X182035039Y-66560446D01*
X182566246Y-66666110D01*
X184158954Y-66666110D01*
X184690161Y-66560446D01*
X185140496Y-66259542D01*
X185441400Y-65809207D01*
X185547064Y-65278000D01*
X185441400Y-64746793D01*
X185140496Y-64296458D01*
X184708788Y-64008000D01*
X185140496Y-63719542D01*
X185441400Y-63269207D01*
X185547064Y-62738000D01*
X185441400Y-62206793D01*
X185140496Y-61756458D01*
X184690161Y-61455554D01*
X184158954Y-61349890D01*
X182566246Y-61349890D01*
X182035039Y-61455554D01*
X181584704Y-61756458D01*
X181283800Y-62206793D01*
X181229000Y-62482290D01*
X181229000Y-61087000D01*
X192278000Y-61087000D01*
X192278000Y-78359000D01*
M02*
