G04 #@! TF.FileFunction,Legend,Top*
%FSLAX46Y46*%
G04 Gerber Fmt 4.6, Leading zero omitted, Abs format (unit mm)*
G04 Created by KiCad (PCBNEW 4.0.2-stable) date 9/23/2016 4:14:50 PM*
%MOMM*%
G01*
G04 APERTURE LIST*
%ADD10C,0.100000*%
%ADD11C,0.187500*%
%ADD12C,0.300000*%
%ADD13C,0.150000*%
%ADD14C,0.381000*%
%ADD15C,0.050000*%
%ADD16C,0.125000*%
%ADD17C,0.304800*%
G04 APERTURE END LIST*
D10*
D11*
X181299200Y-75602543D02*
X181334914Y-75531114D01*
X181334914Y-75423971D01*
X181299200Y-75316828D01*
X181227771Y-75245400D01*
X181156343Y-75209685D01*
X181013486Y-75173971D01*
X180906343Y-75173971D01*
X180763486Y-75209685D01*
X180692057Y-75245400D01*
X180620629Y-75316828D01*
X180584914Y-75423971D01*
X180584914Y-75495400D01*
X180620629Y-75602543D01*
X180656343Y-75638257D01*
X180906343Y-75638257D01*
X180906343Y-75495400D01*
X180584914Y-75959685D02*
X181334914Y-75959685D01*
X180584914Y-76388257D01*
X181334914Y-76388257D01*
X180584914Y-76745399D02*
X181334914Y-76745399D01*
X181334914Y-76923971D01*
X181299200Y-77031114D01*
X181227771Y-77102542D01*
X181156343Y-77138257D01*
X181013486Y-77173971D01*
X180906343Y-77173971D01*
X180763486Y-77138257D01*
X180692057Y-77102542D01*
X180620629Y-77031114D01*
X180584914Y-76923971D01*
X180584914Y-76745399D01*
X180584914Y-78459686D02*
X180584914Y-78031114D01*
X180584914Y-78245400D02*
X181334914Y-78245400D01*
X181227771Y-78173971D01*
X181156343Y-78102543D01*
X181120629Y-78031114D01*
X181263486Y-78745400D02*
X181299200Y-78781114D01*
X181334914Y-78852543D01*
X181334914Y-79031114D01*
X181299200Y-79102543D01*
X181263486Y-79138257D01*
X181192057Y-79173972D01*
X181120629Y-79173972D01*
X181013486Y-79138257D01*
X180584914Y-78709686D01*
X180584914Y-79173972D01*
X181334914Y-79388258D02*
X180584914Y-79638258D01*
X181334914Y-79888258D01*
X186782514Y-62161314D02*
X186782514Y-61732742D01*
X186782514Y-61947028D02*
X187532514Y-61947028D01*
X187425371Y-61875599D01*
X187353943Y-61804171D01*
X187318229Y-61732742D01*
X187461086Y-62447028D02*
X187496800Y-62482742D01*
X187532514Y-62554171D01*
X187532514Y-62732742D01*
X187496800Y-62804171D01*
X187461086Y-62839885D01*
X187389657Y-62875600D01*
X187318229Y-62875600D01*
X187211086Y-62839885D01*
X186782514Y-62411314D01*
X186782514Y-62875600D01*
X187532514Y-63089886D02*
X186782514Y-63339886D01*
X187532514Y-63589886D01*
X186818229Y-64375600D02*
X186782514Y-64482743D01*
X186782514Y-64661314D01*
X186818229Y-64732743D01*
X186853943Y-64768457D01*
X186925371Y-64804172D01*
X186996800Y-64804172D01*
X187068229Y-64768457D01*
X187103943Y-64732743D01*
X187139657Y-64661314D01*
X187175371Y-64518457D01*
X187211086Y-64447029D01*
X187246800Y-64411314D01*
X187318229Y-64375600D01*
X187389657Y-64375600D01*
X187461086Y-64411314D01*
X187496800Y-64447029D01*
X187532514Y-64518457D01*
X187532514Y-64697029D01*
X187496800Y-64804172D01*
X187532514Y-65054172D02*
X186782514Y-65232743D01*
X187318229Y-65375600D01*
X186782514Y-65518458D01*
X187532514Y-65697029D01*
X187496800Y-66947030D02*
X187532514Y-66875601D01*
X187532514Y-66768458D01*
X187496800Y-66661315D01*
X187425371Y-66589887D01*
X187353943Y-66554172D01*
X187211086Y-66518458D01*
X187103943Y-66518458D01*
X186961086Y-66554172D01*
X186889657Y-66589887D01*
X186818229Y-66661315D01*
X186782514Y-66768458D01*
X186782514Y-66839887D01*
X186818229Y-66947030D01*
X186853943Y-66982744D01*
X187103943Y-66982744D01*
X187103943Y-66839887D01*
X186782514Y-67304172D02*
X187532514Y-67304172D01*
X186782514Y-67732744D01*
X187532514Y-67732744D01*
X186782514Y-68089886D02*
X187532514Y-68089886D01*
X187532514Y-68268458D01*
X187496800Y-68375601D01*
X187425371Y-68447029D01*
X187353943Y-68482744D01*
X187211086Y-68518458D01*
X187103943Y-68518458D01*
X186961086Y-68482744D01*
X186889657Y-68447029D01*
X186818229Y-68375601D01*
X186782514Y-68268458D01*
X186782514Y-68089886D01*
D12*
X235450000Y-79928571D02*
X235735714Y-79928571D01*
X235878572Y-80000000D01*
X236021429Y-80142857D01*
X236092857Y-80428571D01*
X236092857Y-80928571D01*
X236021429Y-81214286D01*
X235878572Y-81357143D01*
X235735714Y-81428571D01*
X235450000Y-81428571D01*
X235307143Y-81357143D01*
X235164286Y-81214286D01*
X235092857Y-80928571D01*
X235092857Y-80428571D01*
X235164286Y-80142857D01*
X235307143Y-80000000D01*
X235450000Y-79928571D01*
X236735715Y-79928571D02*
X236735715Y-81142857D01*
X236807143Y-81285714D01*
X236878572Y-81357143D01*
X237021429Y-81428571D01*
X237307143Y-81428571D01*
X237450001Y-81357143D01*
X237521429Y-81285714D01*
X237592858Y-81142857D01*
X237592858Y-79928571D01*
X238092858Y-79928571D02*
X238950001Y-79928571D01*
X238521430Y-81428571D02*
X238521430Y-79928571D01*
X240592858Y-80857143D02*
X241735715Y-80857143D01*
X235710000Y-57668571D02*
X235995714Y-57668571D01*
X236138572Y-57740000D01*
X236281429Y-57882857D01*
X236352857Y-58168571D01*
X236352857Y-58668571D01*
X236281429Y-58954286D01*
X236138572Y-59097143D01*
X235995714Y-59168571D01*
X235710000Y-59168571D01*
X235567143Y-59097143D01*
X235424286Y-58954286D01*
X235352857Y-58668571D01*
X235352857Y-58168571D01*
X235424286Y-57882857D01*
X235567143Y-57740000D01*
X235710000Y-57668571D01*
X236995715Y-57668571D02*
X236995715Y-58882857D01*
X237067143Y-59025714D01*
X237138572Y-59097143D01*
X237281429Y-59168571D01*
X237567143Y-59168571D01*
X237710001Y-59097143D01*
X237781429Y-59025714D01*
X237852858Y-58882857D01*
X237852858Y-57668571D01*
X238352858Y-57668571D02*
X239210001Y-57668571D01*
X238781430Y-59168571D02*
X238781430Y-57668571D01*
X240852858Y-58597143D02*
X241995715Y-58597143D01*
X241424286Y-59168571D02*
X241424286Y-58025714D01*
X183194286Y-59118571D02*
X183194286Y-57618571D01*
X183908572Y-59118571D02*
X183908572Y-57618571D01*
X184765715Y-59118571D01*
X184765715Y-57618571D01*
X186622858Y-58547143D02*
X187765715Y-58547143D01*
X187194286Y-59118571D02*
X187194286Y-57975714D01*
X182784286Y-81448571D02*
X182784286Y-79948571D01*
X183498572Y-81448571D02*
X183498572Y-79948571D01*
X184355715Y-81448571D01*
X184355715Y-79948571D01*
X186212858Y-80877143D02*
X187355715Y-80877143D01*
D13*
X182092600Y-69570600D02*
X182092600Y-74650600D01*
X186537600Y-69570600D02*
X186537600Y-74650600D01*
X180187600Y-74650600D02*
X180187600Y-69570600D01*
X180187600Y-74650600D02*
X186537600Y-74650600D01*
X180187600Y-69570600D02*
X186537600Y-69570600D01*
X180187600Y-69088000D02*
X186537600Y-69088000D01*
X180187600Y-61468000D02*
X186537600Y-61468000D01*
X182092600Y-61468000D02*
X182092600Y-69088000D01*
X180187600Y-69088000D02*
X180187600Y-61468000D01*
X186537600Y-61468000D02*
X186537600Y-69088000D01*
X190944500Y-75438000D02*
X190563500Y-75438000D01*
X191960500Y-75438000D02*
X191579500Y-75438000D01*
X191579500Y-75438000D02*
X190944500Y-75819000D01*
X190944500Y-75819000D02*
X190944500Y-75057000D01*
X190944500Y-75057000D02*
X191579500Y-75438000D01*
X191579500Y-75946000D02*
X191579500Y-74930000D01*
X193262000Y-74538000D02*
X189722000Y-74538000D01*
X193262000Y-76338000D02*
X189722000Y-76338000D01*
D14*
X205351380Y-74736960D02*
X194952620Y-74736960D01*
X194952620Y-74736960D02*
X194952620Y-66939160D01*
X194952620Y-66939160D02*
X197352920Y-65638680D01*
X197352920Y-65638680D02*
X202951080Y-65638680D01*
X202951080Y-65638680D02*
X205351380Y-66939160D01*
X205351380Y-66939160D02*
X205351380Y-74736960D01*
X217289380Y-74736960D02*
X206890620Y-74736960D01*
X206890620Y-74736960D02*
X206890620Y-66939160D01*
X206890620Y-66939160D02*
X209290920Y-65638680D01*
X209290920Y-65638680D02*
X214889080Y-65638680D01*
X214889080Y-65638680D02*
X217289380Y-66939160D01*
X217289380Y-66939160D02*
X217289380Y-74736960D01*
X229227380Y-74736960D02*
X218828620Y-74736960D01*
X218828620Y-74736960D02*
X218828620Y-66939160D01*
X218828620Y-66939160D02*
X221228920Y-65638680D01*
X221228920Y-65638680D02*
X226827080Y-65638680D01*
X226827080Y-65638680D02*
X229227380Y-66939160D01*
X229227380Y-66939160D02*
X229227380Y-74736960D01*
D13*
X191862000Y-70516000D02*
X191862000Y-71216000D01*
X190662000Y-71216000D02*
X190662000Y-70516000D01*
X188381000Y-70366000D02*
X188381000Y-71366000D01*
X187031000Y-71366000D02*
X187031000Y-70366000D01*
X188809000Y-71366000D02*
X188809000Y-70366000D01*
X190159000Y-70366000D02*
X190159000Y-71366000D01*
X193715000Y-70366000D02*
X193715000Y-71366000D01*
X192365000Y-71366000D02*
X192365000Y-70366000D01*
X234310000Y-81850000D02*
X242910000Y-81850000D01*
X242910000Y-81850000D02*
X242910000Y-89450000D01*
X242910000Y-89450000D02*
X234310000Y-89450000D01*
X234310000Y-89450000D02*
X234310000Y-81850000D01*
X234210000Y-49690000D02*
X242810000Y-49690000D01*
X242810000Y-49690000D02*
X242810000Y-57290000D01*
X242810000Y-57290000D02*
X234210000Y-57290000D01*
X234210000Y-57290000D02*
X234210000Y-49690000D01*
X180700000Y-81925000D02*
X189300000Y-81925000D01*
X189300000Y-81925000D02*
X189300000Y-89525000D01*
X189300000Y-89525000D02*
X180700000Y-89525000D01*
X180700000Y-89525000D02*
X180700000Y-81925000D01*
X181220000Y-49710000D02*
X189820000Y-49710000D01*
X189820000Y-49710000D02*
X189820000Y-57310000D01*
X189820000Y-57310000D02*
X181220000Y-57310000D01*
X181220000Y-57310000D02*
X181220000Y-49710000D01*
D15*
X222000000Y-49000000D02*
X222000000Y-59000000D01*
X222000000Y-59000000D02*
X232000000Y-59000000D01*
X232000000Y-59000000D02*
X232000000Y-49000000D01*
X232000000Y-49000000D02*
X222000000Y-49000000D01*
X229828427Y-54000000D02*
G75*
G03X229828427Y-54000000I-2828427J0D01*
G01*
X192000000Y-49000000D02*
X192000000Y-59000000D01*
X192000000Y-59000000D02*
X202000000Y-59000000D01*
X202000000Y-59000000D02*
X202000000Y-49000000D01*
X202000000Y-49000000D02*
X192000000Y-49000000D01*
X199828427Y-54000000D02*
G75*
G03X199828427Y-54000000I-2828427J0D01*
G01*
D13*
X184859705Y-76042781D02*
X184859705Y-75042781D01*
X185240658Y-75042781D01*
X185335896Y-75090400D01*
X185383515Y-75138019D01*
X185431134Y-75233257D01*
X185431134Y-75376114D01*
X185383515Y-75471352D01*
X185335896Y-75518971D01*
X185240658Y-75566590D01*
X184859705Y-75566590D01*
X185764467Y-75042781D02*
X186431134Y-75042781D01*
X186002562Y-76042781D01*
X184188267Y-60882162D02*
X184331124Y-60929781D01*
X184569220Y-60929781D01*
X184664458Y-60882162D01*
X184712077Y-60834543D01*
X184759696Y-60739305D01*
X184759696Y-60644067D01*
X184712077Y-60548829D01*
X184664458Y-60501210D01*
X184569220Y-60453590D01*
X184378743Y-60405971D01*
X184283505Y-60358352D01*
X184235886Y-60310733D01*
X184188267Y-60215495D01*
X184188267Y-60120257D01*
X184235886Y-60025019D01*
X184283505Y-59977400D01*
X184378743Y-59929781D01*
X184616839Y-59929781D01*
X184759696Y-59977400D01*
X185093029Y-59929781D02*
X185331124Y-60929781D01*
X185521601Y-60215495D01*
X185712077Y-60929781D01*
X185950172Y-59929781D01*
X186854934Y-60929781D02*
X186283505Y-60929781D01*
X186569219Y-60929781D02*
X186569219Y-59929781D01*
X186473981Y-60072638D01*
X186378743Y-60167876D01*
X186283505Y-60215495D01*
D16*
X189030953Y-74256190D02*
X189030953Y-73756190D01*
X189150000Y-73756190D01*
X189221429Y-73780000D01*
X189269048Y-73827619D01*
X189292857Y-73875238D01*
X189316667Y-73970476D01*
X189316667Y-74041905D01*
X189292857Y-74137143D01*
X189269048Y-74184762D01*
X189221429Y-74232381D01*
X189150000Y-74256190D01*
X189030953Y-74256190D01*
X189792857Y-74256190D02*
X189507143Y-74256190D01*
X189650000Y-74256190D02*
X189650000Y-73756190D01*
X189602381Y-73827619D01*
X189554762Y-73875238D01*
X189507143Y-73899048D01*
D17*
X195108285Y-64626309D02*
X195108285Y-63102309D01*
X196704856Y-64626309D02*
X196196856Y-63900594D01*
X195833999Y-64626309D02*
X195833999Y-63102309D01*
X196414571Y-63102309D01*
X196559713Y-63174880D01*
X196632285Y-63247451D01*
X196704856Y-63392594D01*
X196704856Y-63610309D01*
X196632285Y-63755451D01*
X196559713Y-63828023D01*
X196414571Y-63900594D01*
X195833999Y-63900594D01*
X197865999Y-63828023D02*
X197357999Y-63828023D01*
X197357999Y-64626309D02*
X197357999Y-63102309D01*
X198083713Y-63102309D01*
X198591714Y-64553737D02*
X198809428Y-64626309D01*
X199172285Y-64626309D01*
X199317428Y-64553737D01*
X199389999Y-64481166D01*
X199462571Y-64336023D01*
X199462571Y-64190880D01*
X199389999Y-64045737D01*
X199317428Y-63973166D01*
X199172285Y-63900594D01*
X198881999Y-63828023D01*
X198736857Y-63755451D01*
X198664285Y-63682880D01*
X198591714Y-63537737D01*
X198591714Y-63392594D01*
X198664285Y-63247451D01*
X198736857Y-63174880D01*
X198881999Y-63102309D01*
X199244857Y-63102309D01*
X199462571Y-63174880D01*
X199970571Y-63102309D02*
X200986571Y-63102309D01*
X200333428Y-64626309D01*
X202292857Y-63102309D02*
X201567143Y-63102309D01*
X201494572Y-63828023D01*
X201567143Y-63755451D01*
X201712286Y-63682880D01*
X202075143Y-63682880D01*
X202220286Y-63755451D01*
X202292857Y-63828023D01*
X202365429Y-63973166D01*
X202365429Y-64336023D01*
X202292857Y-64481166D01*
X202220286Y-64553737D01*
X202075143Y-64626309D01*
X201712286Y-64626309D01*
X201567143Y-64553737D01*
X201494572Y-64481166D01*
X202873429Y-63102309D02*
X203816858Y-63102309D01*
X203308858Y-63682880D01*
X203526572Y-63682880D01*
X203671715Y-63755451D01*
X203744286Y-63828023D01*
X203816858Y-63973166D01*
X203816858Y-64336023D01*
X203744286Y-64481166D01*
X203671715Y-64553737D01*
X203526572Y-64626309D01*
X203091144Y-64626309D01*
X202946001Y-64553737D01*
X202873429Y-64481166D01*
X204760287Y-63102309D02*
X204905430Y-63102309D01*
X205050573Y-63174880D01*
X205123144Y-63247451D01*
X205195715Y-63392594D01*
X205268287Y-63682880D01*
X205268287Y-64045737D01*
X205195715Y-64336023D01*
X205123144Y-64481166D01*
X205050573Y-64553737D01*
X204905430Y-64626309D01*
X204760287Y-64626309D01*
X204615144Y-64553737D01*
X204542573Y-64481166D01*
X204470001Y-64336023D01*
X204397430Y-64045737D01*
X204397430Y-63682880D01*
X204470001Y-63392594D01*
X204542573Y-63247451D01*
X204615144Y-63174880D01*
X204760287Y-63102309D01*
X207046285Y-64626309D02*
X207046285Y-63102309D01*
X208642856Y-64626309D02*
X208134856Y-63900594D01*
X207771999Y-64626309D02*
X207771999Y-63102309D01*
X208352571Y-63102309D01*
X208497713Y-63174880D01*
X208570285Y-63247451D01*
X208642856Y-63392594D01*
X208642856Y-63610309D01*
X208570285Y-63755451D01*
X208497713Y-63828023D01*
X208352571Y-63900594D01*
X207771999Y-63900594D01*
X209803999Y-63828023D02*
X209295999Y-63828023D01*
X209295999Y-64626309D02*
X209295999Y-63102309D01*
X210021713Y-63102309D01*
X210529714Y-64553737D02*
X210747428Y-64626309D01*
X211110285Y-64626309D01*
X211255428Y-64553737D01*
X211327999Y-64481166D01*
X211400571Y-64336023D01*
X211400571Y-64190880D01*
X211327999Y-64045737D01*
X211255428Y-63973166D01*
X211110285Y-63900594D01*
X210819999Y-63828023D01*
X210674857Y-63755451D01*
X210602285Y-63682880D01*
X210529714Y-63537737D01*
X210529714Y-63392594D01*
X210602285Y-63247451D01*
X210674857Y-63174880D01*
X210819999Y-63102309D01*
X211182857Y-63102309D01*
X211400571Y-63174880D01*
X211908571Y-63102309D02*
X212924571Y-63102309D01*
X212271428Y-64626309D01*
X214230857Y-63102309D02*
X213505143Y-63102309D01*
X213432572Y-63828023D01*
X213505143Y-63755451D01*
X213650286Y-63682880D01*
X214013143Y-63682880D01*
X214158286Y-63755451D01*
X214230857Y-63828023D01*
X214303429Y-63973166D01*
X214303429Y-64336023D01*
X214230857Y-64481166D01*
X214158286Y-64553737D01*
X214013143Y-64626309D01*
X213650286Y-64626309D01*
X213505143Y-64553737D01*
X213432572Y-64481166D01*
X214811429Y-63102309D02*
X215754858Y-63102309D01*
X215246858Y-63682880D01*
X215464572Y-63682880D01*
X215609715Y-63755451D01*
X215682286Y-63828023D01*
X215754858Y-63973166D01*
X215754858Y-64336023D01*
X215682286Y-64481166D01*
X215609715Y-64553737D01*
X215464572Y-64626309D01*
X215029144Y-64626309D01*
X214884001Y-64553737D01*
X214811429Y-64481166D01*
X216698287Y-63102309D02*
X216843430Y-63102309D01*
X216988573Y-63174880D01*
X217061144Y-63247451D01*
X217133715Y-63392594D01*
X217206287Y-63682880D01*
X217206287Y-64045737D01*
X217133715Y-64336023D01*
X217061144Y-64481166D01*
X216988573Y-64553737D01*
X216843430Y-64626309D01*
X216698287Y-64626309D01*
X216553144Y-64553737D01*
X216480573Y-64481166D01*
X216408001Y-64336023D01*
X216335430Y-64045737D01*
X216335430Y-63682880D01*
X216408001Y-63392594D01*
X216480573Y-63247451D01*
X216553144Y-63174880D01*
X216698287Y-63102309D01*
X218984285Y-64626309D02*
X218984285Y-63102309D01*
X220580856Y-64626309D02*
X220072856Y-63900594D01*
X219709999Y-64626309D02*
X219709999Y-63102309D01*
X220290571Y-63102309D01*
X220435713Y-63174880D01*
X220508285Y-63247451D01*
X220580856Y-63392594D01*
X220580856Y-63610309D01*
X220508285Y-63755451D01*
X220435713Y-63828023D01*
X220290571Y-63900594D01*
X219709999Y-63900594D01*
X221741999Y-63828023D02*
X221233999Y-63828023D01*
X221233999Y-64626309D02*
X221233999Y-63102309D01*
X221959713Y-63102309D01*
X222467714Y-64553737D02*
X222685428Y-64626309D01*
X223048285Y-64626309D01*
X223193428Y-64553737D01*
X223265999Y-64481166D01*
X223338571Y-64336023D01*
X223338571Y-64190880D01*
X223265999Y-64045737D01*
X223193428Y-63973166D01*
X223048285Y-63900594D01*
X222757999Y-63828023D01*
X222612857Y-63755451D01*
X222540285Y-63682880D01*
X222467714Y-63537737D01*
X222467714Y-63392594D01*
X222540285Y-63247451D01*
X222612857Y-63174880D01*
X222757999Y-63102309D01*
X223120857Y-63102309D01*
X223338571Y-63174880D01*
X223846571Y-63102309D02*
X224862571Y-63102309D01*
X224209428Y-64626309D01*
X226168857Y-63102309D02*
X225443143Y-63102309D01*
X225370572Y-63828023D01*
X225443143Y-63755451D01*
X225588286Y-63682880D01*
X225951143Y-63682880D01*
X226096286Y-63755451D01*
X226168857Y-63828023D01*
X226241429Y-63973166D01*
X226241429Y-64336023D01*
X226168857Y-64481166D01*
X226096286Y-64553737D01*
X225951143Y-64626309D01*
X225588286Y-64626309D01*
X225443143Y-64553737D01*
X225370572Y-64481166D01*
X226749429Y-63102309D02*
X227692858Y-63102309D01*
X227184858Y-63682880D01*
X227402572Y-63682880D01*
X227547715Y-63755451D01*
X227620286Y-63828023D01*
X227692858Y-63973166D01*
X227692858Y-64336023D01*
X227620286Y-64481166D01*
X227547715Y-64553737D01*
X227402572Y-64626309D01*
X226967144Y-64626309D01*
X226822001Y-64553737D01*
X226749429Y-64481166D01*
X228636287Y-63102309D02*
X228781430Y-63102309D01*
X228926573Y-63174880D01*
X228999144Y-63247451D01*
X229071715Y-63392594D01*
X229144287Y-63682880D01*
X229144287Y-64045737D01*
X229071715Y-64336023D01*
X228999144Y-64481166D01*
X228926573Y-64553737D01*
X228781430Y-64626309D01*
X228636287Y-64626309D01*
X228491144Y-64553737D01*
X228418573Y-64481166D01*
X228346001Y-64336023D01*
X228273430Y-64045737D01*
X228273430Y-63682880D01*
X228346001Y-63392594D01*
X228418573Y-63247451D01*
X228491144Y-63174880D01*
X228636287Y-63102309D01*
D16*
X191186667Y-73348571D02*
X191162857Y-73372381D01*
X191091429Y-73396190D01*
X191043810Y-73396190D01*
X190972381Y-73372381D01*
X190924762Y-73324762D01*
X190900953Y-73277143D01*
X190877143Y-73181905D01*
X190877143Y-73110476D01*
X190900953Y-73015238D01*
X190924762Y-72967619D01*
X190972381Y-72920000D01*
X191043810Y-72896190D01*
X191091429Y-72896190D01*
X191162857Y-72920000D01*
X191186667Y-72943810D01*
X191662857Y-73396190D02*
X191377143Y-73396190D01*
X191520000Y-73396190D02*
X191520000Y-72896190D01*
X191472381Y-72967619D01*
X191424762Y-73015238D01*
X191377143Y-73039048D01*
X187626667Y-73486190D02*
X187460000Y-73248095D01*
X187340953Y-73486190D02*
X187340953Y-72986190D01*
X187531429Y-72986190D01*
X187579048Y-73010000D01*
X187602857Y-73033810D01*
X187626667Y-73081429D01*
X187626667Y-73152857D01*
X187602857Y-73200476D01*
X187579048Y-73224286D01*
X187531429Y-73248095D01*
X187340953Y-73248095D01*
X187817143Y-73033810D02*
X187840953Y-73010000D01*
X187888572Y-72986190D01*
X188007619Y-72986190D01*
X188055238Y-73010000D01*
X188079048Y-73033810D01*
X188102857Y-73081429D01*
X188102857Y-73129048D01*
X188079048Y-73200476D01*
X187793334Y-73486190D01*
X188102857Y-73486190D01*
X189336667Y-73486190D02*
X189170000Y-73248095D01*
X189050953Y-73486190D02*
X189050953Y-72986190D01*
X189241429Y-72986190D01*
X189289048Y-73010000D01*
X189312857Y-73033810D01*
X189336667Y-73081429D01*
X189336667Y-73152857D01*
X189312857Y-73200476D01*
X189289048Y-73224286D01*
X189241429Y-73248095D01*
X189050953Y-73248095D01*
X189812857Y-73486190D02*
X189527143Y-73486190D01*
X189670000Y-73486190D02*
X189670000Y-72986190D01*
X189622381Y-73057619D01*
X189574762Y-73105238D01*
X189527143Y-73129048D01*
X192916667Y-73526190D02*
X192750000Y-73288095D01*
X192630953Y-73526190D02*
X192630953Y-73026190D01*
X192821429Y-73026190D01*
X192869048Y-73050000D01*
X192892857Y-73073810D01*
X192916667Y-73121429D01*
X192916667Y-73192857D01*
X192892857Y-73240476D01*
X192869048Y-73264286D01*
X192821429Y-73288095D01*
X192630953Y-73288095D01*
X193083334Y-73026190D02*
X193392857Y-73026190D01*
X193226191Y-73216667D01*
X193297619Y-73216667D01*
X193345238Y-73240476D01*
X193369048Y-73264286D01*
X193392857Y-73311905D01*
X193392857Y-73430952D01*
X193369048Y-73478571D01*
X193345238Y-73502381D01*
X193297619Y-73526190D01*
X193154762Y-73526190D01*
X193107143Y-73502381D01*
X193083334Y-73478571D01*
D17*
X233929429Y-86774857D02*
X232405429Y-86774857D01*
X232405429Y-86194285D01*
X232478000Y-86049143D01*
X232550571Y-85976571D01*
X232695714Y-85904000D01*
X232913429Y-85904000D01*
X233058571Y-85976571D01*
X233131143Y-86049143D01*
X233203714Y-86194285D01*
X233203714Y-86774857D01*
X232405429Y-84597714D02*
X232405429Y-84888000D01*
X232478000Y-85033143D01*
X232550571Y-85105714D01*
X232768286Y-85250857D01*
X233058571Y-85323428D01*
X233639143Y-85323428D01*
X233784286Y-85250857D01*
X233856857Y-85178285D01*
X233929429Y-85033143D01*
X233929429Y-84742857D01*
X233856857Y-84597714D01*
X233784286Y-84525143D01*
X233639143Y-84452571D01*
X233276286Y-84452571D01*
X233131143Y-84525143D01*
X233058571Y-84597714D01*
X232986000Y-84742857D01*
X232986000Y-85033143D01*
X233058571Y-85178285D01*
X233131143Y-85250857D01*
X233276286Y-85323428D01*
X233949429Y-54604857D02*
X232425429Y-54604857D01*
X232425429Y-54024285D01*
X232498000Y-53879143D01*
X232570571Y-53806571D01*
X232715714Y-53734000D01*
X232933429Y-53734000D01*
X233078571Y-53806571D01*
X233151143Y-53879143D01*
X233223714Y-54024285D01*
X233223714Y-54604857D01*
X232425429Y-52355143D02*
X232425429Y-53080857D01*
X233151143Y-53153428D01*
X233078571Y-53080857D01*
X233006000Y-52935714D01*
X233006000Y-52572857D01*
X233078571Y-52427714D01*
X233151143Y-52355143D01*
X233296286Y-52282571D01*
X233659143Y-52282571D01*
X233804286Y-52355143D01*
X233876857Y-52427714D01*
X233949429Y-52572857D01*
X233949429Y-52935714D01*
X233876857Y-53080857D01*
X233804286Y-53153428D01*
X191489429Y-86844857D02*
X189965429Y-86844857D01*
X189965429Y-86264285D01*
X190038000Y-86119143D01*
X190110571Y-86046571D01*
X190255714Y-85974000D01*
X190473429Y-85974000D01*
X190618571Y-86046571D01*
X190691143Y-86119143D01*
X190763714Y-86264285D01*
X190763714Y-86844857D01*
X190110571Y-85393428D02*
X190038000Y-85320857D01*
X189965429Y-85175714D01*
X189965429Y-84812857D01*
X190038000Y-84667714D01*
X190110571Y-84595143D01*
X190255714Y-84522571D01*
X190400857Y-84522571D01*
X190618571Y-84595143D01*
X191489429Y-85466000D01*
X191489429Y-84522571D01*
X191659429Y-54634857D02*
X190135429Y-54634857D01*
X190135429Y-54054285D01*
X190208000Y-53909143D01*
X190280571Y-53836571D01*
X190425714Y-53764000D01*
X190643429Y-53764000D01*
X190788571Y-53836571D01*
X190861143Y-53909143D01*
X190933714Y-54054285D01*
X190933714Y-54634857D01*
X191659429Y-52312571D02*
X191659429Y-53183428D01*
X191659429Y-52748000D02*
X190135429Y-52748000D01*
X190353143Y-52893143D01*
X190498286Y-53038285D01*
X190570857Y-53183428D01*
D13*
X226642905Y-62199381D02*
X226642905Y-61199381D01*
X227023858Y-61199381D01*
X227119096Y-61247000D01*
X227166715Y-61294619D01*
X227214334Y-61389857D01*
X227214334Y-61532714D01*
X227166715Y-61627952D01*
X227119096Y-61675571D01*
X227023858Y-61723190D01*
X226642905Y-61723190D01*
X228071477Y-61532714D02*
X228071477Y-62199381D01*
X227833381Y-61151762D02*
X227595286Y-61866048D01*
X228214334Y-61866048D01*
X196642905Y-62199381D02*
X196642905Y-61199381D01*
X197023858Y-61199381D01*
X197119096Y-61247000D01*
X197166715Y-61294619D01*
X197214334Y-61389857D01*
X197214334Y-61532714D01*
X197166715Y-61627952D01*
X197119096Y-61675571D01*
X197023858Y-61723190D01*
X196642905Y-61723190D01*
X197547667Y-61199381D02*
X198166715Y-61199381D01*
X197833381Y-61580333D01*
X197976239Y-61580333D01*
X198071477Y-61627952D01*
X198119096Y-61675571D01*
X198166715Y-61770810D01*
X198166715Y-62008905D01*
X198119096Y-62104143D01*
X198071477Y-62151762D01*
X197976239Y-62199381D01*
X197690524Y-62199381D01*
X197595286Y-62151762D01*
X197547667Y-62104143D01*
M02*
