G04 #@! TF.GenerationSoftware,KiCad,Pcbnew,(2017-08-25 revision dd37d0595)-makepkg*
G04 #@! TF.CreationDate,2018-05-19T14:50:42-04:00*
G04 #@! TF.ProjectId,Anti-Spark-Switch,416E74692D537061726B2D5377697463,rev?*
G04 #@! TF.SameCoordinates,Original*
G04 #@! TF.FileFunction,Legend,Top*
G04 #@! TF.FilePolarity,Positive*
%FSLAX46Y46*%
G04 Gerber Fmt 4.6, Leading zero omitted, Abs format (unit mm)*
G04 Created by KiCad (PCBNEW (2017-08-25 revision dd37d0595)-makepkg) date 05/19/18 14:50:42*
%MOMM*%
%LPD*%
G01*
G04 APERTURE LIST*
%ADD10C,0.187500*%
%ADD11C,0.300000*%
%ADD12C,0.010000*%
%ADD13C,0.120000*%
%ADD14C,0.150000*%
%ADD15C,0.050000*%
%ADD16C,0.381000*%
%ADD17C,0.304800*%
G04 APERTURE END LIST*
D10*
X121560714Y-89165000D02*
X121560714Y-88807857D01*
X122310714Y-88807857D01*
X121953571Y-89415000D02*
X121953571Y-89665000D01*
X121560714Y-89772142D02*
X121560714Y-89415000D01*
X122310714Y-89415000D01*
X122310714Y-89772142D01*
X121560714Y-90093571D02*
X122310714Y-90093571D01*
X122310714Y-90272142D01*
X122275000Y-90379285D01*
X122203571Y-90450714D01*
X122132142Y-90486428D01*
X121989285Y-90522142D01*
X121882142Y-90522142D01*
X121739285Y-90486428D01*
X121667857Y-90450714D01*
X121596428Y-90379285D01*
X121560714Y-90272142D01*
X121560714Y-90093571D01*
X121310714Y-91593571D02*
X122382142Y-91593571D01*
X121846428Y-92700714D02*
X121846428Y-93272142D01*
X121846428Y-94200714D02*
X121846428Y-94772142D01*
X121560714Y-94486428D02*
X122132142Y-94486428D01*
D11*
X142993571Y-80153571D02*
X143493571Y-81653571D01*
X143993571Y-80153571D01*
X145065000Y-81582142D02*
X144922142Y-81653571D01*
X144636428Y-81653571D01*
X144493571Y-81582142D01*
X144422142Y-81439285D01*
X144422142Y-80867857D01*
X144493571Y-80725000D01*
X144636428Y-80653571D01*
X144922142Y-80653571D01*
X145065000Y-80725000D01*
X145136428Y-80867857D01*
X145136428Y-81010714D01*
X144422142Y-81153571D01*
X145779285Y-81653571D02*
X145779285Y-80653571D01*
X145779285Y-80939285D02*
X145850714Y-80796428D01*
X145922142Y-80725000D01*
X146065000Y-80653571D01*
X146207857Y-80653571D01*
X146707857Y-81510714D02*
X146779285Y-81582142D01*
X146707857Y-81653571D01*
X146636428Y-81582142D01*
X146707857Y-81510714D01*
X146707857Y-81653571D01*
X146707857Y-80725000D02*
X146779285Y-80796428D01*
X146707857Y-80867857D01*
X146636428Y-80796428D01*
X146707857Y-80725000D01*
X146707857Y-80867857D01*
X149350714Y-81653571D02*
X148493571Y-81653571D01*
X148922142Y-81653571D02*
X148922142Y-80153571D01*
X148779285Y-80367857D01*
X148636428Y-80510714D01*
X148493571Y-80582142D01*
X149993571Y-81510714D02*
X150065000Y-81582142D01*
X149993571Y-81653571D01*
X149922142Y-81582142D01*
X149993571Y-81510714D01*
X149993571Y-81653571D01*
X151350714Y-80653571D02*
X151350714Y-81653571D01*
X150993571Y-80082142D02*
X150636428Y-81153571D01*
X151565000Y-81153571D01*
X139100714Y-84203571D02*
X139100714Y-82703571D01*
X139457857Y-82703571D01*
X139672142Y-82775000D01*
X139815000Y-82917857D01*
X139886428Y-83060714D01*
X139957857Y-83346428D01*
X139957857Y-83560714D01*
X139886428Y-83846428D01*
X139815000Y-83989285D01*
X139672142Y-84132142D01*
X139457857Y-84203571D01*
X139100714Y-84203571D01*
X141243571Y-84203571D02*
X141243571Y-83417857D01*
X141172142Y-83275000D01*
X141029285Y-83203571D01*
X140743571Y-83203571D01*
X140600714Y-83275000D01*
X141243571Y-84132142D02*
X141100714Y-84203571D01*
X140743571Y-84203571D01*
X140600714Y-84132142D01*
X140529285Y-83989285D01*
X140529285Y-83846428D01*
X140600714Y-83703571D01*
X140743571Y-83632142D01*
X141100714Y-83632142D01*
X141243571Y-83560714D01*
X141743571Y-83203571D02*
X142315000Y-83203571D01*
X141957857Y-82703571D02*
X141957857Y-83989285D01*
X142029285Y-84132142D01*
X142172142Y-84203571D01*
X142315000Y-84203571D01*
X143386428Y-84132142D02*
X143243571Y-84203571D01*
X142957857Y-84203571D01*
X142815000Y-84132142D01*
X142743571Y-83989285D01*
X142743571Y-83417857D01*
X142815000Y-83275000D01*
X142957857Y-83203571D01*
X143243571Y-83203571D01*
X143386428Y-83275000D01*
X143457857Y-83417857D01*
X143457857Y-83560714D01*
X142743571Y-83703571D01*
X144100714Y-84060714D02*
X144172142Y-84132142D01*
X144100714Y-84203571D01*
X144029285Y-84132142D01*
X144100714Y-84060714D01*
X144100714Y-84203571D01*
X144100714Y-83275000D02*
X144172142Y-83346428D01*
X144100714Y-83417857D01*
X144029285Y-83346428D01*
X144100714Y-83275000D01*
X144100714Y-83417857D01*
X146672142Y-82703571D02*
X145957857Y-82703571D01*
X145886428Y-83417857D01*
X145957857Y-83346428D01*
X146100714Y-83275000D01*
X146457857Y-83275000D01*
X146600714Y-83346428D01*
X146672142Y-83417857D01*
X146743571Y-83560714D01*
X146743571Y-83917857D01*
X146672142Y-84060714D01*
X146600714Y-84132142D01*
X146457857Y-84203571D01*
X146100714Y-84203571D01*
X145957857Y-84132142D01*
X145886428Y-84060714D01*
X148457857Y-82632142D02*
X147172142Y-84560714D01*
X149743571Y-84203571D02*
X148886428Y-84203571D01*
X149315000Y-84203571D02*
X149315000Y-82703571D01*
X149172142Y-82917857D01*
X149029285Y-83060714D01*
X148886428Y-83132142D01*
X150457857Y-84203571D02*
X150743571Y-84203571D01*
X150886428Y-84132142D01*
X150957857Y-84060714D01*
X151100714Y-83846428D01*
X151172142Y-83560714D01*
X151172142Y-82989285D01*
X151100714Y-82846428D01*
X151029285Y-82775000D01*
X150886428Y-82703571D01*
X150600714Y-82703571D01*
X150457857Y-82775000D01*
X150386428Y-82846428D01*
X150315000Y-82989285D01*
X150315000Y-83346428D01*
X150386428Y-83489285D01*
X150457857Y-83560714D01*
X150600714Y-83632142D01*
X150886428Y-83632142D01*
X151029285Y-83560714D01*
X151100714Y-83489285D01*
X151172142Y-83346428D01*
X152886428Y-82632142D02*
X151600714Y-84560714D01*
X154172142Y-84203571D02*
X153315000Y-84203571D01*
X153743571Y-84203571D02*
X153743571Y-82703571D01*
X153600714Y-82917857D01*
X153457857Y-83060714D01*
X153315000Y-83132142D01*
X155029285Y-83346428D02*
X154886428Y-83275000D01*
X154815000Y-83203571D01*
X154743571Y-83060714D01*
X154743571Y-82989285D01*
X154815000Y-82846428D01*
X154886428Y-82775000D01*
X155029285Y-82703571D01*
X155315000Y-82703571D01*
X155457857Y-82775000D01*
X155529285Y-82846428D01*
X155600714Y-82989285D01*
X155600714Y-83060714D01*
X155529285Y-83203571D01*
X155457857Y-83275000D01*
X155315000Y-83346428D01*
X155029285Y-83346428D01*
X154886428Y-83417857D01*
X154815000Y-83489285D01*
X154743571Y-83632142D01*
X154743571Y-83917857D01*
X154815000Y-84060714D01*
X154886428Y-84132142D01*
X155029285Y-84203571D01*
X155315000Y-84203571D01*
X155457857Y-84132142D01*
X155529285Y-84060714D01*
X155600714Y-83917857D01*
X155600714Y-83632142D01*
X155529285Y-83489285D01*
X155457857Y-83417857D01*
X155315000Y-83346428D01*
X142350714Y-78750000D02*
X143065000Y-78750000D01*
X142207857Y-79178571D02*
X142707857Y-77678571D01*
X143207857Y-79178571D01*
X143707857Y-78178571D02*
X143707857Y-79178571D01*
X143707857Y-78321428D02*
X143779285Y-78250000D01*
X143922142Y-78178571D01*
X144136428Y-78178571D01*
X144279285Y-78250000D01*
X144350714Y-78392857D01*
X144350714Y-79178571D01*
X144850714Y-78178571D02*
X145422142Y-78178571D01*
X145065000Y-77678571D02*
X145065000Y-78964285D01*
X145136428Y-79107142D01*
X145279285Y-79178571D01*
X145422142Y-79178571D01*
X145922142Y-79178571D02*
X145922142Y-78178571D01*
X145922142Y-77678571D02*
X145850714Y-77750000D01*
X145922142Y-77821428D01*
X145993571Y-77750000D01*
X145922142Y-77678571D01*
X145922142Y-77821428D01*
X146565000Y-79107142D02*
X146779285Y-79178571D01*
X147136428Y-79178571D01*
X147279285Y-79107142D01*
X147350714Y-79035714D01*
X147422142Y-78892857D01*
X147422142Y-78750000D01*
X147350714Y-78607142D01*
X147279285Y-78535714D01*
X147136428Y-78464285D01*
X146850714Y-78392857D01*
X146707857Y-78321428D01*
X146636428Y-78250000D01*
X146565000Y-78107142D01*
X146565000Y-77964285D01*
X146636428Y-77821428D01*
X146707857Y-77750000D01*
X146850714Y-77678571D01*
X147207857Y-77678571D01*
X147422142Y-77750000D01*
X148065000Y-78178571D02*
X148065000Y-79678571D01*
X148065000Y-78250000D02*
X148207857Y-78178571D01*
X148493571Y-78178571D01*
X148636428Y-78250000D01*
X148707857Y-78321428D01*
X148779285Y-78464285D01*
X148779285Y-78892857D01*
X148707857Y-79035714D01*
X148636428Y-79107142D01*
X148493571Y-79178571D01*
X148207857Y-79178571D01*
X148065000Y-79107142D01*
X150065000Y-79178571D02*
X150065000Y-78392857D01*
X149993571Y-78250000D01*
X149850714Y-78178571D01*
X149565000Y-78178571D01*
X149422142Y-78250000D01*
X150065000Y-79107142D02*
X149922142Y-79178571D01*
X149565000Y-79178571D01*
X149422142Y-79107142D01*
X149350714Y-78964285D01*
X149350714Y-78821428D01*
X149422142Y-78678571D01*
X149565000Y-78607142D01*
X149922142Y-78607142D01*
X150065000Y-78535714D01*
X150779285Y-79178571D02*
X150779285Y-78178571D01*
X150779285Y-78464285D02*
X150850714Y-78321428D01*
X150922142Y-78250000D01*
X151065000Y-78178571D01*
X151207857Y-78178571D01*
X151707857Y-79178571D02*
X151707857Y-77678571D01*
X151850714Y-78607142D02*
X152279285Y-79178571D01*
X152279285Y-78178571D02*
X151707857Y-78750000D01*
D10*
X121560714Y-95975714D02*
X122310714Y-95975714D01*
X121560714Y-96404285D01*
X122310714Y-96404285D01*
X121632142Y-97190000D02*
X121596428Y-97154285D01*
X121560714Y-97047142D01*
X121560714Y-96975714D01*
X121596428Y-96868571D01*
X121667857Y-96797142D01*
X121739285Y-96761428D01*
X121882142Y-96725714D01*
X121989285Y-96725714D01*
X122132142Y-96761428D01*
X122203571Y-96797142D01*
X122275000Y-96868571D01*
X122310714Y-96975714D01*
X122310714Y-97047142D01*
X122275000Y-97154285D01*
X122239285Y-97190000D01*
X122275000Y-98475714D02*
X122310714Y-98404285D01*
X122310714Y-98297142D01*
X122275000Y-98190000D01*
X122203571Y-98118571D01*
X122132142Y-98082857D01*
X121989285Y-98047142D01*
X121882142Y-98047142D01*
X121739285Y-98082857D01*
X121667857Y-98118571D01*
X121596428Y-98190000D01*
X121560714Y-98297142D01*
X121560714Y-98368571D01*
X121596428Y-98475714D01*
X121632142Y-98511428D01*
X121882142Y-98511428D01*
X121882142Y-98368571D01*
X121560714Y-98832857D02*
X122310714Y-98832857D01*
X121560714Y-99261428D01*
X122310714Y-99261428D01*
X121560714Y-99618571D02*
X122310714Y-99618571D01*
X122310714Y-99797142D01*
X122275000Y-99904285D01*
X122203571Y-99975714D01*
X122132142Y-100011428D01*
X121989285Y-100047142D01*
X121882142Y-100047142D01*
X121739285Y-100011428D01*
X121667857Y-99975714D01*
X121596428Y-99904285D01*
X121560714Y-99797142D01*
X121560714Y-99618571D01*
X121310714Y-101118571D02*
X122382142Y-101118571D01*
X121596428Y-102190000D02*
X121560714Y-102297142D01*
X121560714Y-102475714D01*
X121596428Y-102547142D01*
X121632142Y-102582857D01*
X121703571Y-102618571D01*
X121775000Y-102618571D01*
X121846428Y-102582857D01*
X121882142Y-102547142D01*
X121917857Y-102475714D01*
X121953571Y-102332857D01*
X121989285Y-102261428D01*
X122025000Y-102225714D01*
X122096428Y-102190000D01*
X122167857Y-102190000D01*
X122239285Y-102225714D01*
X122275000Y-102261428D01*
X122310714Y-102332857D01*
X122310714Y-102511428D01*
X122275000Y-102618571D01*
X122310714Y-102868571D02*
X121560714Y-103047142D01*
X122096428Y-103190000D01*
X121560714Y-103332857D01*
X122310714Y-103511428D01*
X121560714Y-103797142D02*
X122310714Y-103797142D01*
X122310714Y-104047142D02*
X122310714Y-104475714D01*
X121560714Y-104261428D02*
X122310714Y-104261428D01*
X121632142Y-105154285D02*
X121596428Y-105118571D01*
X121560714Y-105011428D01*
X121560714Y-104940000D01*
X121596428Y-104832857D01*
X121667857Y-104761428D01*
X121739285Y-104725714D01*
X121882142Y-104690000D01*
X121989285Y-104690000D01*
X122132142Y-104725714D01*
X122203571Y-104761428D01*
X122275000Y-104832857D01*
X122310714Y-104940000D01*
X122310714Y-105011428D01*
X122275000Y-105118571D01*
X122239285Y-105154285D01*
X121560714Y-105475714D02*
X122310714Y-105475714D01*
X121953571Y-105475714D02*
X121953571Y-105904285D01*
X121560714Y-105904285D02*
X122310714Y-105904285D01*
D11*
X171140000Y-108718571D02*
X171425714Y-108718571D01*
X171568571Y-108790000D01*
X171711428Y-108932857D01*
X171782857Y-109218571D01*
X171782857Y-109718571D01*
X171711428Y-110004285D01*
X171568571Y-110147142D01*
X171425714Y-110218571D01*
X171140000Y-110218571D01*
X170997142Y-110147142D01*
X170854285Y-110004285D01*
X170782857Y-109718571D01*
X170782857Y-109218571D01*
X170854285Y-108932857D01*
X170997142Y-108790000D01*
X171140000Y-108718571D01*
X172425714Y-108718571D02*
X172425714Y-109932857D01*
X172497142Y-110075714D01*
X172568571Y-110147142D01*
X172711428Y-110218571D01*
X172997142Y-110218571D01*
X173140000Y-110147142D01*
X173211428Y-110075714D01*
X173282857Y-109932857D01*
X173282857Y-108718571D01*
X173782857Y-108718571D02*
X174640000Y-108718571D01*
X174211428Y-110218571D02*
X174211428Y-108718571D01*
X176282857Y-109647142D02*
X177425714Y-109647142D01*
X171400000Y-86458571D02*
X171685714Y-86458571D01*
X171828571Y-86530000D01*
X171971428Y-86672857D01*
X172042857Y-86958571D01*
X172042857Y-87458571D01*
X171971428Y-87744285D01*
X171828571Y-87887142D01*
X171685714Y-87958571D01*
X171400000Y-87958571D01*
X171257142Y-87887142D01*
X171114285Y-87744285D01*
X171042857Y-87458571D01*
X171042857Y-86958571D01*
X171114285Y-86672857D01*
X171257142Y-86530000D01*
X171400000Y-86458571D01*
X172685714Y-86458571D02*
X172685714Y-87672857D01*
X172757142Y-87815714D01*
X172828571Y-87887142D01*
X172971428Y-87958571D01*
X173257142Y-87958571D01*
X173400000Y-87887142D01*
X173471428Y-87815714D01*
X173542857Y-87672857D01*
X173542857Y-86458571D01*
X174042857Y-86458571D02*
X174900000Y-86458571D01*
X174471428Y-87958571D02*
X174471428Y-86458571D01*
X176542857Y-87387142D02*
X177685714Y-87387142D01*
X177114285Y-87958571D02*
X177114285Y-86815714D01*
X121224285Y-87918571D02*
X121224285Y-86418571D01*
X121938571Y-87918571D02*
X121938571Y-86418571D01*
X122795714Y-87918571D01*
X122795714Y-86418571D01*
X124652857Y-87347142D02*
X125795714Y-87347142D01*
X125224285Y-87918571D02*
X125224285Y-86775714D01*
X121384285Y-110158571D02*
X121384285Y-108658571D01*
X122098571Y-110158571D02*
X122098571Y-108658571D01*
X122955714Y-110158571D01*
X122955714Y-108658571D01*
X124812857Y-109587142D02*
X125955714Y-109587142D01*
D12*
G36*
X144083886Y-91184505D02*
X144158539Y-91221727D01*
X144224431Y-91290261D01*
X144242577Y-91315648D01*
X144262345Y-91348866D01*
X144275172Y-91384945D01*
X144282510Y-91433098D01*
X144285813Y-91502536D01*
X144286538Y-91594206D01*
X144283263Y-91719830D01*
X144271877Y-91814154D01*
X144250041Y-91884523D01*
X144215419Y-91938286D01*
X144165670Y-91982788D01*
X144162014Y-91985423D01*
X144112985Y-92012377D01*
X144053945Y-92025712D01*
X143978859Y-92029000D01*
X143856795Y-92029000D01*
X143856744Y-92147497D01*
X143855608Y-92213492D01*
X143848686Y-92252202D01*
X143830598Y-92275419D01*
X143795962Y-92294933D01*
X143787645Y-92298920D01*
X143748720Y-92317603D01*
X143718583Y-92329403D01*
X143696174Y-92330422D01*
X143680433Y-92316761D01*
X143670302Y-92284522D01*
X143664723Y-92229804D01*
X143662635Y-92148711D01*
X143662981Y-92037344D01*
X143664700Y-91891802D01*
X143665237Y-91848269D01*
X143667172Y-91698205D01*
X143668904Y-91600042D01*
X143856692Y-91600042D01*
X143857748Y-91683364D01*
X143862438Y-91737880D01*
X143873051Y-91773837D01*
X143891872Y-91801482D01*
X143904650Y-91814965D01*
X143956890Y-91854417D01*
X144003142Y-91857628D01*
X144050867Y-91825049D01*
X144052077Y-91823846D01*
X144071494Y-91798668D01*
X144083307Y-91764447D01*
X144089265Y-91711748D01*
X144091120Y-91631131D01*
X144091154Y-91613271D01*
X144086670Y-91502175D01*
X144072074Y-91425161D01*
X144045650Y-91378147D01*
X144005683Y-91357050D01*
X143982584Y-91354923D01*
X143927762Y-91364900D01*
X143890158Y-91397752D01*
X143867523Y-91457857D01*
X143857606Y-91549598D01*
X143856692Y-91600042D01*
X143668904Y-91600042D01*
X143669222Y-91582060D01*
X143671873Y-91494679D01*
X143675606Y-91430905D01*
X143680907Y-91385582D01*
X143688258Y-91353555D01*
X143698143Y-91329668D01*
X143711046Y-91308764D01*
X143716579Y-91300898D01*
X143789969Y-91226595D01*
X143882760Y-91184467D01*
X143990096Y-91172722D01*
X144083886Y-91184505D01*
X144083886Y-91184505D01*
G37*
X144083886Y-91184505D02*
X144158539Y-91221727D01*
X144224431Y-91290261D01*
X144242577Y-91315648D01*
X144262345Y-91348866D01*
X144275172Y-91384945D01*
X144282510Y-91433098D01*
X144285813Y-91502536D01*
X144286538Y-91594206D01*
X144283263Y-91719830D01*
X144271877Y-91814154D01*
X144250041Y-91884523D01*
X144215419Y-91938286D01*
X144165670Y-91982788D01*
X144162014Y-91985423D01*
X144112985Y-92012377D01*
X144053945Y-92025712D01*
X143978859Y-92029000D01*
X143856795Y-92029000D01*
X143856744Y-92147497D01*
X143855608Y-92213492D01*
X143848686Y-92252202D01*
X143830598Y-92275419D01*
X143795962Y-92294933D01*
X143787645Y-92298920D01*
X143748720Y-92317603D01*
X143718583Y-92329403D01*
X143696174Y-92330422D01*
X143680433Y-92316761D01*
X143670302Y-92284522D01*
X143664723Y-92229804D01*
X143662635Y-92148711D01*
X143662981Y-92037344D01*
X143664700Y-91891802D01*
X143665237Y-91848269D01*
X143667172Y-91698205D01*
X143668904Y-91600042D01*
X143856692Y-91600042D01*
X143857748Y-91683364D01*
X143862438Y-91737880D01*
X143873051Y-91773837D01*
X143891872Y-91801482D01*
X143904650Y-91814965D01*
X143956890Y-91854417D01*
X144003142Y-91857628D01*
X144050867Y-91825049D01*
X144052077Y-91823846D01*
X144071494Y-91798668D01*
X144083307Y-91764447D01*
X144089265Y-91711748D01*
X144091120Y-91631131D01*
X144091154Y-91613271D01*
X144086670Y-91502175D01*
X144072074Y-91425161D01*
X144045650Y-91378147D01*
X144005683Y-91357050D01*
X143982584Y-91354923D01*
X143927762Y-91364900D01*
X143890158Y-91397752D01*
X143867523Y-91457857D01*
X143857606Y-91549598D01*
X143856692Y-91600042D01*
X143668904Y-91600042D01*
X143669222Y-91582060D01*
X143671873Y-91494679D01*
X143675606Y-91430905D01*
X143680907Y-91385582D01*
X143688258Y-91353555D01*
X143698143Y-91329668D01*
X143711046Y-91308764D01*
X143716579Y-91300898D01*
X143789969Y-91226595D01*
X143882760Y-91184467D01*
X143990096Y-91172722D01*
X144083886Y-91184505D01*
G36*
X145586664Y-91195089D02*
X145649367Y-91231358D01*
X145692961Y-91267358D01*
X145724845Y-91305075D01*
X145746810Y-91351199D01*
X145760649Y-91412421D01*
X145768153Y-91495431D01*
X145771117Y-91606919D01*
X145771461Y-91687062D01*
X145771461Y-91982065D01*
X145605385Y-92056515D01*
X145595615Y-91733402D01*
X145591579Y-91612729D01*
X145587344Y-91525141D01*
X145582097Y-91464650D01*
X145575025Y-91425268D01*
X145565311Y-91401007D01*
X145552144Y-91385880D01*
X145547919Y-91382606D01*
X145483909Y-91357034D01*
X145419208Y-91367153D01*
X145380692Y-91394000D01*
X145365025Y-91413024D01*
X145354180Y-91437988D01*
X145347288Y-91475834D01*
X145343479Y-91533502D01*
X145341883Y-91617935D01*
X145341615Y-91705928D01*
X145341563Y-91816323D01*
X145339672Y-91894463D01*
X145333345Y-91947165D01*
X145319983Y-91981242D01*
X145296985Y-92003511D01*
X145261754Y-92020787D01*
X145214697Y-92038738D01*
X145163303Y-92058278D01*
X145169421Y-91711485D01*
X145171884Y-91586468D01*
X145174767Y-91494082D01*
X145178898Y-91427881D01*
X145185107Y-91381420D01*
X145194226Y-91348256D01*
X145207083Y-91321944D01*
X145222584Y-91298729D01*
X145297371Y-91224569D01*
X145388628Y-91181684D01*
X145487883Y-91171412D01*
X145586664Y-91195089D01*
X145586664Y-91195089D01*
G37*
X145586664Y-91195089D02*
X145649367Y-91231358D01*
X145692961Y-91267358D01*
X145724845Y-91305075D01*
X145746810Y-91351199D01*
X145760649Y-91412421D01*
X145768153Y-91495431D01*
X145771117Y-91606919D01*
X145771461Y-91687062D01*
X145771461Y-91982065D01*
X145605385Y-92056515D01*
X145595615Y-91733402D01*
X145591579Y-91612729D01*
X145587344Y-91525141D01*
X145582097Y-91464650D01*
X145575025Y-91425268D01*
X145565311Y-91401007D01*
X145552144Y-91385880D01*
X145547919Y-91382606D01*
X145483909Y-91357034D01*
X145419208Y-91367153D01*
X145380692Y-91394000D01*
X145365025Y-91413024D01*
X145354180Y-91437988D01*
X145347288Y-91475834D01*
X145343479Y-91533502D01*
X145341883Y-91617935D01*
X145341615Y-91705928D01*
X145341563Y-91816323D01*
X145339672Y-91894463D01*
X145333345Y-91947165D01*
X145319983Y-91981242D01*
X145296985Y-92003511D01*
X145261754Y-92020787D01*
X145214697Y-92038738D01*
X145163303Y-92058278D01*
X145169421Y-91711485D01*
X145171884Y-91586468D01*
X145174767Y-91494082D01*
X145178898Y-91427881D01*
X145185107Y-91381420D01*
X145194226Y-91348256D01*
X145207083Y-91321944D01*
X145222584Y-91298729D01*
X145297371Y-91224569D01*
X145388628Y-91181684D01*
X145487883Y-91171412D01*
X145586664Y-91195089D01*
G36*
X143331886Y-91187256D02*
X143423464Y-91235409D01*
X143491049Y-91312905D01*
X143515057Y-91362727D01*
X143533738Y-91437533D01*
X143543301Y-91532052D01*
X143544208Y-91635210D01*
X143536921Y-91735935D01*
X143521903Y-91823153D01*
X143499615Y-91885791D01*
X143492765Y-91896579D01*
X143411632Y-91977105D01*
X143315266Y-92025336D01*
X143210701Y-92039450D01*
X143104968Y-92017629D01*
X143075543Y-92004547D01*
X143018241Y-91964231D01*
X142967950Y-91910775D01*
X142963197Y-91903995D01*
X142943878Y-91871321D01*
X142931108Y-91836394D01*
X142923564Y-91790414D01*
X142919924Y-91724584D01*
X142918865Y-91630105D01*
X142918846Y-91608923D01*
X142918894Y-91602182D01*
X143114231Y-91602182D01*
X143115368Y-91691349D01*
X143119841Y-91750520D01*
X143129246Y-91788741D01*
X143145176Y-91815053D01*
X143153308Y-91823846D01*
X143200058Y-91857261D01*
X143245447Y-91855737D01*
X143291340Y-91826752D01*
X143318712Y-91795809D01*
X143334923Y-91750643D01*
X143344026Y-91679420D01*
X143344651Y-91671114D01*
X143346204Y-91542037D01*
X143329965Y-91446172D01*
X143296152Y-91384107D01*
X143244984Y-91356432D01*
X143226720Y-91354923D01*
X143178760Y-91362513D01*
X143145953Y-91388808D01*
X143125895Y-91439095D01*
X143116178Y-91518664D01*
X143114231Y-91602182D01*
X142918894Y-91602182D01*
X142919574Y-91508249D01*
X142922629Y-91437906D01*
X142929322Y-91389163D01*
X142940960Y-91353288D01*
X142958853Y-91321548D01*
X142962808Y-91315648D01*
X143029267Y-91236104D01*
X143101685Y-91189929D01*
X143189849Y-91171599D01*
X143219787Y-91170703D01*
X143331886Y-91187256D01*
X143331886Y-91187256D01*
G37*
X143331886Y-91187256D02*
X143423464Y-91235409D01*
X143491049Y-91312905D01*
X143515057Y-91362727D01*
X143533738Y-91437533D01*
X143543301Y-91532052D01*
X143544208Y-91635210D01*
X143536921Y-91735935D01*
X143521903Y-91823153D01*
X143499615Y-91885791D01*
X143492765Y-91896579D01*
X143411632Y-91977105D01*
X143315266Y-92025336D01*
X143210701Y-92039450D01*
X143104968Y-92017629D01*
X143075543Y-92004547D01*
X143018241Y-91964231D01*
X142967950Y-91910775D01*
X142963197Y-91903995D01*
X142943878Y-91871321D01*
X142931108Y-91836394D01*
X142923564Y-91790414D01*
X142919924Y-91724584D01*
X142918865Y-91630105D01*
X142918846Y-91608923D01*
X142918894Y-91602182D01*
X143114231Y-91602182D01*
X143115368Y-91691349D01*
X143119841Y-91750520D01*
X143129246Y-91788741D01*
X143145176Y-91815053D01*
X143153308Y-91823846D01*
X143200058Y-91857261D01*
X143245447Y-91855737D01*
X143291340Y-91826752D01*
X143318712Y-91795809D01*
X143334923Y-91750643D01*
X143344026Y-91679420D01*
X143344651Y-91671114D01*
X143346204Y-91542037D01*
X143329965Y-91446172D01*
X143296152Y-91384107D01*
X143244984Y-91356432D01*
X143226720Y-91354923D01*
X143178760Y-91362513D01*
X143145953Y-91388808D01*
X143125895Y-91439095D01*
X143116178Y-91518664D01*
X143114231Y-91602182D01*
X142918894Y-91602182D01*
X142919574Y-91508249D01*
X142922629Y-91437906D01*
X142929322Y-91389163D01*
X142940960Y-91353288D01*
X142958853Y-91321548D01*
X142962808Y-91315648D01*
X143029267Y-91236104D01*
X143101685Y-91189929D01*
X143189849Y-91171599D01*
X143219787Y-91170703D01*
X143331886Y-91187256D01*
G36*
X144849254Y-91199745D02*
X144926286Y-91251567D01*
X144985816Y-91326412D01*
X145021378Y-91421654D01*
X145028571Y-91491756D01*
X145027754Y-91521009D01*
X145020914Y-91543407D01*
X145002112Y-91563474D01*
X144965408Y-91585733D01*
X144904862Y-91614709D01*
X144814534Y-91654927D01*
X144814077Y-91655129D01*
X144730933Y-91693210D01*
X144662753Y-91727025D01*
X144616505Y-91752933D01*
X144599158Y-91767295D01*
X144599154Y-91767411D01*
X144614443Y-91798685D01*
X144650196Y-91833157D01*
X144691242Y-91857990D01*
X144712037Y-91862923D01*
X144768770Y-91845862D01*
X144817627Y-91803133D01*
X144841465Y-91756155D01*
X144864397Y-91721522D01*
X144909318Y-91682081D01*
X144962123Y-91648009D01*
X145008710Y-91629480D01*
X145018452Y-91628462D01*
X145029418Y-91645215D01*
X145030079Y-91688039D01*
X145022020Y-91745781D01*
X145006827Y-91807289D01*
X144986086Y-91861409D01*
X144985038Y-91863510D01*
X144922621Y-91950660D01*
X144841726Y-92009939D01*
X144749856Y-92039034D01*
X144654513Y-92035634D01*
X144563198Y-91997428D01*
X144559138Y-91994741D01*
X144487306Y-91929642D01*
X144440073Y-91844705D01*
X144413934Y-91733021D01*
X144410426Y-91701643D01*
X144404213Y-91553536D01*
X144411661Y-91484468D01*
X144599154Y-91484468D01*
X144601590Y-91527552D01*
X144614914Y-91540126D01*
X144648132Y-91530719D01*
X144700494Y-91508483D01*
X144759024Y-91480610D01*
X144760479Y-91479872D01*
X144810089Y-91453777D01*
X144830000Y-91436363D01*
X144825090Y-91418107D01*
X144804416Y-91394120D01*
X144751819Y-91359406D01*
X144695177Y-91356856D01*
X144644369Y-91382119D01*
X144609276Y-91430847D01*
X144599154Y-91484468D01*
X144411661Y-91484468D01*
X144416992Y-91435036D01*
X144449778Y-91341055D01*
X144495421Y-91275215D01*
X144577802Y-91208681D01*
X144668546Y-91175676D01*
X144761185Y-91173573D01*
X144849254Y-91199745D01*
X144849254Y-91199745D01*
G37*
X144849254Y-91199745D02*
X144926286Y-91251567D01*
X144985816Y-91326412D01*
X145021378Y-91421654D01*
X145028571Y-91491756D01*
X145027754Y-91521009D01*
X145020914Y-91543407D01*
X145002112Y-91563474D01*
X144965408Y-91585733D01*
X144904862Y-91614709D01*
X144814534Y-91654927D01*
X144814077Y-91655129D01*
X144730933Y-91693210D01*
X144662753Y-91727025D01*
X144616505Y-91752933D01*
X144599158Y-91767295D01*
X144599154Y-91767411D01*
X144614443Y-91798685D01*
X144650196Y-91833157D01*
X144691242Y-91857990D01*
X144712037Y-91862923D01*
X144768770Y-91845862D01*
X144817627Y-91803133D01*
X144841465Y-91756155D01*
X144864397Y-91721522D01*
X144909318Y-91682081D01*
X144962123Y-91648009D01*
X145008710Y-91629480D01*
X145018452Y-91628462D01*
X145029418Y-91645215D01*
X145030079Y-91688039D01*
X145022020Y-91745781D01*
X145006827Y-91807289D01*
X144986086Y-91861409D01*
X144985038Y-91863510D01*
X144922621Y-91950660D01*
X144841726Y-92009939D01*
X144749856Y-92039034D01*
X144654513Y-92035634D01*
X144563198Y-91997428D01*
X144559138Y-91994741D01*
X144487306Y-91929642D01*
X144440073Y-91844705D01*
X144413934Y-91733021D01*
X144410426Y-91701643D01*
X144404213Y-91553536D01*
X144411661Y-91484468D01*
X144599154Y-91484468D01*
X144601590Y-91527552D01*
X144614914Y-91540126D01*
X144648132Y-91530719D01*
X144700494Y-91508483D01*
X144759024Y-91480610D01*
X144760479Y-91479872D01*
X144810089Y-91453777D01*
X144830000Y-91436363D01*
X144825090Y-91418107D01*
X144804416Y-91394120D01*
X144751819Y-91359406D01*
X144695177Y-91356856D01*
X144644369Y-91382119D01*
X144609276Y-91430847D01*
X144599154Y-91484468D01*
X144411661Y-91484468D01*
X144416992Y-91435036D01*
X144449778Y-91341055D01*
X144495421Y-91275215D01*
X144577802Y-91208681D01*
X144668546Y-91175676D01*
X144761185Y-91173573D01*
X144849254Y-91199745D01*
G36*
X146474846Y-91092120D02*
X146480572Y-91171980D01*
X146487149Y-91219039D01*
X146496262Y-91239566D01*
X146509598Y-91239829D01*
X146513923Y-91237378D01*
X146571444Y-91219636D01*
X146646268Y-91220672D01*
X146722339Y-91238910D01*
X146769918Y-91262505D01*
X146818702Y-91300198D01*
X146854364Y-91342855D01*
X146878845Y-91397057D01*
X146894087Y-91469384D01*
X146902030Y-91566419D01*
X146904616Y-91694742D01*
X146904662Y-91719358D01*
X146904692Y-91995870D01*
X146843161Y-92017320D01*
X146799459Y-92031912D01*
X146775482Y-92038706D01*
X146774777Y-92038769D01*
X146772415Y-92020345D01*
X146770406Y-91969526D01*
X146768901Y-91892993D01*
X146768053Y-91797430D01*
X146767923Y-91739329D01*
X146767651Y-91624771D01*
X146766252Y-91542667D01*
X146762849Y-91486393D01*
X146756567Y-91449326D01*
X146746529Y-91424844D01*
X146731861Y-91406325D01*
X146722702Y-91397406D01*
X146659789Y-91361466D01*
X146591136Y-91358775D01*
X146528848Y-91389170D01*
X146517329Y-91400144D01*
X146500433Y-91420779D01*
X146488714Y-91445256D01*
X146481233Y-91480647D01*
X146477054Y-91534026D01*
X146475237Y-91612466D01*
X146474846Y-91720617D01*
X146474846Y-91995870D01*
X146413315Y-92017320D01*
X146369613Y-92031912D01*
X146345636Y-92038706D01*
X146344930Y-92038769D01*
X146343126Y-92020069D01*
X146341500Y-91967322D01*
X146340117Y-91885557D01*
X146339042Y-91779805D01*
X146338340Y-91655094D01*
X146338077Y-91516455D01*
X146338077Y-90981806D01*
X146465077Y-90928236D01*
X146474846Y-91092120D01*
X146474846Y-91092120D01*
G37*
X146474846Y-91092120D02*
X146480572Y-91171980D01*
X146487149Y-91219039D01*
X146496262Y-91239566D01*
X146509598Y-91239829D01*
X146513923Y-91237378D01*
X146571444Y-91219636D01*
X146646268Y-91220672D01*
X146722339Y-91238910D01*
X146769918Y-91262505D01*
X146818702Y-91300198D01*
X146854364Y-91342855D01*
X146878845Y-91397057D01*
X146894087Y-91469384D01*
X146902030Y-91566419D01*
X146904616Y-91694742D01*
X146904662Y-91719358D01*
X146904692Y-91995870D01*
X146843161Y-92017320D01*
X146799459Y-92031912D01*
X146775482Y-92038706D01*
X146774777Y-92038769D01*
X146772415Y-92020345D01*
X146770406Y-91969526D01*
X146768901Y-91892993D01*
X146768053Y-91797430D01*
X146767923Y-91739329D01*
X146767651Y-91624771D01*
X146766252Y-91542667D01*
X146762849Y-91486393D01*
X146756567Y-91449326D01*
X146746529Y-91424844D01*
X146731861Y-91406325D01*
X146722702Y-91397406D01*
X146659789Y-91361466D01*
X146591136Y-91358775D01*
X146528848Y-91389170D01*
X146517329Y-91400144D01*
X146500433Y-91420779D01*
X146488714Y-91445256D01*
X146481233Y-91480647D01*
X146477054Y-91534026D01*
X146475237Y-91612466D01*
X146474846Y-91720617D01*
X146474846Y-91995870D01*
X146413315Y-92017320D01*
X146369613Y-92031912D01*
X146345636Y-92038706D01*
X146344930Y-92038769D01*
X146343126Y-92020069D01*
X146341500Y-91967322D01*
X146340117Y-91885557D01*
X146339042Y-91779805D01*
X146338340Y-91655094D01*
X146338077Y-91516455D01*
X146338077Y-90981806D01*
X146465077Y-90928236D01*
X146474846Y-91092120D01*
G36*
X147368501Y-91226303D02*
X147445060Y-91254733D01*
X147445936Y-91255279D01*
X147493285Y-91290127D01*
X147528241Y-91330852D01*
X147552825Y-91383925D01*
X147569062Y-91455814D01*
X147578975Y-91552992D01*
X147584586Y-91681928D01*
X147585077Y-91700298D01*
X147592141Y-91977287D01*
X147532695Y-92008028D01*
X147489681Y-92028802D01*
X147463710Y-92038646D01*
X147462509Y-92038769D01*
X147458014Y-92020606D01*
X147454444Y-91971612D01*
X147452248Y-91900031D01*
X147451769Y-91842068D01*
X147451758Y-91748170D01*
X147447466Y-91689203D01*
X147432503Y-91661079D01*
X147400482Y-91659706D01*
X147345014Y-91680998D01*
X147261269Y-91720136D01*
X147199689Y-91752643D01*
X147168017Y-91780845D01*
X147158706Y-91811582D01*
X147158692Y-91813104D01*
X147174057Y-91866054D01*
X147219547Y-91894660D01*
X147289166Y-91898803D01*
X147339313Y-91898084D01*
X147365754Y-91912527D01*
X147382243Y-91947218D01*
X147391733Y-91991416D01*
X147378057Y-92016493D01*
X147372907Y-92020082D01*
X147324425Y-92034496D01*
X147256531Y-92036537D01*
X147186612Y-92026983D01*
X147137068Y-92009522D01*
X147068570Y-91951364D01*
X147029634Y-91870408D01*
X147021923Y-91807160D01*
X147027807Y-91750111D01*
X147049101Y-91703542D01*
X147091265Y-91662181D01*
X147159759Y-91620755D01*
X147260044Y-91573993D01*
X147266154Y-91571350D01*
X147356490Y-91529617D01*
X147412235Y-91495391D01*
X147436129Y-91464635D01*
X147430913Y-91433311D01*
X147399328Y-91397383D01*
X147389883Y-91389116D01*
X147326617Y-91357058D01*
X147261064Y-91358407D01*
X147203972Y-91389838D01*
X147166093Y-91448024D01*
X147162574Y-91459446D01*
X147128300Y-91514837D01*
X147084809Y-91541518D01*
X147021923Y-91567960D01*
X147021923Y-91499548D01*
X147041052Y-91400110D01*
X147097831Y-91308902D01*
X147127378Y-91278389D01*
X147194542Y-91239228D01*
X147279956Y-91221500D01*
X147368501Y-91226303D01*
X147368501Y-91226303D01*
G37*
X147368501Y-91226303D02*
X147445060Y-91254733D01*
X147445936Y-91255279D01*
X147493285Y-91290127D01*
X147528241Y-91330852D01*
X147552825Y-91383925D01*
X147569062Y-91455814D01*
X147578975Y-91552992D01*
X147584586Y-91681928D01*
X147585077Y-91700298D01*
X147592141Y-91977287D01*
X147532695Y-92008028D01*
X147489681Y-92028802D01*
X147463710Y-92038646D01*
X147462509Y-92038769D01*
X147458014Y-92020606D01*
X147454444Y-91971612D01*
X147452248Y-91900031D01*
X147451769Y-91842068D01*
X147451758Y-91748170D01*
X147447466Y-91689203D01*
X147432503Y-91661079D01*
X147400482Y-91659706D01*
X147345014Y-91680998D01*
X147261269Y-91720136D01*
X147199689Y-91752643D01*
X147168017Y-91780845D01*
X147158706Y-91811582D01*
X147158692Y-91813104D01*
X147174057Y-91866054D01*
X147219547Y-91894660D01*
X147289166Y-91898803D01*
X147339313Y-91898084D01*
X147365754Y-91912527D01*
X147382243Y-91947218D01*
X147391733Y-91991416D01*
X147378057Y-92016493D01*
X147372907Y-92020082D01*
X147324425Y-92034496D01*
X147256531Y-92036537D01*
X147186612Y-92026983D01*
X147137068Y-92009522D01*
X147068570Y-91951364D01*
X147029634Y-91870408D01*
X147021923Y-91807160D01*
X147027807Y-91750111D01*
X147049101Y-91703542D01*
X147091265Y-91662181D01*
X147159759Y-91620755D01*
X147260044Y-91573993D01*
X147266154Y-91571350D01*
X147356490Y-91529617D01*
X147412235Y-91495391D01*
X147436129Y-91464635D01*
X147430913Y-91433311D01*
X147399328Y-91397383D01*
X147389883Y-91389116D01*
X147326617Y-91357058D01*
X147261064Y-91358407D01*
X147203972Y-91389838D01*
X147166093Y-91448024D01*
X147162574Y-91459446D01*
X147128300Y-91514837D01*
X147084809Y-91541518D01*
X147021923Y-91567960D01*
X147021923Y-91499548D01*
X147041052Y-91400110D01*
X147097831Y-91308902D01*
X147127378Y-91278389D01*
X147194542Y-91239228D01*
X147279956Y-91221500D01*
X147368501Y-91226303D01*
G36*
X148028362Y-91224670D02*
X148117117Y-91257421D01*
X148189022Y-91315350D01*
X148217144Y-91356128D01*
X148247802Y-91430954D01*
X148247165Y-91485058D01*
X148214987Y-91521446D01*
X148203081Y-91527633D01*
X148151675Y-91546925D01*
X148125422Y-91541982D01*
X148116530Y-91509587D01*
X148116077Y-91491692D01*
X148099797Y-91425859D01*
X148057365Y-91379807D01*
X147998388Y-91357564D01*
X147932475Y-91363161D01*
X147878895Y-91392229D01*
X147860798Y-91408810D01*
X147847971Y-91428925D01*
X147839306Y-91459332D01*
X147833696Y-91506788D01*
X147830035Y-91578050D01*
X147827215Y-91679875D01*
X147826484Y-91712115D01*
X147823820Y-91822410D01*
X147820792Y-91900036D01*
X147816250Y-91951396D01*
X147809046Y-91982890D01*
X147798033Y-92000920D01*
X147782060Y-92011888D01*
X147771834Y-92016733D01*
X147728406Y-92033301D01*
X147702842Y-92038769D01*
X147694395Y-92020507D01*
X147689239Y-91965296D01*
X147687346Y-91872499D01*
X147688689Y-91741478D01*
X147689107Y-91721269D01*
X147692058Y-91601733D01*
X147695548Y-91514449D01*
X147700514Y-91452591D01*
X147707893Y-91409336D01*
X147718624Y-91377860D01*
X147733645Y-91351339D01*
X147741502Y-91339975D01*
X147786553Y-91289692D01*
X147836940Y-91250581D01*
X147843108Y-91247167D01*
X147933458Y-91220212D01*
X148028362Y-91224670D01*
X148028362Y-91224670D01*
G37*
X148028362Y-91224670D02*
X148117117Y-91257421D01*
X148189022Y-91315350D01*
X148217144Y-91356128D01*
X148247802Y-91430954D01*
X148247165Y-91485058D01*
X148214987Y-91521446D01*
X148203081Y-91527633D01*
X148151675Y-91546925D01*
X148125422Y-91541982D01*
X148116530Y-91509587D01*
X148116077Y-91491692D01*
X148099797Y-91425859D01*
X148057365Y-91379807D01*
X147998388Y-91357564D01*
X147932475Y-91363161D01*
X147878895Y-91392229D01*
X147860798Y-91408810D01*
X147847971Y-91428925D01*
X147839306Y-91459332D01*
X147833696Y-91506788D01*
X147830035Y-91578050D01*
X147827215Y-91679875D01*
X147826484Y-91712115D01*
X147823820Y-91822410D01*
X147820792Y-91900036D01*
X147816250Y-91951396D01*
X147809046Y-91982890D01*
X147798033Y-92000920D01*
X147782060Y-92011888D01*
X147771834Y-92016733D01*
X147728406Y-92033301D01*
X147702842Y-92038769D01*
X147694395Y-92020507D01*
X147689239Y-91965296D01*
X147687346Y-91872499D01*
X147688689Y-91741478D01*
X147689107Y-91721269D01*
X147692058Y-91601733D01*
X147695548Y-91514449D01*
X147700514Y-91452591D01*
X147707893Y-91409336D01*
X147718624Y-91377860D01*
X147733645Y-91351339D01*
X147741502Y-91339975D01*
X147786553Y-91289692D01*
X147836940Y-91250581D01*
X147843108Y-91247167D01*
X147933458Y-91220212D01*
X148028362Y-91224670D01*
G36*
X148917081Y-91380289D02*
X148916833Y-91526320D01*
X148915872Y-91638655D01*
X148913794Y-91722678D01*
X148910193Y-91783769D01*
X148904665Y-91827309D01*
X148896804Y-91858679D01*
X148886207Y-91883262D01*
X148878182Y-91897294D01*
X148811728Y-91973388D01*
X148727470Y-92021084D01*
X148634249Y-92038199D01*
X148540900Y-92022546D01*
X148485312Y-91994418D01*
X148426957Y-91945760D01*
X148387186Y-91886333D01*
X148363190Y-91808507D01*
X148352161Y-91704652D01*
X148350599Y-91628462D01*
X148350809Y-91622986D01*
X148487308Y-91622986D01*
X148488141Y-91710355D01*
X148491961Y-91768192D01*
X148500746Y-91806029D01*
X148516474Y-91833398D01*
X148535266Y-91854042D01*
X148598375Y-91893890D01*
X148666137Y-91897295D01*
X148730179Y-91864025D01*
X148735164Y-91859517D01*
X148756439Y-91836067D01*
X148769779Y-91808166D01*
X148777001Y-91766641D01*
X148779923Y-91702316D01*
X148780385Y-91631200D01*
X148779383Y-91541858D01*
X148775238Y-91482258D01*
X148766236Y-91443089D01*
X148750667Y-91415040D01*
X148737902Y-91400144D01*
X148678600Y-91362575D01*
X148610301Y-91358057D01*
X148545110Y-91386753D01*
X148532528Y-91397406D01*
X148511111Y-91421063D01*
X148497744Y-91449251D01*
X148490566Y-91491245D01*
X148487719Y-91556319D01*
X148487308Y-91622986D01*
X148350809Y-91622986D01*
X148355322Y-91505765D01*
X148371362Y-91413577D01*
X148401528Y-91344269D01*
X148448629Y-91290211D01*
X148485312Y-91262505D01*
X148551990Y-91232572D01*
X148629272Y-91218678D01*
X148701110Y-91222397D01*
X148741308Y-91237400D01*
X148757082Y-91241670D01*
X148767550Y-91225750D01*
X148774856Y-91183089D01*
X148780385Y-91118106D01*
X148786437Y-91045732D01*
X148794844Y-91002187D01*
X148810141Y-90977287D01*
X148836864Y-90960845D01*
X148853654Y-90953564D01*
X148917154Y-90926963D01*
X148917081Y-91380289D01*
X148917081Y-91380289D01*
G37*
X148917081Y-91380289D02*
X148916833Y-91526320D01*
X148915872Y-91638655D01*
X148913794Y-91722678D01*
X148910193Y-91783769D01*
X148904665Y-91827309D01*
X148896804Y-91858679D01*
X148886207Y-91883262D01*
X148878182Y-91897294D01*
X148811728Y-91973388D01*
X148727470Y-92021084D01*
X148634249Y-92038199D01*
X148540900Y-92022546D01*
X148485312Y-91994418D01*
X148426957Y-91945760D01*
X148387186Y-91886333D01*
X148363190Y-91808507D01*
X148352161Y-91704652D01*
X148350599Y-91628462D01*
X148350809Y-91622986D01*
X148487308Y-91622986D01*
X148488141Y-91710355D01*
X148491961Y-91768192D01*
X148500746Y-91806029D01*
X148516474Y-91833398D01*
X148535266Y-91854042D01*
X148598375Y-91893890D01*
X148666137Y-91897295D01*
X148730179Y-91864025D01*
X148735164Y-91859517D01*
X148756439Y-91836067D01*
X148769779Y-91808166D01*
X148777001Y-91766641D01*
X148779923Y-91702316D01*
X148780385Y-91631200D01*
X148779383Y-91541858D01*
X148775238Y-91482258D01*
X148766236Y-91443089D01*
X148750667Y-91415040D01*
X148737902Y-91400144D01*
X148678600Y-91362575D01*
X148610301Y-91358057D01*
X148545110Y-91386753D01*
X148532528Y-91397406D01*
X148511111Y-91421063D01*
X148497744Y-91449251D01*
X148490566Y-91491245D01*
X148487719Y-91556319D01*
X148487308Y-91622986D01*
X148350809Y-91622986D01*
X148355322Y-91505765D01*
X148371362Y-91413577D01*
X148401528Y-91344269D01*
X148448629Y-91290211D01*
X148485312Y-91262505D01*
X148551990Y-91232572D01*
X148629272Y-91218678D01*
X148701110Y-91222397D01*
X148741308Y-91237400D01*
X148757082Y-91241670D01*
X148767550Y-91225750D01*
X148774856Y-91183089D01*
X148780385Y-91118106D01*
X148786437Y-91045732D01*
X148794844Y-91002187D01*
X148810141Y-90977287D01*
X148836864Y-90960845D01*
X148853654Y-90953564D01*
X148917154Y-90926963D01*
X148917081Y-91380289D01*
G36*
X149710929Y-91236662D02*
X149713911Y-91288068D01*
X149716247Y-91366192D01*
X149717749Y-91464857D01*
X149718231Y-91568343D01*
X149718231Y-91918533D01*
X149656401Y-91980363D01*
X149613793Y-92018462D01*
X149576390Y-92033895D01*
X149525270Y-92032918D01*
X149504978Y-92030433D01*
X149441554Y-92023200D01*
X149389095Y-92019055D01*
X149376308Y-92018672D01*
X149333199Y-92021176D01*
X149271544Y-92027462D01*
X149247638Y-92030433D01*
X149188922Y-92035028D01*
X149149464Y-92025046D01*
X149110338Y-91994228D01*
X149096215Y-91980363D01*
X149034385Y-91918533D01*
X149034385Y-91263503D01*
X149084150Y-91240829D01*
X149127002Y-91224034D01*
X149152073Y-91218154D01*
X149158501Y-91236736D01*
X149164509Y-91288655D01*
X149169697Y-91368172D01*
X149173664Y-91469546D01*
X149175577Y-91555192D01*
X149180923Y-91892231D01*
X149227560Y-91898825D01*
X149269976Y-91894214D01*
X149290760Y-91879287D01*
X149296570Y-91851377D01*
X149301530Y-91791925D01*
X149305246Y-91708466D01*
X149307324Y-91608532D01*
X149307624Y-91557104D01*
X149307923Y-91261054D01*
X149369454Y-91239604D01*
X149413004Y-91225020D01*
X149436694Y-91218219D01*
X149437377Y-91218154D01*
X149439754Y-91236642D01*
X149442366Y-91287906D01*
X149444995Y-91365649D01*
X149447421Y-91463574D01*
X149449115Y-91555192D01*
X149454461Y-91892231D01*
X149571692Y-91892231D01*
X149577072Y-91584746D01*
X149582451Y-91277261D01*
X149639601Y-91247707D01*
X149681797Y-91227413D01*
X149706770Y-91218204D01*
X149707491Y-91218154D01*
X149710929Y-91236662D01*
X149710929Y-91236662D01*
G37*
X149710929Y-91236662D02*
X149713911Y-91288068D01*
X149716247Y-91366192D01*
X149717749Y-91464857D01*
X149718231Y-91568343D01*
X149718231Y-91918533D01*
X149656401Y-91980363D01*
X149613793Y-92018462D01*
X149576390Y-92033895D01*
X149525270Y-92032918D01*
X149504978Y-92030433D01*
X149441554Y-92023200D01*
X149389095Y-92019055D01*
X149376308Y-92018672D01*
X149333199Y-92021176D01*
X149271544Y-92027462D01*
X149247638Y-92030433D01*
X149188922Y-92035028D01*
X149149464Y-92025046D01*
X149110338Y-91994228D01*
X149096215Y-91980363D01*
X149034385Y-91918533D01*
X149034385Y-91263503D01*
X149084150Y-91240829D01*
X149127002Y-91224034D01*
X149152073Y-91218154D01*
X149158501Y-91236736D01*
X149164509Y-91288655D01*
X149169697Y-91368172D01*
X149173664Y-91469546D01*
X149175577Y-91555192D01*
X149180923Y-91892231D01*
X149227560Y-91898825D01*
X149269976Y-91894214D01*
X149290760Y-91879287D01*
X149296570Y-91851377D01*
X149301530Y-91791925D01*
X149305246Y-91708466D01*
X149307324Y-91608532D01*
X149307624Y-91557104D01*
X149307923Y-91261054D01*
X149369454Y-91239604D01*
X149413004Y-91225020D01*
X149436694Y-91218219D01*
X149437377Y-91218154D01*
X149439754Y-91236642D01*
X149442366Y-91287906D01*
X149444995Y-91365649D01*
X149447421Y-91463574D01*
X149449115Y-91555192D01*
X149454461Y-91892231D01*
X149571692Y-91892231D01*
X149577072Y-91584746D01*
X149582451Y-91277261D01*
X149639601Y-91247707D01*
X149681797Y-91227413D01*
X149706770Y-91218204D01*
X149707491Y-91218154D01*
X149710929Y-91236662D01*
G36*
X150202333Y-91233528D02*
X150258590Y-91259117D01*
X150302747Y-91290124D01*
X150335101Y-91324795D01*
X150357438Y-91369520D01*
X150371546Y-91430692D01*
X150379211Y-91514701D01*
X150382220Y-91627940D01*
X150382538Y-91702509D01*
X150382538Y-91993420D01*
X150332773Y-92016095D01*
X150293576Y-92032667D01*
X150274157Y-92038769D01*
X150270442Y-92020610D01*
X150267495Y-91971648D01*
X150265691Y-91900153D01*
X150265308Y-91843385D01*
X150263661Y-91761371D01*
X150259222Y-91696309D01*
X150252740Y-91656467D01*
X150247590Y-91648000D01*
X150212977Y-91656646D01*
X150158640Y-91678823D01*
X150095722Y-91708886D01*
X150035368Y-91741192D01*
X149988721Y-91770098D01*
X149966926Y-91789961D01*
X149966839Y-91790175D01*
X149968714Y-91826935D01*
X149985525Y-91862026D01*
X150015039Y-91890528D01*
X150058116Y-91900061D01*
X150094932Y-91898950D01*
X150147074Y-91898133D01*
X150174444Y-91910349D01*
X150190882Y-91942624D01*
X150192955Y-91948710D01*
X150200081Y-91994739D01*
X150181024Y-92022687D01*
X150131353Y-92036007D01*
X150077697Y-92038470D01*
X149981142Y-92020210D01*
X149931159Y-91994131D01*
X149869429Y-91932868D01*
X149836690Y-91857670D01*
X149833753Y-91778211D01*
X149861424Y-91704167D01*
X149903047Y-91657769D01*
X149944604Y-91631793D01*
X150009922Y-91598907D01*
X150086038Y-91565557D01*
X150098726Y-91560461D01*
X150182333Y-91523565D01*
X150230530Y-91491046D01*
X150246030Y-91458718D01*
X150231550Y-91422394D01*
X150206692Y-91394000D01*
X150147939Y-91359039D01*
X150083293Y-91356417D01*
X150024008Y-91383358D01*
X149981339Y-91437088D01*
X149975739Y-91450950D01*
X149943133Y-91501936D01*
X149895530Y-91539787D01*
X149835461Y-91570850D01*
X149835461Y-91482768D01*
X149838997Y-91428951D01*
X149854156Y-91386534D01*
X149887768Y-91341279D01*
X149920035Y-91306420D01*
X149970209Y-91257062D01*
X150009193Y-91230547D01*
X150051064Y-91219911D01*
X150098460Y-91218154D01*
X150202333Y-91233528D01*
X150202333Y-91233528D01*
G37*
X150202333Y-91233528D02*
X150258590Y-91259117D01*
X150302747Y-91290124D01*
X150335101Y-91324795D01*
X150357438Y-91369520D01*
X150371546Y-91430692D01*
X150379211Y-91514701D01*
X150382220Y-91627940D01*
X150382538Y-91702509D01*
X150382538Y-91993420D01*
X150332773Y-92016095D01*
X150293576Y-92032667D01*
X150274157Y-92038769D01*
X150270442Y-92020610D01*
X150267495Y-91971648D01*
X150265691Y-91900153D01*
X150265308Y-91843385D01*
X150263661Y-91761371D01*
X150259222Y-91696309D01*
X150252740Y-91656467D01*
X150247590Y-91648000D01*
X150212977Y-91656646D01*
X150158640Y-91678823D01*
X150095722Y-91708886D01*
X150035368Y-91741192D01*
X149988721Y-91770098D01*
X149966926Y-91789961D01*
X149966839Y-91790175D01*
X149968714Y-91826935D01*
X149985525Y-91862026D01*
X150015039Y-91890528D01*
X150058116Y-91900061D01*
X150094932Y-91898950D01*
X150147074Y-91898133D01*
X150174444Y-91910349D01*
X150190882Y-91942624D01*
X150192955Y-91948710D01*
X150200081Y-91994739D01*
X150181024Y-92022687D01*
X150131353Y-92036007D01*
X150077697Y-92038470D01*
X149981142Y-92020210D01*
X149931159Y-91994131D01*
X149869429Y-91932868D01*
X149836690Y-91857670D01*
X149833753Y-91778211D01*
X149861424Y-91704167D01*
X149903047Y-91657769D01*
X149944604Y-91631793D01*
X150009922Y-91598907D01*
X150086038Y-91565557D01*
X150098726Y-91560461D01*
X150182333Y-91523565D01*
X150230530Y-91491046D01*
X150246030Y-91458718D01*
X150231550Y-91422394D01*
X150206692Y-91394000D01*
X150147939Y-91359039D01*
X150083293Y-91356417D01*
X150024008Y-91383358D01*
X149981339Y-91437088D01*
X149975739Y-91450950D01*
X149943133Y-91501936D01*
X149895530Y-91539787D01*
X149835461Y-91570850D01*
X149835461Y-91482768D01*
X149838997Y-91428951D01*
X149854156Y-91386534D01*
X149887768Y-91341279D01*
X149920035Y-91306420D01*
X149970209Y-91257062D01*
X150009193Y-91230547D01*
X150051064Y-91219911D01*
X150098460Y-91218154D01*
X150202333Y-91233528D01*
G36*
X150885807Y-91236782D02*
X150909161Y-91246988D01*
X150964902Y-91291134D01*
X151012569Y-91354967D01*
X151042048Y-91423087D01*
X151046846Y-91456670D01*
X151030760Y-91503556D01*
X150995475Y-91528365D01*
X150957644Y-91543387D01*
X150940321Y-91546155D01*
X150931886Y-91526066D01*
X150915230Y-91482351D01*
X150907923Y-91462598D01*
X150866948Y-91394271D01*
X150807622Y-91360191D01*
X150731552Y-91361239D01*
X150725918Y-91362581D01*
X150685305Y-91381836D01*
X150655448Y-91419375D01*
X150635055Y-91479809D01*
X150622836Y-91567751D01*
X150617500Y-91687813D01*
X150617000Y-91751698D01*
X150616752Y-91852403D01*
X150615126Y-91921054D01*
X150610801Y-91964673D01*
X150602454Y-91990282D01*
X150588765Y-92004903D01*
X150568411Y-92015558D01*
X150567234Y-92016095D01*
X150528038Y-92032667D01*
X150508619Y-92038769D01*
X150505635Y-92020319D01*
X150503081Y-91969323D01*
X150501140Y-91892308D01*
X150499997Y-91795805D01*
X150499769Y-91725184D01*
X150500932Y-91588525D01*
X150505479Y-91484851D01*
X150514999Y-91408108D01*
X150531081Y-91352246D01*
X150555313Y-91311212D01*
X150589286Y-91278954D01*
X150622833Y-91256440D01*
X150703499Y-91226476D01*
X150797381Y-91219718D01*
X150885807Y-91236782D01*
X150885807Y-91236782D01*
G37*
X150885807Y-91236782D02*
X150909161Y-91246988D01*
X150964902Y-91291134D01*
X151012569Y-91354967D01*
X151042048Y-91423087D01*
X151046846Y-91456670D01*
X151030760Y-91503556D01*
X150995475Y-91528365D01*
X150957644Y-91543387D01*
X150940321Y-91546155D01*
X150931886Y-91526066D01*
X150915230Y-91482351D01*
X150907923Y-91462598D01*
X150866948Y-91394271D01*
X150807622Y-91360191D01*
X150731552Y-91361239D01*
X150725918Y-91362581D01*
X150685305Y-91381836D01*
X150655448Y-91419375D01*
X150635055Y-91479809D01*
X150622836Y-91567751D01*
X150617500Y-91687813D01*
X150617000Y-91751698D01*
X150616752Y-91852403D01*
X150615126Y-91921054D01*
X150610801Y-91964673D01*
X150602454Y-91990282D01*
X150588765Y-92004903D01*
X150568411Y-92015558D01*
X150567234Y-92016095D01*
X150528038Y-92032667D01*
X150508619Y-92038769D01*
X150505635Y-92020319D01*
X150503081Y-91969323D01*
X150501140Y-91892308D01*
X150499997Y-91795805D01*
X150499769Y-91725184D01*
X150500932Y-91588525D01*
X150505479Y-91484851D01*
X150514999Y-91408108D01*
X150531081Y-91352246D01*
X150555313Y-91311212D01*
X150589286Y-91278954D01*
X150622833Y-91256440D01*
X150703499Y-91226476D01*
X150797381Y-91219718D01*
X150885807Y-91236782D01*
G36*
X151560224Y-91247838D02*
X151637528Y-91298361D01*
X151674814Y-91343590D01*
X151704353Y-91425663D01*
X151706699Y-91490607D01*
X151701385Y-91577445D01*
X151501115Y-91665103D01*
X151403739Y-91709887D01*
X151340113Y-91745913D01*
X151307029Y-91777117D01*
X151301280Y-91807436D01*
X151319658Y-91840805D01*
X151339923Y-91862923D01*
X151398889Y-91898393D01*
X151463024Y-91900879D01*
X151521926Y-91873235D01*
X151565197Y-91818320D01*
X151572936Y-91798928D01*
X151610006Y-91738364D01*
X151652654Y-91712552D01*
X151711154Y-91690471D01*
X151711154Y-91774184D01*
X151705982Y-91831150D01*
X151685723Y-91879189D01*
X151643262Y-91934346D01*
X151636951Y-91941514D01*
X151589720Y-91990585D01*
X151549121Y-92016920D01*
X151498328Y-92029035D01*
X151456220Y-92033003D01*
X151380902Y-92033991D01*
X151327286Y-92021466D01*
X151293838Y-92002869D01*
X151241268Y-91961975D01*
X151204879Y-91917748D01*
X151181850Y-91862126D01*
X151169359Y-91787047D01*
X151164587Y-91684449D01*
X151164206Y-91632376D01*
X151165501Y-91569948D01*
X151283471Y-91569948D01*
X151284839Y-91603438D01*
X151288249Y-91608923D01*
X151310753Y-91601472D01*
X151359182Y-91581753D01*
X151423908Y-91553718D01*
X151437443Y-91547692D01*
X151519244Y-91506096D01*
X151564312Y-91469538D01*
X151574217Y-91435296D01*
X151550526Y-91400648D01*
X151530960Y-91385339D01*
X151460360Y-91354721D01*
X151394280Y-91359780D01*
X151338959Y-91397151D01*
X151300636Y-91463473D01*
X151288349Y-91516116D01*
X151283471Y-91569948D01*
X151165501Y-91569948D01*
X151166730Y-91510720D01*
X151176032Y-91420710D01*
X151194460Y-91355167D01*
X151224360Y-91306912D01*
X151268080Y-91268767D01*
X151287141Y-91256440D01*
X151373726Y-91224336D01*
X151468522Y-91222316D01*
X151560224Y-91247838D01*
X151560224Y-91247838D01*
G37*
X151560224Y-91247838D02*
X151637528Y-91298361D01*
X151674814Y-91343590D01*
X151704353Y-91425663D01*
X151706699Y-91490607D01*
X151701385Y-91577445D01*
X151501115Y-91665103D01*
X151403739Y-91709887D01*
X151340113Y-91745913D01*
X151307029Y-91777117D01*
X151301280Y-91807436D01*
X151319658Y-91840805D01*
X151339923Y-91862923D01*
X151398889Y-91898393D01*
X151463024Y-91900879D01*
X151521926Y-91873235D01*
X151565197Y-91818320D01*
X151572936Y-91798928D01*
X151610006Y-91738364D01*
X151652654Y-91712552D01*
X151711154Y-91690471D01*
X151711154Y-91774184D01*
X151705982Y-91831150D01*
X151685723Y-91879189D01*
X151643262Y-91934346D01*
X151636951Y-91941514D01*
X151589720Y-91990585D01*
X151549121Y-92016920D01*
X151498328Y-92029035D01*
X151456220Y-92033003D01*
X151380902Y-92033991D01*
X151327286Y-92021466D01*
X151293838Y-92002869D01*
X151241268Y-91961975D01*
X151204879Y-91917748D01*
X151181850Y-91862126D01*
X151169359Y-91787047D01*
X151164587Y-91684449D01*
X151164206Y-91632376D01*
X151165501Y-91569948D01*
X151283471Y-91569948D01*
X151284839Y-91603438D01*
X151288249Y-91608923D01*
X151310753Y-91601472D01*
X151359182Y-91581753D01*
X151423908Y-91553718D01*
X151437443Y-91547692D01*
X151519244Y-91506096D01*
X151564312Y-91469538D01*
X151574217Y-91435296D01*
X151550526Y-91400648D01*
X151530960Y-91385339D01*
X151460360Y-91354721D01*
X151394280Y-91359780D01*
X151338959Y-91397151D01*
X151300636Y-91463473D01*
X151288349Y-91516116D01*
X151283471Y-91569948D01*
X151165501Y-91569948D01*
X151166730Y-91510720D01*
X151176032Y-91420710D01*
X151194460Y-91355167D01*
X151224360Y-91306912D01*
X151268080Y-91268767D01*
X151287141Y-91256440D01*
X151373726Y-91224336D01*
X151468522Y-91222316D01*
X151560224Y-91247838D01*
G36*
X147454878Y-84887776D02*
X147560612Y-84888355D01*
X147637132Y-84889922D01*
X147689372Y-84892972D01*
X147722263Y-84897996D01*
X147740737Y-84905489D01*
X147749727Y-84915944D01*
X147754163Y-84929853D01*
X147754594Y-84931654D01*
X147761333Y-84964145D01*
X147773808Y-85028252D01*
X147790719Y-85117151D01*
X147810771Y-85224019D01*
X147832664Y-85342033D01*
X147833429Y-85346178D01*
X147855359Y-85461831D01*
X147875877Y-85564014D01*
X147893659Y-85646598D01*
X147907381Y-85703456D01*
X147915718Y-85728458D01*
X147916116Y-85728901D01*
X147940677Y-85741110D01*
X147991315Y-85761456D01*
X148057095Y-85785545D01*
X148057461Y-85785674D01*
X148140317Y-85816818D01*
X148238000Y-85856491D01*
X148330077Y-85896381D01*
X148334434Y-85898353D01*
X148484407Y-85966420D01*
X148816498Y-85739639D01*
X148918374Y-85670504D01*
X149010657Y-85608697D01*
X149088003Y-85557733D01*
X149145064Y-85521127D01*
X149176495Y-85502394D01*
X149179479Y-85501004D01*
X149202321Y-85507190D01*
X149244982Y-85537035D01*
X149309128Y-85591947D01*
X149396421Y-85673334D01*
X149485535Y-85759922D01*
X149571441Y-85845247D01*
X149648327Y-85923108D01*
X149711564Y-85988697D01*
X149756523Y-86037205D01*
X149778576Y-86063825D01*
X149779396Y-86065195D01*
X149781834Y-86083463D01*
X149772650Y-86113295D01*
X149749574Y-86158721D01*
X149710337Y-86223770D01*
X149652670Y-86312470D01*
X149575795Y-86426657D01*
X149507570Y-86527162D01*
X149446582Y-86617303D01*
X149396356Y-86691849D01*
X149360416Y-86745565D01*
X149342287Y-86773218D01*
X149341146Y-86775095D01*
X149343359Y-86801590D01*
X149360138Y-86853086D01*
X149388142Y-86919851D01*
X149398122Y-86941172D01*
X149441672Y-87036159D01*
X149488134Y-87143937D01*
X149525877Y-87237192D01*
X149553073Y-87306406D01*
X149574675Y-87359006D01*
X149587158Y-87386497D01*
X149588709Y-87388616D01*
X149611668Y-87392124D01*
X149665786Y-87401738D01*
X149743868Y-87416089D01*
X149838719Y-87433807D01*
X149943143Y-87453525D01*
X150049944Y-87473874D01*
X150151926Y-87493486D01*
X150241894Y-87510991D01*
X150312653Y-87525022D01*
X150357006Y-87534209D01*
X150367885Y-87536807D01*
X150379122Y-87543218D01*
X150387605Y-87557697D01*
X150393714Y-87585133D01*
X150397832Y-87630411D01*
X150400341Y-87698420D01*
X150401621Y-87794047D01*
X150402054Y-87922180D01*
X150402077Y-87974701D01*
X150402077Y-88401845D01*
X150299500Y-88422091D01*
X150242431Y-88433070D01*
X150157269Y-88449095D01*
X150054372Y-88468233D01*
X149944096Y-88488551D01*
X149913615Y-88494132D01*
X149811855Y-88513917D01*
X149723205Y-88533373D01*
X149655108Y-88550697D01*
X149615004Y-88564088D01*
X149608323Y-88568079D01*
X149591919Y-88596342D01*
X149568399Y-88651109D01*
X149542316Y-88721588D01*
X149537142Y-88736769D01*
X149502956Y-88830896D01*
X149460523Y-88937101D01*
X149418997Y-89032473D01*
X149418792Y-89032916D01*
X149349640Y-89182525D01*
X149804512Y-89851617D01*
X149512500Y-90144116D01*
X149424180Y-90231170D01*
X149343625Y-90307909D01*
X149275360Y-90370237D01*
X149223908Y-90414056D01*
X149193794Y-90435270D01*
X149189474Y-90436616D01*
X149164111Y-90426016D01*
X149112358Y-90396547D01*
X149039868Y-90351705D01*
X148952294Y-90294984D01*
X148857612Y-90231462D01*
X148761516Y-90166668D01*
X148675837Y-90110287D01*
X148606016Y-90065788D01*
X148557494Y-90036639D01*
X148535782Y-90026308D01*
X148509293Y-90035050D01*
X148459062Y-90058087D01*
X148395451Y-90090631D01*
X148388708Y-90094249D01*
X148303046Y-90137210D01*
X148244306Y-90158279D01*
X148207772Y-90158503D01*
X148188731Y-90138928D01*
X148188620Y-90138654D01*
X148179102Y-90115472D01*
X148156403Y-90060441D01*
X148122282Y-89977822D01*
X148078500Y-89871872D01*
X148026816Y-89746852D01*
X147968992Y-89607020D01*
X147912991Y-89471637D01*
X147851447Y-89322234D01*
X147794939Y-89183832D01*
X147745161Y-89060673D01*
X147703806Y-88957002D01*
X147672568Y-88877059D01*
X147653141Y-88825088D01*
X147647154Y-88805692D01*
X147662168Y-88783443D01*
X147701439Y-88747982D01*
X147753807Y-88708887D01*
X147902941Y-88585245D01*
X148019511Y-88443522D01*
X148102118Y-88286704D01*
X148149366Y-88117775D01*
X148159857Y-87939722D01*
X148152231Y-87857539D01*
X148110682Y-87687031D01*
X148039123Y-87536459D01*
X147941995Y-87407309D01*
X147823734Y-87301064D01*
X147688780Y-87219210D01*
X147541571Y-87163232D01*
X147386544Y-87134615D01*
X147228139Y-87134844D01*
X147070794Y-87165405D01*
X146918946Y-87227782D01*
X146777035Y-87323460D01*
X146717803Y-87377572D01*
X146604203Y-87516520D01*
X146525106Y-87668361D01*
X146479986Y-87828667D01*
X146468316Y-87993012D01*
X146489569Y-88156971D01*
X146543220Y-88316118D01*
X146628740Y-88466025D01*
X146745605Y-88602267D01*
X146876193Y-88708887D01*
X146930588Y-88749642D01*
X146969014Y-88784718D01*
X146982846Y-88805726D01*
X146975603Y-88828635D01*
X146955005Y-88883365D01*
X146922746Y-88965672D01*
X146880521Y-89071315D01*
X146830023Y-89196050D01*
X146772948Y-89335636D01*
X146716854Y-89471670D01*
X146654967Y-89621201D01*
X146597644Y-89759767D01*
X146546644Y-89883107D01*
X146503727Y-89986964D01*
X146470653Y-90067080D01*
X146449181Y-90119195D01*
X146441225Y-90138654D01*
X146422429Y-90158423D01*
X146386074Y-90158365D01*
X146327479Y-90137441D01*
X146241968Y-90094613D01*
X146241292Y-90094249D01*
X146176907Y-90061012D01*
X146124861Y-90036802D01*
X146095512Y-90026404D01*
X146094217Y-90026308D01*
X146072124Y-90036855D01*
X146023348Y-90066184D01*
X145953331Y-90110827D01*
X145867514Y-90167314D01*
X145772388Y-90231462D01*
X145675540Y-90296411D01*
X145588253Y-90352896D01*
X145516181Y-90397421D01*
X145464977Y-90426490D01*
X145440526Y-90436616D01*
X145418010Y-90423307D01*
X145372742Y-90386112D01*
X145309244Y-90329128D01*
X145232039Y-90256449D01*
X145145651Y-90172171D01*
X145117399Y-90144016D01*
X144825287Y-89851416D01*
X145047631Y-89525104D01*
X145115202Y-89424897D01*
X145174507Y-89334963D01*
X145222217Y-89260510D01*
X145255007Y-89206751D01*
X145269548Y-89178894D01*
X145269974Y-89176912D01*
X145262308Y-89150655D01*
X145241689Y-89097837D01*
X145211685Y-89027310D01*
X145190625Y-88980093D01*
X145151248Y-88889694D01*
X145114165Y-88798366D01*
X145085415Y-88721200D01*
X145077605Y-88697692D01*
X145055417Y-88634916D01*
X145033727Y-88586411D01*
X145021813Y-88568079D01*
X144995523Y-88556859D01*
X144938142Y-88540954D01*
X144857118Y-88522167D01*
X144759895Y-88502299D01*
X144716385Y-88494132D01*
X144605896Y-88473829D01*
X144499916Y-88454170D01*
X144408801Y-88437088D01*
X144342908Y-88424518D01*
X144330500Y-88422091D01*
X144227923Y-88401845D01*
X144227923Y-87974701D01*
X144228153Y-87834246D01*
X144229099Y-87727979D01*
X144231141Y-87651013D01*
X144234662Y-87598460D01*
X144240043Y-87565433D01*
X144247666Y-87547045D01*
X144257912Y-87538408D01*
X144262115Y-87536807D01*
X144287470Y-87531127D01*
X144343484Y-87519795D01*
X144422964Y-87504179D01*
X144518712Y-87485647D01*
X144623533Y-87465569D01*
X144730232Y-87445312D01*
X144831613Y-87426246D01*
X144920479Y-87409739D01*
X144989637Y-87397159D01*
X145031889Y-87389875D01*
X145041290Y-87388616D01*
X145049807Y-87371763D01*
X145068660Y-87326870D01*
X145094324Y-87262430D01*
X145104123Y-87237192D01*
X145143648Y-87139686D01*
X145190192Y-87031959D01*
X145231877Y-86941172D01*
X145262550Y-86871753D01*
X145282956Y-86814710D01*
X145289768Y-86779777D01*
X145288682Y-86775095D01*
X145274285Y-86752991D01*
X145241412Y-86703831D01*
X145193590Y-86632848D01*
X145134348Y-86545278D01*
X145067215Y-86446357D01*
X145053941Y-86426830D01*
X144976046Y-86311140D01*
X144918787Y-86223044D01*
X144879881Y-86158486D01*
X144857044Y-86113411D01*
X144847994Y-86083763D01*
X144850448Y-86065485D01*
X144850511Y-86065369D01*
X144869827Y-86041361D01*
X144912551Y-85994947D01*
X144974051Y-85930937D01*
X145049698Y-85854145D01*
X145134861Y-85769382D01*
X145144465Y-85759922D01*
X145251790Y-85655989D01*
X145334615Y-85579675D01*
X145394605Y-85529571D01*
X145433423Y-85504270D01*
X145450520Y-85501004D01*
X145475473Y-85515250D01*
X145527255Y-85548156D01*
X145600520Y-85596208D01*
X145689920Y-85655890D01*
X145790111Y-85723688D01*
X145813501Y-85739639D01*
X146145593Y-85966420D01*
X146295565Y-85898353D01*
X146386770Y-85858685D01*
X146484669Y-85818791D01*
X146568831Y-85786983D01*
X146572538Y-85785674D01*
X146638369Y-85761576D01*
X146689116Y-85741200D01*
X146713842Y-85728936D01*
X146713884Y-85728901D01*
X146721729Y-85706734D01*
X146735066Y-85652217D01*
X146752570Y-85571480D01*
X146772917Y-85470650D01*
X146794782Y-85355856D01*
X146796571Y-85346178D01*
X146818504Y-85227904D01*
X146838640Y-85120542D01*
X146855680Y-85030917D01*
X146868328Y-84965851D01*
X146875284Y-84932168D01*
X146875406Y-84931654D01*
X146879639Y-84917325D01*
X146887871Y-84906507D01*
X146905033Y-84898706D01*
X146936058Y-84893429D01*
X146985878Y-84890182D01*
X147059424Y-84888472D01*
X147161629Y-84887807D01*
X147297425Y-84887693D01*
X147315000Y-84887692D01*
X147454878Y-84887776D01*
X147454878Y-84887776D01*
G37*
X147454878Y-84887776D02*
X147560612Y-84888355D01*
X147637132Y-84889922D01*
X147689372Y-84892972D01*
X147722263Y-84897996D01*
X147740737Y-84905489D01*
X147749727Y-84915944D01*
X147754163Y-84929853D01*
X147754594Y-84931654D01*
X147761333Y-84964145D01*
X147773808Y-85028252D01*
X147790719Y-85117151D01*
X147810771Y-85224019D01*
X147832664Y-85342033D01*
X147833429Y-85346178D01*
X147855359Y-85461831D01*
X147875877Y-85564014D01*
X147893659Y-85646598D01*
X147907381Y-85703456D01*
X147915718Y-85728458D01*
X147916116Y-85728901D01*
X147940677Y-85741110D01*
X147991315Y-85761456D01*
X148057095Y-85785545D01*
X148057461Y-85785674D01*
X148140317Y-85816818D01*
X148238000Y-85856491D01*
X148330077Y-85896381D01*
X148334434Y-85898353D01*
X148484407Y-85966420D01*
X148816498Y-85739639D01*
X148918374Y-85670504D01*
X149010657Y-85608697D01*
X149088003Y-85557733D01*
X149145064Y-85521127D01*
X149176495Y-85502394D01*
X149179479Y-85501004D01*
X149202321Y-85507190D01*
X149244982Y-85537035D01*
X149309128Y-85591947D01*
X149396421Y-85673334D01*
X149485535Y-85759922D01*
X149571441Y-85845247D01*
X149648327Y-85923108D01*
X149711564Y-85988697D01*
X149756523Y-86037205D01*
X149778576Y-86063825D01*
X149779396Y-86065195D01*
X149781834Y-86083463D01*
X149772650Y-86113295D01*
X149749574Y-86158721D01*
X149710337Y-86223770D01*
X149652670Y-86312470D01*
X149575795Y-86426657D01*
X149507570Y-86527162D01*
X149446582Y-86617303D01*
X149396356Y-86691849D01*
X149360416Y-86745565D01*
X149342287Y-86773218D01*
X149341146Y-86775095D01*
X149343359Y-86801590D01*
X149360138Y-86853086D01*
X149388142Y-86919851D01*
X149398122Y-86941172D01*
X149441672Y-87036159D01*
X149488134Y-87143937D01*
X149525877Y-87237192D01*
X149553073Y-87306406D01*
X149574675Y-87359006D01*
X149587158Y-87386497D01*
X149588709Y-87388616D01*
X149611668Y-87392124D01*
X149665786Y-87401738D01*
X149743868Y-87416089D01*
X149838719Y-87433807D01*
X149943143Y-87453525D01*
X150049944Y-87473874D01*
X150151926Y-87493486D01*
X150241894Y-87510991D01*
X150312653Y-87525022D01*
X150357006Y-87534209D01*
X150367885Y-87536807D01*
X150379122Y-87543218D01*
X150387605Y-87557697D01*
X150393714Y-87585133D01*
X150397832Y-87630411D01*
X150400341Y-87698420D01*
X150401621Y-87794047D01*
X150402054Y-87922180D01*
X150402077Y-87974701D01*
X150402077Y-88401845D01*
X150299500Y-88422091D01*
X150242431Y-88433070D01*
X150157269Y-88449095D01*
X150054372Y-88468233D01*
X149944096Y-88488551D01*
X149913615Y-88494132D01*
X149811855Y-88513917D01*
X149723205Y-88533373D01*
X149655108Y-88550697D01*
X149615004Y-88564088D01*
X149608323Y-88568079D01*
X149591919Y-88596342D01*
X149568399Y-88651109D01*
X149542316Y-88721588D01*
X149537142Y-88736769D01*
X149502956Y-88830896D01*
X149460523Y-88937101D01*
X149418997Y-89032473D01*
X149418792Y-89032916D01*
X149349640Y-89182525D01*
X149804512Y-89851617D01*
X149512500Y-90144116D01*
X149424180Y-90231170D01*
X149343625Y-90307909D01*
X149275360Y-90370237D01*
X149223908Y-90414056D01*
X149193794Y-90435270D01*
X149189474Y-90436616D01*
X149164111Y-90426016D01*
X149112358Y-90396547D01*
X149039868Y-90351705D01*
X148952294Y-90294984D01*
X148857612Y-90231462D01*
X148761516Y-90166668D01*
X148675837Y-90110287D01*
X148606016Y-90065788D01*
X148557494Y-90036639D01*
X148535782Y-90026308D01*
X148509293Y-90035050D01*
X148459062Y-90058087D01*
X148395451Y-90090631D01*
X148388708Y-90094249D01*
X148303046Y-90137210D01*
X148244306Y-90158279D01*
X148207772Y-90158503D01*
X148188731Y-90138928D01*
X148188620Y-90138654D01*
X148179102Y-90115472D01*
X148156403Y-90060441D01*
X148122282Y-89977822D01*
X148078500Y-89871872D01*
X148026816Y-89746852D01*
X147968992Y-89607020D01*
X147912991Y-89471637D01*
X147851447Y-89322234D01*
X147794939Y-89183832D01*
X147745161Y-89060673D01*
X147703806Y-88957002D01*
X147672568Y-88877059D01*
X147653141Y-88825088D01*
X147647154Y-88805692D01*
X147662168Y-88783443D01*
X147701439Y-88747982D01*
X147753807Y-88708887D01*
X147902941Y-88585245D01*
X148019511Y-88443522D01*
X148102118Y-88286704D01*
X148149366Y-88117775D01*
X148159857Y-87939722D01*
X148152231Y-87857539D01*
X148110682Y-87687031D01*
X148039123Y-87536459D01*
X147941995Y-87407309D01*
X147823734Y-87301064D01*
X147688780Y-87219210D01*
X147541571Y-87163232D01*
X147386544Y-87134615D01*
X147228139Y-87134844D01*
X147070794Y-87165405D01*
X146918946Y-87227782D01*
X146777035Y-87323460D01*
X146717803Y-87377572D01*
X146604203Y-87516520D01*
X146525106Y-87668361D01*
X146479986Y-87828667D01*
X146468316Y-87993012D01*
X146489569Y-88156971D01*
X146543220Y-88316118D01*
X146628740Y-88466025D01*
X146745605Y-88602267D01*
X146876193Y-88708887D01*
X146930588Y-88749642D01*
X146969014Y-88784718D01*
X146982846Y-88805726D01*
X146975603Y-88828635D01*
X146955005Y-88883365D01*
X146922746Y-88965672D01*
X146880521Y-89071315D01*
X146830023Y-89196050D01*
X146772948Y-89335636D01*
X146716854Y-89471670D01*
X146654967Y-89621201D01*
X146597644Y-89759767D01*
X146546644Y-89883107D01*
X146503727Y-89986964D01*
X146470653Y-90067080D01*
X146449181Y-90119195D01*
X146441225Y-90138654D01*
X146422429Y-90158423D01*
X146386074Y-90158365D01*
X146327479Y-90137441D01*
X146241968Y-90094613D01*
X146241292Y-90094249D01*
X146176907Y-90061012D01*
X146124861Y-90036802D01*
X146095512Y-90026404D01*
X146094217Y-90026308D01*
X146072124Y-90036855D01*
X146023348Y-90066184D01*
X145953331Y-90110827D01*
X145867514Y-90167314D01*
X145772388Y-90231462D01*
X145675540Y-90296411D01*
X145588253Y-90352896D01*
X145516181Y-90397421D01*
X145464977Y-90426490D01*
X145440526Y-90436616D01*
X145418010Y-90423307D01*
X145372742Y-90386112D01*
X145309244Y-90329128D01*
X145232039Y-90256449D01*
X145145651Y-90172171D01*
X145117399Y-90144016D01*
X144825287Y-89851416D01*
X145047631Y-89525104D01*
X145115202Y-89424897D01*
X145174507Y-89334963D01*
X145222217Y-89260510D01*
X145255007Y-89206751D01*
X145269548Y-89178894D01*
X145269974Y-89176912D01*
X145262308Y-89150655D01*
X145241689Y-89097837D01*
X145211685Y-89027310D01*
X145190625Y-88980093D01*
X145151248Y-88889694D01*
X145114165Y-88798366D01*
X145085415Y-88721200D01*
X145077605Y-88697692D01*
X145055417Y-88634916D01*
X145033727Y-88586411D01*
X145021813Y-88568079D01*
X144995523Y-88556859D01*
X144938142Y-88540954D01*
X144857118Y-88522167D01*
X144759895Y-88502299D01*
X144716385Y-88494132D01*
X144605896Y-88473829D01*
X144499916Y-88454170D01*
X144408801Y-88437088D01*
X144342908Y-88424518D01*
X144330500Y-88422091D01*
X144227923Y-88401845D01*
X144227923Y-87974701D01*
X144228153Y-87834246D01*
X144229099Y-87727979D01*
X144231141Y-87651013D01*
X144234662Y-87598460D01*
X144240043Y-87565433D01*
X144247666Y-87547045D01*
X144257912Y-87538408D01*
X144262115Y-87536807D01*
X144287470Y-87531127D01*
X144343484Y-87519795D01*
X144422964Y-87504179D01*
X144518712Y-87485647D01*
X144623533Y-87465569D01*
X144730232Y-87445312D01*
X144831613Y-87426246D01*
X144920479Y-87409739D01*
X144989637Y-87397159D01*
X145031889Y-87389875D01*
X145041290Y-87388616D01*
X145049807Y-87371763D01*
X145068660Y-87326870D01*
X145094324Y-87262430D01*
X145104123Y-87237192D01*
X145143648Y-87139686D01*
X145190192Y-87031959D01*
X145231877Y-86941172D01*
X145262550Y-86871753D01*
X145282956Y-86814710D01*
X145289768Y-86779777D01*
X145288682Y-86775095D01*
X145274285Y-86752991D01*
X145241412Y-86703831D01*
X145193590Y-86632848D01*
X145134348Y-86545278D01*
X145067215Y-86446357D01*
X145053941Y-86426830D01*
X144976046Y-86311140D01*
X144918787Y-86223044D01*
X144879881Y-86158486D01*
X144857044Y-86113411D01*
X144847994Y-86083763D01*
X144850448Y-86065485D01*
X144850511Y-86065369D01*
X144869827Y-86041361D01*
X144912551Y-85994947D01*
X144974051Y-85930937D01*
X145049698Y-85854145D01*
X145134861Y-85769382D01*
X145144465Y-85759922D01*
X145251790Y-85655989D01*
X145334615Y-85579675D01*
X145394605Y-85529571D01*
X145433423Y-85504270D01*
X145450520Y-85501004D01*
X145475473Y-85515250D01*
X145527255Y-85548156D01*
X145600520Y-85596208D01*
X145689920Y-85655890D01*
X145790111Y-85723688D01*
X145813501Y-85739639D01*
X146145593Y-85966420D01*
X146295565Y-85898353D01*
X146386770Y-85858685D01*
X146484669Y-85818791D01*
X146568831Y-85786983D01*
X146572538Y-85785674D01*
X146638369Y-85761576D01*
X146689116Y-85741200D01*
X146713842Y-85728936D01*
X146713884Y-85728901D01*
X146721729Y-85706734D01*
X146735066Y-85652217D01*
X146752570Y-85571480D01*
X146772917Y-85470650D01*
X146794782Y-85355856D01*
X146796571Y-85346178D01*
X146818504Y-85227904D01*
X146838640Y-85120542D01*
X146855680Y-85030917D01*
X146868328Y-84965851D01*
X146875284Y-84932168D01*
X146875406Y-84931654D01*
X146879639Y-84917325D01*
X146887871Y-84906507D01*
X146905033Y-84898706D01*
X146936058Y-84893429D01*
X146985878Y-84890182D01*
X147059424Y-84888472D01*
X147161629Y-84887807D01*
X147297425Y-84887693D01*
X147315000Y-84887692D01*
X147454878Y-84887776D01*
D13*
X121210000Y-90530000D02*
X119960000Y-90530000D01*
X121210000Y-91780000D02*
X121210000Y-90530000D01*
X116800000Y-97890000D02*
X117300000Y-97890000D01*
X117300000Y-97990000D02*
X116800000Y-97990000D01*
X117300000Y-97790000D02*
X117300000Y-97990000D01*
X116800000Y-97790000D02*
X117300000Y-97790000D01*
X116800000Y-95890000D02*
X117300000Y-95890000D01*
X117300000Y-95990000D02*
X116800000Y-95990000D01*
X117300000Y-95790000D02*
X117300000Y-95990000D01*
X116800000Y-95790000D02*
X117300000Y-95790000D01*
X116800000Y-93890000D02*
X117300000Y-93890000D01*
X117300000Y-93990000D02*
X116800000Y-93990000D01*
X117300000Y-93790000D02*
X117300000Y-93990000D01*
X116800000Y-93790000D02*
X117300000Y-93790000D01*
X118300000Y-100950000D02*
X118300000Y-100340000D01*
X119600000Y-100950000D02*
X119600000Y-100340000D01*
X118300000Y-90830000D02*
X118300000Y-91440000D01*
X119600000Y-90830000D02*
X119600000Y-91440000D01*
X120300000Y-98390000D02*
X120910000Y-98390000D01*
X120300000Y-100340000D02*
X120300000Y-98390000D01*
X116800000Y-100340000D02*
X120300000Y-100340000D01*
X116800000Y-91440000D02*
X116800000Y-100340000D01*
X120300000Y-91440000D02*
X116800000Y-91440000D01*
X120300000Y-93390000D02*
X120300000Y-91440000D01*
X120910000Y-93390000D02*
X120300000Y-93390000D01*
X121010000Y-92590000D02*
X121010000Y-92290000D01*
X121110000Y-92290000D02*
X120910000Y-92290000D01*
X121110000Y-92590000D02*
X121110000Y-92290000D01*
X120910000Y-92590000D02*
X121110000Y-92590000D01*
X120910000Y-100950000D02*
X120910000Y-90830000D01*
X116190000Y-100950000D02*
X120910000Y-100950000D01*
X116190000Y-90830000D02*
X116190000Y-100950000D01*
X120910000Y-90830000D02*
X116190000Y-90830000D01*
X123240000Y-101215000D02*
X127090000Y-101215000D01*
X123240000Y-103215000D02*
X127090000Y-103215000D01*
X123240000Y-101215000D02*
X123240000Y-103215000D01*
D14*
X170000000Y-118240000D02*
X170000000Y-110640000D01*
X178600000Y-118240000D02*
X170000000Y-118240000D01*
X178600000Y-110640000D02*
X178600000Y-118240000D01*
X170000000Y-110640000D02*
X178600000Y-110640000D01*
X169900000Y-78480000D02*
X178500000Y-78480000D01*
X178500000Y-78480000D02*
X178500000Y-86080000D01*
X178500000Y-86080000D02*
X169900000Y-86080000D01*
X169900000Y-86080000D02*
X169900000Y-78480000D01*
X116390000Y-110715000D02*
X124990000Y-110715000D01*
X124990000Y-110715000D02*
X124990000Y-118315000D01*
X124990000Y-118315000D02*
X116390000Y-118315000D01*
X116390000Y-118315000D02*
X116390000Y-110715000D01*
X116910000Y-78500000D02*
X125510000Y-78500000D01*
X125510000Y-78500000D02*
X125510000Y-86100000D01*
X125510000Y-86100000D02*
X116910000Y-86100000D01*
X116910000Y-86100000D02*
X116910000Y-78500000D01*
D15*
X127315000Y-77790000D02*
X127315000Y-87790000D01*
X127315000Y-87790000D02*
X137315000Y-87790000D01*
X137315000Y-87790000D02*
X137315000Y-77790000D01*
X137315000Y-77790000D02*
X127315000Y-77790000D01*
X134860584Y-82790000D02*
G75*
G03X134860584Y-82790000I-2545584J0D01*
G01*
X157315000Y-77790000D02*
X157315000Y-87790000D01*
X157315000Y-87790000D02*
X167315000Y-87790000D01*
X167315000Y-87790000D02*
X167315000Y-77790000D01*
X167315000Y-77790000D02*
X157315000Y-77790000D01*
X164860584Y-82790000D02*
G75*
G03X164860584Y-82790000I-2545584J0D01*
G01*
D13*
X124924000Y-100077000D02*
X124224000Y-100077000D01*
X124224000Y-98877000D02*
X124924000Y-98877000D01*
X126815000Y-98785000D02*
X127815000Y-98785000D01*
X127815000Y-100145000D02*
X126815000Y-100145000D01*
X124074000Y-95241000D02*
X125074000Y-95241000D01*
X125074000Y-96601000D02*
X124074000Y-96601000D01*
X125074000Y-98379000D02*
X124074000Y-98379000D01*
X124074000Y-97019000D02*
X125074000Y-97019000D01*
D16*
X141041380Y-95729160D02*
X141041380Y-103526960D01*
X138641080Y-94428680D02*
X141041380Y-95729160D01*
X133042920Y-94428680D02*
X138641080Y-94428680D01*
X130642620Y-95729160D02*
X133042920Y-94428680D01*
X130642620Y-103526960D02*
X130642620Y-95729160D01*
X141041380Y-103526960D02*
X130642620Y-103526960D01*
X152979380Y-95729160D02*
X152979380Y-103526960D01*
X150579080Y-94428680D02*
X152979380Y-95729160D01*
X144980920Y-94428680D02*
X150579080Y-94428680D01*
X142580620Y-95729160D02*
X144980920Y-94428680D01*
X142580620Y-103526960D02*
X142580620Y-95729160D01*
X152979380Y-103526960D02*
X142580620Y-103526960D01*
X164917380Y-95729160D02*
X164917380Y-103526960D01*
X162517080Y-94428680D02*
X164917380Y-95729160D01*
X156918920Y-94428680D02*
X162517080Y-94428680D01*
X154518620Y-95729160D02*
X156918920Y-94428680D01*
X154518620Y-103526960D02*
X154518620Y-95729160D01*
X164917380Y-103526960D02*
X154518620Y-103526960D01*
D13*
X127860000Y-91565000D02*
X127860000Y-93565000D01*
X125720000Y-93565000D02*
X125720000Y-91565000D01*
X123395000Y-93565000D02*
X123395000Y-91565000D01*
X125535000Y-91565000D02*
X125535000Y-93565000D01*
D14*
X116251904Y-102592380D02*
X116251904Y-101592380D01*
X116632857Y-101592380D01*
X116728095Y-101640000D01*
X116775714Y-101687619D01*
X116823333Y-101782857D01*
X116823333Y-101925714D01*
X116775714Y-102020952D01*
X116728095Y-102068571D01*
X116632857Y-102116190D01*
X116251904Y-102116190D01*
X117156666Y-101592380D02*
X117823333Y-101592380D01*
X117394761Y-102592380D01*
X124574904Y-100762380D02*
X124574904Y-99762380D01*
X124813000Y-99762380D01*
X124955857Y-99810000D01*
X125051095Y-99905238D01*
X125098714Y-100000476D01*
X125146333Y-100190952D01*
X125146333Y-100333809D01*
X125098714Y-100524285D01*
X125051095Y-100619523D01*
X124955857Y-100714761D01*
X124813000Y-100762380D01*
X124574904Y-100762380D01*
X126098714Y-100762380D02*
X125527285Y-100762380D01*
X125813000Y-100762380D02*
X125813000Y-99762380D01*
X125717761Y-99905238D01*
X125622523Y-100000476D01*
X125527285Y-100048095D01*
D17*
X169529428Y-117354857D02*
X168005428Y-117354857D01*
X168005428Y-116774285D01*
X168078000Y-116629142D01*
X168150571Y-116556571D01*
X168295714Y-116484000D01*
X168513428Y-116484000D01*
X168658571Y-116556571D01*
X168731142Y-116629142D01*
X168803714Y-116774285D01*
X168803714Y-117354857D01*
X168005428Y-115177714D02*
X168005428Y-115468000D01*
X168078000Y-115613142D01*
X168150571Y-115685714D01*
X168368285Y-115830857D01*
X168658571Y-115903428D01*
X169239142Y-115903428D01*
X169384285Y-115830857D01*
X169456857Y-115758285D01*
X169529428Y-115613142D01*
X169529428Y-115322857D01*
X169456857Y-115177714D01*
X169384285Y-115105142D01*
X169239142Y-115032571D01*
X168876285Y-115032571D01*
X168731142Y-115105142D01*
X168658571Y-115177714D01*
X168586000Y-115322857D01*
X168586000Y-115613142D01*
X168658571Y-115758285D01*
X168731142Y-115830857D01*
X168876285Y-115903428D01*
X169619428Y-87474857D02*
X168095428Y-87474857D01*
X168095428Y-86894285D01*
X168168000Y-86749142D01*
X168240571Y-86676571D01*
X168385714Y-86604000D01*
X168603428Y-86604000D01*
X168748571Y-86676571D01*
X168821142Y-86749142D01*
X168893714Y-86894285D01*
X168893714Y-87474857D01*
X168095428Y-85225142D02*
X168095428Y-85950857D01*
X168821142Y-86023428D01*
X168748571Y-85950857D01*
X168676000Y-85805714D01*
X168676000Y-85442857D01*
X168748571Y-85297714D01*
X168821142Y-85225142D01*
X168966285Y-85152571D01*
X169329142Y-85152571D01*
X169474285Y-85225142D01*
X169546857Y-85297714D01*
X169619428Y-85442857D01*
X169619428Y-85805714D01*
X169546857Y-85950857D01*
X169474285Y-86023428D01*
X116565142Y-110249428D02*
X116565142Y-108725428D01*
X117145714Y-108725428D01*
X117290857Y-108798000D01*
X117363428Y-108870571D01*
X117436000Y-109015714D01*
X117436000Y-109233428D01*
X117363428Y-109378571D01*
X117290857Y-109451142D01*
X117145714Y-109523714D01*
X116565142Y-109523714D01*
X118016571Y-108870571D02*
X118089142Y-108798000D01*
X118234285Y-108725428D01*
X118597142Y-108725428D01*
X118742285Y-108798000D01*
X118814857Y-108870571D01*
X118887428Y-109015714D01*
X118887428Y-109160857D01*
X118814857Y-109378571D01*
X117944000Y-110249428D01*
X118887428Y-110249428D01*
X116115142Y-88009428D02*
X116115142Y-86485428D01*
X116695714Y-86485428D01*
X116840857Y-86558000D01*
X116913428Y-86630571D01*
X116986000Y-86775714D01*
X116986000Y-86993428D01*
X116913428Y-87138571D01*
X116840857Y-87211142D01*
X116695714Y-87283714D01*
X116115142Y-87283714D01*
X118437428Y-88009428D02*
X117566571Y-88009428D01*
X118002000Y-88009428D02*
X118002000Y-86485428D01*
X117856857Y-86703142D01*
X117711714Y-86848285D01*
X117566571Y-86920857D01*
D14*
X137756428Y-78399285D02*
X137756428Y-77649285D01*
X138042142Y-77649285D01*
X138113571Y-77685000D01*
X138149285Y-77720714D01*
X138185000Y-77792142D01*
X138185000Y-77899285D01*
X138149285Y-77970714D01*
X138113571Y-78006428D01*
X138042142Y-78042142D01*
X137756428Y-78042142D01*
X138435000Y-77649285D02*
X138899285Y-77649285D01*
X138649285Y-77935000D01*
X138756428Y-77935000D01*
X138827857Y-77970714D01*
X138863571Y-78006428D01*
X138899285Y-78077857D01*
X138899285Y-78256428D01*
X138863571Y-78327857D01*
X138827857Y-78363571D01*
X138756428Y-78399285D01*
X138542142Y-78399285D01*
X138470714Y-78363571D01*
X138435000Y-78327857D01*
X155716428Y-78029285D02*
X155716428Y-77279285D01*
X156002142Y-77279285D01*
X156073571Y-77315000D01*
X156109285Y-77350714D01*
X156145000Y-77422142D01*
X156145000Y-77529285D01*
X156109285Y-77600714D01*
X156073571Y-77636428D01*
X156002142Y-77672142D01*
X155716428Y-77672142D01*
X156787857Y-77529285D02*
X156787857Y-78029285D01*
X156609285Y-77243571D02*
X156430714Y-77779285D01*
X156895000Y-77779285D01*
X125215000Y-100887857D02*
X125179285Y-100923571D01*
X125072142Y-100959285D01*
X125000714Y-100959285D01*
X124893571Y-100923571D01*
X124822142Y-100852142D01*
X124786428Y-100780714D01*
X124750714Y-100637857D01*
X124750714Y-100530714D01*
X124786428Y-100387857D01*
X124822142Y-100316428D01*
X124893571Y-100245000D01*
X125000714Y-100209285D01*
X125072142Y-100209285D01*
X125179285Y-100245000D01*
X125215000Y-100280714D01*
X125929285Y-100959285D02*
X125500714Y-100959285D01*
X125715000Y-100959285D02*
X125715000Y-100209285D01*
X125643571Y-100316428D01*
X125572142Y-100387857D01*
X125500714Y-100423571D01*
X127755000Y-101029285D02*
X127505000Y-100672142D01*
X127326428Y-101029285D02*
X127326428Y-100279285D01*
X127612142Y-100279285D01*
X127683571Y-100315000D01*
X127719285Y-100350714D01*
X127755000Y-100422142D01*
X127755000Y-100529285D01*
X127719285Y-100600714D01*
X127683571Y-100636428D01*
X127612142Y-100672142D01*
X127326428Y-100672142D01*
X128005000Y-100279285D02*
X128469285Y-100279285D01*
X128219285Y-100565000D01*
X128326428Y-100565000D01*
X128397857Y-100600714D01*
X128433571Y-100636428D01*
X128469285Y-100707857D01*
X128469285Y-100886428D01*
X128433571Y-100957857D01*
X128397857Y-100993571D01*
X128326428Y-101029285D01*
X128112142Y-101029285D01*
X128040714Y-100993571D01*
X128005000Y-100957857D01*
X127529285Y-96035000D02*
X127172142Y-96285000D01*
X127529285Y-96463571D02*
X126779285Y-96463571D01*
X126779285Y-96177857D01*
X126815000Y-96106428D01*
X126850714Y-96070714D01*
X126922142Y-96035000D01*
X127029285Y-96035000D01*
X127100714Y-96070714D01*
X127136428Y-96106428D01*
X127172142Y-96177857D01*
X127172142Y-96463571D01*
X126850714Y-95749285D02*
X126815000Y-95713571D01*
X126779285Y-95642142D01*
X126779285Y-95463571D01*
X126815000Y-95392142D01*
X126850714Y-95356428D01*
X126922142Y-95320714D01*
X126993571Y-95320714D01*
X127100714Y-95356428D01*
X127529285Y-95785000D01*
X127529285Y-95320714D01*
X127529285Y-97805000D02*
X127172142Y-98055000D01*
X127529285Y-98233571D02*
X126779285Y-98233571D01*
X126779285Y-97947857D01*
X126815000Y-97876428D01*
X126850714Y-97840714D01*
X126922142Y-97805000D01*
X127029285Y-97805000D01*
X127100714Y-97840714D01*
X127136428Y-97876428D01*
X127172142Y-97947857D01*
X127172142Y-98233571D01*
X127529285Y-97090714D02*
X127529285Y-97519285D01*
X127529285Y-97305000D02*
X126779285Y-97305000D01*
X126886428Y-97376428D01*
X126957857Y-97447857D01*
X126993571Y-97519285D01*
X133359857Y-93066165D02*
X133359857Y-92316165D01*
X134145571Y-93066165D02*
X133895571Y-92709022D01*
X133717000Y-93066165D02*
X133717000Y-92316165D01*
X134002714Y-92316165D01*
X134074142Y-92351880D01*
X134109857Y-92387594D01*
X134145571Y-92459022D01*
X134145571Y-92566165D01*
X134109857Y-92637594D01*
X134074142Y-92673308D01*
X134002714Y-92709022D01*
X133717000Y-92709022D01*
X134717000Y-92673308D02*
X134467000Y-92673308D01*
X134467000Y-93066165D02*
X134467000Y-92316165D01*
X134824142Y-92316165D01*
X135074142Y-93030451D02*
X135181285Y-93066165D01*
X135359857Y-93066165D01*
X135431285Y-93030451D01*
X135467000Y-92994737D01*
X135502714Y-92923308D01*
X135502714Y-92851880D01*
X135467000Y-92780451D01*
X135431285Y-92744737D01*
X135359857Y-92709022D01*
X135217000Y-92673308D01*
X135145571Y-92637594D01*
X135109857Y-92601880D01*
X135074142Y-92530451D01*
X135074142Y-92459022D01*
X135109857Y-92387594D01*
X135145571Y-92351880D01*
X135217000Y-92316165D01*
X135395571Y-92316165D01*
X135502714Y-92351880D01*
X135752714Y-92316165D02*
X136252714Y-92316165D01*
X135931285Y-93066165D01*
X136895571Y-92316165D02*
X136538428Y-92316165D01*
X136502714Y-92673308D01*
X136538428Y-92637594D01*
X136609857Y-92601880D01*
X136788428Y-92601880D01*
X136859857Y-92637594D01*
X136895571Y-92673308D01*
X136931285Y-92744737D01*
X136931285Y-92923308D01*
X136895571Y-92994737D01*
X136859857Y-93030451D01*
X136788428Y-93066165D01*
X136609857Y-93066165D01*
X136538428Y-93030451D01*
X136502714Y-92994737D01*
X137181285Y-92316165D02*
X137645571Y-92316165D01*
X137395571Y-92601880D01*
X137502714Y-92601880D01*
X137574142Y-92637594D01*
X137609857Y-92673308D01*
X137645571Y-92744737D01*
X137645571Y-92923308D01*
X137609857Y-92994737D01*
X137574142Y-93030451D01*
X137502714Y-93066165D01*
X137288428Y-93066165D01*
X137217000Y-93030451D01*
X137181285Y-92994737D01*
X138109857Y-92316165D02*
X138181285Y-92316165D01*
X138252714Y-92351880D01*
X138288428Y-92387594D01*
X138324142Y-92459022D01*
X138359857Y-92601880D01*
X138359857Y-92780451D01*
X138324142Y-92923308D01*
X138288428Y-92994737D01*
X138252714Y-93030451D01*
X138181285Y-93066165D01*
X138109857Y-93066165D01*
X138038428Y-93030451D01*
X138002714Y-92994737D01*
X137967000Y-92923308D01*
X137931285Y-92780451D01*
X137931285Y-92601880D01*
X137967000Y-92459022D01*
X138002714Y-92387594D01*
X138038428Y-92351880D01*
X138109857Y-92316165D01*
X144917857Y-93619285D02*
X144917857Y-92869285D01*
X145703571Y-93619285D02*
X145453571Y-93262142D01*
X145275000Y-93619285D02*
X145275000Y-92869285D01*
X145560714Y-92869285D01*
X145632142Y-92905000D01*
X145667857Y-92940714D01*
X145703571Y-93012142D01*
X145703571Y-93119285D01*
X145667857Y-93190714D01*
X145632142Y-93226428D01*
X145560714Y-93262142D01*
X145275000Y-93262142D01*
X146275000Y-93226428D02*
X146025000Y-93226428D01*
X146025000Y-93619285D02*
X146025000Y-92869285D01*
X146382142Y-92869285D01*
X146632142Y-93583571D02*
X146739285Y-93619285D01*
X146917857Y-93619285D01*
X146989285Y-93583571D01*
X147025000Y-93547857D01*
X147060714Y-93476428D01*
X147060714Y-93405000D01*
X147025000Y-93333571D01*
X146989285Y-93297857D01*
X146917857Y-93262142D01*
X146775000Y-93226428D01*
X146703571Y-93190714D01*
X146667857Y-93155000D01*
X146632142Y-93083571D01*
X146632142Y-93012142D01*
X146667857Y-92940714D01*
X146703571Y-92905000D01*
X146775000Y-92869285D01*
X146953571Y-92869285D01*
X147060714Y-92905000D01*
X147310714Y-92869285D02*
X147810714Y-92869285D01*
X147489285Y-93619285D01*
X148453571Y-92869285D02*
X148096428Y-92869285D01*
X148060714Y-93226428D01*
X148096428Y-93190714D01*
X148167857Y-93155000D01*
X148346428Y-93155000D01*
X148417857Y-93190714D01*
X148453571Y-93226428D01*
X148489285Y-93297857D01*
X148489285Y-93476428D01*
X148453571Y-93547857D01*
X148417857Y-93583571D01*
X148346428Y-93619285D01*
X148167857Y-93619285D01*
X148096428Y-93583571D01*
X148060714Y-93547857D01*
X148739285Y-92869285D02*
X149203571Y-92869285D01*
X148953571Y-93155000D01*
X149060714Y-93155000D01*
X149132142Y-93190714D01*
X149167857Y-93226428D01*
X149203571Y-93297857D01*
X149203571Y-93476428D01*
X149167857Y-93547857D01*
X149132142Y-93583571D01*
X149060714Y-93619285D01*
X148846428Y-93619285D01*
X148775000Y-93583571D01*
X148739285Y-93547857D01*
X149667857Y-92869285D02*
X149739285Y-92869285D01*
X149810714Y-92905000D01*
X149846428Y-92940714D01*
X149882142Y-93012142D01*
X149917857Y-93155000D01*
X149917857Y-93333571D01*
X149882142Y-93476428D01*
X149846428Y-93547857D01*
X149810714Y-93583571D01*
X149739285Y-93619285D01*
X149667857Y-93619285D01*
X149596428Y-93583571D01*
X149560714Y-93547857D01*
X149525000Y-93476428D01*
X149489285Y-93333571D01*
X149489285Y-93155000D01*
X149525000Y-93012142D01*
X149560714Y-92940714D01*
X149596428Y-92905000D01*
X149667857Y-92869285D01*
X157235857Y-93066165D02*
X157235857Y-92316165D01*
X158021571Y-93066165D02*
X157771571Y-92709022D01*
X157593000Y-93066165D02*
X157593000Y-92316165D01*
X157878714Y-92316165D01*
X157950142Y-92351880D01*
X157985857Y-92387594D01*
X158021571Y-92459022D01*
X158021571Y-92566165D01*
X157985857Y-92637594D01*
X157950142Y-92673308D01*
X157878714Y-92709022D01*
X157593000Y-92709022D01*
X158593000Y-92673308D02*
X158343000Y-92673308D01*
X158343000Y-93066165D02*
X158343000Y-92316165D01*
X158700142Y-92316165D01*
X158950142Y-93030451D02*
X159057285Y-93066165D01*
X159235857Y-93066165D01*
X159307285Y-93030451D01*
X159343000Y-92994737D01*
X159378714Y-92923308D01*
X159378714Y-92851880D01*
X159343000Y-92780451D01*
X159307285Y-92744737D01*
X159235857Y-92709022D01*
X159093000Y-92673308D01*
X159021571Y-92637594D01*
X158985857Y-92601880D01*
X158950142Y-92530451D01*
X158950142Y-92459022D01*
X158985857Y-92387594D01*
X159021571Y-92351880D01*
X159093000Y-92316165D01*
X159271571Y-92316165D01*
X159378714Y-92351880D01*
X159628714Y-92316165D02*
X160128714Y-92316165D01*
X159807285Y-93066165D01*
X160771571Y-92316165D02*
X160414428Y-92316165D01*
X160378714Y-92673308D01*
X160414428Y-92637594D01*
X160485857Y-92601880D01*
X160664428Y-92601880D01*
X160735857Y-92637594D01*
X160771571Y-92673308D01*
X160807285Y-92744737D01*
X160807285Y-92923308D01*
X160771571Y-92994737D01*
X160735857Y-93030451D01*
X160664428Y-93066165D01*
X160485857Y-93066165D01*
X160414428Y-93030451D01*
X160378714Y-92994737D01*
X161057285Y-92316165D02*
X161521571Y-92316165D01*
X161271571Y-92601880D01*
X161378714Y-92601880D01*
X161450142Y-92637594D01*
X161485857Y-92673308D01*
X161521571Y-92744737D01*
X161521571Y-92923308D01*
X161485857Y-92994737D01*
X161450142Y-93030451D01*
X161378714Y-93066165D01*
X161164428Y-93066165D01*
X161093000Y-93030451D01*
X161057285Y-92994737D01*
X161985857Y-92316165D02*
X162057285Y-92316165D01*
X162128714Y-92351880D01*
X162164428Y-92387594D01*
X162200142Y-92459022D01*
X162235857Y-92601880D01*
X162235857Y-92780451D01*
X162200142Y-92923308D01*
X162164428Y-92994737D01*
X162128714Y-93030451D01*
X162057285Y-93066165D01*
X161985857Y-93066165D01*
X161914428Y-93030451D01*
X161878714Y-92994737D01*
X161843000Y-92923308D01*
X161807285Y-92780451D01*
X161807285Y-92601880D01*
X161843000Y-92459022D01*
X161878714Y-92387594D01*
X161914428Y-92351880D01*
X161985857Y-92316165D01*
X126645000Y-90239285D02*
X126395000Y-89882142D01*
X126216428Y-90239285D02*
X126216428Y-89489285D01*
X126502142Y-89489285D01*
X126573571Y-89525000D01*
X126609285Y-89560714D01*
X126645000Y-89632142D01*
X126645000Y-89739285D01*
X126609285Y-89810714D01*
X126573571Y-89846428D01*
X126502142Y-89882142D01*
X126216428Y-89882142D01*
X127287857Y-89739285D02*
X127287857Y-90239285D01*
X127109285Y-89453571D02*
X126930714Y-89989285D01*
X127395000Y-89989285D01*
X124365000Y-90219285D02*
X124115000Y-89862142D01*
X123936428Y-90219285D02*
X123936428Y-89469285D01*
X124222142Y-89469285D01*
X124293571Y-89505000D01*
X124329285Y-89540714D01*
X124365000Y-89612142D01*
X124365000Y-89719285D01*
X124329285Y-89790714D01*
X124293571Y-89826428D01*
X124222142Y-89862142D01*
X123936428Y-89862142D01*
X125043571Y-89469285D02*
X124686428Y-89469285D01*
X124650714Y-89826428D01*
X124686428Y-89790714D01*
X124757857Y-89755000D01*
X124936428Y-89755000D01*
X125007857Y-89790714D01*
X125043571Y-89826428D01*
X125079285Y-89897857D01*
X125079285Y-90076428D01*
X125043571Y-90147857D01*
X125007857Y-90183571D01*
X124936428Y-90219285D01*
X124757857Y-90219285D01*
X124686428Y-90183571D01*
X124650714Y-90147857D01*
M02*
