G04 #@! TF.FileFunction,Soldermask,Top*
%FSLAX46Y46*%
G04 Gerber Fmt 4.6, Leading zero omitted, Abs format (unit mm)*
G04 Created by KiCad (PCBNEW 4.0.2-stable) date 9/22/2016 9:13:19 PM*
%MOMM*%
G01*
G04 APERTURE LIST*
%ADD10C,0.100000*%
%ADD11O,3.414980X1.906220*%
%ADD12R,1.310000X1.620000*%
%ADD13C,2.400000*%
%ADD14R,11.200080X8.550860*%
%ADD15R,1.299160X3.600400*%
%ADD16R,1.150000X1.600000*%
%ADD17R,1.300000X1.600000*%
%ADD18R,8.400000X7.400000*%
G04 APERTURE END LIST*
D10*
D11*
X183362600Y-73380600D03*
X183362600Y-70840600D03*
X183362600Y-67818000D03*
X183362600Y-65278000D03*
X183362600Y-62738000D03*
D12*
X192897000Y-75438000D03*
X189627000Y-75438000D03*
D13*
X195730000Y-57810000D03*
X198270000Y-57810000D03*
X200810000Y-57810000D03*
X200810000Y-55270000D03*
X200810000Y-52730000D03*
X200810000Y-50190000D03*
X193190000Y-57810000D03*
X193190000Y-55270000D03*
X193190000Y-52730000D03*
X193190000Y-50190000D03*
X195730000Y-50190000D03*
X198270000Y-50190000D03*
X225730000Y-57810000D03*
X228270000Y-57810000D03*
X230810000Y-57810000D03*
X230810000Y-55270000D03*
X230810000Y-52730000D03*
X230810000Y-50190000D03*
X223190000Y-57810000D03*
X223190000Y-55270000D03*
X223190000Y-52730000D03*
X223190000Y-50190000D03*
X225730000Y-50190000D03*
X228270000Y-50190000D03*
D14*
X200152000Y-69537580D03*
D15*
X196342000Y-80139540D03*
X197612000Y-80139540D03*
X198882000Y-80139540D03*
X201422000Y-80139540D03*
X202692000Y-80139540D03*
X203962000Y-80139540D03*
D14*
X212090000Y-69537580D03*
D15*
X208280000Y-80139540D03*
X209550000Y-80139540D03*
X210820000Y-80139540D03*
X213360000Y-80139540D03*
X214630000Y-80139540D03*
X215900000Y-80139540D03*
D14*
X224028000Y-69537580D03*
D15*
X220218000Y-80139540D03*
X221488000Y-80139540D03*
X222758000Y-80139540D03*
X225298000Y-80139540D03*
X226568000Y-80139540D03*
X227838000Y-80139540D03*
D16*
X191262000Y-69916000D03*
X191262000Y-71816000D03*
D17*
X187706000Y-71966000D03*
X187706000Y-69766000D03*
X189484000Y-69766000D03*
X189484000Y-71966000D03*
X193040000Y-71966000D03*
X193040000Y-69766000D03*
D18*
X238610000Y-85725000D03*
X238500000Y-53500000D03*
X185000000Y-85725000D03*
X185500000Y-53500000D03*
M02*
