G04 #@! TF.FileFunction,Legend,Bot*
%FSLAX46Y46*%
G04 Gerber Fmt 4.6, Leading zero omitted, Abs format (unit mm)*
G04 Created by KiCad (PCBNEW 4.0.2-stable) date 7/12/2016 10:14:01 PM*
%MOMM*%
G01*
G04 APERTURE LIST*
%ADD10C,0.100000*%
%ADD11C,0.300000*%
G04 APERTURE END LIST*
D10*
D11*
X216665428Y-52410771D02*
X216165428Y-53910771D01*
X215665428Y-52410771D01*
X214594000Y-53839343D02*
X214736857Y-53910771D01*
X215022571Y-53910771D01*
X215165428Y-53839343D01*
X215236857Y-53696486D01*
X215236857Y-53125057D01*
X215165428Y-52982200D01*
X215022571Y-52910771D01*
X214736857Y-52910771D01*
X214594000Y-52982200D01*
X214522571Y-53125057D01*
X214522571Y-53267914D01*
X215236857Y-53410771D01*
X213879714Y-53910771D02*
X213879714Y-52910771D01*
X213879714Y-53196486D02*
X213808286Y-53053629D01*
X213736857Y-52982200D01*
X213594000Y-52910771D01*
X213451143Y-52910771D01*
X212951143Y-53767914D02*
X212879715Y-53839343D01*
X212951143Y-53910771D01*
X213022572Y-53839343D01*
X212951143Y-53767914D01*
X212951143Y-53910771D01*
X212951143Y-52982200D02*
X212879715Y-53053629D01*
X212951143Y-53125057D01*
X213022572Y-53053629D01*
X212951143Y-52982200D01*
X212951143Y-53125057D01*
X210308286Y-53910771D02*
X211165429Y-53910771D01*
X210736857Y-53910771D02*
X210736857Y-52410771D01*
X210879714Y-52625057D01*
X211022572Y-52767914D01*
X211165429Y-52839343D01*
X209665429Y-53767914D02*
X209594001Y-53839343D01*
X209665429Y-53910771D01*
X209736858Y-53839343D01*
X209665429Y-53767914D01*
X209665429Y-53910771D01*
X208665429Y-52410771D02*
X208522572Y-52410771D01*
X208379715Y-52482200D01*
X208308286Y-52553629D01*
X208236857Y-52696486D01*
X208165429Y-52982200D01*
X208165429Y-53339343D01*
X208236857Y-53625057D01*
X208308286Y-53767914D01*
X208379715Y-53839343D01*
X208522572Y-53910771D01*
X208665429Y-53910771D01*
X208808286Y-53839343D01*
X208879715Y-53767914D01*
X208951143Y-53625057D01*
X209022572Y-53339343D01*
X209022572Y-52982200D01*
X208951143Y-52696486D01*
X208879715Y-52553629D01*
X208808286Y-52482200D01*
X208665429Y-52410771D01*
X218343999Y-56310771D02*
X218343999Y-54810771D01*
X217986856Y-54810771D01*
X217772571Y-54882200D01*
X217629713Y-55025057D01*
X217558285Y-55167914D01*
X217486856Y-55453629D01*
X217486856Y-55667914D01*
X217558285Y-55953629D01*
X217629713Y-56096486D01*
X217772571Y-56239343D01*
X217986856Y-56310771D01*
X218343999Y-56310771D01*
X216201142Y-56310771D02*
X216201142Y-55525057D01*
X216272571Y-55382200D01*
X216415428Y-55310771D01*
X216701142Y-55310771D01*
X216843999Y-55382200D01*
X216201142Y-56239343D02*
X216343999Y-56310771D01*
X216701142Y-56310771D01*
X216843999Y-56239343D01*
X216915428Y-56096486D01*
X216915428Y-55953629D01*
X216843999Y-55810771D01*
X216701142Y-55739343D01*
X216343999Y-55739343D01*
X216201142Y-55667914D01*
X215701142Y-55310771D02*
X215129713Y-55310771D01*
X215486856Y-54810771D02*
X215486856Y-56096486D01*
X215415428Y-56239343D01*
X215272570Y-56310771D01*
X215129713Y-56310771D01*
X214058285Y-56239343D02*
X214201142Y-56310771D01*
X214486856Y-56310771D01*
X214629713Y-56239343D01*
X214701142Y-56096486D01*
X214701142Y-55525057D01*
X214629713Y-55382200D01*
X214486856Y-55310771D01*
X214201142Y-55310771D01*
X214058285Y-55382200D01*
X213986856Y-55525057D01*
X213986856Y-55667914D01*
X214701142Y-55810771D01*
X213343999Y-56167914D02*
X213272571Y-56239343D01*
X213343999Y-56310771D01*
X213415428Y-56239343D01*
X213343999Y-56167914D01*
X213343999Y-56310771D01*
X213343999Y-55382200D02*
X213272571Y-55453629D01*
X213343999Y-55525057D01*
X213415428Y-55453629D01*
X213343999Y-55382200D01*
X213343999Y-55525057D01*
X211629713Y-54810771D02*
X210629713Y-54810771D01*
X211272570Y-56310771D01*
X208986857Y-54739343D02*
X210272571Y-56667914D01*
X207701142Y-56310771D02*
X208558285Y-56310771D01*
X208129713Y-56310771D02*
X208129713Y-54810771D01*
X208272570Y-55025057D01*
X208415428Y-55167914D01*
X208558285Y-55239343D01*
X206415428Y-54810771D02*
X206701142Y-54810771D01*
X206843999Y-54882200D01*
X206915428Y-54953629D01*
X207058285Y-55167914D01*
X207129714Y-55453629D01*
X207129714Y-56025057D01*
X207058285Y-56167914D01*
X206986857Y-56239343D01*
X206843999Y-56310771D01*
X206558285Y-56310771D01*
X206415428Y-56239343D01*
X206343999Y-56167914D01*
X206272571Y-56025057D01*
X206272571Y-55667914D01*
X206343999Y-55525057D01*
X206415428Y-55453629D01*
X206558285Y-55382200D01*
X206843999Y-55382200D01*
X206986857Y-55453629D01*
X207058285Y-55525057D01*
X207129714Y-55667914D01*
X218742400Y-49999200D02*
X218885257Y-49927771D01*
X219099543Y-49927771D01*
X219313828Y-49999200D01*
X219456686Y-50142057D01*
X219528114Y-50284914D01*
X219599543Y-50570629D01*
X219599543Y-50784914D01*
X219528114Y-51070629D01*
X219456686Y-51213486D01*
X219313828Y-51356343D01*
X219099543Y-51427771D01*
X218956686Y-51427771D01*
X218742400Y-51356343D01*
X218670971Y-51284914D01*
X218670971Y-50784914D01*
X218956686Y-50784914D01*
X218028114Y-51427771D02*
X218028114Y-50427771D01*
X218028114Y-49927771D02*
X218099543Y-49999200D01*
X218028114Y-50070629D01*
X217956686Y-49999200D01*
X218028114Y-49927771D01*
X218028114Y-50070629D01*
X217385257Y-51356343D02*
X217170971Y-51427771D01*
X216813828Y-51427771D01*
X216670971Y-51356343D01*
X216599542Y-51284914D01*
X216528114Y-51142057D01*
X216528114Y-50999200D01*
X216599542Y-50856343D01*
X216670971Y-50784914D01*
X216813828Y-50713486D01*
X217099542Y-50642057D01*
X217242400Y-50570629D01*
X217313828Y-50499200D01*
X217385257Y-50356343D01*
X217385257Y-50213486D01*
X217313828Y-50070629D01*
X217242400Y-49999200D01*
X217099542Y-49927771D01*
X216742400Y-49927771D01*
X216528114Y-49999200D01*
X214813829Y-50999200D02*
X214099543Y-50999200D01*
X214956686Y-51427771D02*
X214456686Y-49927771D01*
X213956686Y-51427771D01*
X213456686Y-50427771D02*
X213456686Y-51427771D01*
X213456686Y-50570629D02*
X213385258Y-50499200D01*
X213242400Y-50427771D01*
X213028115Y-50427771D01*
X212885258Y-50499200D01*
X212813829Y-50642057D01*
X212813829Y-51427771D01*
X212313829Y-50427771D02*
X211742400Y-50427771D01*
X212099543Y-49927771D02*
X212099543Y-51213486D01*
X212028115Y-51356343D01*
X211885257Y-51427771D01*
X211742400Y-51427771D01*
X211242400Y-51427771D02*
X211242400Y-50427771D01*
X211242400Y-49927771D02*
X211313829Y-49999200D01*
X211242400Y-50070629D01*
X211170972Y-49999200D01*
X211242400Y-49927771D01*
X211242400Y-50070629D01*
X210599543Y-51356343D02*
X210385257Y-51427771D01*
X210028114Y-51427771D01*
X209885257Y-51356343D01*
X209813828Y-51284914D01*
X209742400Y-51142057D01*
X209742400Y-50999200D01*
X209813828Y-50856343D01*
X209885257Y-50784914D01*
X210028114Y-50713486D01*
X210313828Y-50642057D01*
X210456686Y-50570629D01*
X210528114Y-50499200D01*
X210599543Y-50356343D01*
X210599543Y-50213486D01*
X210528114Y-50070629D01*
X210456686Y-49999200D01*
X210313828Y-49927771D01*
X209956686Y-49927771D01*
X209742400Y-49999200D01*
X209099543Y-50427771D02*
X209099543Y-51927771D01*
X209099543Y-50499200D02*
X208956686Y-50427771D01*
X208670972Y-50427771D01*
X208528115Y-50499200D01*
X208456686Y-50570629D01*
X208385257Y-50713486D01*
X208385257Y-51142057D01*
X208456686Y-51284914D01*
X208528115Y-51356343D01*
X208670972Y-51427771D01*
X208956686Y-51427771D01*
X209099543Y-51356343D01*
X207099543Y-51427771D02*
X207099543Y-50642057D01*
X207170972Y-50499200D01*
X207313829Y-50427771D01*
X207599543Y-50427771D01*
X207742400Y-50499200D01*
X207099543Y-51356343D02*
X207242400Y-51427771D01*
X207599543Y-51427771D01*
X207742400Y-51356343D01*
X207813829Y-51213486D01*
X207813829Y-51070629D01*
X207742400Y-50927771D01*
X207599543Y-50856343D01*
X207242400Y-50856343D01*
X207099543Y-50784914D01*
X206385257Y-51427771D02*
X206385257Y-50427771D01*
X206385257Y-50713486D02*
X206313829Y-50570629D01*
X206242400Y-50499200D01*
X206099543Y-50427771D01*
X205956686Y-50427771D01*
X205456686Y-51427771D02*
X205456686Y-49927771D01*
X205313829Y-50856343D02*
X204885258Y-51427771D01*
X204885258Y-50427771D02*
X205456686Y-50999200D01*
M02*
