G04 #@! TF.GenerationSoftware,KiCad,Pcbnew,(2017-08-25 revision dd37d0595)-makepkg*
G04 #@! TF.CreationDate,2018-05-19T22:22:17-04:00*
G04 #@! TF.ProjectId,Anti-Spark-Switch,416E74692D537061726B2D5377697463,rev?*
G04 #@! TF.SameCoordinates,Original*
G04 #@! TF.FileFunction,Legend,Top*
G04 #@! TF.FilePolarity,Positive*
%FSLAX46Y46*%
G04 Gerber Fmt 4.6, Leading zero omitted, Abs format (unit mm)*
G04 Created by KiCad (PCBNEW (2017-08-25 revision dd37d0595)-makepkg) date 05/19/18 22:22:17*
%MOMM*%
%LPD*%
G01*
G04 APERTURE LIST*
%ADD10C,0.250000*%
%ADD11C,0.187500*%
%ADD12C,0.300000*%
%ADD13C,0.010000*%
%ADD14C,0.120000*%
%ADD15C,0.150000*%
%ADD16C,0.381000*%
%ADD17C,0.137500*%
%ADD18C,0.304800*%
G04 APERTURE END LIST*
D10*
X117012380Y-92313809D02*
X116012380Y-92313809D01*
X117012380Y-91837619D02*
X116012380Y-91837619D01*
X117012380Y-91266190D01*
X116012380Y-91266190D01*
X116631428Y-90028095D02*
X116631428Y-89266190D01*
X117012380Y-89647142D02*
X116250476Y-89647142D01*
D11*
X121760714Y-93025000D02*
X121760714Y-92667857D01*
X122510714Y-92667857D01*
X122153571Y-93275000D02*
X122153571Y-93525000D01*
X121760714Y-93632142D02*
X121760714Y-93275000D01*
X122510714Y-93275000D01*
X122510714Y-93632142D01*
X121760714Y-93953571D02*
X122510714Y-93953571D01*
X122510714Y-94132142D01*
X122475000Y-94239285D01*
X122403571Y-94310714D01*
X122332142Y-94346428D01*
X122189285Y-94382142D01*
X122082142Y-94382142D01*
X121939285Y-94346428D01*
X121867857Y-94310714D01*
X121796428Y-94239285D01*
X121760714Y-94132142D01*
X121760714Y-93953571D01*
X121510714Y-95453571D02*
X122582142Y-95453571D01*
X122046428Y-96560714D02*
X122046428Y-97132142D01*
X122046428Y-98060714D02*
X122046428Y-98632142D01*
X121760714Y-98346428D02*
X122332142Y-98346428D01*
D10*
X174717380Y-106333333D02*
X175717380Y-106000000D01*
X174717380Y-105666666D01*
X175669761Y-104952380D02*
X175717380Y-105047619D01*
X175717380Y-105238095D01*
X175669761Y-105333333D01*
X175574523Y-105380952D01*
X175193571Y-105380952D01*
X175098333Y-105333333D01*
X175050714Y-105238095D01*
X175050714Y-105047619D01*
X175098333Y-104952380D01*
X175193571Y-104904761D01*
X175288809Y-104904761D01*
X175384047Y-105380952D01*
X175717380Y-104476190D02*
X175050714Y-104476190D01*
X175241190Y-104476190D02*
X175145952Y-104428571D01*
X175098333Y-104380952D01*
X175050714Y-104285714D01*
X175050714Y-104190476D01*
X175622142Y-103857142D02*
X175669761Y-103809523D01*
X175717380Y-103857142D01*
X175669761Y-103904761D01*
X175622142Y-103857142D01*
X175717380Y-103857142D01*
X175098333Y-103857142D02*
X175145952Y-103809523D01*
X175193571Y-103857142D01*
X175145952Y-103904761D01*
X175098333Y-103857142D01*
X175193571Y-103857142D01*
X175717380Y-102095238D02*
X175717380Y-102666666D01*
X175717380Y-102380952D02*
X174717380Y-102380952D01*
X174860238Y-102476190D01*
X174955476Y-102571428D01*
X175003095Y-102666666D01*
X175622142Y-101666666D02*
X175669761Y-101619047D01*
X175717380Y-101666666D01*
X175669761Y-101714285D01*
X175622142Y-101666666D01*
X175717380Y-101666666D01*
X175050714Y-100761904D02*
X175717380Y-100761904D01*
X174669761Y-101000000D02*
X175384047Y-101238095D01*
X175384047Y-100619047D01*
X175336428Y-99476190D02*
X175336428Y-98714285D01*
X175717380Y-97476190D02*
X174717380Y-97476190D01*
X175717380Y-96904761D01*
X174717380Y-96904761D01*
X175717380Y-96285714D02*
X175669761Y-96380952D01*
X175622142Y-96428571D01*
X175526904Y-96476190D01*
X175241190Y-96476190D01*
X175145952Y-96428571D01*
X175098333Y-96380952D01*
X175050714Y-96285714D01*
X175050714Y-96142857D01*
X175098333Y-96047619D01*
X175145952Y-96000000D01*
X175241190Y-95952380D01*
X175526904Y-95952380D01*
X175622142Y-96000000D01*
X175669761Y-96047619D01*
X175717380Y-96142857D01*
X175717380Y-96285714D01*
X175193571Y-94428571D02*
X175193571Y-94761904D01*
X175717380Y-94761904D02*
X174717380Y-94761904D01*
X174717380Y-94285714D01*
X175050714Y-93476190D02*
X175717380Y-93476190D01*
X175050714Y-93904761D02*
X175574523Y-93904761D01*
X175669761Y-93857142D01*
X175717380Y-93761904D01*
X175717380Y-93619047D01*
X175669761Y-93523809D01*
X175622142Y-93476190D01*
X175669761Y-93047619D02*
X175717380Y-92952380D01*
X175717380Y-92761904D01*
X175669761Y-92666666D01*
X175574523Y-92619047D01*
X175526904Y-92619047D01*
X175431666Y-92666666D01*
X175384047Y-92761904D01*
X175384047Y-92904761D01*
X175336428Y-93000000D01*
X175241190Y-93047619D01*
X175193571Y-93047619D01*
X175098333Y-93000000D01*
X175050714Y-92904761D01*
X175050714Y-92761904D01*
X175098333Y-92666666D01*
X175669761Y-91809523D02*
X175717380Y-91904761D01*
X175717380Y-92095238D01*
X175669761Y-92190476D01*
X175574523Y-92238095D01*
X175193571Y-92238095D01*
X175098333Y-92190476D01*
X175050714Y-92095238D01*
X175050714Y-91904761D01*
X175098333Y-91809523D01*
X175193571Y-91761904D01*
X175288809Y-91761904D01*
X175384047Y-92238095D01*
X177467380Y-105928571D02*
X176467380Y-105928571D01*
X177181666Y-105595238D01*
X176467380Y-105261904D01*
X177467380Y-105261904D01*
X176515000Y-104261904D02*
X176467380Y-104357142D01*
X176467380Y-104500000D01*
X176515000Y-104642857D01*
X176610238Y-104738095D01*
X176705476Y-104785714D01*
X176895952Y-104833333D01*
X177038809Y-104833333D01*
X177229285Y-104785714D01*
X177324523Y-104738095D01*
X177419761Y-104642857D01*
X177467380Y-104500000D01*
X177467380Y-104404761D01*
X177419761Y-104261904D01*
X177372142Y-104214285D01*
X177038809Y-104214285D01*
X177038809Y-104404761D01*
X177467380Y-103023809D02*
X176467380Y-103023809D01*
X176467380Y-102785714D01*
X176515000Y-102642857D01*
X176610238Y-102547619D01*
X176705476Y-102500000D01*
X176895952Y-102452380D01*
X177038809Y-102452380D01*
X177229285Y-102500000D01*
X177324523Y-102547619D01*
X177419761Y-102642857D01*
X177467380Y-102785714D01*
X177467380Y-103023809D01*
X177467380Y-101595238D02*
X176943571Y-101595238D01*
X176848333Y-101642857D01*
X176800714Y-101738095D01*
X176800714Y-101928571D01*
X176848333Y-102023809D01*
X177419761Y-101595238D02*
X177467380Y-101690476D01*
X177467380Y-101928571D01*
X177419761Y-102023809D01*
X177324523Y-102071428D01*
X177229285Y-102071428D01*
X177134047Y-102023809D01*
X177086428Y-101928571D01*
X177086428Y-101690476D01*
X177038809Y-101595238D01*
X176800714Y-101261904D02*
X176800714Y-100880952D01*
X176467380Y-101119047D02*
X177324523Y-101119047D01*
X177419761Y-101071428D01*
X177467380Y-100976190D01*
X177467380Y-100880952D01*
X177419761Y-100166666D02*
X177467380Y-100261904D01*
X177467380Y-100452380D01*
X177419761Y-100547619D01*
X177324523Y-100595238D01*
X176943571Y-100595238D01*
X176848333Y-100547619D01*
X176800714Y-100452380D01*
X176800714Y-100261904D01*
X176848333Y-100166666D01*
X176943571Y-100119047D01*
X177038809Y-100119047D01*
X177134047Y-100595238D01*
X177372142Y-99690476D02*
X177419761Y-99642857D01*
X177467380Y-99690476D01*
X177419761Y-99738095D01*
X177372142Y-99690476D01*
X177467380Y-99690476D01*
X176848333Y-99690476D02*
X176895952Y-99642857D01*
X176943571Y-99690476D01*
X176895952Y-99738095D01*
X176848333Y-99690476D01*
X176943571Y-99690476D01*
X176467380Y-97976190D02*
X176467380Y-98452380D01*
X176943571Y-98500000D01*
X176895952Y-98452380D01*
X176848333Y-98357142D01*
X176848333Y-98119047D01*
X176895952Y-98023809D01*
X176943571Y-97976190D01*
X177038809Y-97928571D01*
X177276904Y-97928571D01*
X177372142Y-97976190D01*
X177419761Y-98023809D01*
X177467380Y-98119047D01*
X177467380Y-98357142D01*
X177419761Y-98452380D01*
X177372142Y-98500000D01*
X176419761Y-96785714D02*
X177705476Y-97642857D01*
X177467380Y-95928571D02*
X177467380Y-96500000D01*
X177467380Y-96214285D02*
X176467380Y-96214285D01*
X176610238Y-96309523D01*
X176705476Y-96404761D01*
X176753095Y-96500000D01*
X177467380Y-95452380D02*
X177467380Y-95261904D01*
X177419761Y-95166666D01*
X177372142Y-95119047D01*
X177229285Y-95023809D01*
X177038809Y-94976190D01*
X176657857Y-94976190D01*
X176562619Y-95023809D01*
X176515000Y-95071428D01*
X176467380Y-95166666D01*
X176467380Y-95357142D01*
X176515000Y-95452380D01*
X176562619Y-95500000D01*
X176657857Y-95547619D01*
X176895952Y-95547619D01*
X176991190Y-95500000D01*
X177038809Y-95452380D01*
X177086428Y-95357142D01*
X177086428Y-95166666D01*
X177038809Y-95071428D01*
X176991190Y-95023809D01*
X176895952Y-94976190D01*
X176419761Y-93833333D02*
X177705476Y-94690476D01*
X177467380Y-92976190D02*
X177467380Y-93547619D01*
X177467380Y-93261904D02*
X176467380Y-93261904D01*
X176610238Y-93357142D01*
X176705476Y-93452380D01*
X176753095Y-93547619D01*
X176895952Y-92404761D02*
X176848333Y-92500000D01*
X176800714Y-92547619D01*
X176705476Y-92595238D01*
X176657857Y-92595238D01*
X176562619Y-92547619D01*
X176515000Y-92500000D01*
X176467380Y-92404761D01*
X176467380Y-92214285D01*
X176515000Y-92119047D01*
X176562619Y-92071428D01*
X176657857Y-92023809D01*
X176705476Y-92023809D01*
X176800714Y-92071428D01*
X176848333Y-92119047D01*
X176895952Y-92214285D01*
X176895952Y-92404761D01*
X176943571Y-92500000D01*
X176991190Y-92547619D01*
X177086428Y-92595238D01*
X177276904Y-92595238D01*
X177372142Y-92547619D01*
X177419761Y-92500000D01*
X177467380Y-92404761D01*
X177467380Y-92214285D01*
X177419761Y-92119047D01*
X177372142Y-92071428D01*
X177276904Y-92023809D01*
X177086428Y-92023809D01*
X176991190Y-92071428D01*
X176943571Y-92119047D01*
X176895952Y-92214285D01*
X173446666Y-102309523D02*
X173446666Y-101833333D01*
X173732380Y-102404761D02*
X172732380Y-102071428D01*
X173732380Y-101738095D01*
X173065714Y-101404761D02*
X173732380Y-101404761D01*
X173160952Y-101404761D02*
X173113333Y-101357142D01*
X173065714Y-101261904D01*
X173065714Y-101119047D01*
X173113333Y-101023809D01*
X173208571Y-100976190D01*
X173732380Y-100976190D01*
X173065714Y-100642857D02*
X173065714Y-100261904D01*
X172732380Y-100500000D02*
X173589523Y-100500000D01*
X173684761Y-100452380D01*
X173732380Y-100357142D01*
X173732380Y-100261904D01*
X173732380Y-99928571D02*
X173065714Y-99928571D01*
X172732380Y-99928571D02*
X172780000Y-99976190D01*
X172827619Y-99928571D01*
X172780000Y-99880952D01*
X172732380Y-99928571D01*
X172827619Y-99928571D01*
X173684761Y-99500000D02*
X173732380Y-99357142D01*
X173732380Y-99119047D01*
X173684761Y-99023809D01*
X173637142Y-98976190D01*
X173541904Y-98928571D01*
X173446666Y-98928571D01*
X173351428Y-98976190D01*
X173303809Y-99023809D01*
X173256190Y-99119047D01*
X173208571Y-99309523D01*
X173160952Y-99404761D01*
X173113333Y-99452380D01*
X173018095Y-99500000D01*
X172922857Y-99500000D01*
X172827619Y-99452380D01*
X172780000Y-99404761D01*
X172732380Y-99309523D01*
X172732380Y-99071428D01*
X172780000Y-98928571D01*
X173065714Y-98500000D02*
X174065714Y-98500000D01*
X173113333Y-98500000D02*
X173065714Y-98404761D01*
X173065714Y-98214285D01*
X173113333Y-98119047D01*
X173160952Y-98071428D01*
X173256190Y-98023809D01*
X173541904Y-98023809D01*
X173637142Y-98071428D01*
X173684761Y-98119047D01*
X173732380Y-98214285D01*
X173732380Y-98404761D01*
X173684761Y-98500000D01*
X173732380Y-97166666D02*
X173208571Y-97166666D01*
X173113333Y-97214285D01*
X173065714Y-97309523D01*
X173065714Y-97500000D01*
X173113333Y-97595238D01*
X173684761Y-97166666D02*
X173732380Y-97261904D01*
X173732380Y-97500000D01*
X173684761Y-97595238D01*
X173589523Y-97642857D01*
X173494285Y-97642857D01*
X173399047Y-97595238D01*
X173351428Y-97500000D01*
X173351428Y-97261904D01*
X173303809Y-97166666D01*
X173732380Y-96690476D02*
X173065714Y-96690476D01*
X173256190Y-96690476D02*
X173160952Y-96642857D01*
X173113333Y-96595238D01*
X173065714Y-96500000D01*
X173065714Y-96404761D01*
X173732380Y-96071428D02*
X172732380Y-96071428D01*
X173351428Y-95976190D02*
X173732380Y-95690476D01*
X173065714Y-95690476D02*
X173446666Y-96071428D01*
D11*
X121610714Y-99365714D02*
X122360714Y-99365714D01*
X121610714Y-99794285D01*
X122360714Y-99794285D01*
X121682142Y-100580000D02*
X121646428Y-100544285D01*
X121610714Y-100437142D01*
X121610714Y-100365714D01*
X121646428Y-100258571D01*
X121717857Y-100187142D01*
X121789285Y-100151428D01*
X121932142Y-100115714D01*
X122039285Y-100115714D01*
X122182142Y-100151428D01*
X122253571Y-100187142D01*
X122325000Y-100258571D01*
X122360714Y-100365714D01*
X122360714Y-100437142D01*
X122325000Y-100544285D01*
X122289285Y-100580000D01*
X122325000Y-101865714D02*
X122360714Y-101794285D01*
X122360714Y-101687142D01*
X122325000Y-101580000D01*
X122253571Y-101508571D01*
X122182142Y-101472857D01*
X122039285Y-101437142D01*
X121932142Y-101437142D01*
X121789285Y-101472857D01*
X121717857Y-101508571D01*
X121646428Y-101580000D01*
X121610714Y-101687142D01*
X121610714Y-101758571D01*
X121646428Y-101865714D01*
X121682142Y-101901428D01*
X121932142Y-101901428D01*
X121932142Y-101758571D01*
X121610714Y-102222857D02*
X122360714Y-102222857D01*
X121610714Y-102651428D01*
X122360714Y-102651428D01*
X121610714Y-103008571D02*
X122360714Y-103008571D01*
X122360714Y-103187142D01*
X122325000Y-103294285D01*
X122253571Y-103365714D01*
X122182142Y-103401428D01*
X122039285Y-103437142D01*
X121932142Y-103437142D01*
X121789285Y-103401428D01*
X121717857Y-103365714D01*
X121646428Y-103294285D01*
X121610714Y-103187142D01*
X121610714Y-103008571D01*
X121360714Y-104508571D02*
X122432142Y-104508571D01*
X121646428Y-105580000D02*
X121610714Y-105687142D01*
X121610714Y-105865714D01*
X121646428Y-105937142D01*
X121682142Y-105972857D01*
X121753571Y-106008571D01*
X121825000Y-106008571D01*
X121896428Y-105972857D01*
X121932142Y-105937142D01*
X121967857Y-105865714D01*
X122003571Y-105722857D01*
X122039285Y-105651428D01*
X122075000Y-105615714D01*
X122146428Y-105580000D01*
X122217857Y-105580000D01*
X122289285Y-105615714D01*
X122325000Y-105651428D01*
X122360714Y-105722857D01*
X122360714Y-105901428D01*
X122325000Y-106008571D01*
X122360714Y-106258571D02*
X121610714Y-106437142D01*
X122146428Y-106580000D01*
X121610714Y-106722857D01*
X122360714Y-106901428D01*
X121610714Y-107187142D02*
X122360714Y-107187142D01*
X122360714Y-107437142D02*
X122360714Y-107865714D01*
X121610714Y-107651428D02*
X122360714Y-107651428D01*
X121682142Y-108544285D02*
X121646428Y-108508571D01*
X121610714Y-108401428D01*
X121610714Y-108330000D01*
X121646428Y-108222857D01*
X121717857Y-108151428D01*
X121789285Y-108115714D01*
X121932142Y-108080000D01*
X122039285Y-108080000D01*
X122182142Y-108115714D01*
X122253571Y-108151428D01*
X122325000Y-108222857D01*
X122360714Y-108330000D01*
X122360714Y-108401428D01*
X122325000Y-108508571D01*
X122289285Y-108544285D01*
X121610714Y-108865714D02*
X122360714Y-108865714D01*
X122003571Y-108865714D02*
X122003571Y-109294285D01*
X121610714Y-109294285D02*
X122360714Y-109294285D01*
D12*
X171140000Y-108718571D02*
X171425714Y-108718571D01*
X171568571Y-108790000D01*
X171711428Y-108932857D01*
X171782857Y-109218571D01*
X171782857Y-109718571D01*
X171711428Y-110004285D01*
X171568571Y-110147142D01*
X171425714Y-110218571D01*
X171140000Y-110218571D01*
X170997142Y-110147142D01*
X170854285Y-110004285D01*
X170782857Y-109718571D01*
X170782857Y-109218571D01*
X170854285Y-108932857D01*
X170997142Y-108790000D01*
X171140000Y-108718571D01*
X172425714Y-108718571D02*
X172425714Y-109932857D01*
X172497142Y-110075714D01*
X172568571Y-110147142D01*
X172711428Y-110218571D01*
X172997142Y-110218571D01*
X173140000Y-110147142D01*
X173211428Y-110075714D01*
X173282857Y-109932857D01*
X173282857Y-108718571D01*
X173782857Y-108718571D02*
X174640000Y-108718571D01*
X174211428Y-110218571D02*
X174211428Y-108718571D01*
X176282857Y-109647142D02*
X177425714Y-109647142D01*
X116574285Y-110388571D02*
X116574285Y-108888571D01*
X117288571Y-110388571D02*
X117288571Y-108888571D01*
X118145714Y-110388571D01*
X118145714Y-108888571D01*
X120002857Y-109817142D02*
X121145714Y-109817142D01*
D13*
G36*
X167559744Y-94419918D02*
X167615201Y-94447568D01*
X167664148Y-94498480D01*
X167677629Y-94517338D01*
X167692314Y-94542015D01*
X167701842Y-94568816D01*
X167707293Y-94604587D01*
X167709747Y-94656169D01*
X167710286Y-94724267D01*
X167707852Y-94817588D01*
X167699394Y-94887657D01*
X167683174Y-94939931D01*
X167657454Y-94979869D01*
X167620497Y-95012929D01*
X167617782Y-95014886D01*
X167581360Y-95034908D01*
X167537502Y-95044815D01*
X167481724Y-95047257D01*
X167391048Y-95047257D01*
X167391010Y-95135283D01*
X167390166Y-95184308D01*
X167385024Y-95213065D01*
X167371587Y-95230311D01*
X167345858Y-95244808D01*
X167339679Y-95247769D01*
X167310764Y-95261648D01*
X167288376Y-95270414D01*
X167271729Y-95271171D01*
X167260036Y-95261023D01*
X167252510Y-95237073D01*
X167248366Y-95196426D01*
X167246815Y-95136186D01*
X167247071Y-95053455D01*
X167248349Y-94945339D01*
X167248748Y-94913000D01*
X167250185Y-94801524D01*
X167251472Y-94728603D01*
X167390971Y-94728603D01*
X167391755Y-94790499D01*
X167395240Y-94830997D01*
X167403124Y-94857708D01*
X167417105Y-94878244D01*
X167426597Y-94888260D01*
X167465404Y-94917567D01*
X167499763Y-94919952D01*
X167535216Y-94895750D01*
X167536114Y-94894857D01*
X167550539Y-94876153D01*
X167559313Y-94850732D01*
X167563739Y-94811584D01*
X167565118Y-94751697D01*
X167565143Y-94738430D01*
X167561812Y-94655901D01*
X167550969Y-94598691D01*
X167531340Y-94563766D01*
X167501650Y-94548094D01*
X167484491Y-94546514D01*
X167443766Y-94553926D01*
X167415832Y-94578330D01*
X167399017Y-94622980D01*
X167391650Y-94691130D01*
X167390971Y-94728603D01*
X167251472Y-94728603D01*
X167251708Y-94715245D01*
X167253677Y-94650333D01*
X167256450Y-94602958D01*
X167260388Y-94569290D01*
X167265849Y-94545498D01*
X167273192Y-94527753D01*
X167282777Y-94512224D01*
X167286887Y-94506381D01*
X167341405Y-94451185D01*
X167410336Y-94419890D01*
X167490072Y-94411165D01*
X167559744Y-94419918D01*
X167559744Y-94419918D01*
G37*
X167559744Y-94419918D02*
X167615201Y-94447568D01*
X167664148Y-94498480D01*
X167677629Y-94517338D01*
X167692314Y-94542015D01*
X167701842Y-94568816D01*
X167707293Y-94604587D01*
X167709747Y-94656169D01*
X167710286Y-94724267D01*
X167707852Y-94817588D01*
X167699394Y-94887657D01*
X167683174Y-94939931D01*
X167657454Y-94979869D01*
X167620497Y-95012929D01*
X167617782Y-95014886D01*
X167581360Y-95034908D01*
X167537502Y-95044815D01*
X167481724Y-95047257D01*
X167391048Y-95047257D01*
X167391010Y-95135283D01*
X167390166Y-95184308D01*
X167385024Y-95213065D01*
X167371587Y-95230311D01*
X167345858Y-95244808D01*
X167339679Y-95247769D01*
X167310764Y-95261648D01*
X167288376Y-95270414D01*
X167271729Y-95271171D01*
X167260036Y-95261023D01*
X167252510Y-95237073D01*
X167248366Y-95196426D01*
X167246815Y-95136186D01*
X167247071Y-95053455D01*
X167248349Y-94945339D01*
X167248748Y-94913000D01*
X167250185Y-94801524D01*
X167251472Y-94728603D01*
X167390971Y-94728603D01*
X167391755Y-94790499D01*
X167395240Y-94830997D01*
X167403124Y-94857708D01*
X167417105Y-94878244D01*
X167426597Y-94888260D01*
X167465404Y-94917567D01*
X167499763Y-94919952D01*
X167535216Y-94895750D01*
X167536114Y-94894857D01*
X167550539Y-94876153D01*
X167559313Y-94850732D01*
X167563739Y-94811584D01*
X167565118Y-94751697D01*
X167565143Y-94738430D01*
X167561812Y-94655901D01*
X167550969Y-94598691D01*
X167531340Y-94563766D01*
X167501650Y-94548094D01*
X167484491Y-94546514D01*
X167443766Y-94553926D01*
X167415832Y-94578330D01*
X167399017Y-94622980D01*
X167391650Y-94691130D01*
X167390971Y-94728603D01*
X167251472Y-94728603D01*
X167251708Y-94715245D01*
X167253677Y-94650333D01*
X167256450Y-94602958D01*
X167260388Y-94569290D01*
X167265849Y-94545498D01*
X167273192Y-94527753D01*
X167282777Y-94512224D01*
X167286887Y-94506381D01*
X167341405Y-94451185D01*
X167410336Y-94419890D01*
X167490072Y-94411165D01*
X167559744Y-94419918D01*
G36*
X168676093Y-94427780D02*
X168722672Y-94454723D01*
X168755057Y-94481466D01*
X168778742Y-94509484D01*
X168795059Y-94543748D01*
X168805339Y-94589227D01*
X168810914Y-94650892D01*
X168813116Y-94733711D01*
X168813371Y-94793246D01*
X168813371Y-95012391D01*
X168751686Y-95040044D01*
X168690000Y-95067697D01*
X168682743Y-94827670D01*
X168679744Y-94738028D01*
X168676598Y-94672962D01*
X168672701Y-94628026D01*
X168667447Y-94598770D01*
X168660231Y-94580748D01*
X168650450Y-94569511D01*
X168647312Y-94567079D01*
X168599761Y-94548083D01*
X168551697Y-94555600D01*
X168523086Y-94575543D01*
X168511447Y-94589675D01*
X168503391Y-94608220D01*
X168498271Y-94636334D01*
X168495441Y-94679173D01*
X168494256Y-94741895D01*
X168494057Y-94807261D01*
X168494018Y-94889268D01*
X168492614Y-94947316D01*
X168487914Y-94986465D01*
X168477987Y-95011780D01*
X168460903Y-95028323D01*
X168434732Y-95041156D01*
X168399775Y-95054491D01*
X168361596Y-95069007D01*
X168366141Y-94811389D01*
X168367971Y-94718519D01*
X168370112Y-94649889D01*
X168373181Y-94600711D01*
X168377794Y-94566198D01*
X168384568Y-94541562D01*
X168394119Y-94522016D01*
X168405634Y-94504770D01*
X168461190Y-94449680D01*
X168528980Y-94417822D01*
X168602713Y-94410191D01*
X168676093Y-94427780D01*
X168676093Y-94427780D01*
G37*
X168676093Y-94427780D02*
X168722672Y-94454723D01*
X168755057Y-94481466D01*
X168778742Y-94509484D01*
X168795059Y-94543748D01*
X168805339Y-94589227D01*
X168810914Y-94650892D01*
X168813116Y-94733711D01*
X168813371Y-94793246D01*
X168813371Y-95012391D01*
X168751686Y-95040044D01*
X168690000Y-95067697D01*
X168682743Y-94827670D01*
X168679744Y-94738028D01*
X168676598Y-94672962D01*
X168672701Y-94628026D01*
X168667447Y-94598770D01*
X168660231Y-94580748D01*
X168650450Y-94569511D01*
X168647312Y-94567079D01*
X168599761Y-94548083D01*
X168551697Y-94555600D01*
X168523086Y-94575543D01*
X168511447Y-94589675D01*
X168503391Y-94608220D01*
X168498271Y-94636334D01*
X168495441Y-94679173D01*
X168494256Y-94741895D01*
X168494057Y-94807261D01*
X168494018Y-94889268D01*
X168492614Y-94947316D01*
X168487914Y-94986465D01*
X168477987Y-95011780D01*
X168460903Y-95028323D01*
X168434732Y-95041156D01*
X168399775Y-95054491D01*
X168361596Y-95069007D01*
X168366141Y-94811389D01*
X168367971Y-94718519D01*
X168370112Y-94649889D01*
X168373181Y-94600711D01*
X168377794Y-94566198D01*
X168384568Y-94541562D01*
X168394119Y-94522016D01*
X168405634Y-94504770D01*
X168461190Y-94449680D01*
X168528980Y-94417822D01*
X168602713Y-94410191D01*
X168676093Y-94427780D01*
G36*
X167001115Y-94421962D02*
X167069145Y-94457733D01*
X167119351Y-94515301D01*
X167137185Y-94552312D01*
X167151063Y-94607882D01*
X167158167Y-94678096D01*
X167158840Y-94754727D01*
X167153427Y-94829552D01*
X167142270Y-94894342D01*
X167125714Y-94940873D01*
X167120626Y-94948887D01*
X167060355Y-95008707D01*
X166988769Y-95044535D01*
X166911092Y-95055020D01*
X166832548Y-95038810D01*
X166810689Y-95029092D01*
X166768122Y-94999143D01*
X166730763Y-94959433D01*
X166727232Y-94954397D01*
X166712881Y-94930124D01*
X166703394Y-94904178D01*
X166697790Y-94870022D01*
X166695086Y-94821119D01*
X166694299Y-94750935D01*
X166694286Y-94735200D01*
X166694322Y-94730192D01*
X166839429Y-94730192D01*
X166840273Y-94796430D01*
X166843596Y-94840386D01*
X166850583Y-94868779D01*
X166862416Y-94888325D01*
X166868457Y-94894857D01*
X166903186Y-94919680D01*
X166936903Y-94918548D01*
X166970995Y-94897016D01*
X166991329Y-94874029D01*
X167003371Y-94840478D01*
X167010134Y-94787569D01*
X167010598Y-94781399D01*
X167011752Y-94685513D01*
X166999688Y-94614299D01*
X166974570Y-94568194D01*
X166936560Y-94547635D01*
X166922992Y-94546514D01*
X166887364Y-94552152D01*
X166862994Y-94571686D01*
X166848093Y-94609042D01*
X166840875Y-94668150D01*
X166839429Y-94730192D01*
X166694322Y-94730192D01*
X166694826Y-94660413D01*
X166697096Y-94608159D01*
X166702068Y-94571949D01*
X166710713Y-94545299D01*
X166724005Y-94521722D01*
X166726943Y-94517338D01*
X166776313Y-94458249D01*
X166830109Y-94423947D01*
X166895602Y-94410331D01*
X166917842Y-94409665D01*
X167001115Y-94421962D01*
X167001115Y-94421962D01*
G37*
X167001115Y-94421962D02*
X167069145Y-94457733D01*
X167119351Y-94515301D01*
X167137185Y-94552312D01*
X167151063Y-94607882D01*
X167158167Y-94678096D01*
X167158840Y-94754727D01*
X167153427Y-94829552D01*
X167142270Y-94894342D01*
X167125714Y-94940873D01*
X167120626Y-94948887D01*
X167060355Y-95008707D01*
X166988769Y-95044535D01*
X166911092Y-95055020D01*
X166832548Y-95038810D01*
X166810689Y-95029092D01*
X166768122Y-94999143D01*
X166730763Y-94959433D01*
X166727232Y-94954397D01*
X166712881Y-94930124D01*
X166703394Y-94904178D01*
X166697790Y-94870022D01*
X166695086Y-94821119D01*
X166694299Y-94750935D01*
X166694286Y-94735200D01*
X166694322Y-94730192D01*
X166839429Y-94730192D01*
X166840273Y-94796430D01*
X166843596Y-94840386D01*
X166850583Y-94868779D01*
X166862416Y-94888325D01*
X166868457Y-94894857D01*
X166903186Y-94919680D01*
X166936903Y-94918548D01*
X166970995Y-94897016D01*
X166991329Y-94874029D01*
X167003371Y-94840478D01*
X167010134Y-94787569D01*
X167010598Y-94781399D01*
X167011752Y-94685513D01*
X166999688Y-94614299D01*
X166974570Y-94568194D01*
X166936560Y-94547635D01*
X166922992Y-94546514D01*
X166887364Y-94552152D01*
X166862994Y-94571686D01*
X166848093Y-94609042D01*
X166840875Y-94668150D01*
X166839429Y-94730192D01*
X166694322Y-94730192D01*
X166694826Y-94660413D01*
X166697096Y-94608159D01*
X166702068Y-94571949D01*
X166710713Y-94545299D01*
X166724005Y-94521722D01*
X166726943Y-94517338D01*
X166776313Y-94458249D01*
X166830109Y-94423947D01*
X166895602Y-94410331D01*
X166917842Y-94409665D01*
X167001115Y-94421962D01*
G36*
X168128303Y-94431239D02*
X168185527Y-94469735D01*
X168229749Y-94525335D01*
X168256167Y-94596086D01*
X168261510Y-94648162D01*
X168260903Y-94669893D01*
X168255822Y-94686531D01*
X168241855Y-94701437D01*
X168214589Y-94717973D01*
X168169612Y-94739498D01*
X168102511Y-94769374D01*
X168102171Y-94769524D01*
X168040407Y-94797813D01*
X167989759Y-94822933D01*
X167955404Y-94842179D01*
X167942518Y-94852848D01*
X167942514Y-94852934D01*
X167953872Y-94876166D01*
X167980431Y-94901774D01*
X168010923Y-94920221D01*
X168026370Y-94923886D01*
X168068515Y-94911212D01*
X168104808Y-94879471D01*
X168122517Y-94844572D01*
X168139552Y-94818845D01*
X168172922Y-94789546D01*
X168212149Y-94764235D01*
X168246756Y-94750471D01*
X168253993Y-94749714D01*
X168262139Y-94762160D01*
X168262630Y-94793972D01*
X168256643Y-94836866D01*
X168245357Y-94882558D01*
X168229950Y-94922761D01*
X168229171Y-94924322D01*
X168182804Y-94989062D01*
X168122711Y-95033097D01*
X168054465Y-95054711D01*
X167983638Y-95052185D01*
X167915804Y-95023804D01*
X167912788Y-95021808D01*
X167859427Y-94973448D01*
X167824340Y-94910352D01*
X167804922Y-94827387D01*
X167802316Y-94804078D01*
X167797701Y-94694055D01*
X167803233Y-94642748D01*
X167942514Y-94642748D01*
X167944324Y-94674753D01*
X167954222Y-94684093D01*
X167978898Y-94677105D01*
X168017795Y-94660587D01*
X168061275Y-94639881D01*
X168062356Y-94639333D01*
X168099209Y-94619949D01*
X168114000Y-94607013D01*
X168110353Y-94593451D01*
X168094995Y-94575632D01*
X168055923Y-94549845D01*
X168013846Y-94547950D01*
X167976103Y-94566717D01*
X167950034Y-94602915D01*
X167942514Y-94642748D01*
X167803233Y-94642748D01*
X167807194Y-94606027D01*
X167831550Y-94536212D01*
X167865456Y-94487302D01*
X167926653Y-94437878D01*
X167994063Y-94413359D01*
X168062880Y-94411797D01*
X168128303Y-94431239D01*
X168128303Y-94431239D01*
G37*
X168128303Y-94431239D02*
X168185527Y-94469735D01*
X168229749Y-94525335D01*
X168256167Y-94596086D01*
X168261510Y-94648162D01*
X168260903Y-94669893D01*
X168255822Y-94686531D01*
X168241855Y-94701437D01*
X168214589Y-94717973D01*
X168169612Y-94739498D01*
X168102511Y-94769374D01*
X168102171Y-94769524D01*
X168040407Y-94797813D01*
X167989759Y-94822933D01*
X167955404Y-94842179D01*
X167942518Y-94852848D01*
X167942514Y-94852934D01*
X167953872Y-94876166D01*
X167980431Y-94901774D01*
X168010923Y-94920221D01*
X168026370Y-94923886D01*
X168068515Y-94911212D01*
X168104808Y-94879471D01*
X168122517Y-94844572D01*
X168139552Y-94818845D01*
X168172922Y-94789546D01*
X168212149Y-94764235D01*
X168246756Y-94750471D01*
X168253993Y-94749714D01*
X168262139Y-94762160D01*
X168262630Y-94793972D01*
X168256643Y-94836866D01*
X168245357Y-94882558D01*
X168229950Y-94922761D01*
X168229171Y-94924322D01*
X168182804Y-94989062D01*
X168122711Y-95033097D01*
X168054465Y-95054711D01*
X167983638Y-95052185D01*
X167915804Y-95023804D01*
X167912788Y-95021808D01*
X167859427Y-94973448D01*
X167824340Y-94910352D01*
X167804922Y-94827387D01*
X167802316Y-94804078D01*
X167797701Y-94694055D01*
X167803233Y-94642748D01*
X167942514Y-94642748D01*
X167944324Y-94674753D01*
X167954222Y-94684093D01*
X167978898Y-94677105D01*
X168017795Y-94660587D01*
X168061275Y-94639881D01*
X168062356Y-94639333D01*
X168099209Y-94619949D01*
X168114000Y-94607013D01*
X168110353Y-94593451D01*
X168094995Y-94575632D01*
X168055923Y-94549845D01*
X168013846Y-94547950D01*
X167976103Y-94566717D01*
X167950034Y-94602915D01*
X167942514Y-94642748D01*
X167803233Y-94642748D01*
X167807194Y-94606027D01*
X167831550Y-94536212D01*
X167865456Y-94487302D01*
X167926653Y-94437878D01*
X167994063Y-94413359D01*
X168062880Y-94411797D01*
X168128303Y-94431239D01*
G36*
X169335886Y-94351289D02*
X169340139Y-94410613D01*
X169345025Y-94445572D01*
X169351795Y-94460820D01*
X169361702Y-94461015D01*
X169364914Y-94459195D01*
X169407644Y-94446015D01*
X169463227Y-94446785D01*
X169519737Y-94460333D01*
X169555082Y-94477861D01*
X169591321Y-94505861D01*
X169617813Y-94537549D01*
X169635999Y-94577813D01*
X169647322Y-94631543D01*
X169653222Y-94703626D01*
X169655143Y-94798951D01*
X169655177Y-94817237D01*
X169655200Y-95022646D01*
X169609491Y-95038580D01*
X169577027Y-95049420D01*
X169559215Y-95054468D01*
X169558691Y-95054514D01*
X169556937Y-95040828D01*
X169555444Y-95003076D01*
X169554326Y-94946224D01*
X169553697Y-94875234D01*
X169553600Y-94832073D01*
X169553398Y-94746973D01*
X169552358Y-94685981D01*
X169549831Y-94644177D01*
X169545164Y-94616642D01*
X169537707Y-94598456D01*
X169526811Y-94584698D01*
X169520007Y-94578073D01*
X169473272Y-94551375D01*
X169422272Y-94549375D01*
X169376001Y-94571955D01*
X169367444Y-94580107D01*
X169354893Y-94595436D01*
X169346188Y-94613618D01*
X169340631Y-94639909D01*
X169337526Y-94679562D01*
X169336176Y-94737832D01*
X169335886Y-94818173D01*
X169335886Y-95022646D01*
X169290177Y-95038580D01*
X169257713Y-95049420D01*
X169239901Y-95054468D01*
X169239377Y-95054514D01*
X169238037Y-95040623D01*
X169236828Y-95001439D01*
X169235801Y-94940700D01*
X169235002Y-94862141D01*
X169234481Y-94769498D01*
X169234286Y-94666509D01*
X169234286Y-94269342D01*
X169281457Y-94249444D01*
X169328629Y-94229547D01*
X169335886Y-94351289D01*
X169335886Y-94351289D01*
G37*
X169335886Y-94351289D02*
X169340139Y-94410613D01*
X169345025Y-94445572D01*
X169351795Y-94460820D01*
X169361702Y-94461015D01*
X169364914Y-94459195D01*
X169407644Y-94446015D01*
X169463227Y-94446785D01*
X169519737Y-94460333D01*
X169555082Y-94477861D01*
X169591321Y-94505861D01*
X169617813Y-94537549D01*
X169635999Y-94577813D01*
X169647322Y-94631543D01*
X169653222Y-94703626D01*
X169655143Y-94798951D01*
X169655177Y-94817237D01*
X169655200Y-95022646D01*
X169609491Y-95038580D01*
X169577027Y-95049420D01*
X169559215Y-95054468D01*
X169558691Y-95054514D01*
X169556937Y-95040828D01*
X169555444Y-95003076D01*
X169554326Y-94946224D01*
X169553697Y-94875234D01*
X169553600Y-94832073D01*
X169553398Y-94746973D01*
X169552358Y-94685981D01*
X169549831Y-94644177D01*
X169545164Y-94616642D01*
X169537707Y-94598456D01*
X169526811Y-94584698D01*
X169520007Y-94578073D01*
X169473272Y-94551375D01*
X169422272Y-94549375D01*
X169376001Y-94571955D01*
X169367444Y-94580107D01*
X169354893Y-94595436D01*
X169346188Y-94613618D01*
X169340631Y-94639909D01*
X169337526Y-94679562D01*
X169336176Y-94737832D01*
X169335886Y-94818173D01*
X169335886Y-95022646D01*
X169290177Y-95038580D01*
X169257713Y-95049420D01*
X169239901Y-95054468D01*
X169239377Y-95054514D01*
X169238037Y-95040623D01*
X169236828Y-95001439D01*
X169235801Y-94940700D01*
X169235002Y-94862141D01*
X169234481Y-94769498D01*
X169234286Y-94666509D01*
X169234286Y-94269342D01*
X169281457Y-94249444D01*
X169328629Y-94229547D01*
X169335886Y-94351289D01*
G36*
X169999744Y-94450968D02*
X170056616Y-94472087D01*
X170057267Y-94472493D01*
X170092440Y-94498380D01*
X170118407Y-94528633D01*
X170136670Y-94568058D01*
X170148732Y-94621462D01*
X170156096Y-94693651D01*
X170160264Y-94789432D01*
X170160629Y-94803078D01*
X170165876Y-95008842D01*
X170121716Y-95031678D01*
X170089763Y-95047110D01*
X170070470Y-95054423D01*
X170069578Y-95054514D01*
X170066239Y-95041022D01*
X170063587Y-95004626D01*
X170061956Y-94951452D01*
X170061600Y-94908393D01*
X170061592Y-94838641D01*
X170058403Y-94794837D01*
X170047288Y-94773944D01*
X170023501Y-94772925D01*
X169982296Y-94788741D01*
X169920086Y-94817815D01*
X169874341Y-94841963D01*
X169850813Y-94862913D01*
X169843896Y-94885747D01*
X169843886Y-94886877D01*
X169855299Y-94926212D01*
X169889092Y-94947462D01*
X169940809Y-94950539D01*
X169978061Y-94950006D01*
X169997703Y-94960735D01*
X170009952Y-94986505D01*
X170017002Y-95019337D01*
X170006842Y-95037966D01*
X170003017Y-95040632D01*
X169967001Y-95051340D01*
X169916566Y-95052856D01*
X169864626Y-95045759D01*
X169827822Y-95032788D01*
X169776938Y-94989585D01*
X169748014Y-94929446D01*
X169742286Y-94882462D01*
X169746657Y-94840082D01*
X169762475Y-94805488D01*
X169793797Y-94774763D01*
X169844678Y-94743990D01*
X169919176Y-94709252D01*
X169923714Y-94707288D01*
X169990821Y-94676287D01*
X170032232Y-94650862D01*
X170049981Y-94628014D01*
X170046107Y-94604745D01*
X170022643Y-94578056D01*
X170015627Y-94571914D01*
X169968630Y-94548100D01*
X169919933Y-94549103D01*
X169877522Y-94572451D01*
X169849384Y-94615675D01*
X169846769Y-94624160D01*
X169821308Y-94665308D01*
X169789001Y-94685128D01*
X169742286Y-94704770D01*
X169742286Y-94653950D01*
X169756496Y-94580082D01*
X169798675Y-94512327D01*
X169820624Y-94489661D01*
X169870517Y-94460569D01*
X169933967Y-94447400D01*
X169999744Y-94450968D01*
X169999744Y-94450968D01*
G37*
X169999744Y-94450968D02*
X170056616Y-94472087D01*
X170057267Y-94472493D01*
X170092440Y-94498380D01*
X170118407Y-94528633D01*
X170136670Y-94568058D01*
X170148732Y-94621462D01*
X170156096Y-94693651D01*
X170160264Y-94789432D01*
X170160629Y-94803078D01*
X170165876Y-95008842D01*
X170121716Y-95031678D01*
X170089763Y-95047110D01*
X170070470Y-95054423D01*
X170069578Y-95054514D01*
X170066239Y-95041022D01*
X170063587Y-95004626D01*
X170061956Y-94951452D01*
X170061600Y-94908393D01*
X170061592Y-94838641D01*
X170058403Y-94794837D01*
X170047288Y-94773944D01*
X170023501Y-94772925D01*
X169982296Y-94788741D01*
X169920086Y-94817815D01*
X169874341Y-94841963D01*
X169850813Y-94862913D01*
X169843896Y-94885747D01*
X169843886Y-94886877D01*
X169855299Y-94926212D01*
X169889092Y-94947462D01*
X169940809Y-94950539D01*
X169978061Y-94950006D01*
X169997703Y-94960735D01*
X170009952Y-94986505D01*
X170017002Y-95019337D01*
X170006842Y-95037966D01*
X170003017Y-95040632D01*
X169967001Y-95051340D01*
X169916566Y-95052856D01*
X169864626Y-95045759D01*
X169827822Y-95032788D01*
X169776938Y-94989585D01*
X169748014Y-94929446D01*
X169742286Y-94882462D01*
X169746657Y-94840082D01*
X169762475Y-94805488D01*
X169793797Y-94774763D01*
X169844678Y-94743990D01*
X169919176Y-94709252D01*
X169923714Y-94707288D01*
X169990821Y-94676287D01*
X170032232Y-94650862D01*
X170049981Y-94628014D01*
X170046107Y-94604745D01*
X170022643Y-94578056D01*
X170015627Y-94571914D01*
X169968630Y-94548100D01*
X169919933Y-94549103D01*
X169877522Y-94572451D01*
X169849384Y-94615675D01*
X169846769Y-94624160D01*
X169821308Y-94665308D01*
X169789001Y-94685128D01*
X169742286Y-94704770D01*
X169742286Y-94653950D01*
X169756496Y-94580082D01*
X169798675Y-94512327D01*
X169820624Y-94489661D01*
X169870517Y-94460569D01*
X169933967Y-94447400D01*
X169999744Y-94450968D01*
G36*
X170489926Y-94449755D02*
X170555858Y-94474084D01*
X170609273Y-94517117D01*
X170630164Y-94547409D01*
X170652939Y-94602994D01*
X170652466Y-94643186D01*
X170628562Y-94670217D01*
X170619717Y-94674813D01*
X170581530Y-94689144D01*
X170562028Y-94685472D01*
X170555422Y-94661407D01*
X170555086Y-94648114D01*
X170542992Y-94599210D01*
X170511471Y-94564999D01*
X170467659Y-94548476D01*
X170418695Y-94552634D01*
X170378894Y-94574227D01*
X170365450Y-94586544D01*
X170355921Y-94601487D01*
X170349485Y-94624075D01*
X170345317Y-94659328D01*
X170342597Y-94712266D01*
X170340502Y-94787907D01*
X170339960Y-94811857D01*
X170337981Y-94893790D01*
X170335731Y-94951455D01*
X170332357Y-94989608D01*
X170327006Y-95013004D01*
X170318824Y-95026398D01*
X170306959Y-95034545D01*
X170299362Y-95038144D01*
X170267102Y-95050452D01*
X170248111Y-95054514D01*
X170241836Y-95040948D01*
X170238006Y-94999934D01*
X170236600Y-94930999D01*
X170237598Y-94833669D01*
X170237908Y-94818657D01*
X170240101Y-94729859D01*
X170242693Y-94665019D01*
X170246382Y-94619067D01*
X170251864Y-94586935D01*
X170259835Y-94563553D01*
X170270993Y-94543852D01*
X170276830Y-94535410D01*
X170310296Y-94498057D01*
X170347727Y-94469003D01*
X170352309Y-94466467D01*
X170419426Y-94446443D01*
X170489926Y-94449755D01*
X170489926Y-94449755D01*
G37*
X170489926Y-94449755D02*
X170555858Y-94474084D01*
X170609273Y-94517117D01*
X170630164Y-94547409D01*
X170652939Y-94602994D01*
X170652466Y-94643186D01*
X170628562Y-94670217D01*
X170619717Y-94674813D01*
X170581530Y-94689144D01*
X170562028Y-94685472D01*
X170555422Y-94661407D01*
X170555086Y-94648114D01*
X170542992Y-94599210D01*
X170511471Y-94564999D01*
X170467659Y-94548476D01*
X170418695Y-94552634D01*
X170378894Y-94574227D01*
X170365450Y-94586544D01*
X170355921Y-94601487D01*
X170349485Y-94624075D01*
X170345317Y-94659328D01*
X170342597Y-94712266D01*
X170340502Y-94787907D01*
X170339960Y-94811857D01*
X170337981Y-94893790D01*
X170335731Y-94951455D01*
X170332357Y-94989608D01*
X170327006Y-95013004D01*
X170318824Y-95026398D01*
X170306959Y-95034545D01*
X170299362Y-95038144D01*
X170267102Y-95050452D01*
X170248111Y-95054514D01*
X170241836Y-95040948D01*
X170238006Y-94999934D01*
X170236600Y-94930999D01*
X170237598Y-94833669D01*
X170237908Y-94818657D01*
X170240101Y-94729859D01*
X170242693Y-94665019D01*
X170246382Y-94619067D01*
X170251864Y-94586935D01*
X170259835Y-94563553D01*
X170270993Y-94543852D01*
X170276830Y-94535410D01*
X170310296Y-94498057D01*
X170347727Y-94469003D01*
X170352309Y-94466467D01*
X170419426Y-94446443D01*
X170489926Y-94449755D01*
G36*
X171150117Y-94565358D02*
X171149933Y-94673837D01*
X171149219Y-94757287D01*
X171147675Y-94819704D01*
X171145001Y-94865085D01*
X171140894Y-94897429D01*
X171135055Y-94920733D01*
X171127182Y-94938995D01*
X171121221Y-94949418D01*
X171071855Y-95005945D01*
X171009264Y-95041377D01*
X170940013Y-95054090D01*
X170870668Y-95042463D01*
X170829375Y-95021568D01*
X170786025Y-94985422D01*
X170756481Y-94941276D01*
X170738655Y-94883462D01*
X170730463Y-94806313D01*
X170729302Y-94749714D01*
X170729458Y-94745647D01*
X170830857Y-94745647D01*
X170831476Y-94810550D01*
X170834314Y-94853514D01*
X170840840Y-94881622D01*
X170852523Y-94901953D01*
X170866483Y-94917288D01*
X170913365Y-94946890D01*
X170963701Y-94949419D01*
X171011276Y-94924705D01*
X171014979Y-94921356D01*
X171030783Y-94903935D01*
X171040693Y-94883209D01*
X171046058Y-94852362D01*
X171048228Y-94804577D01*
X171048571Y-94751748D01*
X171047827Y-94685381D01*
X171044748Y-94641106D01*
X171038061Y-94612009D01*
X171026496Y-94591173D01*
X171017013Y-94580107D01*
X170972960Y-94552198D01*
X170922224Y-94548843D01*
X170873796Y-94570159D01*
X170864450Y-94578073D01*
X170848540Y-94595647D01*
X170838610Y-94616587D01*
X170833278Y-94647782D01*
X170831163Y-94696122D01*
X170830857Y-94745647D01*
X170729458Y-94745647D01*
X170732810Y-94658568D01*
X170744726Y-94590086D01*
X170767135Y-94538600D01*
X170802124Y-94498443D01*
X170829375Y-94477861D01*
X170878907Y-94455625D01*
X170936316Y-94445304D01*
X170989682Y-94448067D01*
X171019543Y-94459212D01*
X171031261Y-94462383D01*
X171039037Y-94450557D01*
X171044465Y-94418866D01*
X171048571Y-94370593D01*
X171053067Y-94316829D01*
X171059313Y-94284482D01*
X171070676Y-94265985D01*
X171090528Y-94253770D01*
X171103000Y-94248362D01*
X171150171Y-94228601D01*
X171150117Y-94565358D01*
X171150117Y-94565358D01*
G37*
X171150117Y-94565358D02*
X171149933Y-94673837D01*
X171149219Y-94757287D01*
X171147675Y-94819704D01*
X171145001Y-94865085D01*
X171140894Y-94897429D01*
X171135055Y-94920733D01*
X171127182Y-94938995D01*
X171121221Y-94949418D01*
X171071855Y-95005945D01*
X171009264Y-95041377D01*
X170940013Y-95054090D01*
X170870668Y-95042463D01*
X170829375Y-95021568D01*
X170786025Y-94985422D01*
X170756481Y-94941276D01*
X170738655Y-94883462D01*
X170730463Y-94806313D01*
X170729302Y-94749714D01*
X170729458Y-94745647D01*
X170830857Y-94745647D01*
X170831476Y-94810550D01*
X170834314Y-94853514D01*
X170840840Y-94881622D01*
X170852523Y-94901953D01*
X170866483Y-94917288D01*
X170913365Y-94946890D01*
X170963701Y-94949419D01*
X171011276Y-94924705D01*
X171014979Y-94921356D01*
X171030783Y-94903935D01*
X171040693Y-94883209D01*
X171046058Y-94852362D01*
X171048228Y-94804577D01*
X171048571Y-94751748D01*
X171047827Y-94685381D01*
X171044748Y-94641106D01*
X171038061Y-94612009D01*
X171026496Y-94591173D01*
X171017013Y-94580107D01*
X170972960Y-94552198D01*
X170922224Y-94548843D01*
X170873796Y-94570159D01*
X170864450Y-94578073D01*
X170848540Y-94595647D01*
X170838610Y-94616587D01*
X170833278Y-94647782D01*
X170831163Y-94696122D01*
X170830857Y-94745647D01*
X170729458Y-94745647D01*
X170732810Y-94658568D01*
X170744726Y-94590086D01*
X170767135Y-94538600D01*
X170802124Y-94498443D01*
X170829375Y-94477861D01*
X170878907Y-94455625D01*
X170936316Y-94445304D01*
X170989682Y-94448067D01*
X171019543Y-94459212D01*
X171031261Y-94462383D01*
X171039037Y-94450557D01*
X171044465Y-94418866D01*
X171048571Y-94370593D01*
X171053067Y-94316829D01*
X171059313Y-94284482D01*
X171070676Y-94265985D01*
X171090528Y-94253770D01*
X171103000Y-94248362D01*
X171150171Y-94228601D01*
X171150117Y-94565358D01*
G36*
X171739833Y-94458663D02*
X171742048Y-94496850D01*
X171743784Y-94554886D01*
X171744899Y-94628180D01*
X171745257Y-94705055D01*
X171745257Y-94965196D01*
X171699326Y-95011127D01*
X171667675Y-95039429D01*
X171639890Y-95050893D01*
X171601915Y-95050168D01*
X171586840Y-95048321D01*
X171539726Y-95042948D01*
X171500756Y-95039869D01*
X171491257Y-95039585D01*
X171459233Y-95041445D01*
X171413432Y-95046114D01*
X171395674Y-95048321D01*
X171352057Y-95051735D01*
X171322745Y-95044320D01*
X171293680Y-95021427D01*
X171283188Y-95011127D01*
X171237257Y-94965196D01*
X171237257Y-94478602D01*
X171274226Y-94461758D01*
X171306059Y-94449282D01*
X171324683Y-94444914D01*
X171329458Y-94458718D01*
X171333921Y-94497286D01*
X171337775Y-94556356D01*
X171340722Y-94631663D01*
X171342143Y-94695286D01*
X171346114Y-94945657D01*
X171380759Y-94950556D01*
X171412268Y-94947131D01*
X171427708Y-94936041D01*
X171432023Y-94915308D01*
X171435708Y-94871145D01*
X171438469Y-94809146D01*
X171440012Y-94734909D01*
X171440235Y-94696706D01*
X171440457Y-94476783D01*
X171486166Y-94460849D01*
X171518518Y-94450015D01*
X171536115Y-94444962D01*
X171536623Y-94444914D01*
X171538388Y-94458648D01*
X171540329Y-94496730D01*
X171542282Y-94554482D01*
X171544084Y-94627227D01*
X171545343Y-94695286D01*
X171549314Y-94945657D01*
X171636400Y-94945657D01*
X171640396Y-94717240D01*
X171644392Y-94488822D01*
X171686847Y-94466868D01*
X171718192Y-94451793D01*
X171736744Y-94444951D01*
X171737279Y-94444914D01*
X171739833Y-94458663D01*
X171739833Y-94458663D01*
G37*
X171739833Y-94458663D02*
X171742048Y-94496850D01*
X171743784Y-94554886D01*
X171744899Y-94628180D01*
X171745257Y-94705055D01*
X171745257Y-94965196D01*
X171699326Y-95011127D01*
X171667675Y-95039429D01*
X171639890Y-95050893D01*
X171601915Y-95050168D01*
X171586840Y-95048321D01*
X171539726Y-95042948D01*
X171500756Y-95039869D01*
X171491257Y-95039585D01*
X171459233Y-95041445D01*
X171413432Y-95046114D01*
X171395674Y-95048321D01*
X171352057Y-95051735D01*
X171322745Y-95044320D01*
X171293680Y-95021427D01*
X171283188Y-95011127D01*
X171237257Y-94965196D01*
X171237257Y-94478602D01*
X171274226Y-94461758D01*
X171306059Y-94449282D01*
X171324683Y-94444914D01*
X171329458Y-94458718D01*
X171333921Y-94497286D01*
X171337775Y-94556356D01*
X171340722Y-94631663D01*
X171342143Y-94695286D01*
X171346114Y-94945657D01*
X171380759Y-94950556D01*
X171412268Y-94947131D01*
X171427708Y-94936041D01*
X171432023Y-94915308D01*
X171435708Y-94871145D01*
X171438469Y-94809146D01*
X171440012Y-94734909D01*
X171440235Y-94696706D01*
X171440457Y-94476783D01*
X171486166Y-94460849D01*
X171518518Y-94450015D01*
X171536115Y-94444962D01*
X171536623Y-94444914D01*
X171538388Y-94458648D01*
X171540329Y-94496730D01*
X171542282Y-94554482D01*
X171544084Y-94627227D01*
X171545343Y-94695286D01*
X171549314Y-94945657D01*
X171636400Y-94945657D01*
X171640396Y-94717240D01*
X171644392Y-94488822D01*
X171686847Y-94466868D01*
X171718192Y-94451793D01*
X171736744Y-94444951D01*
X171737279Y-94444914D01*
X171739833Y-94458663D01*
G36*
X172104876Y-94456335D02*
X172146667Y-94475344D01*
X172179469Y-94498378D01*
X172203503Y-94524133D01*
X172220097Y-94557358D01*
X172230577Y-94602800D01*
X172236271Y-94665207D01*
X172238507Y-94749327D01*
X172238743Y-94804721D01*
X172238743Y-95020826D01*
X172201774Y-95037670D01*
X172172656Y-95049981D01*
X172158231Y-95054514D01*
X172155472Y-95041025D01*
X172153282Y-95004653D01*
X172151942Y-94951542D01*
X172151657Y-94909372D01*
X172150434Y-94848447D01*
X172147136Y-94800115D01*
X172142321Y-94770518D01*
X172138496Y-94764229D01*
X172112783Y-94770652D01*
X172072418Y-94787125D01*
X172025679Y-94809458D01*
X171980845Y-94833457D01*
X171946193Y-94854930D01*
X171930002Y-94869685D01*
X171929938Y-94869845D01*
X171931330Y-94897152D01*
X171943818Y-94923219D01*
X171965743Y-94944392D01*
X171997743Y-94951474D01*
X172025092Y-94950649D01*
X172063826Y-94950042D01*
X172084158Y-94959116D01*
X172096369Y-94983092D01*
X172097909Y-94987613D01*
X172103203Y-95021806D01*
X172089047Y-95042568D01*
X172052148Y-95052462D01*
X172012289Y-95054292D01*
X171940562Y-95040727D01*
X171903432Y-95021355D01*
X171857576Y-94975845D01*
X171833256Y-94919983D01*
X171831073Y-94860957D01*
X171851629Y-94805953D01*
X171882549Y-94771486D01*
X171913420Y-94752189D01*
X171961942Y-94727759D01*
X172018485Y-94702985D01*
X172027910Y-94699199D01*
X172090019Y-94671791D01*
X172125822Y-94647634D01*
X172137337Y-94623619D01*
X172126580Y-94596635D01*
X172108114Y-94575543D01*
X172064469Y-94549572D01*
X172016446Y-94547624D01*
X171972406Y-94567637D01*
X171940709Y-94607551D01*
X171936549Y-94617848D01*
X171912327Y-94655724D01*
X171876965Y-94683842D01*
X171832343Y-94706917D01*
X171832343Y-94641485D01*
X171834969Y-94601506D01*
X171846230Y-94569997D01*
X171871199Y-94536378D01*
X171895169Y-94510484D01*
X171932441Y-94473817D01*
X171961401Y-94454121D01*
X171992505Y-94446220D01*
X172027713Y-94444914D01*
X172104876Y-94456335D01*
X172104876Y-94456335D01*
G37*
X172104876Y-94456335D02*
X172146667Y-94475344D01*
X172179469Y-94498378D01*
X172203503Y-94524133D01*
X172220097Y-94557358D01*
X172230577Y-94602800D01*
X172236271Y-94665207D01*
X172238507Y-94749327D01*
X172238743Y-94804721D01*
X172238743Y-95020826D01*
X172201774Y-95037670D01*
X172172656Y-95049981D01*
X172158231Y-95054514D01*
X172155472Y-95041025D01*
X172153282Y-95004653D01*
X172151942Y-94951542D01*
X172151657Y-94909372D01*
X172150434Y-94848447D01*
X172147136Y-94800115D01*
X172142321Y-94770518D01*
X172138496Y-94764229D01*
X172112783Y-94770652D01*
X172072418Y-94787125D01*
X172025679Y-94809458D01*
X171980845Y-94833457D01*
X171946193Y-94854930D01*
X171930002Y-94869685D01*
X171929938Y-94869845D01*
X171931330Y-94897152D01*
X171943818Y-94923219D01*
X171965743Y-94944392D01*
X171997743Y-94951474D01*
X172025092Y-94950649D01*
X172063826Y-94950042D01*
X172084158Y-94959116D01*
X172096369Y-94983092D01*
X172097909Y-94987613D01*
X172103203Y-95021806D01*
X172089047Y-95042568D01*
X172052148Y-95052462D01*
X172012289Y-95054292D01*
X171940562Y-95040727D01*
X171903432Y-95021355D01*
X171857576Y-94975845D01*
X171833256Y-94919983D01*
X171831073Y-94860957D01*
X171851629Y-94805953D01*
X171882549Y-94771486D01*
X171913420Y-94752189D01*
X171961942Y-94727759D01*
X172018485Y-94702985D01*
X172027910Y-94699199D01*
X172090019Y-94671791D01*
X172125822Y-94647634D01*
X172137337Y-94623619D01*
X172126580Y-94596635D01*
X172108114Y-94575543D01*
X172064469Y-94549572D01*
X172016446Y-94547624D01*
X171972406Y-94567637D01*
X171940709Y-94607551D01*
X171936549Y-94617848D01*
X171912327Y-94655724D01*
X171876965Y-94683842D01*
X171832343Y-94706917D01*
X171832343Y-94641485D01*
X171834969Y-94601506D01*
X171846230Y-94569997D01*
X171871199Y-94536378D01*
X171895169Y-94510484D01*
X171932441Y-94473817D01*
X171961401Y-94454121D01*
X171992505Y-94446220D01*
X172027713Y-94444914D01*
X172104876Y-94456335D01*
G36*
X172612600Y-94458752D02*
X172629948Y-94466334D01*
X172671356Y-94499128D01*
X172706765Y-94546547D01*
X172728664Y-94597151D01*
X172732229Y-94622098D01*
X172720279Y-94656927D01*
X172694067Y-94675357D01*
X172665964Y-94686516D01*
X172653095Y-94688572D01*
X172646829Y-94673649D01*
X172634456Y-94641175D01*
X172629028Y-94626502D01*
X172598590Y-94575744D01*
X172554520Y-94550427D01*
X172498010Y-94551206D01*
X172493825Y-94552203D01*
X172463655Y-94566507D01*
X172441476Y-94594393D01*
X172426327Y-94639287D01*
X172417250Y-94704615D01*
X172413286Y-94793804D01*
X172412914Y-94841261D01*
X172412730Y-94916071D01*
X172411522Y-94967069D01*
X172408309Y-94999471D01*
X172402109Y-95018495D01*
X172391940Y-95029356D01*
X172376819Y-95037272D01*
X172375946Y-95037670D01*
X172346828Y-95049981D01*
X172332403Y-95054514D01*
X172330186Y-95040809D01*
X172328289Y-95002925D01*
X172326847Y-94945715D01*
X172325998Y-94874027D01*
X172325829Y-94821565D01*
X172326692Y-94720047D01*
X172330070Y-94643032D01*
X172337142Y-94586023D01*
X172349088Y-94544526D01*
X172367090Y-94514043D01*
X172392327Y-94490080D01*
X172417247Y-94473355D01*
X172477171Y-94451097D01*
X172546911Y-94446076D01*
X172612600Y-94458752D01*
X172612600Y-94458752D01*
G37*
X172612600Y-94458752D02*
X172629948Y-94466334D01*
X172671356Y-94499128D01*
X172706765Y-94546547D01*
X172728664Y-94597151D01*
X172732229Y-94622098D01*
X172720279Y-94656927D01*
X172694067Y-94675357D01*
X172665964Y-94686516D01*
X172653095Y-94688572D01*
X172646829Y-94673649D01*
X172634456Y-94641175D01*
X172629028Y-94626502D01*
X172598590Y-94575744D01*
X172554520Y-94550427D01*
X172498010Y-94551206D01*
X172493825Y-94552203D01*
X172463655Y-94566507D01*
X172441476Y-94594393D01*
X172426327Y-94639287D01*
X172417250Y-94704615D01*
X172413286Y-94793804D01*
X172412914Y-94841261D01*
X172412730Y-94916071D01*
X172411522Y-94967069D01*
X172408309Y-94999471D01*
X172402109Y-95018495D01*
X172391940Y-95029356D01*
X172376819Y-95037272D01*
X172375946Y-95037670D01*
X172346828Y-95049981D01*
X172332403Y-95054514D01*
X172330186Y-95040809D01*
X172328289Y-95002925D01*
X172326847Y-94945715D01*
X172325998Y-94874027D01*
X172325829Y-94821565D01*
X172326692Y-94720047D01*
X172330070Y-94643032D01*
X172337142Y-94586023D01*
X172349088Y-94544526D01*
X172367090Y-94514043D01*
X172392327Y-94490080D01*
X172417247Y-94473355D01*
X172477171Y-94451097D01*
X172546911Y-94446076D01*
X172612600Y-94458752D01*
G36*
X173113595Y-94466966D02*
X173171021Y-94504497D01*
X173198719Y-94538096D01*
X173220662Y-94599064D01*
X173222405Y-94647308D01*
X173218457Y-94711816D01*
X173069686Y-94776934D01*
X172997349Y-94810202D01*
X172950084Y-94836964D01*
X172925507Y-94860144D01*
X172921237Y-94882667D01*
X172934889Y-94907455D01*
X172949943Y-94923886D01*
X172993746Y-94950235D01*
X173041389Y-94952081D01*
X173085145Y-94931546D01*
X173117289Y-94890752D01*
X173123038Y-94876347D01*
X173150576Y-94831356D01*
X173182258Y-94812182D01*
X173225714Y-94795779D01*
X173225714Y-94857966D01*
X173221872Y-94900283D01*
X173206823Y-94935969D01*
X173175280Y-94976943D01*
X173170592Y-94982267D01*
X173135506Y-95018720D01*
X173105347Y-95038283D01*
X173067615Y-95047283D01*
X173036335Y-95050230D01*
X172980385Y-95050965D01*
X172940555Y-95041660D01*
X172915708Y-95027846D01*
X172876656Y-94997467D01*
X172849625Y-94964613D01*
X172832517Y-94923294D01*
X172823238Y-94867521D01*
X172819693Y-94791305D01*
X172819410Y-94752622D01*
X172820372Y-94706247D01*
X172908007Y-94706247D01*
X172909023Y-94731126D01*
X172911556Y-94735200D01*
X172928274Y-94729665D01*
X172964249Y-94715017D01*
X173012331Y-94694190D01*
X173022386Y-94689714D01*
X173083152Y-94658814D01*
X173116632Y-94631657D01*
X173123990Y-94606220D01*
X173106391Y-94580481D01*
X173091856Y-94569109D01*
X173039410Y-94546364D01*
X172990322Y-94550122D01*
X172949227Y-94577884D01*
X172920758Y-94627152D01*
X172911631Y-94666257D01*
X172908007Y-94706247D01*
X172820372Y-94706247D01*
X172821285Y-94662249D01*
X172828196Y-94595384D01*
X172841884Y-94546695D01*
X172864096Y-94510849D01*
X172896574Y-94482513D01*
X172910733Y-94473355D01*
X172975053Y-94449507D01*
X173045473Y-94448006D01*
X173113595Y-94466966D01*
X173113595Y-94466966D01*
G37*
X173113595Y-94466966D02*
X173171021Y-94504497D01*
X173198719Y-94538096D01*
X173220662Y-94599064D01*
X173222405Y-94647308D01*
X173218457Y-94711816D01*
X173069686Y-94776934D01*
X172997349Y-94810202D01*
X172950084Y-94836964D01*
X172925507Y-94860144D01*
X172921237Y-94882667D01*
X172934889Y-94907455D01*
X172949943Y-94923886D01*
X172993746Y-94950235D01*
X173041389Y-94952081D01*
X173085145Y-94931546D01*
X173117289Y-94890752D01*
X173123038Y-94876347D01*
X173150576Y-94831356D01*
X173182258Y-94812182D01*
X173225714Y-94795779D01*
X173225714Y-94857966D01*
X173221872Y-94900283D01*
X173206823Y-94935969D01*
X173175280Y-94976943D01*
X173170592Y-94982267D01*
X173135506Y-95018720D01*
X173105347Y-95038283D01*
X173067615Y-95047283D01*
X173036335Y-95050230D01*
X172980385Y-95050965D01*
X172940555Y-95041660D01*
X172915708Y-95027846D01*
X172876656Y-94997467D01*
X172849625Y-94964613D01*
X172832517Y-94923294D01*
X172823238Y-94867521D01*
X172819693Y-94791305D01*
X172819410Y-94752622D01*
X172820372Y-94706247D01*
X172908007Y-94706247D01*
X172909023Y-94731126D01*
X172911556Y-94735200D01*
X172928274Y-94729665D01*
X172964249Y-94715017D01*
X173012331Y-94694190D01*
X173022386Y-94689714D01*
X173083152Y-94658814D01*
X173116632Y-94631657D01*
X173123990Y-94606220D01*
X173106391Y-94580481D01*
X173091856Y-94569109D01*
X173039410Y-94546364D01*
X172990322Y-94550122D01*
X172949227Y-94577884D01*
X172920758Y-94627152D01*
X172911631Y-94666257D01*
X172908007Y-94706247D01*
X172820372Y-94706247D01*
X172821285Y-94662249D01*
X172828196Y-94595384D01*
X172841884Y-94546695D01*
X172864096Y-94510849D01*
X172896574Y-94482513D01*
X172910733Y-94473355D01*
X172975053Y-94449507D01*
X173045473Y-94448006D01*
X173113595Y-94466966D01*
G36*
X170063910Y-89742348D02*
X170142454Y-89742778D01*
X170199298Y-89743942D01*
X170238105Y-89746207D01*
X170262538Y-89749940D01*
X170276262Y-89755506D01*
X170282940Y-89763273D01*
X170286236Y-89773605D01*
X170286556Y-89774943D01*
X170291562Y-89799079D01*
X170300829Y-89846701D01*
X170313392Y-89912741D01*
X170328287Y-89992128D01*
X170344551Y-90079796D01*
X170345119Y-90082875D01*
X170361410Y-90168789D01*
X170376652Y-90244696D01*
X170389861Y-90306045D01*
X170400054Y-90348282D01*
X170406248Y-90366855D01*
X170406543Y-90367184D01*
X170424788Y-90376253D01*
X170462405Y-90391367D01*
X170511271Y-90409262D01*
X170511543Y-90409358D01*
X170573093Y-90432493D01*
X170645657Y-90461965D01*
X170714057Y-90491597D01*
X170717294Y-90493062D01*
X170828702Y-90543626D01*
X171075399Y-90375160D01*
X171151077Y-90323803D01*
X171219631Y-90277889D01*
X171277088Y-90240030D01*
X171319476Y-90212837D01*
X171342825Y-90198921D01*
X171345042Y-90197889D01*
X171362010Y-90202484D01*
X171393701Y-90224655D01*
X171441352Y-90265447D01*
X171506198Y-90325905D01*
X171572397Y-90390227D01*
X171636214Y-90453612D01*
X171693329Y-90511451D01*
X171740305Y-90560175D01*
X171773703Y-90596210D01*
X171790085Y-90615984D01*
X171790694Y-90617002D01*
X171792505Y-90630572D01*
X171785683Y-90652733D01*
X171768540Y-90686478D01*
X171739393Y-90734800D01*
X171696555Y-90800692D01*
X171639448Y-90885517D01*
X171588766Y-90960177D01*
X171543461Y-91027140D01*
X171506150Y-91082516D01*
X171479452Y-91122420D01*
X171465985Y-91142962D01*
X171465137Y-91144356D01*
X171466781Y-91164038D01*
X171479245Y-91202293D01*
X171500048Y-91251889D01*
X171507462Y-91267728D01*
X171539814Y-91338290D01*
X171574328Y-91418353D01*
X171602365Y-91487629D01*
X171622568Y-91539045D01*
X171638615Y-91578119D01*
X171647888Y-91598541D01*
X171649041Y-91600114D01*
X171666096Y-91602721D01*
X171706298Y-91609863D01*
X171764302Y-91620523D01*
X171834763Y-91633685D01*
X171912335Y-91648333D01*
X171991672Y-91663449D01*
X172067431Y-91678018D01*
X172134264Y-91691022D01*
X172186828Y-91701445D01*
X172219776Y-91708270D01*
X172227857Y-91710199D01*
X172236205Y-91714962D01*
X172242506Y-91725718D01*
X172247045Y-91746098D01*
X172250104Y-91779734D01*
X172251967Y-91830255D01*
X172252918Y-91901292D01*
X172253240Y-91996476D01*
X172253257Y-92035492D01*
X172253257Y-92352799D01*
X172177057Y-92367839D01*
X172134663Y-92375995D01*
X172071400Y-92387899D01*
X171994962Y-92402116D01*
X171913043Y-92417210D01*
X171890400Y-92421355D01*
X171814806Y-92436053D01*
X171748953Y-92450505D01*
X171698366Y-92463375D01*
X171668574Y-92473322D01*
X171663612Y-92476287D01*
X171651426Y-92497283D01*
X171633953Y-92537967D01*
X171614577Y-92590322D01*
X171610734Y-92601600D01*
X171585339Y-92671523D01*
X171553817Y-92750418D01*
X171522969Y-92821266D01*
X171522817Y-92821595D01*
X171471447Y-92932733D01*
X171640399Y-93181253D01*
X171809352Y-93429772D01*
X171592429Y-93647058D01*
X171526819Y-93711726D01*
X171466979Y-93768733D01*
X171416267Y-93815033D01*
X171378046Y-93847584D01*
X171355675Y-93863343D01*
X171352466Y-93864343D01*
X171333626Y-93856469D01*
X171295180Y-93834578D01*
X171241330Y-93801267D01*
X171176276Y-93759131D01*
X171105940Y-93711943D01*
X171034555Y-93663810D01*
X170970908Y-93621928D01*
X170919041Y-93588871D01*
X170882995Y-93567218D01*
X170866867Y-93559543D01*
X170847189Y-93566037D01*
X170809875Y-93583150D01*
X170762621Y-93607326D01*
X170757612Y-93610013D01*
X170693977Y-93641927D01*
X170650341Y-93657579D01*
X170623202Y-93657745D01*
X170609057Y-93643204D01*
X170608975Y-93643000D01*
X170601905Y-93625779D01*
X170585042Y-93584899D01*
X170559695Y-93523525D01*
X170527171Y-93444819D01*
X170488778Y-93351947D01*
X170445822Y-93248072D01*
X170404222Y-93147502D01*
X170358504Y-93036516D01*
X170316526Y-92933703D01*
X170279548Y-92842215D01*
X170248827Y-92765201D01*
X170225622Y-92705815D01*
X170211190Y-92667209D01*
X170206743Y-92652800D01*
X170217896Y-92636272D01*
X170247069Y-92609930D01*
X170285971Y-92580887D01*
X170396757Y-92489039D01*
X170483351Y-92383759D01*
X170544716Y-92267266D01*
X170579815Y-92141776D01*
X170587608Y-92009507D01*
X170581943Y-91948457D01*
X170551078Y-91821795D01*
X170497920Y-91709941D01*
X170425767Y-91614001D01*
X170337917Y-91535076D01*
X170237665Y-91474270D01*
X170128310Y-91432687D01*
X170013147Y-91411428D01*
X169895475Y-91411599D01*
X169778590Y-91434301D01*
X169665789Y-91480638D01*
X169560369Y-91551713D01*
X169516368Y-91591911D01*
X169431979Y-91695129D01*
X169373222Y-91807925D01*
X169339704Y-91927010D01*
X169331035Y-92049095D01*
X169346823Y-92170893D01*
X169386678Y-92289116D01*
X169450207Y-92400475D01*
X169537021Y-92501684D01*
X169634029Y-92580887D01*
X169674437Y-92611162D01*
X169702982Y-92637219D01*
X169713257Y-92652825D01*
X169707877Y-92669843D01*
X169692575Y-92710500D01*
X169668612Y-92771642D01*
X169637244Y-92850119D01*
X169599732Y-92942780D01*
X169557333Y-93046472D01*
X169515663Y-93147526D01*
X169469690Y-93258607D01*
X169427107Y-93361541D01*
X169389221Y-93453165D01*
X169357340Y-93530316D01*
X169332771Y-93589831D01*
X169316820Y-93628544D01*
X169310910Y-93643000D01*
X169296948Y-93657685D01*
X169269940Y-93657642D01*
X169226413Y-93642099D01*
X169162890Y-93610284D01*
X169162388Y-93610013D01*
X169114560Y-93585323D01*
X169075897Y-93567338D01*
X169054095Y-93559614D01*
X169053133Y-93559543D01*
X169036721Y-93567378D01*
X169000487Y-93589165D01*
X168948474Y-93622328D01*
X168884725Y-93664291D01*
X168814060Y-93711943D01*
X168742116Y-93760191D01*
X168677274Y-93802151D01*
X168623735Y-93835227D01*
X168585697Y-93856821D01*
X168567533Y-93864343D01*
X168550808Y-93854457D01*
X168517180Y-93826826D01*
X168470010Y-93784495D01*
X168412658Y-93730505D01*
X168348484Y-93667899D01*
X168327497Y-93646983D01*
X168110499Y-93429623D01*
X168275668Y-93187220D01*
X168325864Y-93112781D01*
X168369919Y-93045972D01*
X168405362Y-92990665D01*
X168429719Y-92950729D01*
X168440522Y-92930036D01*
X168440838Y-92928563D01*
X168435143Y-92909058D01*
X168419826Y-92869822D01*
X168397537Y-92817430D01*
X168381893Y-92782355D01*
X168352641Y-92715201D01*
X168325094Y-92647358D01*
X168303737Y-92590034D01*
X168297935Y-92572572D01*
X168281452Y-92525938D01*
X168265340Y-92489905D01*
X168256490Y-92476287D01*
X168236960Y-92467952D01*
X168194334Y-92456137D01*
X168134145Y-92442181D01*
X168061922Y-92427422D01*
X168029600Y-92421355D01*
X167947522Y-92406273D01*
X167868795Y-92391669D01*
X167801109Y-92378980D01*
X167752160Y-92369642D01*
X167742943Y-92367839D01*
X167666743Y-92352799D01*
X167666743Y-92035492D01*
X167666914Y-91931154D01*
X167667616Y-91852213D01*
X167669134Y-91795038D01*
X167671749Y-91755999D01*
X167675746Y-91731465D01*
X167681409Y-91717805D01*
X167689020Y-91711389D01*
X167692143Y-91710199D01*
X167710978Y-91705980D01*
X167752588Y-91697562D01*
X167811630Y-91685961D01*
X167882757Y-91672195D01*
X167960625Y-91657280D01*
X168039887Y-91642232D01*
X168115198Y-91628069D01*
X168181213Y-91615806D01*
X168232587Y-91606461D01*
X168263975Y-91601050D01*
X168270959Y-91600114D01*
X168277285Y-91587596D01*
X168291290Y-91554246D01*
X168310355Y-91506377D01*
X168317634Y-91487629D01*
X168346996Y-91415195D01*
X168381571Y-91335170D01*
X168412537Y-91267728D01*
X168435323Y-91216159D01*
X168450482Y-91173785D01*
X168455542Y-91147834D01*
X168454736Y-91144356D01*
X168444041Y-91127936D01*
X168419620Y-91091417D01*
X168384095Y-91038687D01*
X168340087Y-90973635D01*
X168290217Y-90900151D01*
X168280356Y-90885645D01*
X168222492Y-90799704D01*
X168179956Y-90734261D01*
X168151054Y-90686304D01*
X168134090Y-90652820D01*
X168127367Y-90630795D01*
X168129190Y-90617217D01*
X168129236Y-90617131D01*
X168143586Y-90599297D01*
X168175323Y-90564817D01*
X168221010Y-90517268D01*
X168277204Y-90460222D01*
X168340468Y-90397255D01*
X168347602Y-90390227D01*
X168427330Y-90313020D01*
X168488857Y-90256330D01*
X168533421Y-90219110D01*
X168562257Y-90200315D01*
X168574958Y-90197889D01*
X168593494Y-90208471D01*
X168631961Y-90232916D01*
X168686386Y-90268612D01*
X168752798Y-90312947D01*
X168827225Y-90363311D01*
X168844601Y-90375160D01*
X169091297Y-90543626D01*
X169202706Y-90493062D01*
X169270457Y-90463595D01*
X169343183Y-90433959D01*
X169405703Y-90410330D01*
X169408457Y-90409358D01*
X169457360Y-90391457D01*
X169495057Y-90376320D01*
X169513425Y-90367210D01*
X169513456Y-90367184D01*
X169519285Y-90350717D01*
X169529192Y-90310219D01*
X169542195Y-90250242D01*
X169557309Y-90175340D01*
X169573552Y-90090064D01*
X169574881Y-90082875D01*
X169591175Y-89995014D01*
X169606133Y-89915260D01*
X169618791Y-89848681D01*
X169628186Y-89800347D01*
X169633354Y-89775325D01*
X169633444Y-89774943D01*
X169636589Y-89764299D01*
X169642704Y-89756262D01*
X169655453Y-89750467D01*
X169678500Y-89746547D01*
X169715509Y-89744135D01*
X169770144Y-89742865D01*
X169846067Y-89742371D01*
X169946944Y-89742286D01*
X169960000Y-89742286D01*
X170063910Y-89742348D01*
X170063910Y-89742348D01*
G37*
X170063910Y-89742348D02*
X170142454Y-89742778D01*
X170199298Y-89743942D01*
X170238105Y-89746207D01*
X170262538Y-89749940D01*
X170276262Y-89755506D01*
X170282940Y-89763273D01*
X170286236Y-89773605D01*
X170286556Y-89774943D01*
X170291562Y-89799079D01*
X170300829Y-89846701D01*
X170313392Y-89912741D01*
X170328287Y-89992128D01*
X170344551Y-90079796D01*
X170345119Y-90082875D01*
X170361410Y-90168789D01*
X170376652Y-90244696D01*
X170389861Y-90306045D01*
X170400054Y-90348282D01*
X170406248Y-90366855D01*
X170406543Y-90367184D01*
X170424788Y-90376253D01*
X170462405Y-90391367D01*
X170511271Y-90409262D01*
X170511543Y-90409358D01*
X170573093Y-90432493D01*
X170645657Y-90461965D01*
X170714057Y-90491597D01*
X170717294Y-90493062D01*
X170828702Y-90543626D01*
X171075399Y-90375160D01*
X171151077Y-90323803D01*
X171219631Y-90277889D01*
X171277088Y-90240030D01*
X171319476Y-90212837D01*
X171342825Y-90198921D01*
X171345042Y-90197889D01*
X171362010Y-90202484D01*
X171393701Y-90224655D01*
X171441352Y-90265447D01*
X171506198Y-90325905D01*
X171572397Y-90390227D01*
X171636214Y-90453612D01*
X171693329Y-90511451D01*
X171740305Y-90560175D01*
X171773703Y-90596210D01*
X171790085Y-90615984D01*
X171790694Y-90617002D01*
X171792505Y-90630572D01*
X171785683Y-90652733D01*
X171768540Y-90686478D01*
X171739393Y-90734800D01*
X171696555Y-90800692D01*
X171639448Y-90885517D01*
X171588766Y-90960177D01*
X171543461Y-91027140D01*
X171506150Y-91082516D01*
X171479452Y-91122420D01*
X171465985Y-91142962D01*
X171465137Y-91144356D01*
X171466781Y-91164038D01*
X171479245Y-91202293D01*
X171500048Y-91251889D01*
X171507462Y-91267728D01*
X171539814Y-91338290D01*
X171574328Y-91418353D01*
X171602365Y-91487629D01*
X171622568Y-91539045D01*
X171638615Y-91578119D01*
X171647888Y-91598541D01*
X171649041Y-91600114D01*
X171666096Y-91602721D01*
X171706298Y-91609863D01*
X171764302Y-91620523D01*
X171834763Y-91633685D01*
X171912335Y-91648333D01*
X171991672Y-91663449D01*
X172067431Y-91678018D01*
X172134264Y-91691022D01*
X172186828Y-91701445D01*
X172219776Y-91708270D01*
X172227857Y-91710199D01*
X172236205Y-91714962D01*
X172242506Y-91725718D01*
X172247045Y-91746098D01*
X172250104Y-91779734D01*
X172251967Y-91830255D01*
X172252918Y-91901292D01*
X172253240Y-91996476D01*
X172253257Y-92035492D01*
X172253257Y-92352799D01*
X172177057Y-92367839D01*
X172134663Y-92375995D01*
X172071400Y-92387899D01*
X171994962Y-92402116D01*
X171913043Y-92417210D01*
X171890400Y-92421355D01*
X171814806Y-92436053D01*
X171748953Y-92450505D01*
X171698366Y-92463375D01*
X171668574Y-92473322D01*
X171663612Y-92476287D01*
X171651426Y-92497283D01*
X171633953Y-92537967D01*
X171614577Y-92590322D01*
X171610734Y-92601600D01*
X171585339Y-92671523D01*
X171553817Y-92750418D01*
X171522969Y-92821266D01*
X171522817Y-92821595D01*
X171471447Y-92932733D01*
X171640399Y-93181253D01*
X171809352Y-93429772D01*
X171592429Y-93647058D01*
X171526819Y-93711726D01*
X171466979Y-93768733D01*
X171416267Y-93815033D01*
X171378046Y-93847584D01*
X171355675Y-93863343D01*
X171352466Y-93864343D01*
X171333626Y-93856469D01*
X171295180Y-93834578D01*
X171241330Y-93801267D01*
X171176276Y-93759131D01*
X171105940Y-93711943D01*
X171034555Y-93663810D01*
X170970908Y-93621928D01*
X170919041Y-93588871D01*
X170882995Y-93567218D01*
X170866867Y-93559543D01*
X170847189Y-93566037D01*
X170809875Y-93583150D01*
X170762621Y-93607326D01*
X170757612Y-93610013D01*
X170693977Y-93641927D01*
X170650341Y-93657579D01*
X170623202Y-93657745D01*
X170609057Y-93643204D01*
X170608975Y-93643000D01*
X170601905Y-93625779D01*
X170585042Y-93584899D01*
X170559695Y-93523525D01*
X170527171Y-93444819D01*
X170488778Y-93351947D01*
X170445822Y-93248072D01*
X170404222Y-93147502D01*
X170358504Y-93036516D01*
X170316526Y-92933703D01*
X170279548Y-92842215D01*
X170248827Y-92765201D01*
X170225622Y-92705815D01*
X170211190Y-92667209D01*
X170206743Y-92652800D01*
X170217896Y-92636272D01*
X170247069Y-92609930D01*
X170285971Y-92580887D01*
X170396757Y-92489039D01*
X170483351Y-92383759D01*
X170544716Y-92267266D01*
X170579815Y-92141776D01*
X170587608Y-92009507D01*
X170581943Y-91948457D01*
X170551078Y-91821795D01*
X170497920Y-91709941D01*
X170425767Y-91614001D01*
X170337917Y-91535076D01*
X170237665Y-91474270D01*
X170128310Y-91432687D01*
X170013147Y-91411428D01*
X169895475Y-91411599D01*
X169778590Y-91434301D01*
X169665789Y-91480638D01*
X169560369Y-91551713D01*
X169516368Y-91591911D01*
X169431979Y-91695129D01*
X169373222Y-91807925D01*
X169339704Y-91927010D01*
X169331035Y-92049095D01*
X169346823Y-92170893D01*
X169386678Y-92289116D01*
X169450207Y-92400475D01*
X169537021Y-92501684D01*
X169634029Y-92580887D01*
X169674437Y-92611162D01*
X169702982Y-92637219D01*
X169713257Y-92652825D01*
X169707877Y-92669843D01*
X169692575Y-92710500D01*
X169668612Y-92771642D01*
X169637244Y-92850119D01*
X169599732Y-92942780D01*
X169557333Y-93046472D01*
X169515663Y-93147526D01*
X169469690Y-93258607D01*
X169427107Y-93361541D01*
X169389221Y-93453165D01*
X169357340Y-93530316D01*
X169332771Y-93589831D01*
X169316820Y-93628544D01*
X169310910Y-93643000D01*
X169296948Y-93657685D01*
X169269940Y-93657642D01*
X169226413Y-93642099D01*
X169162890Y-93610284D01*
X169162388Y-93610013D01*
X169114560Y-93585323D01*
X169075897Y-93567338D01*
X169054095Y-93559614D01*
X169053133Y-93559543D01*
X169036721Y-93567378D01*
X169000487Y-93589165D01*
X168948474Y-93622328D01*
X168884725Y-93664291D01*
X168814060Y-93711943D01*
X168742116Y-93760191D01*
X168677274Y-93802151D01*
X168623735Y-93835227D01*
X168585697Y-93856821D01*
X168567533Y-93864343D01*
X168550808Y-93854457D01*
X168517180Y-93826826D01*
X168470010Y-93784495D01*
X168412658Y-93730505D01*
X168348484Y-93667899D01*
X168327497Y-93646983D01*
X168110499Y-93429623D01*
X168275668Y-93187220D01*
X168325864Y-93112781D01*
X168369919Y-93045972D01*
X168405362Y-92990665D01*
X168429719Y-92950729D01*
X168440522Y-92930036D01*
X168440838Y-92928563D01*
X168435143Y-92909058D01*
X168419826Y-92869822D01*
X168397537Y-92817430D01*
X168381893Y-92782355D01*
X168352641Y-92715201D01*
X168325094Y-92647358D01*
X168303737Y-92590034D01*
X168297935Y-92572572D01*
X168281452Y-92525938D01*
X168265340Y-92489905D01*
X168256490Y-92476287D01*
X168236960Y-92467952D01*
X168194334Y-92456137D01*
X168134145Y-92442181D01*
X168061922Y-92427422D01*
X168029600Y-92421355D01*
X167947522Y-92406273D01*
X167868795Y-92391669D01*
X167801109Y-92378980D01*
X167752160Y-92369642D01*
X167742943Y-92367839D01*
X167666743Y-92352799D01*
X167666743Y-92035492D01*
X167666914Y-91931154D01*
X167667616Y-91852213D01*
X167669134Y-91795038D01*
X167671749Y-91755999D01*
X167675746Y-91731465D01*
X167681409Y-91717805D01*
X167689020Y-91711389D01*
X167692143Y-91710199D01*
X167710978Y-91705980D01*
X167752588Y-91697562D01*
X167811630Y-91685961D01*
X167882757Y-91672195D01*
X167960625Y-91657280D01*
X168039887Y-91642232D01*
X168115198Y-91628069D01*
X168181213Y-91615806D01*
X168232587Y-91606461D01*
X168263975Y-91601050D01*
X168270959Y-91600114D01*
X168277285Y-91587596D01*
X168291290Y-91554246D01*
X168310355Y-91506377D01*
X168317634Y-91487629D01*
X168346996Y-91415195D01*
X168381571Y-91335170D01*
X168412537Y-91267728D01*
X168435323Y-91216159D01*
X168450482Y-91173785D01*
X168455542Y-91147834D01*
X168454736Y-91144356D01*
X168444041Y-91127936D01*
X168419620Y-91091417D01*
X168384095Y-91038687D01*
X168340087Y-90973635D01*
X168290217Y-90900151D01*
X168280356Y-90885645D01*
X168222492Y-90799704D01*
X168179956Y-90734261D01*
X168151054Y-90686304D01*
X168134090Y-90652820D01*
X168127367Y-90630795D01*
X168129190Y-90617217D01*
X168129236Y-90617131D01*
X168143586Y-90599297D01*
X168175323Y-90564817D01*
X168221010Y-90517268D01*
X168277204Y-90460222D01*
X168340468Y-90397255D01*
X168347602Y-90390227D01*
X168427330Y-90313020D01*
X168488857Y-90256330D01*
X168533421Y-90219110D01*
X168562257Y-90200315D01*
X168574958Y-90197889D01*
X168593494Y-90208471D01*
X168631961Y-90232916D01*
X168686386Y-90268612D01*
X168752798Y-90312947D01*
X168827225Y-90363311D01*
X168844601Y-90375160D01*
X169091297Y-90543626D01*
X169202706Y-90493062D01*
X169270457Y-90463595D01*
X169343183Y-90433959D01*
X169405703Y-90410330D01*
X169408457Y-90409358D01*
X169457360Y-90391457D01*
X169495057Y-90376320D01*
X169513425Y-90367210D01*
X169513456Y-90367184D01*
X169519285Y-90350717D01*
X169529192Y-90310219D01*
X169542195Y-90250242D01*
X169557309Y-90175340D01*
X169573552Y-90090064D01*
X169574881Y-90082875D01*
X169591175Y-89995014D01*
X169606133Y-89915260D01*
X169618791Y-89848681D01*
X169628186Y-89800347D01*
X169633354Y-89775325D01*
X169633444Y-89774943D01*
X169636589Y-89764299D01*
X169642704Y-89756262D01*
X169655453Y-89750467D01*
X169678500Y-89746547D01*
X169715509Y-89744135D01*
X169770144Y-89742865D01*
X169846067Y-89742371D01*
X169946944Y-89742286D01*
X169960000Y-89742286D01*
X170063910Y-89742348D01*
D14*
X117770000Y-92460000D02*
X120430000Y-92460000D01*
X117770000Y-92400000D02*
X117770000Y-92460000D01*
X120430000Y-92400000D02*
X120430000Y-92460000D01*
X117770000Y-92400000D02*
X120430000Y-92400000D01*
X117770000Y-91130000D02*
X117770000Y-89800000D01*
X117770000Y-89800000D02*
X119100000Y-89800000D01*
X121210000Y-93640000D02*
X119960000Y-93640000D01*
X121210000Y-94890000D02*
X121210000Y-93640000D01*
X116800000Y-101000000D02*
X117300000Y-101000000D01*
X117300000Y-101100000D02*
X116800000Y-101100000D01*
X117300000Y-100900000D02*
X117300000Y-101100000D01*
X116800000Y-100900000D02*
X117300000Y-100900000D01*
X116800000Y-99000000D02*
X117300000Y-99000000D01*
X117300000Y-99100000D02*
X116800000Y-99100000D01*
X117300000Y-98900000D02*
X117300000Y-99100000D01*
X116800000Y-98900000D02*
X117300000Y-98900000D01*
X116800000Y-97000000D02*
X117300000Y-97000000D01*
X117300000Y-97100000D02*
X116800000Y-97100000D01*
X117300000Y-96900000D02*
X117300000Y-97100000D01*
X116800000Y-96900000D02*
X117300000Y-96900000D01*
X118300000Y-104060000D02*
X118300000Y-103450000D01*
X119600000Y-104060000D02*
X119600000Y-103450000D01*
X118300000Y-93940000D02*
X118300000Y-94550000D01*
X119600000Y-93940000D02*
X119600000Y-94550000D01*
X120300000Y-101500000D02*
X120910000Y-101500000D01*
X120300000Y-103450000D02*
X120300000Y-101500000D01*
X116800000Y-103450000D02*
X120300000Y-103450000D01*
X116800000Y-94550000D02*
X116800000Y-103450000D01*
X120300000Y-94550000D02*
X116800000Y-94550000D01*
X120300000Y-96500000D02*
X120300000Y-94550000D01*
X120910000Y-96500000D02*
X120300000Y-96500000D01*
X121010000Y-95700000D02*
X121010000Y-95400000D01*
X121110000Y-95400000D02*
X120910000Y-95400000D01*
X121110000Y-95700000D02*
X121110000Y-95400000D01*
X120910000Y-95700000D02*
X121110000Y-95700000D01*
X120910000Y-104060000D02*
X120910000Y-93940000D01*
X116190000Y-104060000D02*
X120910000Y-104060000D01*
X116190000Y-93940000D02*
X116190000Y-104060000D01*
X120910000Y-93940000D02*
X116190000Y-93940000D01*
X123240000Y-101215000D02*
X127090000Y-101215000D01*
X123240000Y-103215000D02*
X127090000Y-103215000D01*
X123240000Y-101215000D02*
X123240000Y-103215000D01*
D15*
X170000000Y-118240000D02*
X170000000Y-110640000D01*
X178600000Y-118240000D02*
X170000000Y-118240000D01*
X178600000Y-110640000D02*
X178600000Y-118240000D01*
X170000000Y-110640000D02*
X178600000Y-110640000D01*
X116390000Y-110715000D02*
X124990000Y-110715000D01*
X124990000Y-110715000D02*
X124990000Y-118315000D01*
X124990000Y-118315000D02*
X116390000Y-118315000D01*
X116390000Y-118315000D02*
X116390000Y-110715000D01*
D14*
X124924000Y-100077000D02*
X124224000Y-100077000D01*
X124224000Y-98877000D02*
X124924000Y-98877000D01*
X126815000Y-98785000D02*
X127815000Y-98785000D01*
X127815000Y-100145000D02*
X126815000Y-100145000D01*
X124074000Y-95241000D02*
X125074000Y-95241000D01*
X125074000Y-96601000D02*
X124074000Y-96601000D01*
X125074000Y-98379000D02*
X124074000Y-98379000D01*
X124074000Y-97019000D02*
X125074000Y-97019000D01*
D16*
X141041380Y-95729160D02*
X141041380Y-103526960D01*
X138641080Y-94428680D02*
X141041380Y-95729160D01*
X133042920Y-94428680D02*
X138641080Y-94428680D01*
X130642620Y-95729160D02*
X133042920Y-94428680D01*
X130642620Y-103526960D02*
X130642620Y-95729160D01*
X141041380Y-103526960D02*
X130642620Y-103526960D01*
X152979380Y-95729160D02*
X152979380Y-103526960D01*
X150579080Y-94428680D02*
X152979380Y-95729160D01*
X144980920Y-94428680D02*
X150579080Y-94428680D01*
X142580620Y-95729160D02*
X144980920Y-94428680D01*
X142580620Y-103526960D02*
X142580620Y-95729160D01*
X152979380Y-103526960D02*
X142580620Y-103526960D01*
X164917380Y-95729160D02*
X164917380Y-103526960D01*
X162517080Y-94428680D02*
X164917380Y-95729160D01*
X156918920Y-94428680D02*
X162517080Y-94428680D01*
X154518620Y-95729160D02*
X156918920Y-94428680D01*
X154518620Y-103526960D02*
X154518620Y-95729160D01*
X164917380Y-103526960D02*
X154518620Y-103526960D01*
D14*
X127860000Y-91565000D02*
X127860000Y-93565000D01*
X125720000Y-93565000D02*
X125720000Y-91565000D01*
X123395000Y-93565000D02*
X123395000Y-91565000D01*
X125535000Y-91565000D02*
X125535000Y-93565000D01*
D17*
D15*
X121251904Y-90532380D02*
X121251904Y-89532380D01*
X121632857Y-89532380D01*
X121728095Y-89580000D01*
X121775714Y-89627619D01*
X121823333Y-89722857D01*
X121823333Y-89865714D01*
X121775714Y-89960952D01*
X121728095Y-90008571D01*
X121632857Y-90056190D01*
X121251904Y-90056190D01*
X122728095Y-89532380D02*
X122251904Y-89532380D01*
X122204285Y-90008571D01*
X122251904Y-89960952D01*
X122347142Y-89913333D01*
X122585238Y-89913333D01*
X122680476Y-89960952D01*
X122728095Y-90008571D01*
X122775714Y-90103809D01*
X122775714Y-90341904D01*
X122728095Y-90437142D01*
X122680476Y-90484761D01*
X122585238Y-90532380D01*
X122347142Y-90532380D01*
X122251904Y-90484761D01*
X122204285Y-90437142D01*
X116251904Y-105702380D02*
X116251904Y-104702380D01*
X116632857Y-104702380D01*
X116728095Y-104750000D01*
X116775714Y-104797619D01*
X116823333Y-104892857D01*
X116823333Y-105035714D01*
X116775714Y-105130952D01*
X116728095Y-105178571D01*
X116632857Y-105226190D01*
X116251904Y-105226190D01*
X117156666Y-104702380D02*
X117823333Y-104702380D01*
X117394761Y-105702380D01*
X123306428Y-104329285D02*
X123306428Y-103579285D01*
X123485000Y-103579285D01*
X123592142Y-103615000D01*
X123663571Y-103686428D01*
X123699285Y-103757857D01*
X123735000Y-103900714D01*
X123735000Y-104007857D01*
X123699285Y-104150714D01*
X123663571Y-104222142D01*
X123592142Y-104293571D01*
X123485000Y-104329285D01*
X123306428Y-104329285D01*
X124449285Y-104329285D02*
X124020714Y-104329285D01*
X124235000Y-104329285D02*
X124235000Y-103579285D01*
X124163571Y-103686428D01*
X124092142Y-103757857D01*
X124020714Y-103793571D01*
D18*
X169529428Y-117354857D02*
X168005428Y-117354857D01*
X168005428Y-116774285D01*
X168078000Y-116629142D01*
X168150571Y-116556571D01*
X168295714Y-116484000D01*
X168513428Y-116484000D01*
X168658571Y-116556571D01*
X168731142Y-116629142D01*
X168803714Y-116774285D01*
X168803714Y-117354857D01*
X168005428Y-115177714D02*
X168005428Y-115468000D01*
X168078000Y-115613142D01*
X168150571Y-115685714D01*
X168368285Y-115830857D01*
X168658571Y-115903428D01*
X169239142Y-115903428D01*
X169384285Y-115830857D01*
X169456857Y-115758285D01*
X169529428Y-115613142D01*
X169529428Y-115322857D01*
X169456857Y-115177714D01*
X169384285Y-115105142D01*
X169239142Y-115032571D01*
X168876285Y-115032571D01*
X168731142Y-115105142D01*
X168658571Y-115177714D01*
X168586000Y-115322857D01*
X168586000Y-115613142D01*
X168658571Y-115758285D01*
X168731142Y-115830857D01*
X168876285Y-115903428D01*
X126889428Y-118044857D02*
X125365428Y-118044857D01*
X125365428Y-117464285D01*
X125438000Y-117319142D01*
X125510571Y-117246571D01*
X125655714Y-117174000D01*
X125873428Y-117174000D01*
X126018571Y-117246571D01*
X126091142Y-117319142D01*
X126163714Y-117464285D01*
X126163714Y-118044857D01*
X125510571Y-116593428D02*
X125438000Y-116520857D01*
X125365428Y-116375714D01*
X125365428Y-116012857D01*
X125438000Y-115867714D01*
X125510571Y-115795142D01*
X125655714Y-115722571D01*
X125800857Y-115722571D01*
X126018571Y-115795142D01*
X126889428Y-116666000D01*
X126889428Y-115722571D01*
D15*
X125215000Y-100887857D02*
X125179285Y-100923571D01*
X125072142Y-100959285D01*
X125000714Y-100959285D01*
X124893571Y-100923571D01*
X124822142Y-100852142D01*
X124786428Y-100780714D01*
X124750714Y-100637857D01*
X124750714Y-100530714D01*
X124786428Y-100387857D01*
X124822142Y-100316428D01*
X124893571Y-100245000D01*
X125000714Y-100209285D01*
X125072142Y-100209285D01*
X125179285Y-100245000D01*
X125215000Y-100280714D01*
X125929285Y-100959285D02*
X125500714Y-100959285D01*
X125715000Y-100959285D02*
X125715000Y-100209285D01*
X125643571Y-100316428D01*
X125572142Y-100387857D01*
X125500714Y-100423571D01*
X127755000Y-101029285D02*
X127505000Y-100672142D01*
X127326428Y-101029285D02*
X127326428Y-100279285D01*
X127612142Y-100279285D01*
X127683571Y-100315000D01*
X127719285Y-100350714D01*
X127755000Y-100422142D01*
X127755000Y-100529285D01*
X127719285Y-100600714D01*
X127683571Y-100636428D01*
X127612142Y-100672142D01*
X127326428Y-100672142D01*
X128005000Y-100279285D02*
X128469285Y-100279285D01*
X128219285Y-100565000D01*
X128326428Y-100565000D01*
X128397857Y-100600714D01*
X128433571Y-100636428D01*
X128469285Y-100707857D01*
X128469285Y-100886428D01*
X128433571Y-100957857D01*
X128397857Y-100993571D01*
X128326428Y-101029285D01*
X128112142Y-101029285D01*
X128040714Y-100993571D01*
X128005000Y-100957857D01*
X127529285Y-96035000D02*
X127172142Y-96285000D01*
X127529285Y-96463571D02*
X126779285Y-96463571D01*
X126779285Y-96177857D01*
X126815000Y-96106428D01*
X126850714Y-96070714D01*
X126922142Y-96035000D01*
X127029285Y-96035000D01*
X127100714Y-96070714D01*
X127136428Y-96106428D01*
X127172142Y-96177857D01*
X127172142Y-96463571D01*
X126850714Y-95749285D02*
X126815000Y-95713571D01*
X126779285Y-95642142D01*
X126779285Y-95463571D01*
X126815000Y-95392142D01*
X126850714Y-95356428D01*
X126922142Y-95320714D01*
X126993571Y-95320714D01*
X127100714Y-95356428D01*
X127529285Y-95785000D01*
X127529285Y-95320714D01*
X127529285Y-97805000D02*
X127172142Y-98055000D01*
X127529285Y-98233571D02*
X126779285Y-98233571D01*
X126779285Y-97947857D01*
X126815000Y-97876428D01*
X126850714Y-97840714D01*
X126922142Y-97805000D01*
X127029285Y-97805000D01*
X127100714Y-97840714D01*
X127136428Y-97876428D01*
X127172142Y-97947857D01*
X127172142Y-98233571D01*
X127529285Y-97090714D02*
X127529285Y-97519285D01*
X127529285Y-97305000D02*
X126779285Y-97305000D01*
X126886428Y-97376428D01*
X126957857Y-97447857D01*
X126993571Y-97519285D01*
X133359857Y-92567285D02*
X133359857Y-91817285D01*
X134145571Y-92567285D02*
X133895571Y-92210142D01*
X133717000Y-92567285D02*
X133717000Y-91817285D01*
X134002714Y-91817285D01*
X134074142Y-91853000D01*
X134109857Y-91888714D01*
X134145571Y-91960142D01*
X134145571Y-92067285D01*
X134109857Y-92138714D01*
X134074142Y-92174428D01*
X134002714Y-92210142D01*
X133717000Y-92210142D01*
X134717000Y-92174428D02*
X134467000Y-92174428D01*
X134467000Y-92567285D02*
X134467000Y-91817285D01*
X134824142Y-91817285D01*
X135074142Y-92531571D02*
X135181285Y-92567285D01*
X135359857Y-92567285D01*
X135431285Y-92531571D01*
X135467000Y-92495857D01*
X135502714Y-92424428D01*
X135502714Y-92353000D01*
X135467000Y-92281571D01*
X135431285Y-92245857D01*
X135359857Y-92210142D01*
X135217000Y-92174428D01*
X135145571Y-92138714D01*
X135109857Y-92103000D01*
X135074142Y-92031571D01*
X135074142Y-91960142D01*
X135109857Y-91888714D01*
X135145571Y-91853000D01*
X135217000Y-91817285D01*
X135395571Y-91817285D01*
X135502714Y-91853000D01*
X135752714Y-91817285D02*
X136252714Y-91817285D01*
X135931285Y-92567285D01*
X136895571Y-91817285D02*
X136538428Y-91817285D01*
X136502714Y-92174428D01*
X136538428Y-92138714D01*
X136609857Y-92103000D01*
X136788428Y-92103000D01*
X136859857Y-92138714D01*
X136895571Y-92174428D01*
X136931285Y-92245857D01*
X136931285Y-92424428D01*
X136895571Y-92495857D01*
X136859857Y-92531571D01*
X136788428Y-92567285D01*
X136609857Y-92567285D01*
X136538428Y-92531571D01*
X136502714Y-92495857D01*
X137181285Y-91817285D02*
X137645571Y-91817285D01*
X137395571Y-92103000D01*
X137502714Y-92103000D01*
X137574142Y-92138714D01*
X137609857Y-92174428D01*
X137645571Y-92245857D01*
X137645571Y-92424428D01*
X137609857Y-92495857D01*
X137574142Y-92531571D01*
X137502714Y-92567285D01*
X137288428Y-92567285D01*
X137217000Y-92531571D01*
X137181285Y-92495857D01*
X138109857Y-91817285D02*
X138181285Y-91817285D01*
X138252714Y-91853000D01*
X138288428Y-91888714D01*
X138324142Y-91960142D01*
X138359857Y-92103000D01*
X138359857Y-92281571D01*
X138324142Y-92424428D01*
X138288428Y-92495857D01*
X138252714Y-92531571D01*
X138181285Y-92567285D01*
X138109857Y-92567285D01*
X138038428Y-92531571D01*
X138002714Y-92495857D01*
X137967000Y-92424428D01*
X137931285Y-92281571D01*
X137931285Y-92103000D01*
X137967000Y-91960142D01*
X138002714Y-91888714D01*
X138038428Y-91853000D01*
X138109857Y-91817285D01*
X145297857Y-92567285D02*
X145297857Y-91817285D01*
X146083571Y-92567285D02*
X145833571Y-92210142D01*
X145655000Y-92567285D02*
X145655000Y-91817285D01*
X145940714Y-91817285D01*
X146012142Y-91853000D01*
X146047857Y-91888714D01*
X146083571Y-91960142D01*
X146083571Y-92067285D01*
X146047857Y-92138714D01*
X146012142Y-92174428D01*
X145940714Y-92210142D01*
X145655000Y-92210142D01*
X146655000Y-92174428D02*
X146405000Y-92174428D01*
X146405000Y-92567285D02*
X146405000Y-91817285D01*
X146762142Y-91817285D01*
X147012142Y-92531571D02*
X147119285Y-92567285D01*
X147297857Y-92567285D01*
X147369285Y-92531571D01*
X147405000Y-92495857D01*
X147440714Y-92424428D01*
X147440714Y-92353000D01*
X147405000Y-92281571D01*
X147369285Y-92245857D01*
X147297857Y-92210142D01*
X147155000Y-92174428D01*
X147083571Y-92138714D01*
X147047857Y-92103000D01*
X147012142Y-92031571D01*
X147012142Y-91960142D01*
X147047857Y-91888714D01*
X147083571Y-91853000D01*
X147155000Y-91817285D01*
X147333571Y-91817285D01*
X147440714Y-91853000D01*
X147690714Y-91817285D02*
X148190714Y-91817285D01*
X147869285Y-92567285D01*
X148833571Y-91817285D02*
X148476428Y-91817285D01*
X148440714Y-92174428D01*
X148476428Y-92138714D01*
X148547857Y-92103000D01*
X148726428Y-92103000D01*
X148797857Y-92138714D01*
X148833571Y-92174428D01*
X148869285Y-92245857D01*
X148869285Y-92424428D01*
X148833571Y-92495857D01*
X148797857Y-92531571D01*
X148726428Y-92567285D01*
X148547857Y-92567285D01*
X148476428Y-92531571D01*
X148440714Y-92495857D01*
X149119285Y-91817285D02*
X149583571Y-91817285D01*
X149333571Y-92103000D01*
X149440714Y-92103000D01*
X149512142Y-92138714D01*
X149547857Y-92174428D01*
X149583571Y-92245857D01*
X149583571Y-92424428D01*
X149547857Y-92495857D01*
X149512142Y-92531571D01*
X149440714Y-92567285D01*
X149226428Y-92567285D01*
X149155000Y-92531571D01*
X149119285Y-92495857D01*
X150047857Y-91817285D02*
X150119285Y-91817285D01*
X150190714Y-91853000D01*
X150226428Y-91888714D01*
X150262142Y-91960142D01*
X150297857Y-92103000D01*
X150297857Y-92281571D01*
X150262142Y-92424428D01*
X150226428Y-92495857D01*
X150190714Y-92531571D01*
X150119285Y-92567285D01*
X150047857Y-92567285D01*
X149976428Y-92531571D01*
X149940714Y-92495857D01*
X149905000Y-92424428D01*
X149869285Y-92281571D01*
X149869285Y-92103000D01*
X149905000Y-91960142D01*
X149940714Y-91888714D01*
X149976428Y-91853000D01*
X150047857Y-91817285D01*
X157235857Y-92567285D02*
X157235857Y-91817285D01*
X158021571Y-92567285D02*
X157771571Y-92210142D01*
X157593000Y-92567285D02*
X157593000Y-91817285D01*
X157878714Y-91817285D01*
X157950142Y-91853000D01*
X157985857Y-91888714D01*
X158021571Y-91960142D01*
X158021571Y-92067285D01*
X157985857Y-92138714D01*
X157950142Y-92174428D01*
X157878714Y-92210142D01*
X157593000Y-92210142D01*
X158593000Y-92174428D02*
X158343000Y-92174428D01*
X158343000Y-92567285D02*
X158343000Y-91817285D01*
X158700142Y-91817285D01*
X158950142Y-92531571D02*
X159057285Y-92567285D01*
X159235857Y-92567285D01*
X159307285Y-92531571D01*
X159343000Y-92495857D01*
X159378714Y-92424428D01*
X159378714Y-92353000D01*
X159343000Y-92281571D01*
X159307285Y-92245857D01*
X159235857Y-92210142D01*
X159093000Y-92174428D01*
X159021571Y-92138714D01*
X158985857Y-92103000D01*
X158950142Y-92031571D01*
X158950142Y-91960142D01*
X158985857Y-91888714D01*
X159021571Y-91853000D01*
X159093000Y-91817285D01*
X159271571Y-91817285D01*
X159378714Y-91853000D01*
X159628714Y-91817285D02*
X160128714Y-91817285D01*
X159807285Y-92567285D01*
X160771571Y-91817285D02*
X160414428Y-91817285D01*
X160378714Y-92174428D01*
X160414428Y-92138714D01*
X160485857Y-92103000D01*
X160664428Y-92103000D01*
X160735857Y-92138714D01*
X160771571Y-92174428D01*
X160807285Y-92245857D01*
X160807285Y-92424428D01*
X160771571Y-92495857D01*
X160735857Y-92531571D01*
X160664428Y-92567285D01*
X160485857Y-92567285D01*
X160414428Y-92531571D01*
X160378714Y-92495857D01*
X161057285Y-91817285D02*
X161521571Y-91817285D01*
X161271571Y-92103000D01*
X161378714Y-92103000D01*
X161450142Y-92138714D01*
X161485857Y-92174428D01*
X161521571Y-92245857D01*
X161521571Y-92424428D01*
X161485857Y-92495857D01*
X161450142Y-92531571D01*
X161378714Y-92567285D01*
X161164428Y-92567285D01*
X161093000Y-92531571D01*
X161057285Y-92495857D01*
X161985857Y-91817285D02*
X162057285Y-91817285D01*
X162128714Y-91853000D01*
X162164428Y-91888714D01*
X162200142Y-91960142D01*
X162235857Y-92103000D01*
X162235857Y-92281571D01*
X162200142Y-92424428D01*
X162164428Y-92495857D01*
X162128714Y-92531571D01*
X162057285Y-92567285D01*
X161985857Y-92567285D01*
X161914428Y-92531571D01*
X161878714Y-92495857D01*
X161843000Y-92424428D01*
X161807285Y-92281571D01*
X161807285Y-92103000D01*
X161843000Y-91960142D01*
X161878714Y-91888714D01*
X161914428Y-91853000D01*
X161985857Y-91817285D01*
X126645000Y-90239285D02*
X126395000Y-89882142D01*
X126216428Y-90239285D02*
X126216428Y-89489285D01*
X126502142Y-89489285D01*
X126573571Y-89525000D01*
X126609285Y-89560714D01*
X126645000Y-89632142D01*
X126645000Y-89739285D01*
X126609285Y-89810714D01*
X126573571Y-89846428D01*
X126502142Y-89882142D01*
X126216428Y-89882142D01*
X127287857Y-89739285D02*
X127287857Y-90239285D01*
X127109285Y-89453571D02*
X126930714Y-89989285D01*
X127395000Y-89989285D01*
X124365000Y-90219285D02*
X124115000Y-89862142D01*
X123936428Y-90219285D02*
X123936428Y-89469285D01*
X124222142Y-89469285D01*
X124293571Y-89505000D01*
X124329285Y-89540714D01*
X124365000Y-89612142D01*
X124365000Y-89719285D01*
X124329285Y-89790714D01*
X124293571Y-89826428D01*
X124222142Y-89862142D01*
X123936428Y-89862142D01*
X125043571Y-89469285D02*
X124686428Y-89469285D01*
X124650714Y-89826428D01*
X124686428Y-89790714D01*
X124757857Y-89755000D01*
X124936428Y-89755000D01*
X125007857Y-89790714D01*
X125043571Y-89826428D01*
X125079285Y-89897857D01*
X125079285Y-90076428D01*
X125043571Y-90147857D01*
X125007857Y-90183571D01*
X124936428Y-90219285D01*
X124757857Y-90219285D01*
X124686428Y-90183571D01*
X124650714Y-90147857D01*
M02*
