G04 #@! TF.GenerationSoftware,KiCad,Pcbnew,(2017-08-25 revision dd37d0595)-makepkg*
G04 #@! TF.CreationDate,2018-05-19T22:22:17-04:00*
G04 #@! TF.ProjectId,Anti-Spark-Switch,416E74692D537061726B2D5377697463,rev?*
G04 #@! TF.SameCoordinates,Original*
G04 #@! TF.FileFunction,Soldermask,Top*
G04 #@! TF.FilePolarity,Negative*
%FSLAX46Y46*%
G04 Gerber Fmt 4.6, Leading zero omitted, Abs format (unit mm)*
G04 Created by KiCad (PCBNEW (2017-08-25 revision dd37d0595)-makepkg) date 05/19/18 22:22:17*
%MOMM*%
%LPD*%
G01*
G04 APERTURE LIST*
%ADD10R,2.100000X2.100000*%
%ADD11O,2.150000X1.600000*%
%ADD12R,2.150000X1.600000*%
%ADD13R,1.500000X1.500000*%
%ADD14R,8.400000X7.400000*%
%ADD15R,1.200000X1.150000*%
%ADD16R,0.900000X1.300000*%
%ADD17R,1.299160X3.600400*%
%ADD18R,11.200080X8.550860*%
%ADD19R,2.100000X1.300000*%
G04 APERTURE END LIST*
D10*
X119100000Y-91130000D03*
D11*
X119100000Y-102000000D03*
X119100000Y-100000000D03*
X119100000Y-98000000D03*
D12*
X119100000Y-96000000D03*
D13*
X126840000Y-102215000D03*
X124040000Y-102215000D03*
D14*
X174300000Y-114440000D03*
X120690000Y-114515000D03*
D15*
X125324000Y-99477000D03*
X123824000Y-99477000D03*
D16*
X128065000Y-99465000D03*
X126565000Y-99465000D03*
X125324000Y-95921000D03*
X123824000Y-95921000D03*
X123824000Y-97699000D03*
X125324000Y-97699000D03*
D17*
X139652000Y-108929540D03*
X138382000Y-108929540D03*
X137112000Y-108929540D03*
X134572000Y-108929540D03*
X133302000Y-108929540D03*
X132032000Y-108929540D03*
D18*
X135842000Y-98327580D03*
D17*
X151590000Y-108929540D03*
X150320000Y-108929540D03*
X149050000Y-108929540D03*
X146510000Y-108929540D03*
X145240000Y-108929540D03*
X143970000Y-108929540D03*
D18*
X147780000Y-98327580D03*
D17*
X163528000Y-108929540D03*
X162258000Y-108929540D03*
X160988000Y-108929540D03*
X158448000Y-108929540D03*
X157178000Y-108929540D03*
X155908000Y-108929540D03*
D18*
X159718000Y-98327580D03*
D19*
X126790000Y-94015000D03*
X126790000Y-91115000D03*
X124465000Y-91115000D03*
X124465000Y-94015000D03*
M02*
