M48
;DRILL file {KiCad (2017-08-25 revision dd37d0595)-makepkg} date 05/19/18 22:22:19
;FORMAT={-:-/ absolute / inch / decimal}
FMAT,2
INCH,TZ
T1C0.011
T2C0.015
T3C0.030
T4C0.039
%
G90
G05
M72
T1
X5.3579Y-3.5665
X6.1453Y-3.665
X5.6728Y-3.5665
X6.4602Y-3.5665
X6.3028Y-3.665
X5.3579Y-3.665
X5.2004Y-3.665
X6.7752Y-3.665
X5.2004Y-3.5665
X5.5154Y-3.665
X5.8303Y-3.665
X6.6177Y-3.5665
X6.6177Y-3.665
X5.9878Y-3.665
X5.5154Y-3.5665
X6.4602Y-3.665
X5.6728Y-3.665
X5.9878Y-3.5665
X6.3028Y-3.5665
X6.9327Y-3.5665
X6.9327Y-3.665
X5.8303Y-3.5665
X6.1453Y-3.5665
X6.7752Y-3.5665
T2
X4.6731Y-4.4305
X4.6731Y-4.4698
X4.6731Y-4.5092
X4.6731Y-4.5486
X4.6731Y-4.5879
X4.7125Y-4.4305
X4.7125Y-4.4698
X4.7125Y-4.5092
X4.7125Y-4.5486
X4.7125Y-4.5879
X4.7519Y-4.4305
X4.7519Y-4.4698
X4.7519Y-4.5092
X4.7519Y-4.5486
X4.7519Y-4.5879
X4.7912Y-4.4305
X4.7912Y-4.4698
X4.7912Y-4.5092
X4.7912Y-4.5486
X4.7912Y-4.5879
X4.8306Y-4.4305
X4.8306Y-4.4698
X4.8306Y-4.5092
X4.8306Y-4.5486
X4.8306Y-4.5879
X4.972Y-3.7762
X5.0026Y-4.0744
X5.1187Y-3.5557
X5.2481Y-3.7712
X5.2481Y-3.8105
X5.2481Y-3.8499
X5.2481Y-3.8893
X5.2481Y-3.9286
X5.2481Y-3.968
X5.2481Y-4.4135
X5.2481Y-4.4528
X5.2481Y-4.4925
X5.2481Y-4.5315
X5.2481Y-4.5715
X5.2481Y-4.6103
X5.2871Y-4.4135
X5.2871Y-4.4528
X5.2871Y-4.6103
X5.2875Y-3.7712
X5.2875Y-3.8105
X5.2875Y-3.8499
X5.2875Y-3.8893
X5.2875Y-3.9286
X5.2875Y-3.968
X5.2875Y-4.4922
X5.2875Y-4.5315
X5.2875Y-4.5709
X5.3269Y-3.7712
X5.3269Y-3.8105
X5.3269Y-3.8499
X5.3269Y-3.8893
X5.3269Y-3.9286
X5.3269Y-3.968
X5.3269Y-4.5316
X5.3271Y-4.4135
X5.3271Y-4.4528
X5.3271Y-4.4922
X5.3271Y-4.5709
X5.3271Y-4.6103
X5.3661Y-4.4135
X5.3661Y-4.4528
X5.3661Y-4.5709
X5.3661Y-4.6103
X5.3662Y-3.7712
X5.3662Y-3.8105
X5.3662Y-3.8499
X5.3662Y-3.8893
X5.3662Y-3.9286
X5.3662Y-3.968
X5.3662Y-4.4922
X5.3662Y-4.5316
X5.4051Y-4.4135
X5.4051Y-4.6103
X5.4056Y-3.7712
X5.4056Y-3.8105
X5.4056Y-3.8499
X5.4056Y-3.8893
X5.4056Y-3.9286
X5.4056Y-3.968
X5.4056Y-4.4528
X5.4056Y-4.4925
X5.4056Y-4.5315
X5.4056Y-4.5709
X5.445Y-3.7712
X5.445Y-3.8105
X5.445Y-3.8499
X5.445Y-3.8893
X5.445Y-3.9286
X5.445Y-3.968
X5.445Y-4.4135
X5.445Y-4.4525
X5.445Y-4.4925
X5.445Y-4.5315
X5.445Y-4.5705
X5.445Y-4.6103
X5.7181Y-3.7712
X5.7181Y-3.8105
X5.7181Y-3.8499
X5.7181Y-3.8893
X5.7181Y-3.9286
X5.7181Y-3.968
X5.7281Y-4.4135
X5.7281Y-4.4528
X5.7281Y-4.4925
X5.7281Y-4.5315
X5.7281Y-4.5715
X5.7281Y-4.6103
X5.7575Y-3.7712
X5.7575Y-3.8105
X5.7575Y-3.8499
X5.7575Y-3.8893
X5.7575Y-3.9286
X5.7575Y-3.968
X5.7671Y-4.6103
X5.7675Y-4.4922
X5.7675Y-4.5315
X5.7675Y-4.5709
X5.7681Y-4.4135
X5.7681Y-4.4528
X5.7969Y-3.7712
X5.7969Y-3.8105
X5.7969Y-3.8499
X5.7969Y-3.8893
X5.7969Y-3.9286
X5.7969Y-3.968
X5.8069Y-4.5316
X5.8071Y-4.4135
X5.8071Y-4.4528
X5.8071Y-4.4922
X5.8071Y-4.5709
X5.8071Y-4.6103
X5.8362Y-3.7712
X5.8362Y-3.8105
X5.8362Y-3.8499
X5.8362Y-3.8893
X5.8362Y-3.9286
X5.8362Y-3.968
X5.8461Y-4.4135
X5.8461Y-4.4528
X5.8461Y-4.5709
X5.8461Y-4.6103
X5.8462Y-4.4922
X5.8462Y-4.5316
X5.8756Y-3.7712
X5.8756Y-3.8105
X5.8756Y-3.8499
X5.8756Y-3.8893
X5.8756Y-3.9286
X5.8756Y-3.968
X5.8851Y-4.4135
X5.8851Y-4.6103
X5.8856Y-4.4528
X5.8856Y-4.4925
X5.8856Y-4.5315
X5.8856Y-4.5709
X5.915Y-3.7712
X5.915Y-3.8105
X5.915Y-3.8499
X5.915Y-3.8893
X5.915Y-3.9286
X5.915Y-3.968
X5.925Y-4.4135
X5.925Y-4.4525
X5.925Y-4.4925
X5.925Y-4.5315
X5.925Y-4.5715
X5.925Y-4.6103
X6.1881Y-3.7712
X6.1881Y-3.8105
X6.1881Y-3.8499
X6.1881Y-3.8893
X6.1881Y-3.9286
X6.1881Y-3.968
X6.1931Y-4.4135
X6.1931Y-4.4528
X6.1931Y-4.4925
X6.1931Y-4.5315
X6.1931Y-4.5715
X6.1931Y-4.6103
X6.2275Y-3.7712
X6.2275Y-3.8105
X6.2275Y-3.8499
X6.2275Y-3.8893
X6.2275Y-3.9286
X6.2275Y-3.968
X6.2321Y-4.4135
X6.2321Y-4.4528
X6.2321Y-4.6103
X6.2325Y-4.4922
X6.2325Y-4.5315
X6.2325Y-4.5709
X6.2669Y-3.7712
X6.2669Y-3.8105
X6.2669Y-3.8499
X6.2669Y-3.8893
X6.2669Y-3.9286
X6.2669Y-3.968
X6.2719Y-4.5316
X6.2721Y-4.4135
X6.2721Y-4.4528
X6.2721Y-4.4922
X6.2721Y-4.5709
X6.2721Y-4.6103
X6.3062Y-3.7712
X6.3062Y-3.8105
X6.3062Y-3.8499
X6.3062Y-3.8893
X6.3062Y-3.9286
X6.3062Y-3.968
X6.3111Y-4.4135
X6.3111Y-4.4528
X6.3111Y-4.5709
X6.3111Y-4.6103
X6.3112Y-4.4922
X6.3112Y-4.5316
X6.3456Y-3.7712
X6.3456Y-3.8105
X6.3456Y-3.8499
X6.3456Y-3.8893
X6.3456Y-3.9286
X6.3456Y-3.968
X6.3506Y-4.4528
X6.3506Y-4.4925
X6.3506Y-4.5315
X6.3506Y-4.5709
X6.3506Y-4.4135
X6.3511Y-4.6103
X6.385Y-3.7712
X6.385Y-3.8105
X6.385Y-3.8499
X6.385Y-3.8893
X6.385Y-3.9286
X6.385Y-3.968
X6.39Y-4.4135
X6.39Y-4.4525
X6.39Y-4.4925
X6.39Y-4.5315
X6.39Y-4.5705
X6.39Y-4.6103
X6.7991Y-4.4295
X6.7991Y-4.4688
X6.7991Y-4.5082
X6.7991Y-4.5476
X6.7991Y-4.5869
X6.8385Y-4.4295
X6.8385Y-4.4688
X6.8385Y-4.5082
X6.8385Y-4.5476
X6.8385Y-4.5869
X6.8779Y-4.4295
X6.8779Y-4.4688
X6.8779Y-4.5082
X6.8779Y-4.5476
X6.8779Y-4.5869
X6.9172Y-4.4295
X6.9172Y-4.4688
X6.9172Y-4.5082
X6.9172Y-4.5476
X6.9172Y-4.5869
X6.9566Y-4.4295
X6.9566Y-4.4688
X6.9566Y-4.5082
X6.9566Y-4.5476
X6.9566Y-4.5869
T3
X4.689Y-3.7795
X4.689Y-3.8583
X4.689Y-3.937
X4.689Y-4.0157
T4
X4.689Y-3.5878
T0
M30
