M48
;DRILL file {KiCad 4.0.2-stable} date 9/23/2016 4:14:53 PM
;FORMAT={-:-/ absolute / inch / decimal}
FMAT,2
INCH,TZ
T1C0.016
T2C0.039
T3C0.063
%
G90
G05
M72
T1
X7.205Y-2.028
X7.205Y-2.0674
X7.205Y-2.1067
X7.205Y-2.1461
X7.205Y-2.1855
X7.205Y-3.297
X7.205Y-3.3364
X7.205Y-3.3757
X7.205Y-3.4151
X7.205Y-3.4545
X7.2444Y-2.028
X7.2444Y-2.0674
X7.2444Y-2.1067
X7.2444Y-2.1461
X7.2444Y-2.1855
X7.2444Y-3.297
X7.2444Y-3.3364
X7.2444Y-3.3757
X7.2444Y-3.4151
X7.2444Y-3.4545
X7.2837Y-2.028
X7.2837Y-2.0674
X7.2837Y-2.1067
X7.2837Y-2.1461
X7.2837Y-2.1855
X7.2837Y-3.297
X7.2837Y-3.3364
X7.2837Y-3.3757
X7.2837Y-3.4151
X7.2837Y-3.4545
X7.3231Y-2.028
X7.3231Y-2.0674
X7.3231Y-2.1067
X7.3231Y-2.1461
X7.3231Y-2.1855
X7.3231Y-3.297
X7.3231Y-3.3364
X7.3231Y-3.3757
X7.3231Y-3.4151
X7.3231Y-3.4545
X7.3625Y-2.028
X7.3625Y-2.0674
X7.3625Y-2.1067
X7.3625Y-2.1461
X7.3625Y-2.1855
X7.3625Y-3.297
X7.3625Y-3.3364
X7.3625Y-3.3757
X7.3625Y-3.4151
X7.3625Y-3.4545
X7.39Y-2.71
X7.405Y-2.97
X7.78Y-2.6377
X7.78Y-2.6771
X7.78Y-2.7164
X7.78Y-2.7558
X7.78Y-2.7952
X7.78Y-2.8346
X7.78Y-3.28
X7.78Y-3.3194
X7.78Y-3.359
X7.78Y-3.398
X7.78Y-3.438
X7.78Y-3.4769
X7.819Y-3.28
X7.819Y-3.3194
X7.819Y-3.4769
X7.8194Y-2.6377
X7.8194Y-2.6771
X7.8194Y-2.7164
X7.8194Y-2.7558
X7.8194Y-2.7952
X7.8194Y-2.8346
X7.8194Y-3.3587
X7.8194Y-3.398
X7.8194Y-3.4375
X7.8587Y-2.6377
X7.8587Y-2.6771
X7.8587Y-2.7164
X7.8587Y-2.7558
X7.8587Y-2.7952
X7.8587Y-2.8346
X7.8587Y-3.3981
X7.859Y-3.28
X7.859Y-3.3194
X7.859Y-3.3587
X7.859Y-3.4375
X7.859Y-3.4769
X7.898Y-3.28
X7.898Y-3.3194
X7.898Y-3.4375
X7.898Y-3.4769
X7.8981Y-2.6377
X7.8981Y-2.6771
X7.8981Y-2.7164
X7.8981Y-2.7558
X7.8981Y-2.7952
X7.8981Y-2.8346
X7.8981Y-3.3587
X7.8981Y-3.3981
X7.937Y-3.28
X7.937Y-3.4769
X7.9375Y-2.6377
X7.9375Y-2.6771
X7.9375Y-2.7164
X7.9375Y-2.7558
X7.9375Y-2.7952
X7.9375Y-2.8346
X7.9375Y-3.3194
X7.9375Y-3.359
X7.9375Y-3.398
X7.9375Y-3.4375
X7.9769Y-2.6377
X7.9769Y-2.6771
X7.9769Y-2.7164
X7.9769Y-2.7558
X7.9769Y-2.7952
X7.9769Y-2.8346
X7.9769Y-3.28
X7.9769Y-3.319
X7.9769Y-3.359
X7.9769Y-3.398
X7.9769Y-3.437
X7.9769Y-3.4769
X8.25Y-2.6377
X8.25Y-2.6771
X8.25Y-2.7164
X8.25Y-2.7558
X8.25Y-2.7952
X8.25Y-2.8346
X8.26Y-3.28
X8.26Y-3.3194
X8.26Y-3.359
X8.26Y-3.398
X8.26Y-3.438
X8.26Y-3.4769
X8.2894Y-2.6377
X8.2894Y-2.6771
X8.2894Y-2.7164
X8.2894Y-2.7558
X8.2894Y-2.7952
X8.2894Y-2.8346
X8.299Y-3.4769
X8.2994Y-3.3587
X8.2994Y-3.398
X8.2994Y-3.4375
X8.3Y-3.28
X8.3Y-3.3194
X8.3287Y-2.6377
X8.3287Y-2.6771
X8.3287Y-2.7164
X8.3287Y-2.7558
X8.3287Y-2.7952
X8.3287Y-2.8346
X8.3387Y-3.3981
X8.339Y-3.28
X8.339Y-3.3194
X8.339Y-3.3587
X8.339Y-3.4375
X8.339Y-3.4769
X8.3681Y-2.6377
X8.3681Y-2.6771
X8.3681Y-2.7164
X8.3681Y-2.7558
X8.3681Y-2.7952
X8.3681Y-2.8346
X8.378Y-3.28
X8.378Y-3.3194
X8.378Y-3.4375
X8.378Y-3.4769
X8.3781Y-3.3587
X8.3781Y-3.3981
X8.4075Y-2.6377
X8.4075Y-2.6771
X8.4075Y-2.7164
X8.4075Y-2.7558
X8.4075Y-2.7952
X8.4075Y-2.8346
X8.417Y-3.28
X8.417Y-3.4769
X8.4175Y-3.3194
X8.4175Y-3.359
X8.4175Y-3.398
X8.4175Y-3.4375
X8.4469Y-2.6377
X8.4469Y-2.6771
X8.4469Y-2.7164
X8.4469Y-2.7558
X8.4469Y-2.7952
X8.4469Y-2.8346
X8.4569Y-3.28
X8.4569Y-3.319
X8.4569Y-3.359
X8.4569Y-3.398
X8.4569Y-3.438
X8.4569Y-3.4769
X8.72Y-2.6377
X8.72Y-2.6771
X8.72Y-2.7164
X8.72Y-2.7558
X8.72Y-2.7952
X8.72Y-2.8346
X8.725Y-3.28
X8.725Y-3.3194
X8.725Y-3.359
X8.725Y-3.398
X8.725Y-3.438
X8.725Y-3.4769
X8.7594Y-2.6377
X8.7594Y-2.6771
X8.7594Y-2.7164
X8.7594Y-2.7558
X8.7594Y-2.7952
X8.7594Y-2.8346
X8.764Y-3.28
X8.764Y-3.3194
X8.764Y-3.4769
X8.7644Y-3.3587
X8.7644Y-3.398
X8.7644Y-3.4375
X8.7987Y-2.6377
X8.7987Y-2.6771
X8.7987Y-2.7164
X8.7987Y-2.7558
X8.7987Y-2.7952
X8.7987Y-2.8346
X8.8037Y-3.3981
X8.804Y-3.28
X8.804Y-3.3194
X8.804Y-3.3587
X8.804Y-3.4375
X8.804Y-3.4769
X8.8381Y-2.6377
X8.8381Y-2.6771
X8.8381Y-2.7164
X8.8381Y-2.7558
X8.8381Y-2.7952
X8.8381Y-2.8346
X8.843Y-3.28
X8.843Y-3.3194
X8.843Y-3.4375
X8.843Y-3.4769
X8.8431Y-3.3587
X8.8431Y-3.3981
X8.8775Y-2.6377
X8.8775Y-2.6771
X8.8775Y-2.7164
X8.8775Y-2.7558
X8.8775Y-2.7952
X8.8775Y-2.8346
X8.8825Y-3.3194
X8.8825Y-3.359
X8.8825Y-3.398
X8.8825Y-3.4375
X8.8825Y-3.28
X8.883Y-3.4769
X8.9169Y-2.6377
X8.9169Y-2.6771
X8.9169Y-2.7164
X8.9169Y-2.7558
X8.9169Y-2.7952
X8.9169Y-2.8346
X8.9219Y-3.28
X8.9219Y-3.319
X8.9219Y-3.359
X8.9219Y-3.398
X8.9219Y-3.437
X8.9219Y-3.4769
X9.331Y-2.027
X9.331Y-2.0664
X9.331Y-2.1057
X9.331Y-2.1451
X9.331Y-2.1845
X9.331Y-3.296
X9.331Y-3.3354
X9.331Y-3.3747
X9.331Y-3.4141
X9.331Y-3.4535
X9.3704Y-2.027
X9.3704Y-2.0664
X9.3704Y-2.1057
X9.3704Y-2.1451
X9.3704Y-2.1845
X9.3704Y-3.296
X9.3704Y-3.3354
X9.3704Y-3.3747
X9.3704Y-3.4141
X9.3704Y-3.4535
X9.4097Y-2.027
X9.4097Y-2.0664
X9.4097Y-2.1057
X9.4097Y-2.1451
X9.4097Y-2.1845
X9.4097Y-3.296
X9.4097Y-3.3354
X9.4097Y-3.3747
X9.4097Y-3.4141
X9.4097Y-3.4535
X9.4491Y-2.027
X9.4491Y-2.0664
X9.4491Y-2.1057
X9.4491Y-2.1451
X9.4491Y-2.1845
X9.4491Y-3.296
X9.4491Y-3.3354
X9.4491Y-3.3747
X9.4491Y-3.4141
X9.4491Y-3.4535
X9.4885Y-2.027
X9.4885Y-2.0664
X9.4885Y-2.1057
X9.4885Y-2.1451
X9.4885Y-2.1845
X9.4885Y-3.296
X9.4885Y-3.3354
X9.4885Y-3.3747
X9.4885Y-3.4141
X9.4885Y-3.4535
T2
X7.219Y-2.47
X7.219Y-2.57
X7.219Y-2.67
X7.219Y-2.789
X7.219Y-2.889
T3
X7.6059Y-1.976G85X7.6059Y-1.976
G05
X7.6059Y-2.076G85X7.6059Y-2.076
G05
X7.6059Y-2.176G85X7.6059Y-2.176
G05
X7.6059Y-2.276G85X7.6059Y-2.276
G05
X7.7059Y-1.976G85X7.7059Y-1.976
G05
X7.7059Y-2.276G85X7.7059Y-2.276
G05
X7.8059Y-1.976G85X7.8059Y-1.976
G05
X7.8059Y-2.276G85X7.8059Y-2.276
G05
X7.9059Y-1.976G85X7.9059Y-1.976
G05
X7.9059Y-2.076G85X7.9059Y-2.076
G05
X7.9059Y-2.176G85X7.9059Y-2.176
G05
X7.9059Y-2.276G85X7.9059Y-2.276
G05
X8.787Y-1.976G85X8.787Y-1.976
G05
X8.787Y-2.076G85X8.787Y-2.076
G05
X8.787Y-2.176G85X8.787Y-2.176
G05
X8.787Y-2.276G85X8.787Y-2.276
G05
X8.887Y-1.976G85X8.887Y-1.976
G05
X8.887Y-2.276G85X8.887Y-2.276
G05
X8.987Y-1.976G85X8.987Y-1.976
G05
X8.987Y-2.276G85X8.987Y-2.276
G05
X9.087Y-1.976G85X9.087Y-1.976
G05
X9.087Y-2.076G85X9.087Y-2.076
G05
X9.087Y-2.176G85X9.087Y-2.176
G05
X9.087Y-2.276G85X9.087Y-2.276
G05
T0
M30
